%TF.GenerationSoftware,KiCad,Pcbnew,6.0.11-2627ca5db0~126~ubuntu22.04.1*%
%TF.CreationDate,2023-06-16T17:25:28+02:00*%
%TF.ProjectId,asac-esc-rev-a,61736163-2d65-4736-932d-7265762d612e,rev?*%
%TF.SameCoordinates,Original*%
%TF.FileFunction,Copper,L2,Bot*%
%TF.FilePolarity,Positive*%
%FSLAX46Y46*%
G04 Gerber Fmt 4.6, Leading zero omitted, Abs format (unit mm)*
G04 Created by KiCad (PCBNEW 6.0.11-2627ca5db0~126~ubuntu22.04.1) date 2023-06-16 17:25:28*
%MOMM*%
%LPD*%
G01*
G04 APERTURE LIST*
G04 Aperture macros list*
%AMRoundRect*
0 Rectangle with rounded corners*
0 $1 Rounding radius*
0 $2 $3 $4 $5 $6 $7 $8 $9 X,Y pos of 4 corners*
0 Add a 4 corners polygon primitive as box body*
4,1,4,$2,$3,$4,$5,$6,$7,$8,$9,$2,$3,0*
0 Add four circle primitives for the rounded corners*
1,1,$1+$1,$2,$3*
1,1,$1+$1,$4,$5*
1,1,$1+$1,$6,$7*
1,1,$1+$1,$8,$9*
0 Add four rect primitives between the rounded corners*
20,1,$1+$1,$2,$3,$4,$5,0*
20,1,$1+$1,$4,$5,$6,$7,0*
20,1,$1+$1,$6,$7,$8,$9,0*
20,1,$1+$1,$8,$9,$2,$3,0*%
%AMRotRect*
0 Rectangle, with rotation*
0 The origin of the aperture is its center*
0 $1 length*
0 $2 width*
0 $3 Rotation angle, in degrees counterclockwise*
0 Add horizontal line*
21,1,$1,$2,0,0,$3*%
G04 Aperture macros list end*
%TA.AperFunction,SMDPad,CuDef*%
%ADD10R,1.500000X2.000000*%
%TD*%
%TA.AperFunction,SMDPad,CuDef*%
%ADD11R,3.800000X2.000000*%
%TD*%
%TA.AperFunction,ComponentPad*%
%ADD12RotRect,1.700000X1.700000X135.000000*%
%TD*%
%TA.AperFunction,ComponentPad*%
%ADD13RotRect,1.700000X1.700000X225.000000*%
%TD*%
%TA.AperFunction,ComponentPad*%
%ADD14R,0.750000X0.750000*%
%TD*%
%TA.AperFunction,ComponentPad*%
%ADD15R,1.700000X1.700000*%
%TD*%
%TA.AperFunction,ComponentPad*%
%ADD16O,1.700000X1.700000*%
%TD*%
%TA.AperFunction,SMDPad,CuDef*%
%ADD17RoundRect,0.250000X0.250000X0.475000X-0.250000X0.475000X-0.250000X-0.475000X0.250000X-0.475000X0*%
%TD*%
%TA.AperFunction,SMDPad,CuDef*%
%ADD18RoundRect,0.140000X0.170000X-0.140000X0.170000X0.140000X-0.170000X0.140000X-0.170000X-0.140000X0*%
%TD*%
%TA.AperFunction,SMDPad,CuDef*%
%ADD19RoundRect,0.135000X-0.135000X-0.185000X0.135000X-0.185000X0.135000X0.185000X-0.135000X0.185000X0*%
%TD*%
%TA.AperFunction,SMDPad,CuDef*%
%ADD20RoundRect,0.150000X-0.512500X-0.150000X0.512500X-0.150000X0.512500X0.150000X-0.512500X0.150000X0*%
%TD*%
%TA.AperFunction,SMDPad,CuDef*%
%ADD21RoundRect,0.250000X-1.425000X0.362500X-1.425000X-0.362500X1.425000X-0.362500X1.425000X0.362500X0*%
%TD*%
%TA.AperFunction,SMDPad,CuDef*%
%ADD22RoundRect,0.250000X0.475000X-0.250000X0.475000X0.250000X-0.475000X0.250000X-0.475000X-0.250000X0*%
%TD*%
%TA.AperFunction,SMDPad,CuDef*%
%ADD23RoundRect,0.140000X0.140000X0.170000X-0.140000X0.170000X-0.140000X-0.170000X0.140000X-0.170000X0*%
%TD*%
%TA.AperFunction,ViaPad*%
%ADD24C,0.800000*%
%TD*%
%TA.AperFunction,ViaPad*%
%ADD25C,1.000000*%
%TD*%
%TA.AperFunction,Conductor*%
%ADD26C,0.355600*%
%TD*%
%TA.AperFunction,Conductor*%
%ADD27C,0.508000*%
%TD*%
%TA.AperFunction,Conductor*%
%ADD28C,0.431800*%
%TD*%
%TA.AperFunction,Conductor*%
%ADD29C,1.016000*%
%TD*%
G04 APERTURE END LIST*
D10*
%TO.P,U1,3,VI*%
%TO.N,VCC*%
X103375000Y-93350000D03*
D11*
%TO.P,U1,2,VO*%
%TO.N,+3.3V*%
X105675000Y-87050000D03*
D10*
%TO.P,U1,*%
%TO.N,*%
X105675000Y-93350000D03*
%TO.P,U1,1,GND*%
%TO.N,GND*%
X107975000Y-93350000D03*
%TD*%
D12*
%TO.P,J4,1,Pin_1*%
%TO.N,UART_TX*%
X113870000Y-96280000D03*
%TO.P,J4,2,Pin_2*%
%TO.N,GND*%
X115666051Y-94483949D03*
%TD*%
D13*
%TO.P,J1,2,Pin_2*%
%TO.N,GND*%
X95303949Y-94483949D03*
%TO.P,J1,1,Pin_1*%
%TO.N,~{NRST}*%
X97100000Y-96280000D03*
%TD*%
D14*
%TO.P,J2,1,Pin_1*%
%TO.N,VCC*%
X101250000Y-96200000D03*
X101250000Y-95450000D03*
X102750000Y-96200000D03*
X102000000Y-95450000D03*
X102000000Y-96200000D03*
X101250000Y-96950000D03*
X102750000Y-97700000D03*
X100500000Y-96950000D03*
X102000000Y-97700000D03*
X100500000Y-95450000D03*
X100500000Y-97700000D03*
X102750000Y-95450000D03*
X102750000Y-96950000D03*
X102000000Y-96950000D03*
X100500000Y-96200000D03*
X101250000Y-97700000D03*
%TO.P,J2,2,Pin_2*%
%TO.N,SIGNAL_IN*%
X106000000Y-97700000D03*
X106750000Y-97700000D03*
X106000000Y-96200000D03*
X106750000Y-96950000D03*
X106000000Y-96950000D03*
X105250000Y-96200000D03*
X105250000Y-96950000D03*
X106000000Y-95450000D03*
X104500000Y-96200000D03*
X104500000Y-96950000D03*
X104500000Y-95450000D03*
X106750000Y-95450000D03*
X104500000Y-97700000D03*
X105250000Y-95450000D03*
X106750000Y-96200000D03*
X105250000Y-97700000D03*
%TO.P,J2,3,Pin_3*%
%TO.N,GND*%
X109250000Y-95450000D03*
X110000000Y-96200000D03*
X109250000Y-96950000D03*
X108500000Y-96950000D03*
X110750000Y-97700000D03*
X108500000Y-95450000D03*
X109250000Y-96200000D03*
X110000000Y-97700000D03*
X108500000Y-97700000D03*
X108500000Y-96200000D03*
X110750000Y-96200000D03*
X110000000Y-96950000D03*
X110750000Y-95450000D03*
X110750000Y-96950000D03*
X110000000Y-95450000D03*
X109250000Y-97700000D03*
%TD*%
D15*
%TO.P,J14,1,Pin_1*%
%TO.N,SWCLK*%
X116850000Y-86850000D03*
D16*
%TO.P,J14,2,Pin_2*%
%TO.N,GND*%
X116850000Y-89390000D03*
%TO.P,J14,3,Pin_3*%
%TO.N,SWDIO*%
X116850000Y-91930000D03*
%TD*%
D14*
%TO.P,J3,1,Pin_1*%
%TO.N,A*%
X102750000Y-67600000D03*
X100500000Y-68350000D03*
X102000000Y-67600000D03*
X101250000Y-66850000D03*
X102000000Y-68350000D03*
X102000000Y-66850000D03*
X100500000Y-69100000D03*
X102750000Y-69100000D03*
X102750000Y-68350000D03*
X101250000Y-68350000D03*
X101250000Y-69100000D03*
X102000000Y-69100000D03*
X102750000Y-66850000D03*
X100500000Y-66850000D03*
X100500000Y-67600000D03*
X101250000Y-67600000D03*
%TO.P,J3,2,Pin_2*%
%TO.N,B*%
X106000000Y-67600000D03*
X105250000Y-69100000D03*
X106000000Y-69100000D03*
X104500000Y-68350000D03*
X106750000Y-67600000D03*
X106000000Y-68350000D03*
X104500000Y-67600000D03*
X104500000Y-66850000D03*
X105250000Y-66850000D03*
X106750000Y-66850000D03*
X106000000Y-66850000D03*
X104500000Y-69100000D03*
X105250000Y-68350000D03*
X106750000Y-68350000D03*
X105250000Y-67600000D03*
X106750000Y-69100000D03*
%TO.P,J3,3,Pin_3*%
%TO.N,C*%
X108500000Y-69100000D03*
X109250000Y-67600000D03*
X110000000Y-68350000D03*
X110750000Y-67600000D03*
X108500000Y-67600000D03*
X110750000Y-68350000D03*
X109250000Y-69100000D03*
X109250000Y-66850000D03*
X110000000Y-69100000D03*
X110750000Y-66850000D03*
X110750000Y-69100000D03*
X108500000Y-66850000D03*
X108500000Y-68350000D03*
X110000000Y-67600000D03*
X110000000Y-66850000D03*
X109250000Y-68350000D03*
%TD*%
D17*
%TO.P,C3,2*%
%TO.N,GND*%
X104375000Y-84600000D03*
%TO.P,C3,1*%
%TO.N,+3.3V*%
X106275000Y-84600000D03*
%TD*%
D18*
%TO.P,C10,1*%
%TO.N,+3.3V*%
X112625000Y-77005000D03*
%TO.P,C10,2*%
%TO.N,GND*%
X112625000Y-76045000D03*
%TD*%
D19*
%TO.P,R6,1*%
%TO.N,Net-(R6-Pad1)*%
X107890000Y-79000000D03*
%TO.P,R6,2*%
%TO.N,CURRSENSE*%
X108910000Y-79000000D03*
%TD*%
D20*
%TO.P,U5,1*%
%TO.N,Net-(R6-Pad1)*%
X107987500Y-77725000D03*
%TO.P,U5,2,GND*%
%TO.N,GND*%
X107987500Y-76775000D03*
%TO.P,U5,3,+*%
%TO.N,Net-(R5-Pad1)*%
X107987500Y-75825000D03*
%TO.P,U5,4,-*%
%TO.N,GND*%
X110262500Y-75825000D03*
%TO.P,U5,5,V+*%
%TO.N,+3.3V*%
X110262500Y-77725000D03*
%TD*%
D21*
%TO.P,R5,1*%
%TO.N,Net-(R5-Pad1)*%
X105125000Y-76762500D03*
%TO.P,R5,2*%
%TO.N,GND*%
X105125000Y-82687500D03*
%TD*%
D22*
%TO.P,C1,2*%
%TO.N,GND*%
X100550000Y-91500000D03*
%TO.P,C1,1*%
%TO.N,VCC*%
X100550000Y-93400000D03*
%TD*%
D23*
%TO.P,C11,1*%
%TO.N,CURRSENSE*%
X108880000Y-80100000D03*
%TO.P,C11,2*%
%TO.N,GND*%
X107920000Y-80100000D03*
%TD*%
D24*
%TO.N,GND*%
X96025000Y-90875000D03*
X95500000Y-87400000D03*
X95500000Y-88600000D03*
X95500000Y-89800000D03*
X100300000Y-90047700D03*
X99100000Y-89300000D03*
%TO.N,C*%
X117475000Y-73450000D03*
%TO.N,B*%
X109397700Y-73450000D03*
%TO.N,A*%
X101572700Y-73450000D03*
%TO.N,+3.3V*%
X108775000Y-86000000D03*
X112825000Y-86022700D03*
%TO.N,GND*%
X108575000Y-81325000D03*
X100900000Y-82225000D03*
%TO.N,SWDIO*%
X113500000Y-88950000D03*
%TO.N,~{NRST}*%
X98925000Y-93900000D03*
X99250000Y-90350000D03*
D25*
%TO.N,+3.3V*%
X100300000Y-86025000D03*
%TO.N,VCC*%
X94250000Y-72400000D03*
X94250000Y-71137500D03*
D24*
%TO.N,SWCLK*%
X113460000Y-87740000D03*
%TO.N,CURRSENSE*%
X110162213Y-89727206D03*
%TO.N,VSENSE_C*%
X110175000Y-91400000D03*
%TO.N,VSENSE_B*%
X106587135Y-88837135D03*
X104325000Y-78000000D03*
%TO.N,VSENSE_C*%
X112300000Y-78025000D03*
%TO.N,VSENSE_A*%
X106450365Y-91499635D03*
D25*
%TO.N,VCC*%
X101900000Y-72400000D03*
X101900000Y-71137500D03*
X110175000Y-72400000D03*
X110175000Y-71075000D03*
D24*
%TO.N,VSENSE_A*%
X96175000Y-77925000D03*
%TO.N,B*%
X105175000Y-81100000D03*
%TO.N,VCC*%
X94250000Y-82850000D03*
%TO.N,GND*%
X104275000Y-79275000D03*
X95300000Y-75400000D03*
X103435000Y-75400000D03*
X112330500Y-79175000D03*
X104000000Y-72900000D03*
X95400000Y-86100000D03*
X103100000Y-86071500D03*
X112335000Y-72900000D03*
X96195500Y-79100000D03*
X96200000Y-72900000D03*
X111435000Y-75400000D03*
%TO.N,A*%
X97800000Y-74700000D03*
X100825000Y-81000000D03*
%TO.N,Net-(R5-Pad1)*%
X116285000Y-74619504D03*
X100150000Y-74619504D03*
X107950000Y-74619504D03*
%TO.N,B*%
X105600000Y-74700000D03*
%TO.N,C*%
X115735000Y-80900000D03*
X113935000Y-74700000D03*
%TD*%
D26*
%TO.N,~{NRST}*%
X99250000Y-90350000D02*
X98950000Y-90650000D01*
X98950000Y-90650000D02*
X98950000Y-93875000D01*
X98950000Y-93875000D02*
X98925000Y-93900000D01*
D27*
%TO.N,+3.3V*%
X100300000Y-86025000D02*
X101200000Y-86925000D01*
X101200000Y-86925000D02*
X105525000Y-86925000D01*
D26*
%TO.N,Net-(R5-Pad1)*%
X116285000Y-74619504D02*
X114540496Y-72875000D01*
X111934976Y-74400000D02*
X108169504Y-74400000D01*
X108169504Y-74400000D02*
X107950000Y-74619504D01*
X114540496Y-72875000D02*
X113459976Y-72875000D01*
X113459976Y-72875000D02*
X111934976Y-74400000D01*
%TO.N,+3.3V*%
X108775000Y-86000000D02*
X108775000Y-88310737D01*
X108775000Y-88310737D02*
X107285737Y-89800000D01*
X105675000Y-87075000D02*
X105525000Y-86925000D01*
X107285737Y-89800000D02*
X106250000Y-89800000D01*
X106250000Y-89800000D02*
X105675000Y-89225000D01*
X105675000Y-89225000D02*
X105675000Y-87075000D01*
D28*
%TO.N,B*%
X105175000Y-81100000D02*
X103150000Y-81100000D01*
X99100000Y-74150000D02*
X99650000Y-73600000D01*
X103150000Y-81100000D02*
X101418700Y-79368700D01*
X101400000Y-74550000D02*
X105450000Y-74550000D01*
X105450000Y-74550000D02*
X105600000Y-74700000D01*
X101418700Y-79368700D02*
X101418700Y-77368700D01*
X101418700Y-77368700D02*
X99100000Y-75050000D01*
X99100000Y-75050000D02*
X99100000Y-74150000D01*
X99650000Y-73600000D02*
X100450000Y-73600000D01*
X100450000Y-73600000D02*
X101400000Y-74550000D01*
D26*
%TO.N,A*%
X100825000Y-81000000D02*
X100825000Y-77775000D01*
X100825000Y-77775000D02*
X97800000Y-74750000D01*
X97800000Y-74750000D02*
X97800000Y-74700000D01*
%TO.N,VSENSE_A*%
X106450365Y-91499635D02*
X103949635Y-91499635D01*
X103949635Y-91499635D02*
X100675000Y-88225000D01*
X100675000Y-88225000D02*
X99600000Y-88225000D01*
X99600000Y-88225000D02*
X98100000Y-86725000D01*
X98100000Y-86725000D02*
X98100000Y-79850000D01*
X98100000Y-79850000D02*
X96175000Y-77925000D01*
%TO.N,VSENSE_B*%
X107997200Y-88302800D02*
X107997200Y-81847176D01*
X107997200Y-81847176D02*
X104325000Y-78174976D01*
X106587135Y-88837135D02*
X107462865Y-88837135D01*
X107462865Y-88837135D02*
X107997200Y-88302800D01*
X104325000Y-78174976D02*
X104325000Y-78000000D01*
%TO.N,SWCLK*%
X116740000Y-86960000D02*
X116850000Y-86850000D01*
X113610000Y-87740000D02*
X114390000Y-86960000D01*
X114390000Y-86960000D02*
X116740000Y-86960000D01*
%TO.N,GND*%
X104275000Y-79275000D02*
X104639286Y-79275000D01*
X104639286Y-79275000D02*
X106050000Y-80685714D01*
X106050000Y-80685714D02*
X106050000Y-81762500D01*
X106050000Y-81762500D02*
X105125000Y-82687500D01*
D27*
%TO.N,VCC*%
X100550000Y-93400000D02*
X100725000Y-93225000D01*
X100725000Y-93225000D02*
X103225000Y-93225000D01*
D26*
%TO.N,SWDIO*%
X113500000Y-88950000D02*
X113500000Y-90600000D01*
X114830000Y-91930000D02*
X116850000Y-91930000D01*
X113500000Y-90600000D02*
X114830000Y-91930000D01*
%TO.N,CURRSENSE*%
X110162213Y-89727206D02*
X110569400Y-89320019D01*
X110569400Y-89320019D02*
X110569400Y-80919400D01*
X110569400Y-80919400D02*
X109750000Y-80100000D01*
X109750000Y-80100000D02*
X108880000Y-80100000D01*
%TO.N,VSENSE_C*%
X110175000Y-91400000D02*
X111125000Y-90450000D01*
X111125000Y-79200000D02*
X112300000Y-78025000D01*
X111125000Y-90450000D02*
X111125000Y-79200000D01*
D29*
%TO.N,VCC*%
X100500000Y-95450000D02*
X98475000Y-95450000D01*
X98475000Y-95450000D02*
X94250000Y-91225000D01*
X94250000Y-91225000D02*
X94250000Y-82850000D01*
D26*
%TO.N,B*%
X105600000Y-74700000D02*
X106750000Y-74700000D01*
X106750000Y-74700000D02*
X108125000Y-73325000D01*
X108125000Y-73325000D02*
X109397700Y-73325000D01*
D27*
%TO.N,C*%
X115735000Y-76500000D02*
X116600000Y-76500000D01*
X116600000Y-76500000D02*
X117475000Y-75625000D01*
X117475000Y-75625000D02*
X117475000Y-73225000D01*
D26*
%TO.N,+3.3V*%
X113200000Y-85647700D02*
X113200000Y-77100000D01*
X112825000Y-86022700D02*
X113200000Y-85647700D01*
X113200000Y-77100000D02*
X113125000Y-77025000D01*
X113125000Y-77025000D02*
X112645000Y-77025000D01*
X112645000Y-77025000D02*
X112625000Y-77005000D01*
%TO.N,A*%
X97800000Y-74350000D02*
X99250000Y-72900000D01*
X97800000Y-74700000D02*
X97800000Y-74350000D01*
X99250000Y-72900000D02*
X101022700Y-72900000D01*
X101022700Y-72900000D02*
X101572700Y-73450000D01*
D27*
%TO.N,+3.3V*%
X106275000Y-84600000D02*
X106275000Y-86175000D01*
X106275000Y-86175000D02*
X105525000Y-86925000D01*
D26*
%TO.N,Net-(R5-Pad1)*%
X105125000Y-76762500D02*
X106062500Y-75825000D01*
%TO.N,Net-(R6-Pad1)*%
X107942500Y-77725000D02*
X107987500Y-77725000D01*
X107890000Y-77777500D02*
X107942500Y-77725000D01*
X107825000Y-77887500D02*
X107825000Y-78935000D01*
X107987500Y-77725000D02*
X107825000Y-77887500D01*
X107825000Y-78935000D02*
X107890000Y-79000000D01*
%TO.N,Net-(R5-Pad1)*%
X106062500Y-75825000D02*
X107987500Y-75825000D01*
X107950000Y-74619504D02*
X107950000Y-75787500D01*
X107950000Y-75787500D02*
X107987500Y-75825000D01*
%TO.N,+3.3V*%
X110262500Y-77725000D02*
X110600000Y-77725000D01*
X110600000Y-77725000D02*
X111320000Y-77005000D01*
X111320000Y-77005000D02*
X112625000Y-77005000D01*
%TO.N,Net-(R5-Pad1)*%
X100150000Y-74619504D02*
X100150000Y-74650000D01*
X100150000Y-74650000D02*
X102262500Y-76762500D01*
X102262500Y-76762500D02*
X105125000Y-76762500D01*
D27*
%TO.N,GND*%
X107920000Y-80100000D02*
X107920000Y-80670000D01*
X107920000Y-80670000D02*
X108575000Y-81325000D01*
D29*
%TO.N,VCC*%
X94250000Y-82850000D02*
X94192000Y-82792000D01*
X94192000Y-82792000D02*
X94192000Y-71092000D01*
X94192000Y-71092000D02*
X94175000Y-71075000D01*
X94175000Y-71075000D02*
X110175000Y-71075000D01*
D27*
X103225000Y-93225000D02*
X102825000Y-93225000D01*
X102825000Y-93225000D02*
X100600000Y-95450000D01*
D29*
X101900000Y-72062500D02*
X101900000Y-72287500D01*
X101900000Y-71137500D02*
X101900000Y-72062500D01*
X110175000Y-72000000D02*
X110175000Y-72225000D01*
X110175000Y-71075000D02*
X110175000Y-72000000D01*
D27*
%TO.N,C*%
X115735000Y-80900000D02*
X115735000Y-76500000D01*
X115735000Y-76500000D02*
X113935000Y-74700000D01*
D26*
%TO.N,CURRSENSE*%
X108910000Y-79000000D02*
X108910000Y-80070000D01*
%TD*%
%TA.AperFunction,Conductor*%
%TO.N,GND*%
G36*
X101083621Y-71853502D02*
G01*
X101130114Y-71907158D01*
X101141500Y-71959500D01*
X101141500Y-72331793D01*
X101141924Y-72335427D01*
X101142055Y-72337687D01*
X101126037Y-72406853D01*
X101075169Y-72456380D01*
X101011322Y-72470898D01*
X100996380Y-72470311D01*
X100975170Y-72469478D01*
X100968340Y-72471289D01*
X100960868Y-72471700D01*
X99282898Y-72471700D01*
X99268089Y-72470827D01*
X99245748Y-72468183D01*
X99236395Y-72467076D01*
X99181603Y-72477082D01*
X99177728Y-72477727D01*
X99122640Y-72486010D01*
X99116454Y-72488980D01*
X99109699Y-72490214D01*
X99101345Y-72494554D01*
X99101344Y-72494554D01*
X99060271Y-72515890D01*
X99056730Y-72517659D01*
X99006540Y-72541760D01*
X99001498Y-72546421D01*
X98995409Y-72549584D01*
X98990612Y-72553681D01*
X98955293Y-72589000D01*
X98951727Y-72592429D01*
X98918879Y-72622793D01*
X98918877Y-72622795D01*
X98911966Y-72629184D01*
X98908417Y-72635294D01*
X98903419Y-72640873D01*
X97520409Y-74023883D01*
X97509320Y-74033738D01*
X97484256Y-74053497D01*
X97478902Y-74061244D01*
X97478900Y-74061246D01*
X97475243Y-74066538D01*
X97460241Y-74088245D01*
X97452592Y-74099312D01*
X97450321Y-74102491D01*
X97417208Y-74147322D01*
X97414934Y-74153797D01*
X97411030Y-74159446D01*
X97409458Y-74164417D01*
X97407188Y-74163216D01*
X97380353Y-74202807D01*
X97313034Y-74261533D01*
X97305033Y-74272917D01*
X97227159Y-74383721D01*
X97222501Y-74390348D01*
X97165309Y-74537039D01*
X97164318Y-74544568D01*
X97146855Y-74677211D01*
X97144758Y-74693138D01*
X97162035Y-74849633D01*
X97216143Y-74997490D01*
X97220380Y-75003796D01*
X97220382Y-75003799D01*
X97253834Y-75053580D01*
X97303958Y-75128172D01*
X97324552Y-75146911D01*
X97414510Y-75228766D01*
X97420410Y-75234135D01*
X97471156Y-75261688D01*
X97552099Y-75305637D01*
X97552101Y-75305638D01*
X97558776Y-75309262D01*
X97566125Y-75311190D01*
X97703718Y-75347287D01*
X97703722Y-75347288D01*
X97711069Y-75349215D01*
X97743795Y-75349729D01*
X97811592Y-75370798D01*
X97830910Y-75386618D01*
X100359795Y-77915503D01*
X100393821Y-77977815D01*
X100396700Y-78004598D01*
X100396700Y-80453066D01*
X100376698Y-80521187D01*
X100353529Y-80548015D01*
X100343760Y-80556537D01*
X100343756Y-80556541D01*
X100338034Y-80561533D01*
X100313521Y-80596412D01*
X100259752Y-80672917D01*
X100247501Y-80690348D01*
X100190309Y-80837039D01*
X100189318Y-80844568D01*
X100177203Y-80936591D01*
X100169758Y-80993138D01*
X100187035Y-81149633D01*
X100241143Y-81297490D01*
X100245380Y-81303796D01*
X100245382Y-81303799D01*
X100265194Y-81333282D01*
X100328958Y-81428172D01*
X100352076Y-81449208D01*
X100436923Y-81526412D01*
X100445410Y-81534135D01*
X100479153Y-81552456D01*
X100577099Y-81605637D01*
X100577101Y-81605638D01*
X100583776Y-81609262D01*
X100591125Y-81611190D01*
X100728719Y-81647287D01*
X100728721Y-81647287D01*
X100736069Y-81649215D01*
X100819380Y-81650524D01*
X100885898Y-81651569D01*
X100885901Y-81651569D01*
X100893495Y-81651688D01*
X101046968Y-81616538D01*
X101187625Y-81545795D01*
X101222439Y-81516061D01*
X101301574Y-81448474D01*
X101301576Y-81448471D01*
X101307348Y-81443542D01*
X101399224Y-81315683D01*
X101457950Y-81169598D01*
X101480134Y-81013723D01*
X101480278Y-81000000D01*
X101461363Y-80843694D01*
X101437478Y-80780484D01*
X101408394Y-80703514D01*
X101408393Y-80703511D01*
X101405710Y-80696412D01*
X101316531Y-80566657D01*
X101295481Y-80547902D01*
X101257925Y-80487652D01*
X101253300Y-80453826D01*
X101253300Y-80167080D01*
X101273302Y-80098959D01*
X101326958Y-80052466D01*
X101397232Y-80042362D01*
X101461812Y-80071856D01*
X101468395Y-80077985D01*
X102795343Y-81404933D01*
X102805198Y-81416022D01*
X102827121Y-81443831D01*
X102834868Y-81449185D01*
X102834872Y-81449189D01*
X102877158Y-81478415D01*
X102880352Y-81480696D01*
X102929292Y-81516844D01*
X102936346Y-81519321D01*
X102942495Y-81523571D01*
X102975897Y-81534135D01*
X103000499Y-81541916D01*
X103004250Y-81543168D01*
X103052732Y-81560193D01*
X103052737Y-81560194D01*
X103061619Y-81563313D01*
X103068867Y-81563597D01*
X103069367Y-81563695D01*
X103076215Y-81565861D01*
X103083064Y-81566400D01*
X103085533Y-81566400D01*
X103087348Y-81566471D01*
X103154633Y-81589127D01*
X103198987Y-81644563D01*
X103206330Y-81715178D01*
X103171584Y-81781392D01*
X103106261Y-81846829D01*
X103097249Y-81858240D01*
X103012184Y-81996243D01*
X103006037Y-82009424D01*
X102954862Y-82163710D01*
X102951995Y-82177086D01*
X102942328Y-82271438D01*
X102942000Y-82277855D01*
X102942000Y-82415385D01*
X102946475Y-82430624D01*
X102947865Y-82431829D01*
X102955548Y-82433500D01*
X107289884Y-82433500D01*
X107305123Y-82429025D01*
X107306328Y-82427635D01*
X107307999Y-82419952D01*
X107307999Y-82277905D01*
X107307662Y-82271386D01*
X107297743Y-82175794D01*
X107294851Y-82162400D01*
X107257665Y-82050939D01*
X107255081Y-81979989D01*
X107291265Y-81918906D01*
X107354729Y-81887081D01*
X107425324Y-81894620D01*
X107466284Y-81921968D01*
X107531995Y-81987679D01*
X107566021Y-82049991D01*
X107568900Y-82076774D01*
X107568900Y-85673500D01*
X107548898Y-85741621D01*
X107495242Y-85788114D01*
X107442900Y-85799500D01*
X106905500Y-85799500D01*
X106837379Y-85779498D01*
X106790886Y-85725842D01*
X106779500Y-85673500D01*
X106779500Y-85572802D01*
X106799502Y-85504681D01*
X106829935Y-85471976D01*
X106875365Y-85437928D01*
X106882546Y-85432546D01*
X106903219Y-85404962D01*
X106963144Y-85325006D01*
X106963146Y-85325003D01*
X106968526Y-85317824D01*
X107018851Y-85183580D01*
X107025500Y-85122377D01*
X107025499Y-84077624D01*
X107018851Y-84016420D01*
X106968526Y-83882176D01*
X106948865Y-83855943D01*
X106924018Y-83789438D01*
X106939071Y-83720056D01*
X106983390Y-83673234D01*
X107017810Y-83651935D01*
X107029208Y-83642901D01*
X107143739Y-83528171D01*
X107152751Y-83516760D01*
X107237816Y-83378757D01*
X107243963Y-83365576D01*
X107295138Y-83211290D01*
X107298005Y-83197914D01*
X107307672Y-83103562D01*
X107308000Y-83097145D01*
X107308000Y-82959615D01*
X107303525Y-82944376D01*
X107302135Y-82943171D01*
X107294452Y-82941500D01*
X102960116Y-82941500D01*
X102944877Y-82945975D01*
X102943672Y-82947365D01*
X102942001Y-82955048D01*
X102942001Y-83097095D01*
X102942338Y-83103614D01*
X102952257Y-83199206D01*
X102955149Y-83212600D01*
X103006588Y-83366784D01*
X103012761Y-83379962D01*
X103098063Y-83517807D01*
X103107099Y-83529208D01*
X103221829Y-83643739D01*
X103233240Y-83652751D01*
X103355746Y-83728264D01*
X103403239Y-83781036D01*
X103414663Y-83851107D01*
X103409223Y-83875192D01*
X103379862Y-83963710D01*
X103376995Y-83977086D01*
X103367328Y-84071438D01*
X103367000Y-84077855D01*
X103367000Y-84327885D01*
X103371475Y-84343124D01*
X103372865Y-84344329D01*
X103380548Y-84346000D01*
X104503000Y-84346000D01*
X104571121Y-84366002D01*
X104617614Y-84419658D01*
X104629000Y-84472000D01*
X104629000Y-84728000D01*
X104608998Y-84796121D01*
X104555342Y-84842614D01*
X104503000Y-84854000D01*
X103385116Y-84854000D01*
X103369877Y-84858475D01*
X103368672Y-84859865D01*
X103367001Y-84867548D01*
X103367001Y-85122095D01*
X103367338Y-85128614D01*
X103377257Y-85224206D01*
X103380149Y-85237600D01*
X103431588Y-85391784D01*
X103437761Y-85404962D01*
X103523063Y-85542807D01*
X103532099Y-85554208D01*
X103637465Y-85659391D01*
X103671544Y-85721674D01*
X103666541Y-85792494D01*
X103618449Y-85853329D01*
X103604716Y-85862505D01*
X103604714Y-85862507D01*
X103594399Y-85869399D01*
X103539034Y-85952260D01*
X103524500Y-86025326D01*
X103524500Y-86294500D01*
X103504498Y-86362621D01*
X103450842Y-86409114D01*
X103398500Y-86420500D01*
X101461161Y-86420500D01*
X101393040Y-86400498D01*
X101372066Y-86383595D01*
X101091515Y-86103044D01*
X101057489Y-86040732D01*
X101055407Y-86024982D01*
X101055249Y-86025000D01*
X101037266Y-85864672D01*
X101037265Y-85864669D01*
X101036481Y-85857676D01*
X100981108Y-85698668D01*
X100891884Y-85555879D01*
X100878903Y-85542807D01*
X100778205Y-85441403D01*
X100778201Y-85441400D01*
X100773242Y-85436406D01*
X100631079Y-85346187D01*
X100472462Y-85289706D01*
X100465474Y-85288873D01*
X100465471Y-85288872D01*
X100372300Y-85277762D01*
X100305273Y-85269769D01*
X100298270Y-85270505D01*
X100298269Y-85270505D01*
X100252712Y-85275293D01*
X100137821Y-85287369D01*
X100131155Y-85289638D01*
X100131152Y-85289639D01*
X99985098Y-85339360D01*
X99985095Y-85339361D01*
X99978431Y-85341630D01*
X99972436Y-85345318D01*
X99972432Y-85345320D01*
X99841021Y-85426165D01*
X99841019Y-85426167D01*
X99835022Y-85429856D01*
X99797121Y-85466972D01*
X99758614Y-85504681D01*
X99714724Y-85547661D01*
X99623515Y-85689190D01*
X99621105Y-85695810D01*
X99621104Y-85695813D01*
X99601124Y-85750707D01*
X99565927Y-85847409D01*
X99544825Y-86014455D01*
X99545512Y-86021462D01*
X99545512Y-86021465D01*
X99549680Y-86063971D01*
X99561255Y-86182025D01*
X99614402Y-86341791D01*
X99618049Y-86347813D01*
X99618050Y-86347815D01*
X99697904Y-86479669D01*
X99701624Y-86485812D01*
X99706513Y-86490875D01*
X99706514Y-86490876D01*
X99773710Y-86560459D01*
X99818586Y-86606929D01*
X99824483Y-86610788D01*
X99953577Y-86695266D01*
X99953581Y-86695268D01*
X99959475Y-86699125D01*
X100117289Y-86757815D01*
X100124270Y-86758746D01*
X100124272Y-86758747D01*
X100277204Y-86779152D01*
X100277206Y-86779152D01*
X100284183Y-86780083D01*
X100291189Y-86779445D01*
X100291406Y-86779450D01*
X100359092Y-86800877D01*
X100377856Y-86816327D01*
X100793323Y-87231794D01*
X100800865Y-87241234D01*
X100801245Y-87240911D01*
X100807063Y-87247747D01*
X100811853Y-87255339D01*
X100818581Y-87261281D01*
X100851859Y-87290671D01*
X100857546Y-87296017D01*
X100868880Y-87307351D01*
X100872463Y-87310036D01*
X100872465Y-87310038D01*
X100877155Y-87313553D01*
X100884998Y-87319938D01*
X100920170Y-87351001D01*
X100928292Y-87354814D01*
X100931093Y-87356654D01*
X100945088Y-87365063D01*
X100948051Y-87366685D01*
X100955236Y-87372070D01*
X100963646Y-87375223D01*
X100963648Y-87375224D01*
X100999182Y-87388546D01*
X101008495Y-87392470D01*
X101050982Y-87412417D01*
X101059856Y-87413799D01*
X101063083Y-87414785D01*
X101078846Y-87418920D01*
X101082140Y-87419644D01*
X101090552Y-87422798D01*
X101099510Y-87423464D01*
X101099511Y-87423464D01*
X101137350Y-87426276D01*
X101147374Y-87427426D01*
X101160697Y-87429500D01*
X101176062Y-87429500D01*
X101185399Y-87429846D01*
X101234666Y-87433507D01*
X101243441Y-87431634D01*
X101252137Y-87431041D01*
X101266737Y-87429500D01*
X103398500Y-87429500D01*
X103466621Y-87449502D01*
X103513114Y-87503158D01*
X103524500Y-87555500D01*
X103524500Y-88074674D01*
X103539034Y-88147740D01*
X103545928Y-88158057D01*
X103545928Y-88158058D01*
X103552686Y-88168172D01*
X103594399Y-88230601D01*
X103677260Y-88285966D01*
X103750326Y-88300500D01*
X105120700Y-88300500D01*
X105188821Y-88320502D01*
X105235314Y-88374158D01*
X105246700Y-88426500D01*
X105246700Y-89192104D01*
X105245827Y-89206914D01*
X105242076Y-89238605D01*
X105252084Y-89293405D01*
X105252725Y-89297258D01*
X105261010Y-89352360D01*
X105263982Y-89358549D01*
X105265215Y-89365301D01*
X105290900Y-89414747D01*
X105292650Y-89418250D01*
X105295717Y-89424636D01*
X105316760Y-89468460D01*
X105321420Y-89473501D01*
X105324584Y-89479592D01*
X105328681Y-89484389D01*
X105364012Y-89519720D01*
X105367441Y-89523286D01*
X105404184Y-89563034D01*
X105410294Y-89566583D01*
X105415867Y-89571575D01*
X105923884Y-90079592D01*
X105933739Y-90090681D01*
X105953497Y-90115744D01*
X105961244Y-90121098D01*
X105961246Y-90121100D01*
X105999312Y-90147408D01*
X106002491Y-90149679D01*
X106047322Y-90182792D01*
X106053797Y-90185066D01*
X106059446Y-90188970D01*
X106109753Y-90204880D01*
X106112559Y-90205767D01*
X106116317Y-90207021D01*
X106168838Y-90225466D01*
X106175698Y-90225736D01*
X106182242Y-90227805D01*
X106188531Y-90228300D01*
X106238496Y-90228300D01*
X106243442Y-90228397D01*
X106297530Y-90230522D01*
X106304360Y-90228711D01*
X106311832Y-90228300D01*
X107252841Y-90228300D01*
X107267651Y-90229173D01*
X107299342Y-90232924D01*
X107354142Y-90222916D01*
X107357995Y-90222275D01*
X107382686Y-90218562D01*
X107403787Y-90215390D01*
X107403788Y-90215390D01*
X107413097Y-90213990D01*
X107419286Y-90211018D01*
X107426038Y-90209785D01*
X107475484Y-90184100D01*
X107478987Y-90182350D01*
X107520703Y-90162319D01*
X107520705Y-90162318D01*
X107529197Y-90158240D01*
X107534238Y-90153580D01*
X107540329Y-90150416D01*
X107545126Y-90146319D01*
X107580457Y-90110988D01*
X107584023Y-90107559D01*
X107602281Y-90090681D01*
X107623771Y-90070816D01*
X107627320Y-90064706D01*
X107632312Y-90059133D01*
X109054592Y-88636853D01*
X109065681Y-88626998D01*
X109090744Y-88607240D01*
X109122417Y-88561413D01*
X109124679Y-88558246D01*
X109157792Y-88513415D01*
X109160066Y-88506940D01*
X109163970Y-88501291D01*
X109180767Y-88448178D01*
X109182021Y-88444421D01*
X109197346Y-88400783D01*
X109200466Y-88391899D01*
X109200736Y-88385039D01*
X109202805Y-88378495D01*
X109203300Y-88372206D01*
X109203300Y-88322241D01*
X109203397Y-88317295D01*
X109204628Y-88285966D01*
X109205522Y-88263207D01*
X109203711Y-88256377D01*
X109203300Y-88248905D01*
X109203300Y-86547790D01*
X109223302Y-86479669D01*
X109247467Y-86451981D01*
X109257348Y-86443542D01*
X109349224Y-86315683D01*
X109407950Y-86169598D01*
X109426322Y-86040507D01*
X109429553Y-86017807D01*
X109429553Y-86017804D01*
X109430134Y-86013723D01*
X109430278Y-86000000D01*
X109411363Y-85843694D01*
X109402183Y-85819399D01*
X109358394Y-85703514D01*
X109358393Y-85703511D01*
X109355710Y-85696412D01*
X109266531Y-85566657D01*
X109196971Y-85504681D01*
X109154648Y-85466972D01*
X109154645Y-85466970D01*
X109148976Y-85461919D01*
X109009831Y-85388245D01*
X108984025Y-85381763D01*
X108864498Y-85351740D01*
X108864496Y-85351740D01*
X108857128Y-85349889D01*
X108849530Y-85349849D01*
X108849528Y-85349849D01*
X108782319Y-85349497D01*
X108699684Y-85349065D01*
X108692305Y-85350837D01*
X108692301Y-85350837D01*
X108580914Y-85377579D01*
X108510006Y-85374032D01*
X108452272Y-85332712D01*
X108426042Y-85266738D01*
X108425500Y-85255060D01*
X108425500Y-81880072D01*
X108426373Y-81865262D01*
X108429017Y-81842923D01*
X108430124Y-81833571D01*
X108420116Y-81778771D01*
X108419472Y-81774902D01*
X108412590Y-81729126D01*
X108412590Y-81729125D01*
X108411190Y-81719816D01*
X108408218Y-81713627D01*
X108406985Y-81706875D01*
X108381300Y-81657429D01*
X108379550Y-81653926D01*
X108359519Y-81612210D01*
X108359518Y-81612208D01*
X108355440Y-81603716D01*
X108350780Y-81598675D01*
X108347616Y-81592584D01*
X108343519Y-81587787D01*
X108308188Y-81552456D01*
X108304759Y-81548890D01*
X108299815Y-81543542D01*
X108268016Y-81509142D01*
X108261906Y-81505593D01*
X108256333Y-81500601D01*
X107702905Y-80947173D01*
X107668879Y-80884861D01*
X107666000Y-80858078D01*
X107666000Y-80372115D01*
X107661525Y-80356876D01*
X107660135Y-80355671D01*
X107652452Y-80354000D01*
X107161922Y-80354000D01*
X107093801Y-80333998D01*
X107072827Y-80317095D01*
X104998405Y-78242673D01*
X104964379Y-78180361D01*
X104962757Y-78135825D01*
X104979553Y-78017808D01*
X104979553Y-78017802D01*
X104980134Y-78013723D01*
X104980278Y-78000000D01*
X104961363Y-77843694D01*
X104943355Y-77796037D01*
X104937987Y-77725245D01*
X104971744Y-77662788D01*
X105033910Y-77628496D01*
X105061221Y-77625500D01*
X106568731Y-77625499D01*
X106597376Y-77625499D01*
X106600770Y-77625130D01*
X106600776Y-77625130D01*
X106650722Y-77619705D01*
X106650726Y-77619704D01*
X106658580Y-77618851D01*
X106792824Y-77568526D01*
X106800003Y-77563146D01*
X106800006Y-77563144D01*
X106872935Y-77508486D01*
X106939441Y-77483638D01*
X107008824Y-77498691D01*
X107059054Y-77548865D01*
X107074500Y-77609312D01*
X107074501Y-77761591D01*
X107074501Y-77906518D01*
X107075276Y-77911409D01*
X107075276Y-77911412D01*
X107081769Y-77952408D01*
X107089354Y-78000304D01*
X107093855Y-78009137D01*
X107093857Y-78009142D01*
X107094925Y-78011238D01*
X107146950Y-78113342D01*
X107236658Y-78203050D01*
X107313572Y-78242240D01*
X107327903Y-78249542D01*
X107379518Y-78298291D01*
X107396700Y-78361809D01*
X107396700Y-78640971D01*
X107386543Y-78684876D01*
X107387641Y-78685215D01*
X107384753Y-78694560D01*
X107380459Y-78703344D01*
X107379048Y-78713019D01*
X107379047Y-78713021D01*
X107370165Y-78773908D01*
X107369500Y-78778465D01*
X107369501Y-79221534D01*
X107380654Y-79297309D01*
X107384972Y-79306104D01*
X107386693Y-79311642D01*
X107387806Y-79382630D01*
X107355463Y-79438127D01*
X107269516Y-79524074D01*
X107259876Y-79536501D01*
X107184604Y-79663780D01*
X107178357Y-79678216D01*
X107136688Y-79821641D01*
X107135232Y-79829609D01*
X107138052Y-79843031D01*
X107149513Y-79846000D01*
X108048000Y-79846000D01*
X108116121Y-79866002D01*
X108162614Y-79919658D01*
X108174000Y-79972000D01*
X108174000Y-80893558D01*
X108177973Y-80907089D01*
X108185871Y-80908224D01*
X108311784Y-80871643D01*
X108326220Y-80865396D01*
X108453499Y-80790124D01*
X108465926Y-80780484D01*
X108557379Y-80689031D01*
X108619691Y-80655005D01*
X108666184Y-80653677D01*
X108703827Y-80659639D01*
X108709265Y-80660500D01*
X108879965Y-80660500D01*
X109050734Y-80660499D01*
X109093809Y-80653677D01*
X109132383Y-80647568D01*
X109132384Y-80647568D01*
X109142175Y-80646017D01*
X109169181Y-80632257D01*
X109205801Y-80613598D01*
X109252391Y-80589859D01*
X109277045Y-80565205D01*
X109339357Y-80531179D01*
X109366140Y-80528300D01*
X109520402Y-80528300D01*
X109588523Y-80548302D01*
X109609497Y-80565205D01*
X110104195Y-81059903D01*
X110138221Y-81122215D01*
X110141100Y-81148998D01*
X110141100Y-88963927D01*
X110121098Y-89032048D01*
X110067442Y-89078541D01*
X110044514Y-89086446D01*
X109941181Y-89111254D01*
X109941179Y-89111255D01*
X109933801Y-89113026D01*
X109793892Y-89185238D01*
X109788170Y-89190230D01*
X109788168Y-89190231D01*
X109680972Y-89283744D01*
X109680969Y-89283747D01*
X109675247Y-89288739D01*
X109637076Y-89343050D01*
X109626184Y-89358549D01*
X109584714Y-89417554D01*
X109527522Y-89564245D01*
X109506971Y-89720344D01*
X109524248Y-89876839D01*
X109578356Y-90024696D01*
X109582593Y-90031002D01*
X109582595Y-90031005D01*
X109609347Y-90070816D01*
X109666171Y-90155378D01*
X109690149Y-90177196D01*
X109743494Y-90225736D01*
X109782623Y-90261341D01*
X109789298Y-90264965D01*
X109914312Y-90332843D01*
X109914314Y-90332844D01*
X109920989Y-90336468D01*
X109928338Y-90338396D01*
X110065932Y-90374493D01*
X110065934Y-90374493D01*
X110073282Y-90376421D01*
X110156593Y-90377730D01*
X110223111Y-90378775D01*
X110223114Y-90378775D01*
X110230708Y-90378894D01*
X110238112Y-90377198D01*
X110238115Y-90377198D01*
X110270334Y-90369819D01*
X110341201Y-90374109D01*
X110398499Y-90416031D01*
X110424036Y-90482276D01*
X110409705Y-90551811D01*
X110387558Y-90581734D01*
X110256777Y-90712515D01*
X110194465Y-90746541D01*
X110167024Y-90749418D01*
X110099684Y-90749065D01*
X110092304Y-90750837D01*
X110092302Y-90750837D01*
X109953967Y-90784048D01*
X109953963Y-90784049D01*
X109946588Y-90785820D01*
X109932193Y-90793250D01*
X109823241Y-90849484D01*
X109806679Y-90858032D01*
X109800957Y-90863024D01*
X109800955Y-90863025D01*
X109693759Y-90956538D01*
X109693756Y-90956541D01*
X109688034Y-90961533D01*
X109683667Y-90967747D01*
X109610864Y-91071335D01*
X109597501Y-91090348D01*
X109540309Y-91237039D01*
X109539318Y-91244568D01*
X109526316Y-91343329D01*
X109519758Y-91393138D01*
X109537035Y-91549633D01*
X109591143Y-91697490D01*
X109595380Y-91703796D01*
X109595382Y-91703799D01*
X109615675Y-91733998D01*
X109678958Y-91828172D01*
X109795410Y-91934135D01*
X109816885Y-91945795D01*
X109927099Y-92005637D01*
X109927101Y-92005638D01*
X109933776Y-92009262D01*
X109941125Y-92011190D01*
X110078719Y-92047287D01*
X110078721Y-92047287D01*
X110086069Y-92049215D01*
X110169380Y-92050524D01*
X110235898Y-92051569D01*
X110235901Y-92051569D01*
X110243495Y-92051688D01*
X110396968Y-92016538D01*
X110537625Y-91945795D01*
X110609157Y-91884701D01*
X110651574Y-91848474D01*
X110651576Y-91848471D01*
X110657348Y-91843542D01*
X110749224Y-91715683D01*
X110807950Y-91569598D01*
X110821931Y-91471362D01*
X110829553Y-91417807D01*
X110829553Y-91417804D01*
X110830134Y-91413723D01*
X110830264Y-91401321D01*
X110850979Y-91333413D01*
X110867162Y-91313546D01*
X111404592Y-90776116D01*
X111415681Y-90766261D01*
X111433347Y-90752334D01*
X111440744Y-90746503D01*
X111448761Y-90734904D01*
X111472408Y-90700688D01*
X111474679Y-90697509D01*
X111507792Y-90652678D01*
X111510066Y-90646203D01*
X111513970Y-90640554D01*
X111530767Y-90587441D01*
X111532021Y-90583684D01*
X111547346Y-90540046D01*
X111550466Y-90531162D01*
X111550736Y-90524302D01*
X111552805Y-90517758D01*
X111553300Y-90511469D01*
X111553300Y-90461504D01*
X111553397Y-90456558D01*
X111555152Y-90411880D01*
X111555522Y-90402470D01*
X111553711Y-90395640D01*
X111553300Y-90388168D01*
X111553300Y-79429598D01*
X111573302Y-79361477D01*
X111590205Y-79340503D01*
X112218063Y-78712645D01*
X112280375Y-78678619D01*
X112309136Y-78675756D01*
X112360897Y-78676569D01*
X112360900Y-78676569D01*
X112368495Y-78676688D01*
X112521968Y-78641538D01*
X112589087Y-78607781D01*
X112658930Y-78595042D01*
X112724574Y-78622087D01*
X112765176Y-78680327D01*
X112771700Y-78720346D01*
X112771700Y-85267149D01*
X112751698Y-85335270D01*
X112698042Y-85381763D01*
X112675114Y-85389668D01*
X112596588Y-85408520D01*
X112589843Y-85412001D01*
X112589844Y-85412001D01*
X112473644Y-85471976D01*
X112456679Y-85480732D01*
X112450957Y-85485724D01*
X112450955Y-85485725D01*
X112343759Y-85579238D01*
X112343756Y-85579241D01*
X112338034Y-85584233D01*
X112332724Y-85591789D01*
X112254202Y-85703514D01*
X112247501Y-85713048D01*
X112190309Y-85859739D01*
X112189318Y-85867268D01*
X112170860Y-86007468D01*
X112169758Y-86015838D01*
X112187035Y-86172333D01*
X112241143Y-86320190D01*
X112245380Y-86326496D01*
X112245382Y-86326499D01*
X112283750Y-86383595D01*
X112328958Y-86450872D01*
X112367357Y-86485812D01*
X112438134Y-86550214D01*
X112445410Y-86556835D01*
X112452085Y-86560459D01*
X112577099Y-86628337D01*
X112577101Y-86628338D01*
X112583776Y-86631962D01*
X112591125Y-86633890D01*
X112728719Y-86669987D01*
X112728721Y-86669987D01*
X112736069Y-86671915D01*
X112819380Y-86673224D01*
X112885898Y-86674269D01*
X112885901Y-86674269D01*
X112893495Y-86674388D01*
X113046968Y-86639238D01*
X113187625Y-86568495D01*
X113224410Y-86537078D01*
X113301574Y-86471174D01*
X113301576Y-86471171D01*
X113307348Y-86466242D01*
X113399224Y-86338383D01*
X113457950Y-86192298D01*
X113470653Y-86103044D01*
X113479553Y-86040507D01*
X113479553Y-86040504D01*
X113480134Y-86036423D01*
X113480216Y-86028570D01*
X113500927Y-85960662D01*
X113510891Y-85948029D01*
X113515744Y-85944203D01*
X113547417Y-85898376D01*
X113549679Y-85895209D01*
X113582792Y-85850378D01*
X113585066Y-85843903D01*
X113588970Y-85838254D01*
X113605767Y-85785141D01*
X113607021Y-85781384D01*
X113622346Y-85737746D01*
X113625466Y-85728862D01*
X113625736Y-85722002D01*
X113627805Y-85715458D01*
X113628300Y-85709169D01*
X113628300Y-85659204D01*
X113628397Y-85654258D01*
X113630152Y-85609580D01*
X113630522Y-85600170D01*
X113628711Y-85593340D01*
X113628300Y-85585868D01*
X113628300Y-77132896D01*
X113629173Y-77118086D01*
X113631817Y-77095747D01*
X113632924Y-77086395D01*
X113622916Y-77031595D01*
X113622272Y-77027726D01*
X113615390Y-76981950D01*
X113615390Y-76981949D01*
X113613990Y-76972640D01*
X113611018Y-76966451D01*
X113609785Y-76959699D01*
X113584100Y-76910253D01*
X113582350Y-76906750D01*
X113562319Y-76865034D01*
X113562318Y-76865032D01*
X113558240Y-76856540D01*
X113553580Y-76851499D01*
X113550416Y-76845408D01*
X113546319Y-76840611D01*
X113510988Y-76805280D01*
X113507559Y-76801714D01*
X113507230Y-76801358D01*
X113470816Y-76761966D01*
X113464706Y-76758417D01*
X113459133Y-76753425D01*
X113451116Y-76745408D01*
X113441261Y-76734319D01*
X113427334Y-76716653D01*
X113421503Y-76709256D01*
X113413756Y-76703902D01*
X113413752Y-76703898D01*
X113387670Y-76685872D01*
X113343003Y-76630687D01*
X113335263Y-76560113D01*
X113350855Y-76518081D01*
X113390396Y-76451220D01*
X113396643Y-76436784D01*
X113431619Y-76316395D01*
X113431579Y-76302295D01*
X113424309Y-76299000D01*
X111831442Y-76299000D01*
X111817911Y-76302973D01*
X111816776Y-76310871D01*
X111847187Y-76415547D01*
X111846984Y-76486543D01*
X111808430Y-76546160D01*
X111743765Y-76575468D01*
X111726190Y-76576700D01*
X111403582Y-76576700D01*
X111335461Y-76556698D01*
X111288968Y-76503042D01*
X111278864Y-76432768D01*
X111300304Y-76382236D01*
X111299055Y-76381498D01*
X111379648Y-76245221D01*
X111385893Y-76230790D01*
X111424939Y-76096395D01*
X111424899Y-76082294D01*
X111417630Y-76079000D01*
X110534615Y-76079000D01*
X110519376Y-76083475D01*
X110518171Y-76084865D01*
X110516500Y-76092548D01*
X110516500Y-76614884D01*
X110520975Y-76630123D01*
X110522365Y-76631328D01*
X110530048Y-76632999D01*
X110782103Y-76632999D01*
X110850224Y-76653001D01*
X110896717Y-76706657D01*
X110906821Y-76776931D01*
X110877327Y-76841511D01*
X110871198Y-76848094D01*
X110581697Y-77137595D01*
X110519385Y-77171621D01*
X110492602Y-77174500D01*
X109790131Y-77174501D01*
X109718482Y-77174501D01*
X109713589Y-77175276D01*
X109713588Y-77175276D01*
X109634494Y-77187802D01*
X109634492Y-77187803D01*
X109624696Y-77189354D01*
X109615859Y-77193857D01*
X109615858Y-77193857D01*
X109593105Y-77205451D01*
X109511658Y-77246950D01*
X109421950Y-77336658D01*
X109364354Y-77449696D01*
X109349500Y-77543481D01*
X109349501Y-77906518D01*
X109350276Y-77911409D01*
X109350276Y-77911412D01*
X109356769Y-77952408D01*
X109364354Y-78000304D01*
X109368855Y-78009137D01*
X109368857Y-78009142D01*
X109369925Y-78011238D01*
X109421950Y-78113342D01*
X109511658Y-78203050D01*
X109624696Y-78260646D01*
X109634485Y-78262196D01*
X109634487Y-78262197D01*
X109661849Y-78266530D01*
X109718481Y-78275500D01*
X110262390Y-78275500D01*
X110806518Y-78275499D01*
X110811412Y-78274724D01*
X110890506Y-78262198D01*
X110890508Y-78262197D01*
X110900304Y-78260646D01*
X111013342Y-78203050D01*
X111103050Y-78113342D01*
X111160646Y-78000304D01*
X111175500Y-77906519D01*
X111175500Y-77807398D01*
X111195502Y-77739277D01*
X111212405Y-77718303D01*
X111460503Y-77470205D01*
X111522815Y-77436179D01*
X111549598Y-77433300D01*
X111678167Y-77433300D01*
X111746288Y-77453302D01*
X111792781Y-77506958D01*
X111802885Y-77577232D01*
X111781254Y-77631751D01*
X111770186Y-77647500D01*
X111722501Y-77715348D01*
X111665309Y-77862039D01*
X111644758Y-78018138D01*
X111645365Y-78023634D01*
X111624908Y-78090699D01*
X111608724Y-78110568D01*
X110845408Y-78873884D01*
X110834319Y-78883739D01*
X110809256Y-78903497D01*
X110803902Y-78911244D01*
X110803900Y-78911246D01*
X110777592Y-78949312D01*
X110775321Y-78952491D01*
X110742208Y-78997322D01*
X110739934Y-79003797D01*
X110736030Y-79009446D01*
X110733191Y-79018424D01*
X110719233Y-79062559D01*
X110717979Y-79066316D01*
X110699534Y-79118838D01*
X110699264Y-79125698D01*
X110697195Y-79132242D01*
X110696700Y-79138531D01*
X110696700Y-79188496D01*
X110696603Y-79193442D01*
X110694478Y-79247530D01*
X110696289Y-79254360D01*
X110696700Y-79261832D01*
X110696700Y-80136802D01*
X110676698Y-80204923D01*
X110623042Y-80251416D01*
X110552768Y-80261520D01*
X110488188Y-80232026D01*
X110481604Y-80225897D01*
X110354667Y-80098959D01*
X110076112Y-79820404D01*
X110066258Y-79809315D01*
X110052334Y-79791653D01*
X110046503Y-79784256D01*
X110038756Y-79778902D01*
X110038754Y-79778900D01*
X110000688Y-79752592D01*
X109997509Y-79750321D01*
X109952678Y-79717208D01*
X109946203Y-79714934D01*
X109940554Y-79711030D01*
X109887442Y-79694233D01*
X109883684Y-79692979D01*
X109840046Y-79677654D01*
X109831162Y-79674534D01*
X109824302Y-79674264D01*
X109817758Y-79672195D01*
X109811469Y-79671700D01*
X109761504Y-79671700D01*
X109756558Y-79671603D01*
X109702470Y-79669478D01*
X109695640Y-79671289D01*
X109688168Y-79671700D01*
X109464300Y-79671700D01*
X109396179Y-79651698D01*
X109349686Y-79598042D01*
X109338300Y-79545700D01*
X109338300Y-79484225D01*
X109360610Y-79414532D01*
X109363181Y-79411956D01*
X109419541Y-79296656D01*
X109425485Y-79255911D01*
X109429840Y-79226061D01*
X109429840Y-79226057D01*
X109430500Y-79221535D01*
X109430499Y-78778466D01*
X109419346Y-78702691D01*
X109372747Y-78607781D01*
X109367374Y-78596837D01*
X109367373Y-78596836D01*
X109362784Y-78587489D01*
X109271956Y-78496819D01*
X109156656Y-78440459D01*
X109107460Y-78433282D01*
X109086061Y-78430160D01*
X109086057Y-78430160D01*
X109081535Y-78429500D01*
X109061400Y-78429500D01*
X108811807Y-78429501D01*
X108743688Y-78409499D01*
X108697195Y-78355844D01*
X108687090Y-78285570D01*
X108716583Y-78220989D01*
X108733366Y-78205586D01*
X108738342Y-78203050D01*
X108828050Y-78113342D01*
X108885646Y-78000304D01*
X108900500Y-77906519D01*
X108900499Y-77543482D01*
X108898451Y-77530552D01*
X108907550Y-77460143D01*
X108933805Y-77421748D01*
X109018449Y-77337104D01*
X109028089Y-77324678D01*
X109104648Y-77195221D01*
X109110893Y-77180790D01*
X109149939Y-77046395D01*
X109149899Y-77032294D01*
X109142630Y-77029000D01*
X107859500Y-77029000D01*
X107791379Y-77008998D01*
X107744886Y-76955342D01*
X107733500Y-76903000D01*
X107733500Y-76647000D01*
X107753502Y-76578879D01*
X107807158Y-76532386D01*
X107859500Y-76521000D01*
X109136878Y-76521000D01*
X109152118Y-76516525D01*
X109160600Y-76506736D01*
X109220326Y-76468353D01*
X109291323Y-76468353D01*
X109333054Y-76489692D01*
X109350327Y-76503091D01*
X109479779Y-76579648D01*
X109494210Y-76585893D01*
X109640065Y-76628269D01*
X109652667Y-76630570D01*
X109681084Y-76632807D01*
X109686014Y-76633000D01*
X109990385Y-76633000D01*
X110005624Y-76628525D01*
X110006829Y-76627135D01*
X110008500Y-76619452D01*
X110008500Y-75773605D01*
X111818381Y-75773605D01*
X111818421Y-75787705D01*
X111825691Y-75791000D01*
X112352885Y-75791000D01*
X112368124Y-75786525D01*
X112369329Y-75785135D01*
X112371000Y-75777452D01*
X112371000Y-75772885D01*
X112879000Y-75772885D01*
X112883475Y-75788124D01*
X112884865Y-75789329D01*
X112892548Y-75791000D01*
X113418558Y-75791000D01*
X113432089Y-75787027D01*
X113433224Y-75779129D01*
X113396643Y-75653216D01*
X113390396Y-75638780D01*
X113315124Y-75511501D01*
X113305484Y-75499074D01*
X113200926Y-75394516D01*
X113188499Y-75384876D01*
X113061220Y-75309604D01*
X113046784Y-75303357D01*
X112903359Y-75261688D01*
X112895391Y-75260232D01*
X112881969Y-75263052D01*
X112879000Y-75274513D01*
X112879000Y-75772885D01*
X112371000Y-75772885D01*
X112371000Y-75276576D01*
X112366656Y-75261781D01*
X112356225Y-75259937D01*
X112346641Y-75261688D01*
X112203216Y-75303357D01*
X112188780Y-75309604D01*
X112061501Y-75384876D01*
X112049074Y-75394516D01*
X111944516Y-75499074D01*
X111934876Y-75511501D01*
X111859604Y-75638780D01*
X111853357Y-75653216D01*
X111818381Y-75773605D01*
X110008500Y-75773605D01*
X110008500Y-75697000D01*
X110028502Y-75628879D01*
X110082158Y-75582386D01*
X110134500Y-75571000D01*
X111411878Y-75571000D01*
X111425409Y-75567027D01*
X111426544Y-75559129D01*
X111385893Y-75419210D01*
X111379648Y-75404779D01*
X111303089Y-75275322D01*
X111293449Y-75262896D01*
X111187104Y-75156551D01*
X111174678Y-75146911D01*
X111045219Y-75070351D01*
X111044263Y-75069937D01*
X111043633Y-75069413D01*
X111038400Y-75066318D01*
X111038899Y-75065474D01*
X110989688Y-75024526D01*
X110968328Y-74956819D01*
X110986964Y-74888312D01*
X111039680Y-74840756D01*
X111094303Y-74828300D01*
X111902080Y-74828300D01*
X111916890Y-74829173D01*
X111948581Y-74832924D01*
X112003381Y-74822916D01*
X112007234Y-74822275D01*
X112031925Y-74818562D01*
X112053026Y-74815390D01*
X112053027Y-74815390D01*
X112062336Y-74813990D01*
X112068525Y-74811018D01*
X112075277Y-74809785D01*
X112124723Y-74784100D01*
X112128226Y-74782350D01*
X112169942Y-74762319D01*
X112169944Y-74762318D01*
X112178436Y-74758240D01*
X112183477Y-74753580D01*
X112189568Y-74750416D01*
X112194365Y-74746319D01*
X112229696Y-74710988D01*
X112233262Y-74707559D01*
X112248862Y-74693138D01*
X112273010Y-74670816D01*
X112276559Y-74664706D01*
X112281551Y-74659133D01*
X113600479Y-73340205D01*
X113662791Y-73306179D01*
X113689574Y-73303300D01*
X114310898Y-73303300D01*
X114379019Y-73323302D01*
X114399993Y-73340205D01*
X115593651Y-74533863D01*
X115627677Y-74596175D01*
X115629364Y-74612686D01*
X115629758Y-74612642D01*
X115647035Y-74769137D01*
X115701143Y-74916994D01*
X115705380Y-74923300D01*
X115705382Y-74923303D01*
X115739161Y-74973571D01*
X115788958Y-75047676D01*
X115841505Y-75095490D01*
X115894314Y-75143542D01*
X115905410Y-75153639D01*
X115965369Y-75186194D01*
X116037099Y-75225141D01*
X116037101Y-75225142D01*
X116043776Y-75228766D01*
X116051125Y-75230694D01*
X116188719Y-75266791D01*
X116188721Y-75266791D01*
X116196069Y-75268719D01*
X116279380Y-75270028D01*
X116345898Y-75271073D01*
X116345901Y-75271073D01*
X116353495Y-75271192D01*
X116506968Y-75236042D01*
X116647625Y-75165299D01*
X116762672Y-75067040D01*
X116827459Y-75038010D01*
X116897659Y-75048615D01*
X116950982Y-75095490D01*
X116970500Y-75162852D01*
X116970500Y-75363839D01*
X116950498Y-75431960D01*
X116933595Y-75452934D01*
X116427934Y-75958595D01*
X116365622Y-75992621D01*
X116338839Y-75995500D01*
X115996160Y-75995500D01*
X115928039Y-75975498D01*
X115907065Y-75958595D01*
X114613033Y-74664563D01*
X114579007Y-74602251D01*
X114577041Y-74590606D01*
X114572277Y-74551243D01*
X114572276Y-74551239D01*
X114571363Y-74543694D01*
X114515710Y-74396412D01*
X114426531Y-74266657D01*
X114331930Y-74182370D01*
X114314648Y-74166972D01*
X114314644Y-74166969D01*
X114308976Y-74161919D01*
X114276214Y-74144572D01*
X114176543Y-74091799D01*
X114176544Y-74091799D01*
X114169831Y-74088245D01*
X114153122Y-74084048D01*
X114024498Y-74051740D01*
X114024496Y-74051740D01*
X114017128Y-74049889D01*
X114009530Y-74049849D01*
X114009528Y-74049849D01*
X113942319Y-74049497D01*
X113859684Y-74049065D01*
X113852305Y-74050837D01*
X113852301Y-74050837D01*
X113713967Y-74084048D01*
X113713963Y-74084049D01*
X113706588Y-74085820D01*
X113699843Y-74089301D01*
X113699844Y-74089301D01*
X113601277Y-74140175D01*
X113566679Y-74158032D01*
X113560957Y-74163024D01*
X113560955Y-74163025D01*
X113453759Y-74256538D01*
X113453756Y-74256541D01*
X113448034Y-74261533D01*
X113440033Y-74272917D01*
X113362159Y-74383721D01*
X113357501Y-74390348D01*
X113300309Y-74537039D01*
X113299318Y-74544568D01*
X113281855Y-74677211D01*
X113279758Y-74693138D01*
X113297035Y-74849633D01*
X113351143Y-74997490D01*
X113355380Y-75003796D01*
X113355382Y-75003799D01*
X113388834Y-75053580D01*
X113438958Y-75128172D01*
X113459552Y-75146911D01*
X113549510Y-75228766D01*
X113555410Y-75234135D01*
X113606156Y-75261688D01*
X113687099Y-75305637D01*
X113687101Y-75305638D01*
X113693776Y-75309262D01*
X113701125Y-75311190D01*
X113846069Y-75349215D01*
X113845225Y-75352431D01*
X113896356Y-75375369D01*
X113903578Y-75382049D01*
X115193595Y-76672066D01*
X115227621Y-76734378D01*
X115230500Y-76761161D01*
X115230500Y-80446632D01*
X115207587Y-80519083D01*
X115169752Y-80572917D01*
X115157501Y-80590348D01*
X115100309Y-80737039D01*
X115099318Y-80744568D01*
X115080848Y-80884861D01*
X115079758Y-80893138D01*
X115097035Y-81049633D01*
X115151143Y-81197490D01*
X115155380Y-81203796D01*
X115155382Y-81203799D01*
X115194540Y-81262072D01*
X115238958Y-81328172D01*
X115261270Y-81348474D01*
X115343248Y-81423068D01*
X115355410Y-81434135D01*
X115373268Y-81443831D01*
X115487099Y-81505637D01*
X115487101Y-81505638D01*
X115493776Y-81509262D01*
X115501125Y-81511190D01*
X115638719Y-81547287D01*
X115638721Y-81547287D01*
X115646069Y-81549215D01*
X115729380Y-81550524D01*
X115795898Y-81551569D01*
X115795901Y-81551569D01*
X115803495Y-81551688D01*
X115956968Y-81516538D01*
X116097625Y-81445795D01*
X116139311Y-81410192D01*
X116211574Y-81348474D01*
X116211576Y-81348471D01*
X116217348Y-81343542D01*
X116309224Y-81215683D01*
X116367950Y-81069598D01*
X116379904Y-80985607D01*
X116389553Y-80917807D01*
X116389553Y-80917804D01*
X116390134Y-80913723D01*
X116390278Y-80900000D01*
X116389499Y-80893558D01*
X116378602Y-80803514D01*
X116371363Y-80743694D01*
X116339927Y-80660500D01*
X116318394Y-80603514D01*
X116318393Y-80603511D01*
X116315710Y-80596412D01*
X116311412Y-80590158D01*
X116311408Y-80590151D01*
X116261661Y-80517770D01*
X116239500Y-80446402D01*
X116239500Y-77130500D01*
X116259502Y-77062379D01*
X116313158Y-77015886D01*
X116365500Y-77004500D01*
X116529376Y-77004500D01*
X116541381Y-77005841D01*
X116541421Y-77005345D01*
X116550368Y-77006065D01*
X116559124Y-77008046D01*
X116612382Y-77004742D01*
X116620184Y-77004500D01*
X116636226Y-77004500D01*
X116640657Y-77003865D01*
X116640662Y-77003865D01*
X116644687Y-77003288D01*
X116646457Y-77003035D01*
X116656514Y-77002004D01*
X116678976Y-77000611D01*
X116694400Y-76999654D01*
X116694402Y-76999654D01*
X116703359Y-76999098D01*
X116711799Y-76996051D01*
X116715089Y-76995370D01*
X116730938Y-76991418D01*
X116734168Y-76990473D01*
X116743052Y-76989201D01*
X116785763Y-76969782D01*
X116795128Y-76965970D01*
X116830837Y-76953078D01*
X116830840Y-76953076D01*
X116839284Y-76950028D01*
X116846533Y-76944732D01*
X116849490Y-76943160D01*
X116863614Y-76934907D01*
X116866437Y-76933102D01*
X116874605Y-76929388D01*
X116881402Y-76923531D01*
X116881404Y-76923530D01*
X116910153Y-76898757D01*
X116918064Y-76892475D01*
X116928944Y-76884527D01*
X116939806Y-76873665D01*
X116946653Y-76867307D01*
X116964999Y-76851499D01*
X116984082Y-76835056D01*
X116988966Y-76827521D01*
X116994699Y-76820949D01*
X117003926Y-76809545D01*
X117499405Y-76314066D01*
X117561717Y-76280040D01*
X117632532Y-76285105D01*
X117689368Y-76327652D01*
X117714179Y-76394172D01*
X117714500Y-76403161D01*
X117714500Y-85623500D01*
X117694498Y-85691621D01*
X117640842Y-85738114D01*
X117588500Y-85749500D01*
X115975326Y-85749500D01*
X115902260Y-85764034D01*
X115819399Y-85819399D01*
X115793824Y-85857676D01*
X115787415Y-85867268D01*
X115764034Y-85902260D01*
X115749500Y-85975326D01*
X115749500Y-86405700D01*
X115729498Y-86473821D01*
X115675842Y-86520314D01*
X115623500Y-86531700D01*
X114422898Y-86531700D01*
X114408089Y-86530827D01*
X114385748Y-86528183D01*
X114376395Y-86527076D01*
X114321603Y-86537082D01*
X114317728Y-86537727D01*
X114262640Y-86546010D01*
X114256454Y-86548980D01*
X114249699Y-86550214D01*
X114241345Y-86554554D01*
X114241344Y-86554554D01*
X114200271Y-86575890D01*
X114196730Y-86577659D01*
X114146540Y-86601760D01*
X114141498Y-86606421D01*
X114135409Y-86609584D01*
X114130612Y-86613681D01*
X114095292Y-86649001D01*
X114091726Y-86652430D01*
X114051966Y-86689184D01*
X114048416Y-86695296D01*
X114043422Y-86700871D01*
X113682375Y-87061918D01*
X113620063Y-87095944D01*
X113562587Y-87095027D01*
X113549503Y-87091741D01*
X113549499Y-87091741D01*
X113542128Y-87089889D01*
X113534530Y-87089849D01*
X113534528Y-87089849D01*
X113467319Y-87089497D01*
X113384684Y-87089065D01*
X113377305Y-87090837D01*
X113377301Y-87090837D01*
X113238967Y-87124048D01*
X113238963Y-87124049D01*
X113231588Y-87125820D01*
X113091679Y-87198032D01*
X113085957Y-87203024D01*
X113085955Y-87203025D01*
X112978759Y-87296538D01*
X112978756Y-87296541D01*
X112973034Y-87301533D01*
X112942443Y-87345060D01*
X112890533Y-87418920D01*
X112882501Y-87430348D01*
X112825309Y-87577039D01*
X112824318Y-87584568D01*
X112806687Y-87718487D01*
X112804758Y-87733138D01*
X112822035Y-87889633D01*
X112876143Y-88037490D01*
X112880380Y-88043796D01*
X112880382Y-88043799D01*
X112914407Y-88094432D01*
X112963958Y-88168172D01*
X112969577Y-88173285D01*
X112969578Y-88173286D01*
X113076032Y-88270152D01*
X113112955Y-88330792D01*
X113111232Y-88401768D01*
X113074062Y-88458294D01*
X113013034Y-88511533D01*
X113008667Y-88517747D01*
X112928819Y-88631359D01*
X112922501Y-88640348D01*
X112865309Y-88787039D01*
X112864318Y-88794568D01*
X112847216Y-88924470D01*
X112844758Y-88943138D01*
X112862035Y-89099633D01*
X112916143Y-89247490D01*
X112920380Y-89253796D01*
X112920382Y-89253799D01*
X112960709Y-89313811D01*
X113003958Y-89378172D01*
X113009576Y-89383284D01*
X113030499Y-89402322D01*
X113067422Y-89462962D01*
X113071700Y-89495516D01*
X113071700Y-90567104D01*
X113070827Y-90581914D01*
X113067076Y-90613605D01*
X113077084Y-90668405D01*
X113077725Y-90672258D01*
X113086010Y-90727360D01*
X113088982Y-90733549D01*
X113090215Y-90740301D01*
X113115900Y-90789747D01*
X113117650Y-90793250D01*
X113135700Y-90830839D01*
X113141760Y-90843460D01*
X113146420Y-90848501D01*
X113149584Y-90854592D01*
X113153681Y-90859389D01*
X113189012Y-90894720D01*
X113192441Y-90898286D01*
X113229184Y-90938034D01*
X113235294Y-90941583D01*
X113240867Y-90946575D01*
X114503884Y-92209592D01*
X114513739Y-92220681D01*
X114533497Y-92245744D01*
X114541244Y-92251098D01*
X114541246Y-92251100D01*
X114579312Y-92277408D01*
X114582491Y-92279679D01*
X114627322Y-92312792D01*
X114633797Y-92315066D01*
X114639446Y-92318970D01*
X114679108Y-92331513D01*
X114692559Y-92335767D01*
X114696317Y-92337021D01*
X114748838Y-92355466D01*
X114755698Y-92355736D01*
X114762242Y-92357805D01*
X114768531Y-92358300D01*
X114818496Y-92358300D01*
X114823442Y-92358397D01*
X114877530Y-92360522D01*
X114884360Y-92358711D01*
X114891832Y-92358300D01*
X115754891Y-92358300D01*
X115823012Y-92378302D01*
X115869317Y-92431548D01*
X115892856Y-92482607D01*
X115896186Y-92487319D01*
X115896189Y-92487324D01*
X115982804Y-92609882D01*
X116005785Y-92677057D01*
X115988800Y-92745992D01*
X115937243Y-92794801D01*
X115867482Y-92807988D01*
X115827753Y-92797302D01*
X115818262Y-92792986D01*
X115801210Y-92788000D01*
X115674940Y-92769917D01*
X115657162Y-92769917D01*
X115530892Y-92788000D01*
X115513837Y-92792987D01*
X115396728Y-92846233D01*
X115383384Y-92854450D01*
X115343507Y-92886513D01*
X115338429Y-92891069D01*
X114898217Y-93331281D01*
X114890603Y-93345225D01*
X114890734Y-93347058D01*
X114894985Y-93353673D01*
X115653239Y-94111927D01*
X115667183Y-94119541D01*
X115669016Y-94119410D01*
X115675631Y-94115159D01*
X116433884Y-93356906D01*
X116441498Y-93342962D01*
X116441367Y-93341129D01*
X116437116Y-93334514D01*
X116227535Y-93124933D01*
X116193509Y-93062621D01*
X116198574Y-92991806D01*
X116241121Y-92934970D01*
X116307641Y-92910159D01*
X116366367Y-92920070D01*
X116508470Y-92981122D01*
X116705740Y-93025760D01*
X116711509Y-93025987D01*
X116711512Y-93025987D01*
X116787683Y-93028979D01*
X116907842Y-93033700D01*
X116994132Y-93021189D01*
X117102286Y-93005508D01*
X117102291Y-93005507D01*
X117108007Y-93004678D01*
X117113479Y-93002820D01*
X117113481Y-93002820D01*
X117294067Y-92941519D01*
X117294069Y-92941518D01*
X117299531Y-92939664D01*
X117476001Y-92840837D01*
X117480445Y-92837141D01*
X117507931Y-92814282D01*
X117573095Y-92786101D01*
X117643150Y-92797625D01*
X117695854Y-92845194D01*
X117714500Y-92911156D01*
X117714500Y-95052915D01*
X117712079Y-95077496D01*
X117709592Y-95090000D01*
X117712012Y-95102169D01*
X117712012Y-95114581D01*
X117711776Y-95114581D01*
X117712523Y-95125202D01*
X117697609Y-95390781D01*
X117696027Y-95404822D01*
X117646749Y-95694845D01*
X117643605Y-95708620D01*
X117562165Y-95991304D01*
X117557498Y-96004641D01*
X117512430Y-96113445D01*
X117448483Y-96267830D01*
X117444922Y-96276426D01*
X117438793Y-96289153D01*
X117396559Y-96365569D01*
X117296490Y-96546630D01*
X117288973Y-96558593D01*
X117118743Y-96798511D01*
X117109933Y-96809559D01*
X116913905Y-97028914D01*
X116903914Y-97038905D01*
X116684559Y-97234933D01*
X116673511Y-97243743D01*
X116433593Y-97413973D01*
X116421630Y-97421490D01*
X116380306Y-97444329D01*
X116164153Y-97563793D01*
X116151430Y-97569920D01*
X116046344Y-97613448D01*
X115879641Y-97682498D01*
X115866304Y-97687165D01*
X115583620Y-97768605D01*
X115569845Y-97771749D01*
X115424833Y-97796388D01*
X115279817Y-97821028D01*
X115265785Y-97822608D01*
X115000202Y-97837523D01*
X114989581Y-97836776D01*
X114989581Y-97837012D01*
X114977169Y-97837012D01*
X114965000Y-97834592D01*
X114952829Y-97837013D01*
X114952496Y-97837079D01*
X114927915Y-97839500D01*
X114171032Y-97839500D01*
X114102911Y-97819498D01*
X114056418Y-97765842D01*
X114046314Y-97695568D01*
X114075808Y-97630988D01*
X114081937Y-97624405D01*
X115266659Y-96439683D01*
X115279077Y-96421098D01*
X115301151Y-96388062D01*
X115301151Y-96388061D01*
X115308047Y-96377741D01*
X115327490Y-96280000D01*
X115327080Y-96277937D01*
X115345071Y-96216664D01*
X115398727Y-96170171D01*
X115469001Y-96160067D01*
X115503218Y-96170083D01*
X115513836Y-96174910D01*
X115530892Y-96179898D01*
X115657162Y-96197981D01*
X115674940Y-96197981D01*
X115801210Y-96179898D01*
X115818265Y-96174911D01*
X115935374Y-96121665D01*
X115948718Y-96113448D01*
X115988595Y-96081385D01*
X115993673Y-96076829D01*
X116433885Y-95636617D01*
X116441499Y-95622673D01*
X116441368Y-95620840D01*
X116437117Y-95614225D01*
X115307973Y-94485081D01*
X116030459Y-94485081D01*
X116030590Y-94486914D01*
X116034841Y-94493529D01*
X116793094Y-95251782D01*
X116807038Y-95259396D01*
X116808871Y-95259265D01*
X116815486Y-95255014D01*
X117258925Y-94811575D01*
X117263487Y-94806491D01*
X117295547Y-94766618D01*
X117303769Y-94753268D01*
X117357013Y-94636163D01*
X117362000Y-94619108D01*
X117380083Y-94492838D01*
X117380083Y-94475060D01*
X117362000Y-94348790D01*
X117357013Y-94331735D01*
X117303767Y-94214626D01*
X117295550Y-94201282D01*
X117263487Y-94161405D01*
X117258931Y-94156327D01*
X116818719Y-93716115D01*
X116804775Y-93708501D01*
X116802942Y-93708632D01*
X116796327Y-93712883D01*
X116038073Y-94471137D01*
X116030459Y-94485081D01*
X115307973Y-94485081D01*
X114539008Y-93716116D01*
X114525064Y-93708502D01*
X114523231Y-93708633D01*
X114516616Y-93712884D01*
X114073177Y-94156323D01*
X114068615Y-94161407D01*
X114036555Y-94201280D01*
X114028333Y-94214630D01*
X113975089Y-94331735D01*
X113970102Y-94348790D01*
X113952019Y-94475060D01*
X113952019Y-94492838D01*
X113970102Y-94619108D01*
X113975090Y-94636164D01*
X113979917Y-94646782D01*
X113989902Y-94717073D01*
X113960300Y-94781604D01*
X113900509Y-94819887D01*
X113875082Y-94823521D01*
X113870000Y-94822510D01*
X113772259Y-94841953D01*
X113710317Y-94883341D01*
X112473341Y-96120317D01*
X112469902Y-96125464D01*
X112440089Y-96170083D01*
X112431953Y-96182259D01*
X112412510Y-96280000D01*
X112431953Y-96377741D01*
X112438849Y-96388061D01*
X112438849Y-96388062D01*
X112460923Y-96421098D01*
X112473341Y-96439683D01*
X113658063Y-97624405D01*
X113692089Y-97686717D01*
X113687024Y-97757532D01*
X113644477Y-97814368D01*
X113577957Y-97839179D01*
X113568968Y-97839500D01*
X108466500Y-97839500D01*
X108398379Y-97819498D01*
X108351886Y-97765842D01*
X108340500Y-97713500D01*
X108340500Y-97427885D01*
X108754000Y-97427885D01*
X108758475Y-97443124D01*
X108759865Y-97444329D01*
X108767548Y-97446000D01*
X108977885Y-97446000D01*
X108993124Y-97441525D01*
X108994329Y-97440135D01*
X108996000Y-97432452D01*
X108996000Y-97427885D01*
X109504000Y-97427885D01*
X109508475Y-97443124D01*
X109509865Y-97444329D01*
X109517548Y-97446000D01*
X109727885Y-97446000D01*
X109743124Y-97441525D01*
X109744329Y-97440135D01*
X109746000Y-97432452D01*
X109746000Y-97427885D01*
X110254000Y-97427885D01*
X110258475Y-97443124D01*
X110259865Y-97444329D01*
X110267548Y-97446000D01*
X110477885Y-97446000D01*
X110493124Y-97441525D01*
X110494329Y-97440135D01*
X110496000Y-97432452D01*
X110496000Y-97427885D01*
X111004000Y-97427885D01*
X111008475Y-97443124D01*
X111009865Y-97444329D01*
X111017548Y-97446000D01*
X111614884Y-97446000D01*
X111630123Y-97441525D01*
X111631328Y-97440135D01*
X111632999Y-97432452D01*
X111632999Y-97373105D01*
X111633000Y-97373073D01*
X111633000Y-97222115D01*
X111628525Y-97206876D01*
X111627135Y-97205671D01*
X111619452Y-97204000D01*
X111022115Y-97204000D01*
X111006876Y-97208475D01*
X111005671Y-97209865D01*
X111004000Y-97217548D01*
X111004000Y-97427885D01*
X110496000Y-97427885D01*
X110496000Y-97222115D01*
X110491525Y-97206876D01*
X110490135Y-97205671D01*
X110482452Y-97204000D01*
X110272115Y-97204000D01*
X110256876Y-97208475D01*
X110255671Y-97209865D01*
X110254000Y-97217548D01*
X110254000Y-97427885D01*
X109746000Y-97427885D01*
X109746000Y-97222115D01*
X109741525Y-97206876D01*
X109740135Y-97205671D01*
X109732452Y-97204000D01*
X109522115Y-97204000D01*
X109506876Y-97208475D01*
X109505671Y-97209865D01*
X109504000Y-97217548D01*
X109504000Y-97427885D01*
X108996000Y-97427885D01*
X108996000Y-97222115D01*
X108991525Y-97206876D01*
X108990135Y-97205671D01*
X108982452Y-97204000D01*
X108772115Y-97204000D01*
X108756876Y-97208475D01*
X108755671Y-97209865D01*
X108754000Y-97217548D01*
X108754000Y-97427885D01*
X108340500Y-97427885D01*
X108340500Y-96677885D01*
X108754000Y-96677885D01*
X108758475Y-96693124D01*
X108759865Y-96694329D01*
X108767548Y-96696000D01*
X108977885Y-96696000D01*
X108993124Y-96691525D01*
X108994329Y-96690135D01*
X108996000Y-96682452D01*
X108996000Y-96677885D01*
X109504000Y-96677885D01*
X109508475Y-96693124D01*
X109509865Y-96694329D01*
X109517548Y-96696000D01*
X109727885Y-96696000D01*
X109743124Y-96691525D01*
X109744329Y-96690135D01*
X109746000Y-96682452D01*
X109746000Y-96677885D01*
X110254000Y-96677885D01*
X110258475Y-96693124D01*
X110259865Y-96694329D01*
X110267548Y-96696000D01*
X110477885Y-96696000D01*
X110493124Y-96691525D01*
X110494329Y-96690135D01*
X110496000Y-96682452D01*
X110496000Y-96677885D01*
X111004000Y-96677885D01*
X111008475Y-96693124D01*
X111009865Y-96694329D01*
X111017548Y-96696000D01*
X111614884Y-96696000D01*
X111630123Y-96691525D01*
X111631328Y-96690135D01*
X111632999Y-96682452D01*
X111632999Y-96623105D01*
X111633000Y-96623073D01*
X111633000Y-96472115D01*
X111628525Y-96456876D01*
X111627135Y-96455671D01*
X111619452Y-96454000D01*
X111022115Y-96454000D01*
X111006876Y-96458475D01*
X111005671Y-96459865D01*
X111004000Y-96467548D01*
X111004000Y-96677885D01*
X110496000Y-96677885D01*
X110496000Y-96472115D01*
X110491525Y-96456876D01*
X110490135Y-96455671D01*
X110482452Y-96454000D01*
X110272115Y-96454000D01*
X110256876Y-96458475D01*
X110255671Y-96459865D01*
X110254000Y-96467548D01*
X110254000Y-96677885D01*
X109746000Y-96677885D01*
X109746000Y-96472115D01*
X109741525Y-96456876D01*
X109740135Y-96455671D01*
X109732452Y-96454000D01*
X109522115Y-96454000D01*
X109506876Y-96458475D01*
X109505671Y-96459865D01*
X109504000Y-96467548D01*
X109504000Y-96677885D01*
X108996000Y-96677885D01*
X108996000Y-96472115D01*
X108991525Y-96456876D01*
X108990135Y-96455671D01*
X108982452Y-96454000D01*
X108772115Y-96454000D01*
X108756876Y-96458475D01*
X108755671Y-96459865D01*
X108754000Y-96467548D01*
X108754000Y-96677885D01*
X108340500Y-96677885D01*
X108340500Y-95927885D01*
X108754000Y-95927885D01*
X108758475Y-95943124D01*
X108759865Y-95944329D01*
X108767548Y-95946000D01*
X108977885Y-95946000D01*
X108993124Y-95941525D01*
X108994329Y-95940135D01*
X108996000Y-95932452D01*
X108996000Y-95927885D01*
X109504000Y-95927885D01*
X109508475Y-95943124D01*
X109509865Y-95944329D01*
X109517548Y-95946000D01*
X109727885Y-95946000D01*
X109743124Y-95941525D01*
X109744329Y-95940135D01*
X109746000Y-95932452D01*
X109746000Y-95927885D01*
X110254000Y-95927885D01*
X110258475Y-95943124D01*
X110259865Y-95944329D01*
X110267548Y-95946000D01*
X110477885Y-95946000D01*
X110493124Y-95941525D01*
X110494329Y-95940135D01*
X110496000Y-95932452D01*
X110496000Y-95927885D01*
X111004000Y-95927885D01*
X111008475Y-95943124D01*
X111009865Y-95944329D01*
X111017548Y-95946000D01*
X111614884Y-95946000D01*
X111630123Y-95941525D01*
X111631328Y-95940135D01*
X111632999Y-95932452D01*
X111632999Y-95873105D01*
X111633000Y-95873073D01*
X111633000Y-95722115D01*
X111628525Y-95706876D01*
X111627135Y-95705671D01*
X111619452Y-95704000D01*
X111022115Y-95704000D01*
X111006876Y-95708475D01*
X111005671Y-95709865D01*
X111004000Y-95717548D01*
X111004000Y-95927885D01*
X110496000Y-95927885D01*
X110496000Y-95722115D01*
X110491525Y-95706876D01*
X110490135Y-95705671D01*
X110482452Y-95704000D01*
X110272115Y-95704000D01*
X110256876Y-95708475D01*
X110255671Y-95709865D01*
X110254000Y-95717548D01*
X110254000Y-95927885D01*
X109746000Y-95927885D01*
X109746000Y-95722115D01*
X109741525Y-95706876D01*
X109740135Y-95705671D01*
X109732452Y-95704000D01*
X109522115Y-95704000D01*
X109506876Y-95708475D01*
X109505671Y-95709865D01*
X109504000Y-95717548D01*
X109504000Y-95927885D01*
X108996000Y-95927885D01*
X108996000Y-95722115D01*
X108991525Y-95706876D01*
X108990135Y-95705671D01*
X108982452Y-95704000D01*
X108772115Y-95704000D01*
X108756876Y-95708475D01*
X108755671Y-95709865D01*
X108754000Y-95717548D01*
X108754000Y-95927885D01*
X108340500Y-95927885D01*
X108340500Y-95627085D01*
X108342921Y-95602504D01*
X108342987Y-95602172D01*
X108342987Y-95602171D01*
X108345408Y-95590000D01*
X108325966Y-95492260D01*
X108270601Y-95409399D01*
X108273324Y-95407580D01*
X108248879Y-95362814D01*
X108246000Y-95336031D01*
X108246000Y-95322000D01*
X108266002Y-95253879D01*
X108319658Y-95207386D01*
X108372000Y-95196000D01*
X109727885Y-95196000D01*
X109743124Y-95191525D01*
X109744329Y-95190135D01*
X109746000Y-95182452D01*
X109746000Y-95177885D01*
X110254000Y-95177885D01*
X110258475Y-95193124D01*
X110259865Y-95194329D01*
X110267548Y-95196000D01*
X110477885Y-95196000D01*
X110493124Y-95191525D01*
X110494329Y-95190135D01*
X110496000Y-95182452D01*
X110496000Y-95177885D01*
X111004000Y-95177885D01*
X111008475Y-95193124D01*
X111009865Y-95194329D01*
X111017548Y-95196000D01*
X111614884Y-95196000D01*
X111630123Y-95191525D01*
X111631328Y-95190135D01*
X111632999Y-95182452D01*
X111632999Y-95030331D01*
X111632629Y-95023510D01*
X111627105Y-94972648D01*
X111623479Y-94957396D01*
X111578324Y-94836946D01*
X111569786Y-94821351D01*
X111493285Y-94719276D01*
X111480724Y-94706715D01*
X111378649Y-94630214D01*
X111363054Y-94621676D01*
X111242606Y-94576522D01*
X111227351Y-94572895D01*
X111176486Y-94567369D01*
X111169672Y-94567000D01*
X111022115Y-94567000D01*
X111006876Y-94571475D01*
X111005671Y-94572865D01*
X111004000Y-94580548D01*
X111004000Y-95177885D01*
X110496000Y-95177885D01*
X110496000Y-94585116D01*
X110491525Y-94569877D01*
X110490135Y-94568672D01*
X110482452Y-94567001D01*
X110423105Y-94567001D01*
X110423073Y-94567000D01*
X110272115Y-94567000D01*
X110256876Y-94571475D01*
X110255671Y-94572865D01*
X110254000Y-94580548D01*
X110254000Y-95177885D01*
X109746000Y-95177885D01*
X109746000Y-94585116D01*
X109741525Y-94569877D01*
X109740135Y-94568672D01*
X109732452Y-94567001D01*
X109673105Y-94567001D01*
X109673073Y-94567000D01*
X109355080Y-94567001D01*
X109286960Y-94546999D01*
X109240467Y-94493344D01*
X109229817Y-94427395D01*
X109232631Y-94401491D01*
X109233000Y-94394672D01*
X109233000Y-93622115D01*
X109228525Y-93606876D01*
X109227135Y-93605671D01*
X109219452Y-93604000D01*
X107847000Y-93604000D01*
X107778879Y-93583998D01*
X107732386Y-93530342D01*
X107721000Y-93478000D01*
X107721000Y-93077885D01*
X108229000Y-93077885D01*
X108233475Y-93093124D01*
X108234865Y-93094329D01*
X108242548Y-93096000D01*
X109214884Y-93096000D01*
X109230123Y-93091525D01*
X109231328Y-93090135D01*
X109232999Y-93082452D01*
X109232999Y-92305331D01*
X109232629Y-92298510D01*
X109227105Y-92247648D01*
X109223479Y-92232396D01*
X109178324Y-92111946D01*
X109169786Y-92096351D01*
X109093285Y-91994276D01*
X109080724Y-91981715D01*
X108978649Y-91905214D01*
X108963054Y-91896676D01*
X108842606Y-91851522D01*
X108827351Y-91847895D01*
X108776486Y-91842369D01*
X108769672Y-91842000D01*
X108247115Y-91842000D01*
X108231876Y-91846475D01*
X108230671Y-91847865D01*
X108229000Y-91855548D01*
X108229000Y-93077885D01*
X107721000Y-93077885D01*
X107721000Y-91860116D01*
X107716525Y-91844877D01*
X107715135Y-91843672D01*
X107707452Y-91842001D01*
X107200283Y-91842001D01*
X107132162Y-91821999D01*
X107085669Y-91768343D01*
X107075565Y-91698069D01*
X107078577Y-91683388D01*
X107080480Y-91676284D01*
X107083315Y-91669233D01*
X107105499Y-91513358D01*
X107105643Y-91499635D01*
X107086728Y-91343329D01*
X107049951Y-91246000D01*
X107033759Y-91203149D01*
X107033758Y-91203146D01*
X107031075Y-91196047D01*
X106941896Y-91066292D01*
X106882931Y-91013756D01*
X106830013Y-90966607D01*
X106830010Y-90966605D01*
X106824341Y-90961554D01*
X106814868Y-90956538D01*
X106701427Y-90896474D01*
X106685196Y-90887880D01*
X106675542Y-90885455D01*
X106539863Y-90851375D01*
X106539861Y-90851375D01*
X106532493Y-90849524D01*
X106524895Y-90849484D01*
X106524893Y-90849484D01*
X106457684Y-90849132D01*
X106375049Y-90848700D01*
X106367670Y-90850472D01*
X106367666Y-90850472D01*
X106229332Y-90883683D01*
X106229328Y-90883684D01*
X106221953Y-90885455D01*
X106082044Y-90957667D01*
X105987337Y-91040285D01*
X105922858Y-91069992D01*
X105904510Y-91071335D01*
X104179233Y-91071335D01*
X104111112Y-91051333D01*
X104090138Y-91034430D01*
X101001116Y-87945408D01*
X100991261Y-87934319D01*
X100977334Y-87916653D01*
X100971503Y-87909256D01*
X100963756Y-87903902D01*
X100963754Y-87903900D01*
X100925688Y-87877592D01*
X100922509Y-87875321D01*
X100877678Y-87842208D01*
X100871203Y-87839934D01*
X100865554Y-87836030D01*
X100812442Y-87819233D01*
X100808684Y-87817979D01*
X100765046Y-87802654D01*
X100756162Y-87799534D01*
X100749302Y-87799264D01*
X100742758Y-87797195D01*
X100736469Y-87796700D01*
X100686504Y-87796700D01*
X100681558Y-87796603D01*
X100627470Y-87794478D01*
X100620640Y-87796289D01*
X100613168Y-87796700D01*
X99829598Y-87796700D01*
X99761477Y-87776698D01*
X99740503Y-87759795D01*
X98565205Y-86584497D01*
X98531179Y-86522185D01*
X98528300Y-86495402D01*
X98528300Y-79882896D01*
X98529173Y-79868086D01*
X98531817Y-79845746D01*
X98532924Y-79836394D01*
X98529044Y-79815150D01*
X98522920Y-79781618D01*
X98522270Y-79777713D01*
X98515390Y-79731951D01*
X98515390Y-79731950D01*
X98513990Y-79722640D01*
X98511018Y-79716451D01*
X98509785Y-79709699D01*
X98484100Y-79660253D01*
X98482350Y-79656750D01*
X98462319Y-79615034D01*
X98462318Y-79615032D01*
X98458240Y-79606540D01*
X98453580Y-79601499D01*
X98450416Y-79595408D01*
X98446319Y-79590611D01*
X98410988Y-79555280D01*
X98407559Y-79551714D01*
X98407230Y-79551358D01*
X98370816Y-79511966D01*
X98364706Y-79508417D01*
X98359133Y-79503425D01*
X96866946Y-78011238D01*
X96832920Y-77948926D01*
X96830235Y-77929098D01*
X96830278Y-77925000D01*
X96828042Y-77906518D01*
X96820439Y-77843694D01*
X96811363Y-77768694D01*
X96755710Y-77621412D01*
X96666531Y-77491657D01*
X96588067Y-77421748D01*
X96554648Y-77391972D01*
X96554645Y-77391970D01*
X96548976Y-77386919D01*
X96526477Y-77375006D01*
X96416543Y-77316799D01*
X96416544Y-77316799D01*
X96409831Y-77313245D01*
X96333456Y-77294061D01*
X96264498Y-77276740D01*
X96264496Y-77276740D01*
X96257128Y-77274889D01*
X96249530Y-77274849D01*
X96249528Y-77274849D01*
X96182319Y-77274497D01*
X96099684Y-77274065D01*
X96092305Y-77275837D01*
X96092301Y-77275837D01*
X95953967Y-77309048D01*
X95953963Y-77309049D01*
X95946588Y-77310820D01*
X95806679Y-77383032D01*
X95800957Y-77388024D01*
X95800955Y-77388025D01*
X95693759Y-77481538D01*
X95693756Y-77481541D01*
X95688034Y-77486533D01*
X95683667Y-77492747D01*
X95617753Y-77586533D01*
X95597501Y-77615348D01*
X95540309Y-77762039D01*
X95539318Y-77769568D01*
X95521288Y-77906519D01*
X95519758Y-77918138D01*
X95537035Y-78074633D01*
X95591143Y-78222490D01*
X95595380Y-78228796D01*
X95595382Y-78228799D01*
X95626764Y-78275499D01*
X95678958Y-78353172D01*
X95684574Y-78358282D01*
X95779607Y-78444755D01*
X95795410Y-78459135D01*
X95855369Y-78491690D01*
X95927099Y-78530637D01*
X95927101Y-78530638D01*
X95933776Y-78534262D01*
X95941125Y-78536190D01*
X96078719Y-78572287D01*
X96078721Y-78572287D01*
X96086069Y-78574215D01*
X96169593Y-78575527D01*
X96237390Y-78596596D01*
X96256708Y-78612416D01*
X97634795Y-79990503D01*
X97668821Y-80052815D01*
X97671700Y-80079598D01*
X97671700Y-86692104D01*
X97670827Y-86706914D01*
X97667076Y-86738605D01*
X97677084Y-86793405D01*
X97677725Y-86797258D01*
X97686010Y-86852360D01*
X97688982Y-86858549D01*
X97690215Y-86865301D01*
X97715900Y-86914747D01*
X97717650Y-86918250D01*
X97741760Y-86968460D01*
X97746420Y-86973501D01*
X97749584Y-86979592D01*
X97753681Y-86984389D01*
X97789012Y-87019720D01*
X97792441Y-87023286D01*
X97829184Y-87063034D01*
X97835294Y-87066583D01*
X97840867Y-87071575D01*
X99273884Y-88504592D01*
X99283739Y-88515681D01*
X99303497Y-88540744D01*
X99311244Y-88546098D01*
X99311246Y-88546100D01*
X99349312Y-88572408D01*
X99352491Y-88574679D01*
X99397322Y-88607792D01*
X99403797Y-88610066D01*
X99409446Y-88613970D01*
X99450641Y-88626998D01*
X99462559Y-88630767D01*
X99466317Y-88632021D01*
X99518838Y-88650466D01*
X99525698Y-88650736D01*
X99532242Y-88652805D01*
X99538531Y-88653300D01*
X99588496Y-88653300D01*
X99593442Y-88653397D01*
X99647530Y-88655522D01*
X99654360Y-88653711D01*
X99661832Y-88653300D01*
X100445402Y-88653300D01*
X100513523Y-88673302D01*
X100534497Y-88690205D01*
X103623519Y-91779227D01*
X103633374Y-91790316D01*
X103653132Y-91815379D01*
X103660879Y-91820733D01*
X103660881Y-91820735D01*
X103662710Y-91821999D01*
X103691652Y-91842001D01*
X103698947Y-91847043D01*
X103702155Y-91849336D01*
X103726573Y-91867371D01*
X103733042Y-91872149D01*
X103775953Y-91928710D01*
X103781473Y-91999492D01*
X103747849Y-92062021D01*
X103685757Y-92096446D01*
X103658183Y-92099500D01*
X102600326Y-92099500D01*
X102527260Y-92114034D01*
X102444399Y-92169399D01*
X102389034Y-92252260D01*
X102374500Y-92325326D01*
X102374500Y-92594500D01*
X102354498Y-92662621D01*
X102300842Y-92709114D01*
X102248500Y-92720500D01*
X101323027Y-92720500D01*
X101267852Y-92706385D01*
X101267819Y-92706472D01*
X101267018Y-92706172D01*
X101267019Y-92706172D01*
X101259418Y-92703323D01*
X101251546Y-92699013D01*
X101252914Y-92696514D01*
X101207762Y-92662594D01*
X101183065Y-92596031D01*
X101198275Y-92526683D01*
X101248562Y-92476567D01*
X101268884Y-92467733D01*
X101341782Y-92443413D01*
X101354962Y-92437239D01*
X101492807Y-92351937D01*
X101504208Y-92342901D01*
X101618739Y-92228171D01*
X101627751Y-92216760D01*
X101712816Y-92078757D01*
X101718963Y-92065576D01*
X101770138Y-91911290D01*
X101773005Y-91897914D01*
X101782672Y-91803562D01*
X101783000Y-91797146D01*
X101783000Y-91772115D01*
X101778525Y-91756876D01*
X101777135Y-91755671D01*
X101769452Y-91754000D01*
X100422000Y-91754000D01*
X100353879Y-91733998D01*
X100307386Y-91680342D01*
X100296000Y-91628000D01*
X100296000Y-91227885D01*
X100804000Y-91227885D01*
X100808475Y-91243124D01*
X100809865Y-91244329D01*
X100817548Y-91246000D01*
X101764884Y-91246000D01*
X101780123Y-91241525D01*
X101781328Y-91240135D01*
X101782999Y-91232452D01*
X101782999Y-91202905D01*
X101782662Y-91196386D01*
X101772743Y-91100794D01*
X101769851Y-91087400D01*
X101718412Y-90933216D01*
X101712239Y-90920038D01*
X101626937Y-90782193D01*
X101617901Y-90770792D01*
X101503171Y-90656261D01*
X101491760Y-90647249D01*
X101353757Y-90562184D01*
X101340576Y-90556037D01*
X101186290Y-90504862D01*
X101172914Y-90501995D01*
X101078562Y-90492328D01*
X101072145Y-90492000D01*
X100822115Y-90492000D01*
X100806876Y-90496475D01*
X100805671Y-90497865D01*
X100804000Y-90505548D01*
X100804000Y-91227885D01*
X100296000Y-91227885D01*
X100296000Y-90510116D01*
X100291525Y-90494877D01*
X100290135Y-90493672D01*
X100282452Y-90492001D01*
X100031054Y-90492001D01*
X99962933Y-90471999D01*
X99916440Y-90418343D01*
X99906725Y-90363740D01*
X99905134Y-90363723D01*
X99905235Y-90354134D01*
X99905235Y-90354128D01*
X99905278Y-90350000D01*
X99903641Y-90336468D01*
X99895960Y-90273001D01*
X99886363Y-90193694D01*
X99880129Y-90177196D01*
X99833394Y-90053514D01*
X99833393Y-90053511D01*
X99830710Y-90046412D01*
X99741531Y-89916657D01*
X99688368Y-89869290D01*
X99629648Y-89816972D01*
X99629645Y-89816970D01*
X99623976Y-89811919D01*
X99484831Y-89738245D01*
X99443622Y-89727894D01*
X99339498Y-89701740D01*
X99339496Y-89701740D01*
X99332128Y-89699889D01*
X99324530Y-89699849D01*
X99324528Y-89699849D01*
X99257319Y-89699497D01*
X99174684Y-89699065D01*
X99167305Y-89700837D01*
X99167301Y-89700837D01*
X99028967Y-89734048D01*
X99028963Y-89734049D01*
X99021588Y-89735820D01*
X98881679Y-89808032D01*
X98875957Y-89813024D01*
X98875955Y-89813025D01*
X98768759Y-89906538D01*
X98768756Y-89906541D01*
X98763034Y-89911533D01*
X98758667Y-89917747D01*
X98688517Y-90017560D01*
X98672501Y-90040348D01*
X98615309Y-90187039D01*
X98609877Y-90228300D01*
X98604046Y-90272592D01*
X98594758Y-90343138D01*
X98595591Y-90350684D01*
X98595591Y-90350694D01*
X98595770Y-90352311D01*
X98595562Y-90353481D01*
X98595512Y-90358284D01*
X98594711Y-90358276D01*
X98583362Y-90422215D01*
X98573836Y-90437797D01*
X98572805Y-90439744D01*
X98567208Y-90447322D01*
X98564934Y-90453797D01*
X98561030Y-90459446D01*
X98550631Y-90492328D01*
X98544233Y-90512559D01*
X98542979Y-90516316D01*
X98524534Y-90568838D01*
X98524264Y-90575698D01*
X98522195Y-90582242D01*
X98521700Y-90588531D01*
X98521700Y-90638496D01*
X98521603Y-90643442D01*
X98519478Y-90697530D01*
X98521289Y-90704360D01*
X98521700Y-90711832D01*
X98521700Y-93331257D01*
X98501698Y-93399378D01*
X98478529Y-93426206D01*
X98443760Y-93456537D01*
X98443756Y-93456541D01*
X98438034Y-93461533D01*
X98433667Y-93467747D01*
X98351964Y-93583998D01*
X98347501Y-93590348D01*
X98290309Y-93737039D01*
X98289318Y-93744568D01*
X98270657Y-93886310D01*
X98241935Y-93951238D01*
X98182669Y-93990329D01*
X98111678Y-93991174D01*
X98056640Y-93958959D01*
X95045405Y-90947724D01*
X95011379Y-90885412D01*
X95008500Y-90858629D01*
X95008500Y-82917063D01*
X95009933Y-82898114D01*
X95012097Y-82883886D01*
X95013198Y-82876651D01*
X95008915Y-82823990D01*
X95008500Y-82813777D01*
X95008500Y-82805707D01*
X95008078Y-82802087D01*
X95008077Y-82802069D01*
X95005208Y-82777461D01*
X95004775Y-82773086D01*
X94999454Y-82707661D01*
X94999453Y-82707658D01*
X94998860Y-82700363D01*
X94996604Y-82693399D01*
X94995413Y-82687440D01*
X94994029Y-82681585D01*
X94993182Y-82674319D01*
X94968265Y-82605673D01*
X94966848Y-82601545D01*
X94956633Y-82570012D01*
X94950500Y-82531181D01*
X94950500Y-72692612D01*
X94958712Y-72647869D01*
X94979019Y-72594410D01*
X94979019Y-72594409D01*
X94981521Y-72587823D01*
X94995688Y-72487025D01*
X95004404Y-72425010D01*
X95004404Y-72425006D01*
X95004955Y-72421088D01*
X95005249Y-72400000D01*
X94997599Y-72331793D01*
X94987266Y-72239672D01*
X94987265Y-72239669D01*
X94986481Y-72232676D01*
X94957509Y-72149481D01*
X94950500Y-72108043D01*
X94950500Y-71959500D01*
X94970502Y-71891379D01*
X95024158Y-71844886D01*
X95076500Y-71833500D01*
X101015500Y-71833500D01*
X101083621Y-71853502D01*
G37*
%TD.AperFunction*%
%TA.AperFunction,Conductor*%
G36*
X93724012Y-91772147D02*
G01*
X93730595Y-91778276D01*
X94820762Y-92868443D01*
X94854788Y-92930755D01*
X94849723Y-93001570D01*
X94820762Y-93046633D01*
X94536115Y-93331280D01*
X94528501Y-93345225D01*
X94528632Y-93347059D01*
X94532883Y-93353673D01*
X95574064Y-94394854D01*
X95608090Y-94457166D01*
X95603025Y-94527981D01*
X95574064Y-94573044D01*
X94536116Y-95610992D01*
X94528502Y-95624936D01*
X94528633Y-95626769D01*
X94532884Y-95633384D01*
X94976323Y-96076823D01*
X94981407Y-96081385D01*
X95021280Y-96113445D01*
X95034630Y-96121667D01*
X95151735Y-96174911D01*
X95168790Y-96179898D01*
X95295060Y-96197981D01*
X95312838Y-96197981D01*
X95439108Y-96179898D01*
X95456164Y-96174910D01*
X95466782Y-96170083D01*
X95537073Y-96160098D01*
X95601604Y-96189700D01*
X95639887Y-96249491D01*
X95643521Y-96274918D01*
X95642510Y-96280000D01*
X95661953Y-96377741D01*
X95668849Y-96388061D01*
X95668849Y-96388062D01*
X95690923Y-96421098D01*
X95703341Y-96439683D01*
X96888063Y-97624405D01*
X96922089Y-97686717D01*
X96917024Y-97757532D01*
X96874477Y-97814368D01*
X96807957Y-97839179D01*
X96798968Y-97839500D01*
X96302085Y-97839500D01*
X96277504Y-97837079D01*
X96277171Y-97837013D01*
X96265000Y-97834592D01*
X96252831Y-97837012D01*
X96240419Y-97837012D01*
X96240419Y-97836776D01*
X96229798Y-97837523D01*
X95964215Y-97822608D01*
X95950183Y-97821028D01*
X95805167Y-97796388D01*
X95660155Y-97771749D01*
X95646380Y-97768605D01*
X95363696Y-97687165D01*
X95350359Y-97682498D01*
X95183656Y-97613448D01*
X95078570Y-97569920D01*
X95065847Y-97563793D01*
X94849694Y-97444329D01*
X94808370Y-97421490D01*
X94796407Y-97413973D01*
X94556489Y-97243743D01*
X94545441Y-97234933D01*
X94326086Y-97038905D01*
X94316095Y-97028914D01*
X94120067Y-96809559D01*
X94111257Y-96798511D01*
X93941027Y-96558593D01*
X93933510Y-96546630D01*
X93833441Y-96365569D01*
X93791207Y-96289153D01*
X93785078Y-96276426D01*
X93781518Y-96267830D01*
X93717570Y-96113445D01*
X93672502Y-96004641D01*
X93667835Y-95991304D01*
X93586395Y-95708620D01*
X93583251Y-95694845D01*
X93533973Y-95404822D01*
X93532391Y-95390781D01*
X93517477Y-95125202D01*
X93518224Y-95114581D01*
X93517988Y-95114581D01*
X93517988Y-95102169D01*
X93520408Y-95090000D01*
X93517921Y-95077496D01*
X93515500Y-95052915D01*
X93515500Y-94920192D01*
X93535502Y-94852071D01*
X93589158Y-94805578D01*
X93659432Y-94795474D01*
X93724012Y-94824968D01*
X93730595Y-94831097D01*
X94151281Y-95251783D01*
X94165225Y-95259397D01*
X94167058Y-95259266D01*
X94173673Y-95255015D01*
X94931927Y-94496761D01*
X94939541Y-94482817D01*
X94939410Y-94480984D01*
X94935159Y-94474369D01*
X94176906Y-93716116D01*
X94162962Y-93708502D01*
X94161129Y-93708633D01*
X94154514Y-93712884D01*
X93730595Y-94136803D01*
X93668283Y-94170829D01*
X93597468Y-94165764D01*
X93540632Y-94123217D01*
X93515821Y-94056697D01*
X93515500Y-94047708D01*
X93515500Y-91867371D01*
X93535502Y-91799250D01*
X93589158Y-91752757D01*
X93659432Y-91742653D01*
X93724012Y-91772147D01*
G37*
%TD.AperFunction*%
%TA.AperFunction,Conductor*%
G36*
X115691621Y-87408302D02*
G01*
X115738114Y-87461958D01*
X115749500Y-87514300D01*
X115749500Y-87724674D01*
X115764034Y-87797740D01*
X115819399Y-87880601D01*
X115829714Y-87887493D01*
X115873356Y-87916653D01*
X115902260Y-87935966D01*
X115975326Y-87950500D01*
X116159184Y-87950500D01*
X116227305Y-87970502D01*
X116273798Y-88024158D01*
X116283902Y-88094432D01*
X116254408Y-88159012D01*
X116217365Y-88188263D01*
X116128458Y-88234545D01*
X116119738Y-88240036D01*
X115949433Y-88367905D01*
X115941726Y-88374748D01*
X115794590Y-88528717D01*
X115788104Y-88536727D01*
X115668098Y-88712649D01*
X115663000Y-88721623D01*
X115573338Y-88914783D01*
X115569775Y-88924470D01*
X115514389Y-89124183D01*
X115515912Y-89132607D01*
X115528292Y-89136000D01*
X116978000Y-89136000D01*
X117046121Y-89156002D01*
X117092614Y-89209658D01*
X117104000Y-89262000D01*
X117104000Y-89518000D01*
X117083998Y-89586121D01*
X117030342Y-89632614D01*
X116978000Y-89644000D01*
X115533225Y-89644000D01*
X115519694Y-89647973D01*
X115518257Y-89657966D01*
X115548565Y-89792446D01*
X115551645Y-89802275D01*
X115631770Y-89999603D01*
X115636413Y-90008794D01*
X115747694Y-90190388D01*
X115753777Y-90198699D01*
X115893213Y-90359667D01*
X115900580Y-90366883D01*
X116064434Y-90502916D01*
X116072881Y-90508831D01*
X116256756Y-90616279D01*
X116266042Y-90620729D01*
X116420802Y-90679825D01*
X116477305Y-90722812D01*
X116501598Y-90789523D01*
X116485968Y-90858778D01*
X116435377Y-90908588D01*
X116419465Y-90915747D01*
X116407834Y-90920038D01*
X116374193Y-90932449D01*
X116200371Y-91035862D01*
X116048305Y-91169220D01*
X115923089Y-91328057D01*
X115915054Y-91343329D01*
X115867155Y-91434368D01*
X115817735Y-91485341D01*
X115755647Y-91501700D01*
X115059598Y-91501700D01*
X114991477Y-91481698D01*
X114970503Y-91464795D01*
X113965205Y-90459497D01*
X113931179Y-90397185D01*
X113928300Y-90370402D01*
X113928300Y-89497790D01*
X113948302Y-89429669D01*
X113972467Y-89401981D01*
X113982348Y-89393542D01*
X114074224Y-89265683D01*
X114132950Y-89119598D01*
X114155134Y-88963723D01*
X114155278Y-88950000D01*
X114136363Y-88793694D01*
X114090871Y-88673302D01*
X114083394Y-88653514D01*
X114083393Y-88653511D01*
X114080710Y-88646412D01*
X113991531Y-88516657D01*
X113884407Y-88421213D01*
X113846853Y-88360965D01*
X113847833Y-88289975D01*
X113886396Y-88231329D01*
X113942348Y-88183542D01*
X114034224Y-88055683D01*
X114092950Y-87909598D01*
X114094799Y-87896604D01*
X114124197Y-87831983D01*
X114130447Y-87825261D01*
X114530503Y-87425205D01*
X114592815Y-87391179D01*
X114619598Y-87388300D01*
X115623500Y-87388300D01*
X115691621Y-87408302D01*
G37*
%TD.AperFunction*%
%TA.AperFunction,Conductor*%
G36*
X102055366Y-77142001D02*
G01*
X102059822Y-77145292D01*
X102066297Y-77147566D01*
X102071946Y-77151470D01*
X102122253Y-77167380D01*
X102125059Y-77168267D01*
X102128817Y-77169521D01*
X102181338Y-77187966D01*
X102188198Y-77188236D01*
X102194742Y-77190305D01*
X102201031Y-77190800D01*
X102250996Y-77190800D01*
X102255942Y-77190897D01*
X102310030Y-77193022D01*
X102316860Y-77191211D01*
X102324332Y-77190800D01*
X103102784Y-77190800D01*
X103170905Y-77210802D01*
X103217398Y-77264458D01*
X103220764Y-77272567D01*
X103256474Y-77367824D01*
X103261854Y-77375003D01*
X103261856Y-77375006D01*
X103325172Y-77459487D01*
X103342454Y-77482546D01*
X103349635Y-77487928D01*
X103449994Y-77563144D01*
X103449997Y-77563146D01*
X103457176Y-77568526D01*
X103546561Y-77602034D01*
X103584025Y-77616079D01*
X103584027Y-77616079D01*
X103591420Y-77618851D01*
X103599269Y-77619704D01*
X103599270Y-77619704D01*
X103604362Y-77620257D01*
X103669924Y-77647500D01*
X103710350Y-77705863D01*
X103712804Y-77776818D01*
X103708146Y-77791289D01*
X103705407Y-77798315D01*
X103690309Y-77837039D01*
X103683508Y-77888700D01*
X103675579Y-77948926D01*
X103669758Y-77993138D01*
X103687035Y-78149633D01*
X103741143Y-78297490D01*
X103828958Y-78428172D01*
X103842461Y-78440459D01*
X103912487Y-78504177D01*
X103945410Y-78534135D01*
X104083776Y-78609262D01*
X104119750Y-78618700D01*
X104145407Y-78625431D01*
X104202528Y-78658212D01*
X106952930Y-81408614D01*
X106986956Y-81470926D01*
X106981891Y-81541741D01*
X106939344Y-81598577D01*
X106872824Y-81623388D01*
X106824168Y-81617302D01*
X106711293Y-81579863D01*
X106697914Y-81576995D01*
X106603562Y-81567328D01*
X106597145Y-81567000D01*
X105874846Y-81567000D01*
X105806725Y-81546998D01*
X105760232Y-81493342D01*
X105750128Y-81423068D01*
X105757939Y-81394003D01*
X105805115Y-81276651D01*
X105805116Y-81276649D01*
X105807950Y-81269598D01*
X105826098Y-81142084D01*
X105829553Y-81117807D01*
X105829553Y-81117804D01*
X105830134Y-81113723D01*
X105830278Y-81100000D01*
X105811363Y-80943694D01*
X105796415Y-80904134D01*
X105758394Y-80803514D01*
X105758393Y-80803511D01*
X105755710Y-80796412D01*
X105666531Y-80666657D01*
X105580335Y-80589859D01*
X105554648Y-80566972D01*
X105554645Y-80566970D01*
X105548976Y-80561919D01*
X105409831Y-80488245D01*
X105393122Y-80484048D01*
X105264498Y-80451740D01*
X105264496Y-80451740D01*
X105257128Y-80449889D01*
X105249530Y-80449849D01*
X105249528Y-80449849D01*
X105182319Y-80449497D01*
X105099684Y-80449065D01*
X105092305Y-80450837D01*
X105092301Y-80450837D01*
X104953967Y-80484048D01*
X104953963Y-80484049D01*
X104946588Y-80485820D01*
X104939843Y-80489301D01*
X104939844Y-80489301D01*
X104825531Y-80548302D01*
X104806679Y-80558032D01*
X104800957Y-80563024D01*
X104800955Y-80563025D01*
X104755648Y-80602549D01*
X104691166Y-80632257D01*
X104672819Y-80633600D01*
X103395380Y-80633600D01*
X103327259Y-80613598D01*
X103306285Y-80596695D01*
X101922005Y-79212415D01*
X101887979Y-79150103D01*
X101885100Y-79123320D01*
X101885100Y-77403860D01*
X101885973Y-77389051D01*
X101889028Y-77363238D01*
X101890135Y-77353885D01*
X101879209Y-77294058D01*
X101878559Y-77290151D01*
X101876141Y-77274064D01*
X101885795Y-77203727D01*
X101931944Y-77149776D01*
X101999936Y-77129339D01*
X102055366Y-77142001D01*
G37*
%TD.AperFunction*%
%TA.AperFunction,Conductor*%
G36*
X105029835Y-75036402D02*
G01*
X105066295Y-75072124D01*
X105103958Y-75128172D01*
X105124552Y-75146911D01*
X105214510Y-75228766D01*
X105220410Y-75234135D01*
X105271156Y-75261688D01*
X105352099Y-75305637D01*
X105352101Y-75305638D01*
X105358776Y-75309262D01*
X105366125Y-75311190D01*
X105503719Y-75347287D01*
X105503721Y-75347287D01*
X105511069Y-75349215D01*
X105628538Y-75351060D01*
X105696335Y-75372129D01*
X105741980Y-75426508D01*
X105750979Y-75496932D01*
X105715653Y-75566139D01*
X105419197Y-75862595D01*
X105356885Y-75896621D01*
X105330102Y-75899500D01*
X103758940Y-75899501D01*
X103652624Y-75899501D01*
X103649230Y-75899870D01*
X103649224Y-75899870D01*
X103599278Y-75905295D01*
X103599274Y-75905296D01*
X103591420Y-75906149D01*
X103457176Y-75956474D01*
X103449997Y-75961854D01*
X103449994Y-75961856D01*
X103349635Y-76037072D01*
X103342454Y-76042454D01*
X103337072Y-76049635D01*
X103261856Y-76149994D01*
X103261854Y-76149997D01*
X103256474Y-76157176D01*
X103253324Y-76165579D01*
X103220766Y-76252429D01*
X103178125Y-76309194D01*
X103111564Y-76333894D01*
X103102784Y-76334200D01*
X102492098Y-76334200D01*
X102423977Y-76314198D01*
X102403003Y-76297295D01*
X101338782Y-75233074D01*
X101304756Y-75170762D01*
X101309821Y-75099947D01*
X101352368Y-75043111D01*
X101418888Y-75018300D01*
X101432825Y-75018076D01*
X101451758Y-75018820D01*
X101459059Y-75016884D01*
X101467854Y-75016400D01*
X104961714Y-75016400D01*
X105029835Y-75036402D01*
G37*
%TD.AperFunction*%
%TA.AperFunction,Conductor*%
G36*
X109358621Y-71853502D02*
G01*
X109405114Y-71907158D01*
X109416500Y-71959500D01*
X109416500Y-72269293D01*
X109423609Y-72330268D01*
X109423463Y-72360651D01*
X109420708Y-72382460D01*
X109420708Y-72382465D01*
X109419825Y-72389455D01*
X109420512Y-72396462D01*
X109420512Y-72396465D01*
X109428480Y-72477728D01*
X109436255Y-72557025D01*
X109454437Y-72611682D01*
X109461660Y-72633395D01*
X109464183Y-72704347D01*
X109427946Y-72765399D01*
X109364454Y-72797169D01*
X109341444Y-72799165D01*
X109322384Y-72799065D01*
X109315005Y-72800837D01*
X109315001Y-72800837D01*
X109245038Y-72817634D01*
X109169288Y-72835820D01*
X109078523Y-72882667D01*
X109020736Y-72896700D01*
X108157898Y-72896700D01*
X108143089Y-72895827D01*
X108120748Y-72893183D01*
X108111395Y-72892076D01*
X108056603Y-72902082D01*
X108052728Y-72902727D01*
X107997640Y-72911010D01*
X107991454Y-72913980D01*
X107984699Y-72915214D01*
X107976345Y-72919554D01*
X107976344Y-72919554D01*
X107935271Y-72940890D01*
X107931730Y-72942659D01*
X107881540Y-72966760D01*
X107876498Y-72971421D01*
X107870409Y-72974584D01*
X107865612Y-72978681D01*
X107830293Y-73014000D01*
X107826727Y-73017429D01*
X107793879Y-73047793D01*
X107793877Y-73047795D01*
X107786966Y-73054184D01*
X107783417Y-73060294D01*
X107778419Y-73065873D01*
X106609497Y-74234795D01*
X106547185Y-74268821D01*
X106520402Y-74271700D01*
X106145180Y-74271700D01*
X106077059Y-74251698D01*
X106061365Y-74239780D01*
X105973976Y-74161919D01*
X105941214Y-74144572D01*
X105841543Y-74091799D01*
X105841544Y-74091799D01*
X105834831Y-74088245D01*
X105818122Y-74084048D01*
X105689498Y-74051740D01*
X105689496Y-74051740D01*
X105682128Y-74049889D01*
X105674530Y-74049849D01*
X105674528Y-74049849D01*
X105607319Y-74049497D01*
X105524684Y-74049065D01*
X105517305Y-74050837D01*
X105517301Y-74050837D01*
X105395334Y-74080119D01*
X105365920Y-74083600D01*
X102164174Y-74083600D01*
X102096053Y-74063598D01*
X102049560Y-74009942D01*
X102039456Y-73939668D01*
X102061852Y-73884074D01*
X102142490Y-73771855D01*
X102142493Y-73771849D01*
X102146924Y-73765683D01*
X102205650Y-73619598D01*
X102227834Y-73463723D01*
X102227978Y-73450000D01*
X102209063Y-73293694D01*
X102183408Y-73225800D01*
X102178040Y-73155006D01*
X102211798Y-73092549D01*
X102236757Y-73073033D01*
X102350574Y-73005185D01*
X102350580Y-73005180D01*
X102356623Y-73001578D01*
X102361717Y-72996727D01*
X102361721Y-72996724D01*
X102473454Y-72890322D01*
X102473455Y-72890320D01*
X102478554Y-72885465D01*
X102506381Y-72843583D01*
X102558905Y-72764527D01*
X102571731Y-72745223D01*
X102580365Y-72722495D01*
X102615286Y-72630563D01*
X102631521Y-72587823D01*
X102645688Y-72487025D01*
X102654404Y-72425010D01*
X102654404Y-72425006D01*
X102654955Y-72421088D01*
X102655199Y-72403569D01*
X102656575Y-72386928D01*
X102657808Y-72381890D01*
X102658207Y-72375468D01*
X102658380Y-72372675D01*
X102658380Y-72372665D01*
X102658500Y-72370736D01*
X102658500Y-71959500D01*
X102678502Y-71891379D01*
X102732158Y-71844886D01*
X102784500Y-71833500D01*
X109290500Y-71833500D01*
X109358621Y-71853502D01*
G37*
%TD.AperFunction*%
%TA.AperFunction,Conductor*%
G36*
X99816621Y-66710502D02*
G01*
X99863114Y-66764158D01*
X99874500Y-66816500D01*
X99874500Y-69499674D01*
X99889034Y-69572740D01*
X99944399Y-69655601D01*
X100027260Y-69710966D01*
X100100326Y-69725500D01*
X103149674Y-69725500D01*
X103222740Y-69710966D01*
X103305601Y-69655601D01*
X103360966Y-69572740D01*
X103375500Y-69499674D01*
X103375500Y-69316500D01*
X103395502Y-69248379D01*
X103449158Y-69201886D01*
X103501500Y-69190500D01*
X103748500Y-69190500D01*
X103816621Y-69210502D01*
X103863114Y-69264158D01*
X103874500Y-69316500D01*
X103874500Y-69499674D01*
X103889034Y-69572740D01*
X103944399Y-69655601D01*
X104027260Y-69710966D01*
X104100326Y-69725500D01*
X107149674Y-69725500D01*
X107222740Y-69710966D01*
X107305601Y-69655601D01*
X107360966Y-69572740D01*
X107375500Y-69499674D01*
X107375500Y-69316500D01*
X107395502Y-69248379D01*
X107449158Y-69201886D01*
X107501500Y-69190500D01*
X107748500Y-69190500D01*
X107816621Y-69210502D01*
X107863114Y-69264158D01*
X107874500Y-69316500D01*
X107874500Y-69499674D01*
X107889034Y-69572740D01*
X107944399Y-69655601D01*
X108027260Y-69710966D01*
X108100326Y-69725500D01*
X111149674Y-69725500D01*
X111222740Y-69710966D01*
X111305601Y-69655601D01*
X111360966Y-69572740D01*
X111375500Y-69499674D01*
X111375500Y-66816500D01*
X111395502Y-66748379D01*
X111449158Y-66701886D01*
X111501500Y-66690500D01*
X114927915Y-66690500D01*
X114952496Y-66692921D01*
X114952801Y-66692982D01*
X114965000Y-66695408D01*
X114977169Y-66692988D01*
X114989581Y-66692988D01*
X114989581Y-66693224D01*
X115000202Y-66692477D01*
X115265785Y-66707392D01*
X115279817Y-66708972D01*
X115424834Y-66733612D01*
X115569845Y-66758251D01*
X115583620Y-66761395D01*
X115866304Y-66842835D01*
X115879641Y-66847502D01*
X116046344Y-66916552D01*
X116151430Y-66960080D01*
X116164153Y-66966207D01*
X116319514Y-67052072D01*
X116421630Y-67108510D01*
X116433593Y-67116027D01*
X116673511Y-67286257D01*
X116684559Y-67295067D01*
X116903914Y-67491095D01*
X116913905Y-67501086D01*
X117109933Y-67720441D01*
X117118743Y-67731489D01*
X117288973Y-67971407D01*
X117296490Y-67983370D01*
X117438791Y-68240843D01*
X117444922Y-68253574D01*
X117557498Y-68525359D01*
X117562165Y-68538696D01*
X117643605Y-68821380D01*
X117646749Y-68835155D01*
X117696027Y-69125178D01*
X117697608Y-69139215D01*
X117707565Y-69316500D01*
X117712523Y-69404794D01*
X117711776Y-69415419D01*
X117712012Y-69415419D01*
X117712012Y-69427831D01*
X117709592Y-69440000D01*
X117712013Y-69452171D01*
X117712079Y-69452504D01*
X117714500Y-69477085D01*
X117714500Y-72600809D01*
X117694498Y-72668930D01*
X117640842Y-72715423D01*
X117570568Y-72725527D01*
X117566234Y-72724573D01*
X117558939Y-72723483D01*
X117550337Y-72720910D01*
X117541363Y-72720855D01*
X117541361Y-72720855D01*
X117478082Y-72720469D01*
X117405827Y-72720028D01*
X117397196Y-72722495D01*
X117397194Y-72722495D01*
X117275509Y-72757272D01*
X117275505Y-72757274D01*
X117266879Y-72759739D01*
X117259292Y-72764526D01*
X117259290Y-72764527D01*
X117175121Y-72817634D01*
X117144661Y-72836853D01*
X117138718Y-72843582D01*
X117138717Y-72843583D01*
X117075455Y-72915214D01*
X117048999Y-72945170D01*
X117045186Y-72953291D01*
X117041764Y-72958501D01*
X117019283Y-72984272D01*
X116993760Y-73006537D01*
X116993756Y-73006541D01*
X116988034Y-73011533D01*
X116897501Y-73140348D01*
X116840309Y-73287039D01*
X116838440Y-73301234D01*
X116833310Y-73340205D01*
X116819758Y-73443138D01*
X116837035Y-73599633D01*
X116891143Y-73747490D01*
X116895380Y-73753796D01*
X116895382Y-73753799D01*
X116949081Y-73833710D01*
X116970500Y-73903986D01*
X116970500Y-74077963D01*
X116950498Y-74146084D01*
X116896842Y-74192577D01*
X116826568Y-74202681D01*
X116760681Y-74172039D01*
X116664648Y-74086476D01*
X116664645Y-74086474D01*
X116658976Y-74081423D01*
X116519831Y-74007749D01*
X116472240Y-73995795D01*
X116374499Y-73971244D01*
X116374495Y-73971244D01*
X116367128Y-73969393D01*
X116359529Y-73969353D01*
X116359527Y-73969353D01*
X116291734Y-73968998D01*
X116223719Y-73948640D01*
X116203299Y-73932095D01*
X114866612Y-72595408D01*
X114856757Y-72584319D01*
X114842830Y-72566653D01*
X114836999Y-72559256D01*
X114829252Y-72553902D01*
X114829250Y-72553900D01*
X114795312Y-72530445D01*
X114791172Y-72527583D01*
X114788005Y-72525321D01*
X114743174Y-72492208D01*
X114736699Y-72489934D01*
X114731050Y-72486030D01*
X114677938Y-72469233D01*
X114674180Y-72467979D01*
X114630542Y-72452654D01*
X114621658Y-72449534D01*
X114614798Y-72449264D01*
X114608254Y-72447195D01*
X114601965Y-72446700D01*
X114552000Y-72446700D01*
X114547054Y-72446603D01*
X114492966Y-72444478D01*
X114486136Y-72446289D01*
X114478664Y-72446700D01*
X113492872Y-72446700D01*
X113478062Y-72445827D01*
X113455724Y-72443183D01*
X113446371Y-72442076D01*
X113391579Y-72452082D01*
X113387704Y-72452727D01*
X113332616Y-72461010D01*
X113326430Y-72463980D01*
X113319675Y-72465214D01*
X113311321Y-72469554D01*
X113311320Y-72469554D01*
X113270247Y-72490890D01*
X113266706Y-72492659D01*
X113216516Y-72516760D01*
X113211474Y-72521421D01*
X113205385Y-72524584D01*
X113200588Y-72528681D01*
X113165269Y-72564000D01*
X113161703Y-72567429D01*
X113128855Y-72597793D01*
X113128853Y-72597795D01*
X113121942Y-72604184D01*
X113118393Y-72610294D01*
X113113395Y-72615873D01*
X111794473Y-73934795D01*
X111732161Y-73968821D01*
X111705378Y-73971700D01*
X110069583Y-73971700D01*
X110001462Y-73951698D01*
X109954969Y-73898042D01*
X109944865Y-73827768D01*
X109964549Y-73778903D01*
X109963832Y-73778509D01*
X109967110Y-73772547D01*
X109967259Y-73772176D01*
X109967491Y-73771853D01*
X109967493Y-73771849D01*
X109971924Y-73765683D01*
X110030650Y-73619598D01*
X110052834Y-73463723D01*
X110052978Y-73450000D01*
X110034277Y-73295465D01*
X110045950Y-73225436D01*
X110093631Y-73172834D01*
X110159186Y-73155117D01*
X110159183Y-73155083D01*
X110166194Y-73154445D01*
X110166196Y-73154445D01*
X110319843Y-73140462D01*
X110326864Y-73139823D01*
X110333566Y-73137645D01*
X110333568Y-73137645D01*
X110480298Y-73089970D01*
X110480301Y-73089969D01*
X110486997Y-73087793D01*
X110631623Y-73001578D01*
X110636717Y-72996727D01*
X110636721Y-72996724D01*
X110748454Y-72890322D01*
X110748455Y-72890320D01*
X110753554Y-72885465D01*
X110781381Y-72843583D01*
X110833905Y-72764527D01*
X110846731Y-72745223D01*
X110855365Y-72722495D01*
X110890286Y-72630563D01*
X110906521Y-72587823D01*
X110920688Y-72487025D01*
X110929404Y-72425010D01*
X110929404Y-72425006D01*
X110929955Y-72421088D01*
X110930249Y-72400000D01*
X110927349Y-72374144D01*
X110930174Y-72330154D01*
X110930669Y-72328134D01*
X110932808Y-72319390D01*
X110933500Y-72308236D01*
X110933500Y-71102835D01*
X110933742Y-71095033D01*
X110937093Y-71041013D01*
X110937547Y-71033702D01*
X110926620Y-70970111D01*
X110925651Y-70963382D01*
X110919030Y-70906589D01*
X110919029Y-70906586D01*
X110918182Y-70899319D01*
X110914942Y-70890393D01*
X110909201Y-70868742D01*
X110907594Y-70859386D01*
X110882327Y-70800004D01*
X110879848Y-70793711D01*
X110857833Y-70733063D01*
X110852627Y-70725122D01*
X110842067Y-70705385D01*
X110841213Y-70703377D01*
X110841206Y-70703365D01*
X110838343Y-70696636D01*
X110834007Y-70690744D01*
X110834004Y-70690739D01*
X110800100Y-70644668D01*
X110796210Y-70639072D01*
X110792894Y-70634014D01*
X110760856Y-70585148D01*
X110753961Y-70578616D01*
X110739139Y-70561834D01*
X110733508Y-70554182D01*
X110727935Y-70549447D01*
X110727928Y-70549440D01*
X110684351Y-70512419D01*
X110679277Y-70507867D01*
X110637766Y-70468543D01*
X110637765Y-70468542D01*
X110632453Y-70463510D01*
X110626126Y-70459835D01*
X110626117Y-70459828D01*
X110624232Y-70458733D01*
X110605953Y-70445815D01*
X110604294Y-70444406D01*
X110604291Y-70444404D01*
X110598715Y-70439667D01*
X110592201Y-70436341D01*
X110592197Y-70436338D01*
X110541264Y-70410330D01*
X110535281Y-70407068D01*
X110485841Y-70378351D01*
X110485839Y-70378350D01*
X110479510Y-70374674D01*
X110472506Y-70372553D01*
X110472502Y-70372551D01*
X110470425Y-70371922D01*
X110449649Y-70363549D01*
X110441192Y-70359231D01*
X110378505Y-70343892D01*
X110371988Y-70342109D01*
X110310233Y-70323405D01*
X110300983Y-70322831D01*
X110300754Y-70322817D01*
X110278617Y-70319449D01*
X110274846Y-70318526D01*
X110274834Y-70318524D01*
X110269390Y-70317192D01*
X110261539Y-70316705D01*
X110260175Y-70316620D01*
X110260165Y-70316620D01*
X110258236Y-70316500D01*
X110202835Y-70316500D01*
X110195033Y-70316258D01*
X110133702Y-70312453D01*
X110120740Y-70314680D01*
X110099404Y-70316500D01*
X94262941Y-70316500D01*
X94251740Y-70316001D01*
X94250050Y-70315850D01*
X94242885Y-70314360D01*
X94182225Y-70316001D01*
X94165479Y-70316454D01*
X94162072Y-70316500D01*
X94130707Y-70316500D01*
X94126287Y-70317015D01*
X94115117Y-70317816D01*
X94079075Y-70318791D01*
X94073396Y-70318945D01*
X94073395Y-70318945D01*
X94066079Y-70319143D01*
X94059005Y-70321019D01*
X94059002Y-70321019D01*
X94041879Y-70325559D01*
X94024181Y-70328919D01*
X94006591Y-70330970D01*
X94006590Y-70330970D01*
X93999319Y-70331818D01*
X93992439Y-70334315D01*
X93992432Y-70334317D01*
X93953219Y-70348551D01*
X93942522Y-70351904D01*
X93895116Y-70364474D01*
X93888663Y-70367927D01*
X93888660Y-70367928D01*
X93873046Y-70376283D01*
X93856590Y-70383627D01*
X93839944Y-70389669D01*
X93839942Y-70389670D01*
X93833063Y-70392167D01*
X93807718Y-70408784D01*
X93792052Y-70419055D01*
X93782411Y-70424779D01*
X93745626Y-70444461D01*
X93745623Y-70444463D01*
X93739166Y-70447918D01*
X93733678Y-70452765D01*
X93733675Y-70452767D01*
X93724907Y-70460511D01*
X93660607Y-70490612D01*
X93590241Y-70481171D01*
X93536149Y-70435186D01*
X93515500Y-70366069D01*
X93515500Y-69477085D01*
X93517921Y-69452504D01*
X93517987Y-69452171D01*
X93520408Y-69440000D01*
X93517988Y-69427831D01*
X93517988Y-69415419D01*
X93518224Y-69415419D01*
X93517477Y-69404794D01*
X93522436Y-69316500D01*
X93532392Y-69139215D01*
X93533973Y-69125178D01*
X93583251Y-68835155D01*
X93586395Y-68821380D01*
X93667835Y-68538696D01*
X93672502Y-68525359D01*
X93785078Y-68253574D01*
X93791209Y-68240843D01*
X93933510Y-67983370D01*
X93941027Y-67971407D01*
X94111257Y-67731489D01*
X94120067Y-67720441D01*
X94316095Y-67501086D01*
X94326086Y-67491095D01*
X94545441Y-67295067D01*
X94556489Y-67286257D01*
X94796407Y-67116027D01*
X94808370Y-67108510D01*
X94910486Y-67052072D01*
X95065847Y-66966207D01*
X95078570Y-66960080D01*
X95183656Y-66916552D01*
X95350359Y-66847502D01*
X95363696Y-66842835D01*
X95646380Y-66761395D01*
X95660155Y-66758251D01*
X95805166Y-66733612D01*
X95950183Y-66708972D01*
X95964215Y-66707392D01*
X96229798Y-66692477D01*
X96240419Y-66693224D01*
X96240419Y-66692988D01*
X96252831Y-66692988D01*
X96265000Y-66695408D01*
X96277199Y-66692982D01*
X96277504Y-66692921D01*
X96302085Y-66690500D01*
X99748500Y-66690500D01*
X99816621Y-66710502D01*
G37*
%TD.AperFunction*%
%TD*%
M02*
