%TF.GenerationSoftware,KiCad,Pcbnew,6.0.11-2627ca5db0~126~ubuntu22.04.1*%
%TF.CreationDate,2023-06-16T17:25:29+02:00*%
%TF.ProjectId,asac-esc-rev-a,61736163-2d65-4736-932d-7265762d612e,rev?*%
%TF.SameCoordinates,Original*%
%TF.FileFunction,Legend,Bot*%
%TF.FilePolarity,Positive*%
%FSLAX46Y46*%
G04 Gerber Fmt 4.6, Leading zero omitted, Abs format (unit mm)*
G04 Created by KiCad (PCBNEW 6.0.11-2627ca5db0~126~ubuntu22.04.1) date 2023-06-16 17:25:29*
%MOMM*%
%LPD*%
G01*
G04 APERTURE LIST*
%ADD10C,0.120000*%
G04 APERTURE END LIST*
D10*
%TO.C,U1*%
X102265000Y-88290000D02*
X103525000Y-88290000D01*
X109085000Y-94300000D02*
X109085000Y-88290000D01*
X102265000Y-92050000D02*
X102265000Y-88290000D01*
X109085000Y-88290000D02*
X107825000Y-88290000D01*
%TO.C,C3*%
X105586252Y-83865000D02*
X105063748Y-83865000D01*
X105586252Y-85335000D02*
X105063748Y-85335000D01*
%TO.C,C10*%
X112265000Y-76632836D02*
X112265000Y-76417164D01*
X112985000Y-76632836D02*
X112985000Y-76417164D01*
%TO.C,R6*%
X108246359Y-78620000D02*
X108553641Y-78620000D01*
X108246359Y-79380000D02*
X108553641Y-79380000D01*
%TO.C,U5*%
X109125000Y-78335000D02*
X109925000Y-78335000D01*
X109125000Y-75215000D02*
X109925000Y-75215000D01*
X109125000Y-78335000D02*
X107325000Y-78335000D01*
X109125000Y-75215000D02*
X108325000Y-75215000D01*
%TO.C,R5*%
X106835000Y-77547936D02*
X106835000Y-81902064D01*
X103415000Y-77547936D02*
X103415000Y-81902064D01*
%TO.C,C1*%
X101285000Y-92711252D02*
X101285000Y-92188748D01*
X99815000Y-92711252D02*
X99815000Y-92188748D01*
%TO.C,C11*%
X108507836Y-79740000D02*
X108292164Y-79740000D01*
X108507836Y-80460000D02*
X108292164Y-80460000D01*
%TD*%
M02*
