%TF.GenerationSoftware,KiCad,Pcbnew,6.0.11-2627ca5db0~126~ubuntu22.04.1*%
%TF.CreationDate,2023-06-16T17:25:29+02:00*%
%TF.ProjectId,asac-esc-rev-a,61736163-2d65-4736-932d-7265762d612e,rev?*%
%TF.SameCoordinates,Original*%
%TF.FileFunction,Legend,Top*%
%TF.FilePolarity,Positive*%
%FSLAX46Y46*%
G04 Gerber Fmt 4.6, Leading zero omitted, Abs format (unit mm)*
G04 Created by KiCad (PCBNEW 6.0.11-2627ca5db0~126~ubuntu22.04.1) date 2023-06-16 17:25:29*
%MOMM*%
%LPD*%
G01*
G04 APERTURE LIST*
%ADD10C,0.000000*%
%ADD11C,0.158749*%
%ADD12C,0.052916*%
%ADD13C,0.175000*%
%ADD14C,0.120000*%
%ADD15C,0.150000*%
%ADD16C,0.254000*%
G04 APERTURE END LIST*
D10*
G36*
X113633270Y-68097746D02*
G01*
X113633201Y-68100469D01*
X113632997Y-68103156D01*
X113632660Y-68105805D01*
X113632195Y-68108411D01*
X113631604Y-68110971D01*
X113630891Y-68113482D01*
X113630059Y-68115941D01*
X113629112Y-68118344D01*
X113628052Y-68120688D01*
X113626884Y-68122970D01*
X113625609Y-68125185D01*
X113624233Y-68127332D01*
X113622758Y-68129407D01*
X113621187Y-68131406D01*
X113619524Y-68133326D01*
X113617772Y-68135164D01*
X113615934Y-68136916D01*
X113614014Y-68138579D01*
X113612015Y-68140150D01*
X113609940Y-68141625D01*
X113607793Y-68143002D01*
X113605577Y-68144276D01*
X113603295Y-68145445D01*
X113600951Y-68146504D01*
X113598548Y-68147452D01*
X113596090Y-68148284D01*
X113593579Y-68148997D01*
X113591018Y-68149588D01*
X113588412Y-68150053D01*
X113585764Y-68150389D01*
X113583077Y-68150594D01*
X113580354Y-68150663D01*
X113577630Y-68150594D01*
X113574943Y-68150389D01*
X113572295Y-68150053D01*
X113569689Y-68149588D01*
X113567129Y-68148997D01*
X113564618Y-68148284D01*
X113562159Y-68147452D01*
X113559756Y-68146504D01*
X113557412Y-68145445D01*
X113555130Y-68144276D01*
X113552914Y-68143002D01*
X113550767Y-68141625D01*
X113548692Y-68140150D01*
X113546693Y-68138579D01*
X113544773Y-68136916D01*
X113542936Y-68135164D01*
X113541183Y-68133326D01*
X113539520Y-68131406D01*
X113537949Y-68129407D01*
X113536474Y-68127332D01*
X113535098Y-68125185D01*
X113533824Y-68122970D01*
X113532655Y-68120688D01*
X113531595Y-68118344D01*
X113530648Y-68115941D01*
X113529816Y-68113482D01*
X113529103Y-68110971D01*
X113528512Y-68108411D01*
X113528047Y-68105805D01*
X113527710Y-68103156D01*
X113527506Y-68100469D01*
X113527437Y-68097746D01*
X113527437Y-67409829D01*
X113633270Y-67409829D01*
X113633270Y-68097746D01*
G37*
G36*
X112601395Y-69589996D02*
G01*
X112553162Y-69628583D01*
X112469104Y-69695829D01*
X112416187Y-69738163D01*
X112257437Y-69579412D01*
X112319175Y-69526496D01*
X112396364Y-69460329D01*
X112442645Y-69420662D01*
X112601395Y-69589996D01*
G37*
D11*
X114241812Y-68097746D02*
X114241812Y-68838579D01*
X112918895Y-68097746D02*
X112918895Y-68838579D01*
X114241812Y-68785663D02*
X114241812Y-68785663D01*
X114241812Y-68785663D02*
X114241812Y-68785663D01*
X114241719Y-68782408D02*
X114241812Y-68785663D01*
X114241427Y-68779017D02*
X114241719Y-68782408D01*
X114240919Y-68775491D02*
X114241427Y-68779017D01*
X114240177Y-68771832D02*
X114240919Y-68775491D01*
X114239183Y-68768040D02*
X114240177Y-68771832D01*
X114237918Y-68764116D02*
X114239183Y-68768040D01*
X114236366Y-68760061D02*
X114237918Y-68764116D01*
X114234507Y-68755876D02*
X114236366Y-68760061D01*
X114232325Y-68751562D02*
X114234507Y-68755876D01*
X114229801Y-68747120D02*
X114232325Y-68751562D01*
X114226917Y-68742551D02*
X114229801Y-68747120D01*
X114223656Y-68737856D02*
X114226917Y-68742551D01*
X114219998Y-68733036D02*
X114223656Y-68737856D01*
X114215928Y-68728091D02*
X114219998Y-68733036D01*
X114211426Y-68723024D02*
X114215928Y-68728091D01*
X114206474Y-68717834D02*
X114211426Y-68723024D01*
X114206474Y-68717834D02*
X114206474Y-68717834D01*
X114201036Y-68712510D02*
X114206474Y-68717834D01*
X114195212Y-68707173D02*
X114201036Y-68712510D01*
X114189002Y-68701827D02*
X114195212Y-68707173D01*
X114182405Y-68696479D02*
X114189002Y-68701827D01*
X114175421Y-68691133D02*
X114182405Y-68696479D01*
X114168050Y-68685797D02*
X114175421Y-68691133D01*
X114160291Y-68680474D02*
X114168050Y-68685797D01*
X114152144Y-68675171D02*
X114160291Y-68680474D01*
X114143608Y-68669893D02*
X114152144Y-68675171D01*
X114134683Y-68664645D02*
X114143608Y-68669893D01*
X114125368Y-68659434D02*
X114134683Y-68664645D01*
X114115663Y-68654264D02*
X114125368Y-68659434D01*
X114105567Y-68649142D02*
X114115663Y-68654264D01*
X114095081Y-68644073D02*
X114105567Y-68649142D01*
X114084203Y-68639062D02*
X114095081Y-68644073D01*
X114072934Y-68634115D02*
X114084203Y-68639062D01*
X114072934Y-68634115D02*
X114072934Y-68634115D01*
X114049453Y-68624525D02*
X114072934Y-68634115D01*
X114024794Y-68615381D02*
X114049453Y-68624525D01*
X113999003Y-68606707D02*
X114024794Y-68615381D01*
X113972120Y-68598526D02*
X113999003Y-68606707D01*
X113944192Y-68590863D02*
X113972120Y-68598526D01*
X113915260Y-68583741D02*
X113944192Y-68590863D01*
X113885369Y-68577184D02*
X113915260Y-68583741D01*
X113854562Y-68571216D02*
X113885369Y-68577184D01*
X113822882Y-68565861D02*
X113854562Y-68571216D01*
X113790374Y-68561143D02*
X113822882Y-68565861D01*
X113757080Y-68557085D02*
X113790374Y-68561143D01*
X113723044Y-68553712D02*
X113757080Y-68557085D01*
X113688310Y-68551046D02*
X113723044Y-68553712D01*
X113652921Y-68549113D02*
X113688310Y-68551046D01*
X113616921Y-68547935D02*
X113652921Y-68549113D01*
X113580354Y-68547538D02*
X113616921Y-68547935D01*
X113580354Y-68547538D02*
X113580354Y-68547538D01*
X113543786Y-68547935D02*
X113580354Y-68547538D01*
X113507786Y-68549113D02*
X113543786Y-68547935D01*
X113472397Y-68551046D02*
X113507786Y-68549113D01*
X113437663Y-68553712D02*
X113472397Y-68551046D01*
X113403627Y-68557085D02*
X113437663Y-68553712D01*
X113370334Y-68561143D02*
X113403627Y-68557085D01*
X113337825Y-68565861D02*
X113370334Y-68561143D01*
X113306145Y-68571216D02*
X113337825Y-68565861D01*
X113275338Y-68577184D02*
X113306145Y-68571216D01*
X113245447Y-68583741D02*
X113275338Y-68577184D01*
X113216515Y-68590863D02*
X113245447Y-68583741D01*
X113188587Y-68598526D02*
X113216515Y-68590863D01*
X113161705Y-68606707D02*
X113188587Y-68598526D01*
X113135913Y-68615381D02*
X113161705Y-68606707D01*
X113111254Y-68624525D02*
X113135913Y-68615381D01*
X113087774Y-68634115D02*
X113111254Y-68624525D01*
X113087774Y-68634115D02*
X113087774Y-68634115D01*
X113076504Y-68639062D02*
X113087774Y-68634115D01*
X113065626Y-68644073D02*
X113076504Y-68639062D01*
X113055140Y-68649142D02*
X113065626Y-68644073D01*
X113045044Y-68654264D02*
X113055140Y-68649142D01*
X113035339Y-68659434D02*
X113045044Y-68654264D01*
X113026024Y-68664645D02*
X113035339Y-68659434D01*
X113017099Y-68669893D02*
X113026024Y-68664645D01*
X113008563Y-68675171D02*
X113017099Y-68669893D01*
X113000416Y-68680474D02*
X113008563Y-68675171D01*
X112992657Y-68685797D02*
X113000416Y-68680474D01*
X112985286Y-68691133D02*
X112992657Y-68685797D01*
X112978302Y-68696479D02*
X112985286Y-68691133D01*
X112971706Y-68701827D02*
X112978302Y-68696479D01*
X112965495Y-68707173D02*
X112971706Y-68701827D01*
X112959671Y-68712510D02*
X112965495Y-68707173D01*
X112954233Y-68717834D02*
X112959671Y-68712510D01*
X112954233Y-68717834D02*
X112954233Y-68717834D01*
X112949282Y-68723024D02*
X112954233Y-68717834D01*
X112944779Y-68728091D02*
X112949282Y-68723024D01*
X112940709Y-68733036D02*
X112944779Y-68728091D01*
X112937052Y-68737856D02*
X112940709Y-68733036D01*
X112933790Y-68742551D02*
X112937052Y-68737856D01*
X112930906Y-68747120D02*
X112933790Y-68742551D01*
X112928382Y-68751562D02*
X112930906Y-68747120D01*
X112926200Y-68755876D02*
X112928382Y-68751562D01*
X112924341Y-68760061D02*
X112926200Y-68755876D01*
X112922789Y-68764116D02*
X112924341Y-68760061D01*
X112921524Y-68768040D02*
X112922789Y-68764116D01*
X112920530Y-68771832D02*
X112921524Y-68768040D01*
X112919788Y-68775491D02*
X112920530Y-68771832D01*
X112919280Y-68779017D02*
X112919788Y-68775491D01*
X112918988Y-68782408D02*
X112919280Y-68779017D01*
X112918895Y-68785663D02*
X112918988Y-68782408D01*
X112918895Y-68785663D02*
X112918895Y-68785663D01*
X112918988Y-68788918D02*
X112918895Y-68785663D01*
X112919280Y-68792308D02*
X112918988Y-68788918D01*
X112919788Y-68795834D02*
X112919280Y-68792308D01*
X112920530Y-68799493D02*
X112919788Y-68795834D01*
X112921524Y-68803286D02*
X112920530Y-68799493D01*
X112922789Y-68807210D02*
X112921524Y-68803286D01*
X112924341Y-68811265D02*
X112922789Y-68807210D01*
X112926200Y-68815449D02*
X112924341Y-68811265D01*
X112928382Y-68819763D02*
X112926200Y-68815449D01*
X112930906Y-68824205D02*
X112928382Y-68819763D01*
X112933790Y-68828774D02*
X112930906Y-68824205D01*
X112937052Y-68833469D02*
X112933790Y-68828774D01*
X112940709Y-68838289D02*
X112937052Y-68833469D01*
X112944779Y-68843234D02*
X112940709Y-68838289D01*
X112949282Y-68848301D02*
X112944779Y-68843234D01*
X112954233Y-68853491D02*
X112949282Y-68848301D01*
X112954233Y-68853491D02*
X112954233Y-68853491D01*
X112959671Y-68858815D02*
X112954233Y-68853491D01*
X112965495Y-68864153D02*
X112959671Y-68858815D01*
X112971706Y-68869498D02*
X112965495Y-68864153D01*
X112978302Y-68874846D02*
X112971706Y-68869498D01*
X112985286Y-68880192D02*
X112978302Y-68874846D01*
X112992657Y-68885529D02*
X112985286Y-68880192D01*
X113000416Y-68890851D02*
X112992657Y-68885529D01*
X113008563Y-68896155D02*
X113000416Y-68890851D01*
X113017099Y-68901433D02*
X113008563Y-68896155D01*
X113026024Y-68906680D02*
X113017099Y-68901433D01*
X113035339Y-68911891D02*
X113026024Y-68906680D01*
X113045044Y-68917061D02*
X113035339Y-68911891D01*
X113055140Y-68922183D02*
X113045044Y-68917061D01*
X113065626Y-68927252D02*
X113055140Y-68922183D01*
X113076504Y-68932264D02*
X113065626Y-68927252D01*
X113087774Y-68937211D02*
X113076504Y-68932264D01*
X113087774Y-68937211D02*
X113087774Y-68937211D01*
X113111254Y-68946800D02*
X113087774Y-68937211D01*
X113135913Y-68955944D02*
X113111254Y-68946800D01*
X113161705Y-68964618D02*
X113135913Y-68955944D01*
X113188587Y-68972799D02*
X113161705Y-68964618D01*
X113216515Y-68980462D02*
X113188587Y-68972799D01*
X113245447Y-68987584D02*
X113216515Y-68980462D01*
X113275338Y-68994141D02*
X113245447Y-68987584D01*
X113306145Y-69000109D02*
X113275338Y-68994141D01*
X113337825Y-69005464D02*
X113306145Y-69000109D01*
X113370334Y-69010182D02*
X113337825Y-69005464D01*
X113403627Y-69014240D02*
X113370334Y-69010182D01*
X113437663Y-69017613D02*
X113403627Y-69014240D01*
X113472397Y-69020279D02*
X113437663Y-69017613D01*
X113507786Y-69022212D02*
X113472397Y-69020279D01*
X113543786Y-69023390D02*
X113507786Y-69022212D01*
X113580354Y-69023787D02*
X113543786Y-69023390D01*
X113580354Y-69023787D02*
X113580354Y-69023787D01*
X113616921Y-69023390D02*
X113580354Y-69023787D01*
X113652921Y-69022212D02*
X113616921Y-69023390D01*
X113688310Y-69020279D02*
X113652921Y-69022212D01*
X113723044Y-69017613D02*
X113688310Y-69020279D01*
X113757080Y-69014240D02*
X113723044Y-69017613D01*
X113790374Y-69010182D02*
X113757080Y-69014240D01*
X113822882Y-69005464D02*
X113790374Y-69010182D01*
X113854562Y-69000109D02*
X113822882Y-69005464D01*
X113885369Y-68994141D02*
X113854562Y-69000109D01*
X113915260Y-68987584D02*
X113885369Y-68994141D01*
X113944192Y-68980462D02*
X113915260Y-68987584D01*
X113972120Y-68972799D02*
X113944192Y-68980462D01*
X113999003Y-68964618D02*
X113972120Y-68972799D01*
X114024794Y-68955944D02*
X113999003Y-68964618D01*
X114049453Y-68946800D02*
X114024794Y-68955944D01*
X114072934Y-68937211D02*
X114049453Y-68946800D01*
X114072934Y-68937211D02*
X114072934Y-68937211D01*
X114084203Y-68932264D02*
X114072934Y-68937211D01*
X114095081Y-68927252D02*
X114084203Y-68932264D01*
X114105567Y-68922183D02*
X114095081Y-68927252D01*
X114115663Y-68917061D02*
X114105567Y-68922183D01*
X114125368Y-68911891D02*
X114115663Y-68917061D01*
X114134683Y-68906680D02*
X114125368Y-68911891D01*
X114143608Y-68901433D02*
X114134683Y-68906680D01*
X114152144Y-68896155D02*
X114143608Y-68901433D01*
X114160291Y-68890851D02*
X114152144Y-68896155D01*
X114168050Y-68885529D02*
X114160291Y-68890851D01*
X114175421Y-68880192D02*
X114168050Y-68885529D01*
X114182405Y-68874846D02*
X114175421Y-68880192D01*
X114189002Y-68869498D02*
X114182405Y-68874846D01*
X114195212Y-68864153D02*
X114189002Y-68869498D01*
X114201036Y-68858815D02*
X114195212Y-68864153D01*
X114206474Y-68853491D02*
X114201036Y-68858815D01*
X114206474Y-68853491D02*
X114206474Y-68853491D01*
X114211426Y-68848301D02*
X114206474Y-68853491D01*
X114215928Y-68843234D02*
X114211426Y-68848301D01*
X114219998Y-68838289D02*
X114215928Y-68843234D01*
X114223656Y-68833469D02*
X114219998Y-68838289D01*
X114226917Y-68828774D02*
X114223656Y-68833469D01*
X114229801Y-68824205D02*
X114226917Y-68828774D01*
X114232325Y-68819763D02*
X114229801Y-68824205D01*
X114234507Y-68815449D02*
X114232325Y-68819763D01*
X114236366Y-68811265D02*
X114234507Y-68815449D01*
X114237918Y-68807210D02*
X114236366Y-68811265D01*
X114239183Y-68803286D02*
X114237918Y-68807210D01*
X114240177Y-68799493D02*
X114239183Y-68803286D01*
X114240919Y-68795834D02*
X114240177Y-68799493D01*
X114241427Y-68792308D02*
X114240919Y-68795834D01*
X114241719Y-68788918D02*
X114241427Y-68792308D01*
X114241812Y-68785663D02*
X114241719Y-68788918D01*
X114241812Y-68097746D02*
X114241812Y-68097746D01*
X114241812Y-68097746D02*
X114241812Y-68097746D01*
X114241719Y-68094491D02*
X114241812Y-68097746D01*
X114241427Y-68091100D02*
X114241719Y-68094491D01*
X114240919Y-68087574D02*
X114241427Y-68091100D01*
X114240177Y-68083915D02*
X114240919Y-68087574D01*
X114239183Y-68080123D02*
X114240177Y-68083915D01*
X114237918Y-68076199D02*
X114239183Y-68080123D01*
X114236366Y-68072144D02*
X114237918Y-68076199D01*
X114234507Y-68067959D02*
X114236366Y-68072144D01*
X114232325Y-68063645D02*
X114234507Y-68067959D01*
X114229801Y-68059203D02*
X114232325Y-68063645D01*
X114226917Y-68054634D02*
X114229801Y-68059203D01*
X114223656Y-68049939D02*
X114226917Y-68054634D01*
X114219998Y-68045119D02*
X114223656Y-68049939D01*
X114215928Y-68040175D02*
X114219998Y-68045119D01*
X114211426Y-68035107D02*
X114215928Y-68040175D01*
X114206474Y-68029917D02*
X114211426Y-68035107D01*
X114206474Y-68029917D02*
X114206474Y-68029917D01*
X114201036Y-68024594D02*
X114206474Y-68029917D01*
X114195212Y-68019256D02*
X114201036Y-68024594D01*
X114189002Y-68013910D02*
X114195212Y-68019256D01*
X114182405Y-68008562D02*
X114189002Y-68013910D01*
X114175421Y-68003217D02*
X114182405Y-68008562D01*
X114168050Y-67997880D02*
X114175421Y-68003217D01*
X114160291Y-67992557D02*
X114168050Y-67997880D01*
X114152144Y-67987254D02*
X114160291Y-67992557D01*
X114143608Y-67981976D02*
X114152144Y-67987254D01*
X114134683Y-67976728D02*
X114143608Y-67981976D01*
X114125368Y-67971517D02*
X114134683Y-67976728D01*
X114115663Y-67966348D02*
X114125368Y-67971517D01*
X114105567Y-67961225D02*
X114115663Y-67966348D01*
X114095081Y-67956156D02*
X114105567Y-67961225D01*
X114084203Y-67951145D02*
X114095081Y-67956156D01*
X114072934Y-67946198D02*
X114084203Y-67951145D01*
X114072934Y-67946198D02*
X114072934Y-67946198D01*
X114049453Y-67936608D02*
X114072934Y-67946198D01*
X114024794Y-67927464D02*
X114049453Y-67936608D01*
X113999003Y-67918790D02*
X114024794Y-67927464D01*
X113972120Y-67910609D02*
X113999003Y-67918790D01*
X113944192Y-67902946D02*
X113972120Y-67910609D01*
X113915260Y-67895824D02*
X113944192Y-67902946D01*
X113885369Y-67889268D02*
X113915260Y-67895824D01*
X113854562Y-67883300D02*
X113885369Y-67889268D01*
X113822882Y-67877945D02*
X113854562Y-67883300D01*
X113790374Y-67873226D02*
X113822882Y-67877945D01*
X113757080Y-67869169D02*
X113790374Y-67873226D01*
X113723044Y-67865795D02*
X113757080Y-67869169D01*
X113688310Y-67863130D02*
X113723044Y-67865795D01*
X113652921Y-67861196D02*
X113688310Y-67863130D01*
X113616921Y-67860019D02*
X113652921Y-67861196D01*
X113580354Y-67859621D02*
X113616921Y-67860019D01*
X113580354Y-67859621D02*
X113580354Y-67859621D01*
X113543786Y-67860019D02*
X113580354Y-67859621D01*
X113507786Y-67861196D02*
X113543786Y-67860019D01*
X113472397Y-67863130D02*
X113507786Y-67861196D01*
X113437663Y-67865795D02*
X113472397Y-67863130D01*
X113403627Y-67869169D02*
X113437663Y-67865795D01*
X113370334Y-67873226D02*
X113403627Y-67869169D01*
X113337825Y-67877945D02*
X113370334Y-67873226D01*
X113306145Y-67883300D02*
X113337825Y-67877945D01*
X113275338Y-67889268D02*
X113306145Y-67883300D01*
X113245447Y-67895824D02*
X113275338Y-67889268D01*
X113216515Y-67902946D02*
X113245447Y-67895824D01*
X113188587Y-67910609D02*
X113216515Y-67902946D01*
X113161705Y-67918790D02*
X113188587Y-67910609D01*
X113135913Y-67927464D02*
X113161705Y-67918790D01*
X113111254Y-67936608D02*
X113135913Y-67927464D01*
X113087774Y-67946198D02*
X113111254Y-67936608D01*
X113087774Y-67946198D02*
X113087774Y-67946198D01*
X113076504Y-67951145D02*
X113087774Y-67946198D01*
X113065626Y-67956156D02*
X113076504Y-67951145D01*
X113055140Y-67961225D02*
X113065626Y-67956156D01*
X113045044Y-67966348D02*
X113055140Y-67961225D01*
X113035339Y-67971517D02*
X113045044Y-67966348D01*
X113026024Y-67976728D02*
X113035339Y-67971517D01*
X113017099Y-67981976D02*
X113026024Y-67976728D01*
X113008563Y-67987254D02*
X113017099Y-67981976D01*
X113000416Y-67992557D02*
X113008563Y-67987254D01*
X112992657Y-67997880D02*
X113000416Y-67992557D01*
X112985286Y-68003217D02*
X112992657Y-67997880D01*
X112978302Y-68008562D02*
X112985286Y-68003217D01*
X112971706Y-68013910D02*
X112978302Y-68008562D01*
X112965495Y-68019256D02*
X112971706Y-68013910D01*
X112959671Y-68024594D02*
X112965495Y-68019256D01*
X112954233Y-68029917D02*
X112959671Y-68024594D01*
X112954233Y-68029917D02*
X112954233Y-68029917D01*
X112949282Y-68035107D02*
X112954233Y-68029917D01*
X112944779Y-68040175D02*
X112949282Y-68035107D01*
X112940709Y-68045119D02*
X112944779Y-68040175D01*
X112937052Y-68049939D02*
X112940709Y-68045119D01*
X112933790Y-68054634D02*
X112937052Y-68049939D01*
X112930906Y-68059203D02*
X112933790Y-68054634D01*
X112928382Y-68063645D02*
X112930906Y-68059203D01*
X112926200Y-68067959D02*
X112928382Y-68063645D01*
X112924341Y-68072144D02*
X112926200Y-68067959D01*
X112922789Y-68076199D02*
X112924341Y-68072144D01*
X112921524Y-68080123D02*
X112922789Y-68076199D01*
X112920530Y-68083915D02*
X112921524Y-68080123D01*
X112919788Y-68087574D02*
X112920530Y-68083915D01*
X112919280Y-68091100D02*
X112919788Y-68087574D01*
X112918988Y-68094491D02*
X112919280Y-68091100D01*
X112918895Y-68097746D02*
X112918988Y-68094491D01*
X112918895Y-68097746D02*
X112918895Y-68097746D01*
X112918988Y-68101001D02*
X112918895Y-68097746D01*
X112919280Y-68104392D02*
X112918988Y-68101001D01*
X112919788Y-68107917D02*
X112919280Y-68104392D01*
X112920530Y-68111577D02*
X112919788Y-68107917D01*
X112921524Y-68115369D02*
X112920530Y-68111577D01*
X112922789Y-68119293D02*
X112921524Y-68115369D01*
X112924341Y-68123348D02*
X112922789Y-68119293D01*
X112926200Y-68127533D02*
X112924341Y-68123348D01*
X112928382Y-68131847D02*
X112926200Y-68127533D01*
X112930906Y-68136288D02*
X112928382Y-68131847D01*
X112933790Y-68140857D02*
X112930906Y-68136288D01*
X112937052Y-68145552D02*
X112933790Y-68140857D01*
X112940709Y-68150373D02*
X112937052Y-68145552D01*
X112944779Y-68155317D02*
X112940709Y-68150373D01*
X112949282Y-68160385D02*
X112944779Y-68155317D01*
X112954233Y-68165574D02*
X112949282Y-68160385D01*
X112954233Y-68165574D02*
X112954233Y-68165574D01*
X112959671Y-68170898D02*
X112954233Y-68165574D01*
X112965495Y-68176236D02*
X112959671Y-68170898D01*
X112971706Y-68181581D02*
X112965495Y-68176236D01*
X112978302Y-68186930D02*
X112971706Y-68181581D01*
X112985286Y-68192275D02*
X112978302Y-68186930D01*
X112992657Y-68197612D02*
X112985286Y-68192275D01*
X113000416Y-68202935D02*
X112992657Y-68197612D01*
X113008563Y-68208238D02*
X113000416Y-68202935D01*
X113017099Y-68213516D02*
X113008563Y-68208238D01*
X113026024Y-68218763D02*
X113017099Y-68213516D01*
X113035339Y-68223975D02*
X113026024Y-68218763D01*
X113045044Y-68229144D02*
X113035339Y-68223975D01*
X113055140Y-68234266D02*
X113045044Y-68229144D01*
X113065626Y-68239336D02*
X113055140Y-68234266D01*
X113076504Y-68244347D02*
X113065626Y-68239336D01*
X113087774Y-68249294D02*
X113076504Y-68244347D01*
X113087774Y-68249294D02*
X113087774Y-68249294D01*
X113111254Y-68258884D02*
X113087774Y-68249294D01*
X113135913Y-68268028D02*
X113111254Y-68258884D01*
X113161705Y-68276702D02*
X113135913Y-68268028D01*
X113188587Y-68284882D02*
X113161705Y-68276702D01*
X113216515Y-68292546D02*
X113188587Y-68284882D01*
X113245447Y-68299667D02*
X113216515Y-68292546D01*
X113275338Y-68306224D02*
X113245447Y-68299667D01*
X113306145Y-68312192D02*
X113275338Y-68306224D01*
X113337825Y-68317547D02*
X113306145Y-68312192D01*
X113370334Y-68322265D02*
X113337825Y-68317547D01*
X113403627Y-68326323D02*
X113370334Y-68322265D01*
X113437663Y-68329697D02*
X113403627Y-68326323D01*
X113472397Y-68332362D02*
X113437663Y-68329697D01*
X113507786Y-68334296D02*
X113472397Y-68332362D01*
X113543786Y-68335473D02*
X113507786Y-68334296D01*
X113580354Y-68335871D02*
X113543786Y-68335473D01*
X113580354Y-68335871D02*
X113580354Y-68335871D01*
X113616921Y-68335473D02*
X113580354Y-68335871D01*
X113652921Y-68334296D02*
X113616921Y-68335473D01*
X113688310Y-68332362D02*
X113652921Y-68334296D01*
X113723044Y-68329697D02*
X113688310Y-68332362D01*
X113757080Y-68326323D02*
X113723044Y-68329697D01*
X113790374Y-68322265D02*
X113757080Y-68326323D01*
X113822882Y-68317547D02*
X113790374Y-68322265D01*
X113854562Y-68312192D02*
X113822882Y-68317547D01*
X113885369Y-68306224D02*
X113854562Y-68312192D01*
X113915260Y-68299667D02*
X113885369Y-68306224D01*
X113944192Y-68292546D02*
X113915260Y-68299667D01*
X113972120Y-68284882D02*
X113944192Y-68292546D01*
X113999003Y-68276702D02*
X113972120Y-68284882D01*
X114024794Y-68268028D02*
X113999003Y-68276702D01*
X114049453Y-68258884D02*
X114024794Y-68268028D01*
X114072934Y-68249294D02*
X114049453Y-68258884D01*
X114072934Y-68249294D02*
X114072934Y-68249294D01*
X114084203Y-68244347D02*
X114072934Y-68249294D01*
X114095081Y-68239336D02*
X114084203Y-68244347D01*
X114105567Y-68234266D02*
X114095081Y-68239336D01*
X114115663Y-68229144D02*
X114105567Y-68234266D01*
X114125368Y-68223975D02*
X114115663Y-68229144D01*
X114134683Y-68218763D02*
X114125368Y-68223975D01*
X114143608Y-68213516D02*
X114134683Y-68218763D01*
X114152144Y-68208238D02*
X114143608Y-68213516D01*
X114160291Y-68202935D02*
X114152144Y-68208238D01*
X114168050Y-68197612D02*
X114160291Y-68202935D01*
X114175421Y-68192275D02*
X114168050Y-68197612D01*
X114182405Y-68186930D02*
X114175421Y-68192275D01*
X114189002Y-68181581D02*
X114182405Y-68186930D01*
X114195212Y-68176236D02*
X114189002Y-68181581D01*
X114201036Y-68170898D02*
X114195212Y-68176236D01*
X114206474Y-68165574D02*
X114201036Y-68170898D01*
X114206474Y-68165574D02*
X114206474Y-68165574D01*
X114211426Y-68160385D02*
X114206474Y-68165574D01*
X114215928Y-68155317D02*
X114211426Y-68160385D01*
X114219998Y-68150373D02*
X114215928Y-68155317D01*
X114223656Y-68145552D02*
X114219998Y-68150373D01*
X114226917Y-68140857D02*
X114223656Y-68145552D01*
X114229801Y-68136288D02*
X114226917Y-68140857D01*
X114232325Y-68131847D02*
X114229801Y-68136288D01*
X114234507Y-68127533D02*
X114232325Y-68131847D01*
X114236366Y-68123348D02*
X114234507Y-68127533D01*
X114237918Y-68119293D02*
X114236366Y-68123348D01*
X114239183Y-68115369D02*
X114237918Y-68119293D01*
X114240177Y-68111577D02*
X114239183Y-68115369D01*
X114240919Y-68107917D02*
X114240177Y-68111577D01*
X114241427Y-68104392D02*
X114240919Y-68107917D01*
X114241719Y-68101001D02*
X114241427Y-68104392D01*
X114241812Y-68097746D02*
X114241719Y-68101001D01*
D12*
X112601395Y-69589996D02*
X112553162Y-69628583D01*
X112601395Y-69589996D02*
X112601395Y-69589996D01*
X112442645Y-69420662D02*
X112601395Y-69589996D01*
X112442645Y-69420662D02*
X112442645Y-69420662D01*
X112396364Y-69460329D02*
X112442645Y-69420662D01*
X112396364Y-69460329D02*
X112336812Y-69394204D01*
X112396364Y-69460329D02*
X112319175Y-69526496D01*
X112416187Y-69738163D02*
X112469104Y-69695829D01*
X112416187Y-69738163D02*
X112416187Y-69738163D01*
X112257437Y-69579412D02*
X112416187Y-69738163D01*
X112257437Y-69579412D02*
X112257437Y-69579412D01*
X112319175Y-69526496D02*
X112257437Y-69579412D01*
X112319175Y-69526496D02*
X112257437Y-69473579D01*
X112553162Y-69628583D02*
X112601395Y-69685246D01*
X112553162Y-69628583D02*
X112469104Y-69695829D01*
X112469104Y-69695829D02*
X112522020Y-69764621D01*
X111761551Y-68694624D02*
X111754732Y-68679829D01*
X111767166Y-68709244D02*
X111761551Y-68694624D01*
X111771636Y-68723691D02*
X111767166Y-68709244D01*
X111775022Y-68737967D02*
X111771636Y-68723691D01*
X111777385Y-68752075D02*
X111775022Y-68737967D01*
X111778785Y-68766015D02*
X111777385Y-68752075D01*
X111779283Y-68779792D02*
X111778785Y-68766015D01*
X111778939Y-68793405D02*
X111779283Y-68779792D01*
X111777814Y-68806859D02*
X111778939Y-68793405D01*
X111775968Y-68820153D02*
X111777814Y-68806859D01*
X111773461Y-68833292D02*
X111775968Y-68820153D01*
X111770354Y-68846276D02*
X111773461Y-68833292D01*
X111766708Y-68859108D02*
X111770354Y-68846276D01*
X111762583Y-68871789D02*
X111766708Y-68859108D01*
X111753138Y-68896710D02*
X111762583Y-68871789D01*
X111742502Y-68921054D02*
X111753138Y-68896710D01*
X111731160Y-68944838D02*
X111742502Y-68921054D01*
X111708290Y-68990792D02*
X111731160Y-68944838D01*
X111697730Y-69012995D02*
X111708290Y-68990792D01*
X111688399Y-69034704D02*
X111697730Y-69012995D01*
X111680780Y-69055935D02*
X111688399Y-69034704D01*
X111677764Y-69066376D02*
X111680780Y-69055935D01*
X111675357Y-69076704D02*
X111677764Y-69066376D01*
X111675357Y-69076704D02*
X111675357Y-69076704D01*
X111673784Y-69086750D02*
X111675357Y-69076704D01*
X111673190Y-69096356D02*
X111673784Y-69086750D01*
X111673520Y-69105538D02*
X111673190Y-69096356D01*
X111674718Y-69114312D02*
X111673520Y-69105538D01*
X111676728Y-69122696D02*
X111674718Y-69114312D01*
X111679494Y-69130705D02*
X111676728Y-69122696D01*
X111682961Y-69138356D02*
X111679494Y-69130705D01*
X111687072Y-69145667D02*
X111682961Y-69138356D01*
X111691773Y-69152652D02*
X111687072Y-69145667D01*
X111697007Y-69159330D02*
X111691773Y-69152652D01*
X111702718Y-69165717D02*
X111697007Y-69159330D01*
X111708851Y-69171829D02*
X111702718Y-69165717D01*
X111715349Y-69177683D02*
X111708851Y-69171829D01*
X111722158Y-69183295D02*
X111715349Y-69177683D01*
X111736481Y-69193861D02*
X111722158Y-69183295D01*
X111751375Y-69203660D02*
X111736481Y-69193861D01*
X111766393Y-69212824D02*
X111751375Y-69203660D01*
X111795015Y-69229779D02*
X111766393Y-69212824D01*
X111807726Y-69237836D02*
X111795015Y-69229779D01*
X111818775Y-69245788D02*
X111807726Y-69237836D01*
X111823537Y-69249767D02*
X111818775Y-69245788D01*
X111827717Y-69253770D02*
X111823537Y-69249767D01*
X111831257Y-69257813D02*
X111827717Y-69253770D01*
X111834104Y-69261913D02*
X111831257Y-69257813D01*
X112579071Y-68199032D02*
X112574937Y-68177121D01*
X112588166Y-68253189D02*
X112579071Y-68199032D01*
X112593024Y-68286933D02*
X112588166Y-68253189D01*
X112597261Y-68322228D02*
X112593024Y-68286933D01*
X112600258Y-68356903D02*
X112597261Y-68322228D01*
X112601098Y-68373330D02*
X112600258Y-68356903D01*
X112601395Y-68388788D02*
X112601098Y-68373330D01*
X112601395Y-68388788D02*
X112601395Y-68388788D01*
X112601092Y-68396228D02*
X112601395Y-68388788D01*
X112600207Y-68403664D02*
X112601092Y-68396228D01*
X112598779Y-68411090D02*
X112600207Y-68403664D01*
X112596848Y-68418501D02*
X112598779Y-68411090D01*
X112594451Y-68425894D02*
X112596848Y-68418501D01*
X112591628Y-68433262D02*
X112594451Y-68425894D01*
X112588418Y-68440600D02*
X112591628Y-68433262D01*
X112584859Y-68447905D02*
X112588418Y-68440600D01*
X112576849Y-68462394D02*
X112584859Y-68447905D01*
X112567909Y-68476689D02*
X112576849Y-68462394D01*
X112558349Y-68490752D02*
X112567909Y-68476689D01*
X112548479Y-68504543D02*
X112558349Y-68490752D01*
X112529048Y-68531156D02*
X112548479Y-68504543D01*
X112520108Y-68543901D02*
X112529048Y-68531156D01*
X112512098Y-68556219D02*
X112520108Y-68543901D01*
X112505329Y-68568073D02*
X112512098Y-68556219D01*
X112502506Y-68573813D02*
X112505329Y-68568073D01*
X112500110Y-68579422D02*
X112502506Y-68573813D01*
X112498178Y-68584896D02*
X112500110Y-68579422D01*
X112496751Y-68590229D02*
X112498178Y-68584896D01*
X112495866Y-68595417D02*
X112496751Y-68590229D01*
X112495562Y-68600454D02*
X112495866Y-68595417D01*
X112495562Y-68600454D02*
X112495562Y-68600454D01*
X112495941Y-68605490D02*
X112495562Y-68600454D01*
X112497048Y-68610667D02*
X112495941Y-68605490D01*
X112498832Y-68615969D02*
X112497048Y-68610667D01*
X112501246Y-68621383D02*
X112498832Y-68615969D01*
X112504242Y-68626894D02*
X112501246Y-68621383D01*
X112507771Y-68632487D02*
X112504242Y-68626894D01*
X112511784Y-68638148D02*
X112507771Y-68632487D01*
X112516233Y-68643862D02*
X112511784Y-68638148D01*
X112526245Y-68655393D02*
X112516233Y-68643862D01*
X112537420Y-68666962D02*
X112526245Y-68655393D01*
X112549370Y-68678453D02*
X112537420Y-68666962D01*
X112561708Y-68689751D02*
X112549370Y-68678453D01*
X112585996Y-68711300D02*
X112561708Y-68689751D01*
X112597171Y-68721319D02*
X112585996Y-68711300D01*
X112607183Y-68730679D02*
X112597171Y-68721319D01*
X112615645Y-68739264D02*
X112607183Y-68730679D01*
X112622169Y-68746957D02*
X112615645Y-68739264D01*
X112624583Y-68750433D02*
X112622169Y-68746957D01*
X112626368Y-68753643D02*
X112624583Y-68750433D01*
X112627474Y-68756571D02*
X112626368Y-68753643D01*
X112627854Y-68759204D02*
X112627474Y-68756571D01*
X112627854Y-68759204D02*
X112627854Y-68759204D01*
X112627626Y-68762063D02*
X112627854Y-68759204D01*
X112626962Y-68765644D02*
X112627626Y-68762063D01*
X112624443Y-68774759D02*
X112626962Y-68765644D01*
X112620528Y-68786121D02*
X112624443Y-68774759D01*
X112615451Y-68799305D02*
X112620528Y-68786121D01*
X112602739Y-68829433D02*
X112615451Y-68799305D01*
X112588166Y-68861730D02*
X112602739Y-68829433D01*
X112560881Y-68919195D02*
X112588166Y-68861730D01*
X112548479Y-68944413D02*
X112560881Y-68919195D01*
X112162438Y-69046093D02*
X112142034Y-69103163D01*
X112182953Y-68986869D02*
X112162438Y-69046093D01*
X112205908Y-68917954D02*
X112182953Y-68986869D01*
X112227975Y-68847424D02*
X112205908Y-68917954D01*
X112245828Y-68783355D02*
X112227975Y-68847424D01*
X112252135Y-68756266D02*
X112245828Y-68783355D01*
X112256140Y-68733822D02*
X112252135Y-68756266D01*
X112257429Y-68717030D02*
X112256140Y-68733822D01*
X112256925Y-68711070D02*
X112257429Y-68717030D01*
X112255585Y-68706901D02*
X112256925Y-68711070D01*
X112255585Y-68706901D02*
X112255585Y-68706901D01*
X112253377Y-68704067D02*
X112255585Y-68706901D01*
X112250336Y-68701993D02*
X112253377Y-68704067D01*
X112246520Y-68700632D02*
X112250336Y-68701993D01*
X112241983Y-68699937D02*
X112246520Y-68700632D01*
X112236781Y-68699860D02*
X112241983Y-68699937D01*
X112230968Y-68700354D02*
X112236781Y-68699860D01*
X112217735Y-68702865D02*
X112230968Y-68700354D01*
X112202728Y-68707093D02*
X112217735Y-68702865D01*
X112186391Y-68712658D02*
X112202728Y-68707093D01*
X112169166Y-68719182D02*
X112186391Y-68712658D01*
X112151497Y-68726287D02*
X112169166Y-68719182D01*
X112116603Y-68740723D02*
X112151497Y-68726287D01*
X112100265Y-68747297D02*
X112116603Y-68740723D01*
X112085258Y-68752938D02*
X112100265Y-68747297D01*
X112072025Y-68757266D02*
X112085258Y-68752938D01*
X112061010Y-68759903D02*
X112072025Y-68757266D01*
X112056473Y-68760469D02*
X112061010Y-68759903D01*
X112052656Y-68760471D02*
X112056473Y-68760469D01*
X112049616Y-68759860D02*
X112052656Y-68760471D01*
X112047408Y-68758590D02*
X112049616Y-68759860D01*
X112047408Y-68758590D02*
X112047408Y-68758590D01*
X112046122Y-68755938D02*
X112047408Y-68758590D01*
X112045777Y-68751301D02*
X112046122Y-68755938D01*
X112047666Y-68736617D02*
X112045777Y-68751301D01*
X112052606Y-68715623D02*
X112047666Y-68736617D01*
X112060123Y-68689406D02*
X112052606Y-68715623D01*
X112081008Y-68625639D02*
X112060123Y-68689406D01*
X112106550Y-68553999D02*
X112081008Y-68625639D01*
X112156526Y-68421822D02*
X112106550Y-68553999D01*
X112179888Y-68362329D02*
X112156526Y-68421822D01*
D11*
X112412446Y-66939826D02*
X114962431Y-67889820D01*
X112356804Y-67836803D02*
X114748161Y-66940045D01*
D12*
X112892437Y-69261913D02*
X113289312Y-68997329D01*
X112808936Y-69132345D02*
X112786604Y-69156079D01*
X112831259Y-69110694D02*
X112808936Y-69132345D01*
X112853528Y-69091040D02*
X112831259Y-69110694D01*
X112875704Y-69073294D02*
X112853528Y-69091040D01*
X112897744Y-69057369D02*
X112875704Y-69073294D01*
X112919607Y-69043179D02*
X112897744Y-69057369D01*
X112941251Y-69030636D02*
X112919607Y-69043179D01*
X112962634Y-69019653D02*
X112941251Y-69030636D01*
X112983715Y-69010143D02*
X112962634Y-69019653D01*
X113004452Y-69002019D02*
X112983715Y-69010143D01*
X113024803Y-68995193D02*
X113004452Y-69002019D01*
X113044727Y-68989578D02*
X113024803Y-68995193D01*
X113064182Y-68985087D02*
X113044727Y-68989578D01*
X113083127Y-68981632D02*
X113064182Y-68985087D01*
X113101519Y-68979128D02*
X113083127Y-68981632D01*
X113119317Y-68977485D02*
X113101519Y-68979128D01*
X113136480Y-68976618D02*
X113119317Y-68977485D01*
X113152965Y-68976439D02*
X113136480Y-68976618D01*
X113168731Y-68976860D02*
X113152965Y-68976439D01*
X113183737Y-68977795D02*
X113168731Y-68976860D01*
X113211300Y-68980857D02*
X113183737Y-68977795D01*
X113235320Y-68984927D02*
X113211300Y-68980857D01*
X113289312Y-68997329D02*
X113235320Y-68984927D01*
X113059869Y-69349142D02*
X113024729Y-69367746D01*
X113098678Y-69327283D02*
X113059869Y-69349142D01*
X113147098Y-69298293D02*
X113098678Y-69327283D01*
X113201720Y-69263101D02*
X113147098Y-69298293D01*
X113230291Y-69243471D02*
X113201720Y-69263101D01*
X113259133Y-69222638D02*
X113230291Y-69243471D01*
X113287820Y-69200721D02*
X113259133Y-69222638D01*
X113315925Y-69177835D02*
X113287820Y-69200721D01*
X113343023Y-69154096D02*
X113315925Y-69177835D01*
X113368687Y-69129621D02*
X113343023Y-69154096D01*
X113368687Y-69129621D02*
X113368687Y-69129621D01*
X113380099Y-69117602D02*
X113368687Y-69129621D01*
X113389597Y-69106334D02*
X113380099Y-69117602D01*
X113397283Y-69095793D02*
X113389597Y-69106334D01*
X113403258Y-69085954D02*
X113397283Y-69095793D01*
X113407626Y-69076794D02*
X113403258Y-69085954D01*
X113410487Y-69068287D02*
X113407626Y-69076794D01*
X113411943Y-69060411D02*
X113410487Y-69068287D01*
X113412095Y-69053140D02*
X113411943Y-69060411D01*
X113411046Y-69046450D02*
X113412095Y-69053140D01*
X113408898Y-69040318D02*
X113411046Y-69046450D01*
X113405751Y-69034718D02*
X113408898Y-69040318D01*
X113401708Y-69029627D02*
X113405751Y-69034718D01*
X113396871Y-69025020D02*
X113401708Y-69029627D01*
X113391341Y-69020874D02*
X113396871Y-69025020D01*
X113385219Y-69017164D02*
X113391341Y-69020874D01*
X113378609Y-69013866D02*
X113385219Y-69017164D01*
X113371611Y-69010955D02*
X113378609Y-69013866D01*
X113364327Y-69008407D02*
X113371611Y-69010955D01*
X113349308Y-69004305D02*
X113364327Y-69008407D01*
X113334367Y-69001366D02*
X113349308Y-69004305D01*
X113320318Y-68999396D02*
X113334367Y-69001366D01*
X113298149Y-68997588D02*
X113320318Y-68999396D01*
X113289312Y-68997329D02*
X113298149Y-68997588D01*
D11*
X112630304Y-69109777D02*
X112630304Y-69109777D01*
X112630304Y-69109777D02*
X112630304Y-69109777D01*
X112653623Y-69105746D02*
X112630304Y-69109777D01*
X112664241Y-69104429D02*
X112653623Y-69105746D01*
X112674229Y-69103576D02*
X112664241Y-69104429D01*
X112683635Y-69103188D02*
X112674229Y-69103576D01*
X112692509Y-69103266D02*
X112683635Y-69103188D01*
X112700899Y-69103809D02*
X112692509Y-69103266D01*
X112708852Y-69104816D02*
X112700899Y-69103809D01*
X112716418Y-69106289D02*
X112708852Y-69104816D01*
X112723644Y-69108227D02*
X112716418Y-69106289D01*
X112730580Y-69110630D02*
X112723644Y-69108227D01*
X112737274Y-69113498D02*
X112730580Y-69110630D01*
X112743774Y-69116831D02*
X112737274Y-69113498D01*
X112750128Y-69120629D02*
X112743774Y-69116831D01*
X112756386Y-69124893D02*
X112750128Y-69120629D01*
X112762595Y-69129621D02*
X112756386Y-69124893D01*
X112775062Y-69140473D02*
X112762595Y-69129621D01*
X112787917Y-69153185D02*
X112775062Y-69140473D01*
X112801546Y-69167758D02*
X112787917Y-69153185D01*
X112816339Y-69184191D02*
X112801546Y-69167758D01*
X112850962Y-69222639D02*
X112816339Y-69184191D01*
X112871568Y-69244653D02*
X112850962Y-69222639D01*
X112894887Y-69268527D02*
X112871568Y-69244653D01*
X112894887Y-69268527D02*
X112894887Y-69268527D01*
X112907058Y-69280399D02*
X112894887Y-69268527D01*
X112918768Y-69291258D02*
X112907058Y-69280399D01*
X112930023Y-69301178D02*
X112918768Y-69291258D01*
X112940827Y-69310230D02*
X112930023Y-69301178D01*
X112961104Y-69326024D02*
X112940827Y-69310230D01*
X112979636Y-69339221D02*
X112961104Y-69326024D01*
X113011624Y-69360149D02*
X112979636Y-69339221D01*
X113025157Y-69369044D02*
X113011624Y-69360149D01*
X113037101Y-69377668D02*
X113025157Y-69369044D01*
X113042489Y-69382059D02*
X113037101Y-69377668D01*
X113047494Y-69386601D02*
X113042489Y-69382059D01*
X113052121Y-69391366D02*
X113047494Y-69386601D01*
X113056376Y-69396426D02*
X113052121Y-69391366D01*
X113060262Y-69401855D02*
X113056376Y-69396426D01*
X113063785Y-69407724D02*
X113060262Y-69401855D01*
X113066949Y-69414107D02*
X113063785Y-69407724D01*
X113069760Y-69421076D02*
X113066949Y-69414107D01*
X113072222Y-69428704D02*
X113069760Y-69421076D01*
X113074340Y-69437063D02*
X113072222Y-69428704D01*
X113076119Y-69446227D02*
X113074340Y-69437063D01*
X113077563Y-69456268D02*
X113076119Y-69446227D01*
X113078678Y-69467258D02*
X113077563Y-69456268D01*
X113079469Y-69479270D02*
X113078678Y-69467258D01*
X113079940Y-69492377D02*
X113079469Y-69479270D01*
X113080095Y-69506652D02*
X113079940Y-69492377D01*
X113080095Y-69506652D02*
X113080095Y-69506652D01*
X113078497Y-69522139D02*
X113080095Y-69506652D01*
X113073823Y-69538769D02*
X113078497Y-69522139D01*
X113066252Y-69556446D02*
X113073823Y-69538769D01*
X113055962Y-69575072D02*
X113066252Y-69556446D01*
X113043135Y-69594550D02*
X113055962Y-69575072D01*
X113027947Y-69614785D02*
X113043135Y-69594550D01*
X112991212Y-69657134D02*
X113027947Y-69614785D01*
X112947190Y-69701343D02*
X112991212Y-69657134D01*
X112897316Y-69746637D02*
X112947190Y-69701343D01*
X112843023Y-69792242D02*
X112897316Y-69746637D01*
X112785746Y-69837381D02*
X112843023Y-69792242D01*
X112726919Y-69881280D02*
X112785746Y-69837381D01*
X112667976Y-69923164D02*
X112726919Y-69881280D01*
X112610350Y-69962257D02*
X112667976Y-69923164D01*
X112555476Y-69997785D02*
X112610350Y-69962257D01*
X112504788Y-70028972D02*
X112555476Y-69997785D01*
X112459720Y-70055042D02*
X112504788Y-70028972D01*
X112421705Y-70075222D02*
X112459720Y-70055042D01*
X112392179Y-70088735D02*
X112421705Y-70075222D01*
X112392179Y-70088735D02*
X112392179Y-70088735D01*
X112378792Y-70092325D02*
X112392179Y-70088735D01*
X112363531Y-70093270D02*
X112378792Y-70092325D01*
X112346535Y-70091715D02*
X112363531Y-70093270D01*
X112327945Y-70087805D02*
X112346535Y-70091715D01*
X112307902Y-70081686D02*
X112327945Y-70087805D01*
X112286546Y-70073504D02*
X112307902Y-70081686D01*
X112264017Y-70063403D02*
X112286546Y-70073504D01*
X112240457Y-70051528D02*
X112264017Y-70063403D01*
X112190802Y-70023042D02*
X112240457Y-70051528D01*
X112138706Y-69989207D02*
X112190802Y-70023042D01*
X112085292Y-69951186D02*
X112138706Y-69989207D01*
X112031684Y-69910142D02*
X112085292Y-69951186D01*
X111979007Y-69867237D02*
X112031684Y-69910142D01*
X111928383Y-69823635D02*
X111979007Y-69867237D01*
X111880938Y-69780498D02*
X111928383Y-69823635D01*
X111837794Y-69738989D02*
X111880938Y-69780498D01*
X111800077Y-69700271D02*
X111837794Y-69738989D01*
X111768910Y-69665505D02*
X111800077Y-69700271D01*
X111745416Y-69635856D02*
X111768910Y-69665505D01*
X111736899Y-69623313D02*
X111745416Y-69635856D01*
X111730721Y-69612485D02*
X111736899Y-69623313D01*
X111730721Y-69612485D02*
X111730721Y-69612485D01*
X111728270Y-69601807D02*
X111730721Y-69612485D01*
X111730650Y-69589690D02*
X111728270Y-69601807D01*
X111737574Y-69576245D02*
X111730650Y-69589690D01*
X111748756Y-69561584D02*
X111737574Y-69576245D01*
X111782753Y-69529060D02*
X111748756Y-69561584D01*
X111830353Y-69493010D02*
X111782753Y-69529060D01*
X111889271Y-69454323D02*
X111830353Y-69493010D01*
X111957219Y-69413893D02*
X111889271Y-69454323D01*
X112031910Y-69372610D02*
X111957219Y-69413893D01*
X112111059Y-69331366D02*
X112031910Y-69372610D01*
X112273581Y-69252559D02*
X112111059Y-69331366D01*
X112426492Y-69184605D02*
X112273581Y-69252559D01*
X112551497Y-69134633D02*
X112426492Y-69184605D01*
X112597819Y-69118620D02*
X112551497Y-69134633D01*
X112630304Y-69109777D02*
X112597819Y-69118620D01*
D13*
X96375000Y-68116666D02*
X96375000Y-67650000D01*
X96375000Y-67783333D02*
X96408333Y-67716666D01*
X96441666Y-67683333D01*
X96508333Y-67650000D01*
X96575000Y-67650000D01*
X97075000Y-68083333D02*
X97008333Y-68116666D01*
X96875000Y-68116666D01*
X96808333Y-68083333D01*
X96775000Y-68016666D01*
X96775000Y-67750000D01*
X96808333Y-67683333D01*
X96875000Y-67650000D01*
X97008333Y-67650000D01*
X97075000Y-67683333D01*
X97108333Y-67750000D01*
X97108333Y-67816666D01*
X96775000Y-67883333D01*
X97341666Y-67650000D02*
X97508333Y-68116666D01*
X97675000Y-67650000D01*
X97941666Y-68050000D02*
X97975000Y-68083333D01*
X97941666Y-68116666D01*
X97908333Y-68083333D01*
X97941666Y-68050000D01*
X97941666Y-68116666D01*
X98775000Y-67916666D02*
X99108333Y-67916666D01*
X98708333Y-68116666D02*
X98941666Y-67416666D01*
X99175000Y-68116666D01*
X114700000Y-68683333D02*
X114733333Y-68650000D01*
X114800000Y-68616666D01*
X114966666Y-68616666D01*
X115033333Y-68650000D01*
X115066666Y-68683333D01*
X115100000Y-68750000D01*
X115100000Y-68816666D01*
X115066666Y-68916666D01*
X114666666Y-69316666D01*
X115100000Y-69316666D01*
X115400000Y-69050000D02*
X115933333Y-69050000D01*
X116566666Y-68850000D02*
X116566666Y-69316666D01*
X116400000Y-68583333D02*
X116233333Y-69083333D01*
X116666666Y-69083333D01*
X116900000Y-69283333D02*
X116966666Y-69316666D01*
X117100000Y-69316666D01*
X117166666Y-69283333D01*
X117200000Y-69216666D01*
X117200000Y-69183333D01*
X117166666Y-69116666D01*
X117100000Y-69083333D01*
X117000000Y-69083333D01*
X116933333Y-69050000D01*
X116900000Y-68983333D01*
X116900000Y-68950000D01*
X116933333Y-68883333D01*
X117000000Y-68850000D01*
X117100000Y-68850000D01*
X117166666Y-68883333D01*
X109916666Y-70250000D02*
X109883333Y-70283333D01*
X109783333Y-70316666D01*
X109716666Y-70316666D01*
X109616666Y-70283333D01*
X109550000Y-70216666D01*
X109516666Y-70150000D01*
X109483333Y-70016666D01*
X109483333Y-69916666D01*
X109516666Y-69783333D01*
X109550000Y-69716666D01*
X109616666Y-69650000D01*
X109716666Y-69616666D01*
X109783333Y-69616666D01*
X109883333Y-69650000D01*
X109916666Y-69683333D01*
X105650000Y-69950000D02*
X105750000Y-69983333D01*
X105783333Y-70016666D01*
X105816666Y-70083333D01*
X105816666Y-70183333D01*
X105783333Y-70250000D01*
X105750000Y-70283333D01*
X105683333Y-70316666D01*
X105416666Y-70316666D01*
X105416666Y-69616666D01*
X105650000Y-69616666D01*
X105716666Y-69650000D01*
X105750000Y-69683333D01*
X105783333Y-69750000D01*
X105783333Y-69816666D01*
X105750000Y-69883333D01*
X105716666Y-69916666D01*
X105650000Y-69950000D01*
X105416666Y-69950000D01*
X101558333Y-70141666D02*
X101891666Y-70141666D01*
X101491666Y-70341666D02*
X101725000Y-69641666D01*
X101958333Y-70341666D01*
X109219047Y-94421428D02*
X109980952Y-94421428D01*
X104576190Y-94823809D02*
X104719047Y-94861904D01*
X104957142Y-94861904D01*
X105052380Y-94823809D01*
X105100000Y-94785714D01*
X105147619Y-94709523D01*
X105147619Y-94633333D01*
X105100000Y-94557142D01*
X105052380Y-94519047D01*
X104957142Y-94480952D01*
X104766666Y-94442857D01*
X104671428Y-94404761D01*
X104623809Y-94366666D01*
X104576190Y-94290476D01*
X104576190Y-94214285D01*
X104623809Y-94138095D01*
X104671428Y-94100000D01*
X104766666Y-94061904D01*
X105004761Y-94061904D01*
X105147619Y-94100000D01*
X105576190Y-94861904D02*
X105576190Y-94061904D01*
X106576190Y-94100000D02*
X106480952Y-94061904D01*
X106338095Y-94061904D01*
X106195238Y-94100000D01*
X106100000Y-94176190D01*
X106052380Y-94252380D01*
X106004761Y-94404761D01*
X106004761Y-94519047D01*
X106052380Y-94671428D01*
X106100000Y-94747619D01*
X106195238Y-94823809D01*
X106338095Y-94861904D01*
X106433333Y-94861904D01*
X106576190Y-94823809D01*
X106623809Y-94785714D01*
X106623809Y-94519047D01*
X106433333Y-94519047D01*
X101219047Y-94421428D02*
X101980952Y-94421428D01*
X101600000Y-94802380D02*
X101600000Y-94040476D01*
X115633333Y-92650000D02*
X115666666Y-92550000D01*
X115666666Y-92383333D01*
X115633333Y-92316666D01*
X115600000Y-92283333D01*
X115533333Y-92250000D01*
X115466666Y-92250000D01*
X115400000Y-92283333D01*
X115366666Y-92316666D01*
X115333333Y-92383333D01*
X115300000Y-92516666D01*
X115266666Y-92583333D01*
X115233333Y-92616666D01*
X115166666Y-92650000D01*
X115100000Y-92650000D01*
X115033333Y-92616666D01*
X115000000Y-92583333D01*
X114966666Y-92516666D01*
X114966666Y-92350000D01*
X115000000Y-92250000D01*
X114966666Y-92016666D02*
X115666666Y-91850000D01*
X115166666Y-91716666D01*
X115666666Y-91583333D01*
X114966666Y-91416666D01*
X115666666Y-91150000D02*
X114966666Y-91150000D01*
X114966666Y-90983333D01*
X115000000Y-90883333D01*
X115066666Y-90816666D01*
X115133333Y-90783333D01*
X115266666Y-90750000D01*
X115366666Y-90750000D01*
X115500000Y-90783333D01*
X115566666Y-90816666D01*
X115633333Y-90883333D01*
X115666666Y-90983333D01*
X115666666Y-91150000D01*
X115633333Y-87683333D02*
X115666666Y-87583333D01*
X115666666Y-87416666D01*
X115633333Y-87350000D01*
X115600000Y-87316666D01*
X115533333Y-87283333D01*
X115466666Y-87283333D01*
X115400000Y-87316666D01*
X115366666Y-87350000D01*
X115333333Y-87416666D01*
X115300000Y-87550000D01*
X115266666Y-87616666D01*
X115233333Y-87650000D01*
X115166666Y-87683333D01*
X115100000Y-87683333D01*
X115033333Y-87650000D01*
X115000000Y-87616666D01*
X114966666Y-87550000D01*
X114966666Y-87383333D01*
X115000000Y-87283333D01*
X115600000Y-86583333D02*
X115633333Y-86616666D01*
X115666666Y-86716666D01*
X115666666Y-86783333D01*
X115633333Y-86883333D01*
X115566666Y-86950000D01*
X115500000Y-86983333D01*
X115366666Y-87016666D01*
X115266666Y-87016666D01*
X115133333Y-86983333D01*
X115066666Y-86950000D01*
X115000000Y-86883333D01*
X114966666Y-86783333D01*
X114966666Y-86716666D01*
X115000000Y-86616666D01*
X115033333Y-86583333D01*
X115666666Y-85950000D02*
X115666666Y-86283333D01*
X114966666Y-86283333D01*
X115050000Y-89883333D02*
X115016666Y-89950000D01*
X115016666Y-90050000D01*
X115050000Y-90150000D01*
X115116666Y-90216666D01*
X115183333Y-90250000D01*
X115316666Y-90283333D01*
X115416666Y-90283333D01*
X115550000Y-90250000D01*
X115616666Y-90216666D01*
X115683333Y-90150000D01*
X115716666Y-90050000D01*
X115716666Y-89983333D01*
X115683333Y-89883333D01*
X115650000Y-89850000D01*
X115416666Y-89850000D01*
X115416666Y-89983333D01*
X115716666Y-89550000D02*
X115016666Y-89550000D01*
X115716666Y-89150000D01*
X115016666Y-89150000D01*
X115716666Y-88816666D02*
X115016666Y-88816666D01*
X115016666Y-88650000D01*
X115050000Y-88550000D01*
X115116666Y-88483333D01*
X115183333Y-88450000D01*
X115316666Y-88416666D01*
X115416666Y-88416666D01*
X115550000Y-88450000D01*
X115616666Y-88483333D01*
X115683333Y-88550000D01*
X115716666Y-88650000D01*
X115716666Y-88816666D01*
D10*
G36*
X97766558Y-68695015D02*
G01*
X97778548Y-68695660D01*
X97789710Y-68696735D01*
X97800046Y-68698240D01*
X97809554Y-68700174D01*
X97818236Y-68702539D01*
X97826091Y-68705334D01*
X97833118Y-68708558D01*
X97839319Y-68712213D01*
X97844694Y-68716297D01*
X97847071Y-68718501D01*
X97849241Y-68720812D01*
X97851204Y-68723230D01*
X97852961Y-68725756D01*
X97854512Y-68728390D01*
X97855855Y-68731131D01*
X97856992Y-68733979D01*
X97857922Y-68736935D01*
X97858645Y-68739998D01*
X97859162Y-68743169D01*
X97859472Y-68746448D01*
X97859575Y-68749833D01*
X97859456Y-68753848D01*
X97859096Y-68757688D01*
X97858497Y-68761355D01*
X97857657Y-68764848D01*
X97856579Y-68768168D01*
X97855260Y-68771314D01*
X97854511Y-68772822D01*
X97853701Y-68774287D01*
X97852832Y-68775708D01*
X97851903Y-68777085D01*
X97850914Y-68778420D01*
X97849865Y-68779711D01*
X97848756Y-68780958D01*
X97847587Y-68782162D01*
X97845070Y-68784440D01*
X97842312Y-68786544D01*
X97839315Y-68788475D01*
X97836078Y-68790232D01*
X97832601Y-68791815D01*
X97828884Y-68793225D01*
X97825060Y-68790021D01*
X97820997Y-68787024D01*
X97816693Y-68784233D01*
X97812150Y-68781650D01*
X97807367Y-68779272D01*
X97802344Y-68777102D01*
X97797081Y-68775138D01*
X97791578Y-68773381D01*
X97785836Y-68771831D01*
X97779854Y-68770487D01*
X97773632Y-68769351D01*
X97767170Y-68768420D01*
X97760468Y-68767697D01*
X97753527Y-68767180D01*
X97746346Y-68766870D01*
X97738925Y-68766767D01*
X97450000Y-68766767D01*
X97450000Y-69025000D01*
X97673309Y-69025000D01*
X97687333Y-69025149D01*
X97700298Y-69025595D01*
X97712205Y-69026339D01*
X97723053Y-69027381D01*
X97732843Y-69028721D01*
X97741573Y-69030358D01*
X97745542Y-69031288D01*
X97749245Y-69032293D01*
X97752684Y-69033372D01*
X97755859Y-69034525D01*
X97757356Y-69035138D01*
X97758807Y-69035786D01*
X97760209Y-69036469D01*
X97761564Y-69037187D01*
X97762872Y-69037941D01*
X97764132Y-69038729D01*
X97765344Y-69039553D01*
X97766509Y-69040412D01*
X97767626Y-69041306D01*
X97768696Y-69042235D01*
X97769718Y-69043199D01*
X97770693Y-69044199D01*
X97771620Y-69045233D01*
X97772499Y-69046303D01*
X97773331Y-69047408D01*
X97774116Y-69048548D01*
X97774852Y-69049723D01*
X97775542Y-69050933D01*
X97776184Y-69052179D01*
X97776778Y-69053459D01*
X97777324Y-69054775D01*
X97777824Y-69056126D01*
X97778275Y-69057512D01*
X97778679Y-69058933D01*
X97779036Y-69060389D01*
X97779345Y-69061880D01*
X97779606Y-69063407D01*
X97779820Y-69064969D01*
X97779986Y-69066565D01*
X97780105Y-69068197D01*
X97780200Y-69071567D01*
X97780101Y-69074948D01*
X97779803Y-69078214D01*
X97779307Y-69081365D01*
X97778613Y-69084399D01*
X97777720Y-69087318D01*
X97776629Y-69090121D01*
X97775339Y-69092808D01*
X97773850Y-69095379D01*
X97772164Y-69097835D01*
X97770279Y-69100175D01*
X97768195Y-69102399D01*
X97765913Y-69104507D01*
X97763433Y-69106500D01*
X97760754Y-69108377D01*
X97757876Y-69110138D01*
X97754801Y-69111783D01*
X97751101Y-69109989D01*
X97747144Y-69108311D01*
X97742932Y-69106748D01*
X97738463Y-69105301D01*
X97733738Y-69103970D01*
X97728757Y-69102754D01*
X97723519Y-69101655D01*
X97718025Y-69100671D01*
X97712274Y-69099803D01*
X97706268Y-69099050D01*
X97700004Y-69098414D01*
X97693485Y-69097893D01*
X97686709Y-69097488D01*
X97679677Y-69097198D01*
X97672388Y-69097025D01*
X97664842Y-69096967D01*
X97450000Y-69096967D01*
X97450000Y-69310750D01*
X97450067Y-69315430D01*
X97450265Y-69319944D01*
X97450596Y-69324293D01*
X97451059Y-69328477D01*
X97451654Y-69332496D01*
X97452382Y-69336349D01*
X97453242Y-69340037D01*
X97454234Y-69343559D01*
X97455359Y-69346916D01*
X97456616Y-69350108D01*
X97458005Y-69353134D01*
X97459526Y-69355994D01*
X97461180Y-69358690D01*
X97462966Y-69361220D01*
X97464884Y-69363584D01*
X97466934Y-69365783D01*
X97469270Y-69367834D01*
X97471780Y-69369752D01*
X97474463Y-69371537D01*
X97477320Y-69373191D01*
X97480351Y-69374712D01*
X97483555Y-69376101D01*
X97486932Y-69377358D01*
X97490484Y-69378483D01*
X97494209Y-69379475D01*
X97498107Y-69380335D01*
X97502179Y-69381063D01*
X97506425Y-69381658D01*
X97510844Y-69382121D01*
X97515437Y-69382452D01*
X97520203Y-69382650D01*
X97525142Y-69382717D01*
X97738925Y-69382717D01*
X97746346Y-69382543D01*
X97753527Y-69382022D01*
X97760468Y-69381154D01*
X97767170Y-69379939D01*
X97773632Y-69378376D01*
X97779854Y-69376466D01*
X97785836Y-69374209D01*
X97791578Y-69371604D01*
X97797081Y-69368652D01*
X97802344Y-69365353D01*
X97807367Y-69361707D01*
X97812150Y-69357713D01*
X97816693Y-69353373D01*
X97820997Y-69348685D01*
X97825060Y-69343649D01*
X97828884Y-69338267D01*
X97830584Y-69338961D01*
X97832242Y-69339722D01*
X97833859Y-69340549D01*
X97835434Y-69341443D01*
X97836968Y-69342402D01*
X97838461Y-69343427D01*
X97839912Y-69344519D01*
X97841322Y-69345676D01*
X97842690Y-69346900D01*
X97844017Y-69348190D01*
X97845303Y-69349546D01*
X97846547Y-69350968D01*
X97847750Y-69352456D01*
X97848911Y-69354010D01*
X97850031Y-69355630D01*
X97851109Y-69357317D01*
X97852135Y-69358908D01*
X97853094Y-69360508D01*
X97853987Y-69362116D01*
X97854814Y-69363733D01*
X97855574Y-69365358D01*
X97856269Y-69366991D01*
X97856897Y-69368632D01*
X97857459Y-69370282D01*
X97857955Y-69371940D01*
X97858385Y-69373606D01*
X97858749Y-69375280D01*
X97859046Y-69376963D01*
X97859278Y-69378653D01*
X97859443Y-69380352D01*
X97859542Y-69382060D01*
X97859575Y-69383775D01*
X97859462Y-69388072D01*
X97859121Y-69392233D01*
X97858552Y-69396258D01*
X97857756Y-69400146D01*
X97856733Y-69403898D01*
X97855483Y-69407513D01*
X97854005Y-69410992D01*
X97852300Y-69414334D01*
X97850367Y-69417540D01*
X97848207Y-69420610D01*
X97845820Y-69423543D01*
X97843205Y-69426340D01*
X97840363Y-69429000D01*
X97837293Y-69431524D01*
X97833996Y-69433911D01*
X97830472Y-69436162D01*
X97826720Y-69438277D01*
X97822741Y-69440255D01*
X97818535Y-69442097D01*
X97814101Y-69443802D01*
X97809440Y-69445371D01*
X97804551Y-69446804D01*
X97799435Y-69448100D01*
X97794092Y-69449259D01*
X97788521Y-69450283D01*
X97782723Y-69451169D01*
X97776697Y-69451920D01*
X97770444Y-69452534D01*
X97763964Y-69453011D01*
X97757256Y-69453352D01*
X97750321Y-69453557D01*
X97743159Y-69453625D01*
X97520909Y-69453625D01*
X97510888Y-69453497D01*
X97501199Y-69453112D01*
X97491839Y-69452471D01*
X97482811Y-69451574D01*
X97474113Y-69450421D01*
X97465746Y-69449011D01*
X97457709Y-69447345D01*
X97450003Y-69445422D01*
X97442628Y-69443243D01*
X97435583Y-69440808D01*
X97428869Y-69438117D01*
X97422486Y-69435170D01*
X97416433Y-69431966D01*
X97410711Y-69428506D01*
X97405320Y-69424789D01*
X97400259Y-69420817D01*
X97395517Y-69416555D01*
X97391082Y-69411970D01*
X97386952Y-69407063D01*
X97383128Y-69401833D01*
X97379610Y-69396281D01*
X97376397Y-69390406D01*
X97373491Y-69384209D01*
X97370891Y-69377690D01*
X97368596Y-69370847D01*
X97366608Y-69363683D01*
X97364925Y-69356196D01*
X97363548Y-69348386D01*
X97362477Y-69340255D01*
X97361712Y-69331800D01*
X97361253Y-69323024D01*
X97361101Y-69313925D01*
X97361101Y-68775233D01*
X97360997Y-68771347D01*
X97360687Y-68767627D01*
X97360171Y-68764071D01*
X97359447Y-68760681D01*
X97358517Y-68757457D01*
X97357381Y-68754397D01*
X97356037Y-68751503D01*
X97354487Y-68748775D01*
X97352730Y-68746212D01*
X97350767Y-68743814D01*
X97348596Y-68741582D01*
X97346219Y-68739515D01*
X97343635Y-68737613D01*
X97340844Y-68735877D01*
X97337847Y-68734306D01*
X97334642Y-68732900D01*
X97336263Y-68730556D01*
X97337949Y-68728286D01*
X97339702Y-68726091D01*
X97341521Y-68723970D01*
X97343407Y-68721924D01*
X97345358Y-68719952D01*
X97347376Y-68718054D01*
X97349459Y-68716231D01*
X97351609Y-68714483D01*
X97353825Y-68712808D01*
X97356107Y-68711208D01*
X97358456Y-68709683D01*
X97360870Y-68708232D01*
X97363351Y-68706855D01*
X97365897Y-68705553D01*
X97368510Y-68704325D01*
X97371189Y-68703172D01*
X97373934Y-68702093D01*
X97376746Y-68701088D01*
X97379623Y-68700158D01*
X97385576Y-68698521D01*
X97391794Y-68697181D01*
X97398276Y-68696139D01*
X97405022Y-68695395D01*
X97412033Y-68694949D01*
X97419309Y-68694800D01*
X97753742Y-68694800D01*
X97766558Y-68695015D01*
G37*
G36*
X95245274Y-68682269D02*
G01*
X95257936Y-68682778D01*
X95270310Y-68683625D01*
X95282394Y-68684812D01*
X95294189Y-68686337D01*
X95305694Y-68688202D01*
X95316910Y-68690405D01*
X95327837Y-68692948D01*
X95338474Y-68695829D01*
X95348821Y-68699050D01*
X95358880Y-68702609D01*
X95368649Y-68706508D01*
X95378128Y-68710745D01*
X95387318Y-68715322D01*
X95396219Y-68720237D01*
X95404830Y-68725492D01*
X95413160Y-68730986D01*
X95420953Y-68736621D01*
X95428209Y-68742396D01*
X95434927Y-68748312D01*
X95441107Y-68754369D01*
X95446750Y-68760566D01*
X95451856Y-68766903D01*
X95456424Y-68773381D01*
X95460455Y-68780000D01*
X95463948Y-68786759D01*
X95466904Y-68793659D01*
X95468180Y-68797162D01*
X95469322Y-68800700D01*
X95470330Y-68804272D01*
X95471203Y-68807881D01*
X95471942Y-68811524D01*
X95472547Y-68815202D01*
X95473353Y-68822664D01*
X95473621Y-68830267D01*
X95473555Y-68833925D01*
X95473357Y-68837493D01*
X95473026Y-68840970D01*
X95472564Y-68844356D01*
X95471968Y-68847650D01*
X95471241Y-68850854D01*
X95470381Y-68853967D01*
X95469389Y-68856989D01*
X95468265Y-68859921D01*
X95467008Y-68862761D01*
X95465619Y-68865510D01*
X95464098Y-68868168D01*
X95462444Y-68870735D01*
X95460658Y-68873212D01*
X95458739Y-68875597D01*
X95456688Y-68877892D01*
X95454683Y-68879942D01*
X95452637Y-68881860D01*
X95450549Y-68883646D01*
X95448420Y-68885300D01*
X95446250Y-68886821D01*
X95444038Y-68888210D01*
X95441785Y-68889467D01*
X95439491Y-68890592D01*
X95437155Y-68891584D01*
X95434778Y-68892444D01*
X95432360Y-68893171D01*
X95429900Y-68893767D01*
X95427398Y-68894230D01*
X95424856Y-68894560D01*
X95422272Y-68894759D01*
X95419646Y-68894825D01*
X95417112Y-68894792D01*
X95414537Y-68894693D01*
X95411920Y-68894527D01*
X95409262Y-68894296D01*
X95406563Y-68893998D01*
X95403822Y-68893634D01*
X95401039Y-68893204D01*
X95398216Y-68892708D01*
X95392444Y-68891518D01*
X95386508Y-68890063D01*
X95380405Y-68888343D01*
X95374138Y-68886358D01*
X95375131Y-68882142D01*
X95375992Y-68877958D01*
X95376719Y-68873807D01*
X95377314Y-68869690D01*
X95377777Y-68865605D01*
X95378107Y-68861554D01*
X95378305Y-68857535D01*
X95378371Y-68853550D01*
X95378210Y-68848680D01*
X95377726Y-68843860D01*
X95376920Y-68839089D01*
X95375792Y-68834368D01*
X95374341Y-68829696D01*
X95372567Y-68825074D01*
X95370471Y-68820502D01*
X95368053Y-68815979D01*
X95365312Y-68811506D01*
X95362248Y-68807083D01*
X95358862Y-68802709D01*
X95355154Y-68798384D01*
X95351123Y-68794110D01*
X95346770Y-68789885D01*
X95342095Y-68785709D01*
X95337096Y-68781583D01*
X95331942Y-68777482D01*
X95326531Y-68773646D01*
X95320863Y-68770074D01*
X95314939Y-68766767D01*
X95308759Y-68763724D01*
X95302322Y-68760946D01*
X95295629Y-68758432D01*
X95288679Y-68756183D01*
X95281473Y-68754199D01*
X95274011Y-68752479D01*
X95266292Y-68751024D01*
X95258317Y-68749833D01*
X95250086Y-68748907D01*
X95241598Y-68748246D01*
X95232855Y-68747849D01*
X95223855Y-68747717D01*
X95214971Y-68747837D01*
X95206311Y-68748196D01*
X95197873Y-68748796D01*
X95189659Y-68749635D01*
X95181668Y-68750714D01*
X95173900Y-68752033D01*
X95166355Y-68753591D01*
X95159034Y-68755390D01*
X95151935Y-68757428D01*
X95145060Y-68759706D01*
X95138408Y-68762223D01*
X95131979Y-68764981D01*
X95125774Y-68767978D01*
X95119791Y-68771215D01*
X95114032Y-68774692D01*
X95108496Y-68778408D01*
X95103242Y-68782327D01*
X95098327Y-68786412D01*
X95093751Y-68790662D01*
X95089514Y-68795077D01*
X95085616Y-68799658D01*
X95082056Y-68804404D01*
X95078836Y-68809315D01*
X95075954Y-68814392D01*
X95073411Y-68819634D01*
X95071208Y-68825041D01*
X95069343Y-68830614D01*
X95067817Y-68836352D01*
X95066630Y-68842256D01*
X95065783Y-68848325D01*
X95065274Y-68854559D01*
X95065105Y-68860958D01*
X95065278Y-68867259D01*
X95065799Y-68873460D01*
X95066667Y-68879562D01*
X95067883Y-68885565D01*
X95069446Y-68891468D01*
X95071355Y-68897272D01*
X95073613Y-68902977D01*
X95076217Y-68908583D01*
X95079169Y-68914090D01*
X95082468Y-68919497D01*
X95086114Y-68924806D01*
X95090108Y-68930015D01*
X95094449Y-68935124D01*
X95099137Y-68940135D01*
X95104172Y-68945046D01*
X95109555Y-68949858D01*
X95115185Y-68954451D01*
X95120965Y-68958970D01*
X95126893Y-68963414D01*
X95132970Y-68967784D01*
X95139196Y-68972079D01*
X95145571Y-68976300D01*
X95152095Y-68980447D01*
X95158767Y-68984519D01*
X95165588Y-68988516D01*
X95172559Y-68992440D01*
X95179678Y-68996289D01*
X95186945Y-69000063D01*
X95194362Y-69003763D01*
X95201927Y-69007389D01*
X95217505Y-69014417D01*
X95249719Y-69028241D01*
X95281800Y-69042198D01*
X95313747Y-69056287D01*
X95345563Y-69070508D01*
X95353555Y-69074142D01*
X95361389Y-69077900D01*
X95369067Y-69081782D01*
X95376587Y-69085788D01*
X95383950Y-69089918D01*
X95391156Y-69094172D01*
X95398204Y-69098550D01*
X95405096Y-69103052D01*
X95411830Y-69107678D01*
X95418407Y-69112428D01*
X95424827Y-69117302D01*
X95431090Y-69122301D01*
X95437196Y-69127423D01*
X95443145Y-69132669D01*
X95448937Y-69138039D01*
X95454571Y-69143533D01*
X95459954Y-69149007D01*
X95464989Y-69154580D01*
X95469677Y-69160252D01*
X95474018Y-69166023D01*
X95478012Y-69171893D01*
X95481658Y-69177863D01*
X95484957Y-69183931D01*
X95487909Y-69190099D01*
X95490513Y-69196367D01*
X95492771Y-69202733D01*
X95494681Y-69209199D01*
X95496243Y-69215764D01*
X95497459Y-69222428D01*
X95498327Y-69229192D01*
X95498848Y-69236055D01*
X95499021Y-69243017D01*
X95498699Y-69254671D01*
X95497732Y-69266086D01*
X95496119Y-69277260D01*
X95493862Y-69288195D01*
X95490960Y-69298890D01*
X95487413Y-69309345D01*
X95483221Y-69319561D01*
X95478384Y-69329536D01*
X95472902Y-69339272D01*
X95466775Y-69348768D01*
X95460004Y-69358024D01*
X95452587Y-69367040D01*
X95444525Y-69375817D01*
X95435819Y-69384354D01*
X95426468Y-69392651D01*
X95416471Y-69400708D01*
X95406157Y-69408270D01*
X95395587Y-69415344D01*
X95384760Y-69421929D01*
X95373677Y-69428027D01*
X95362337Y-69433637D01*
X95350741Y-69438759D01*
X95338888Y-69443394D01*
X95326779Y-69447540D01*
X95314414Y-69451199D01*
X95301792Y-69454370D01*
X95288914Y-69457053D01*
X95275780Y-69459248D01*
X95262389Y-69460955D01*
X95248742Y-69462174D01*
X95234839Y-69462906D01*
X95220680Y-69463150D01*
X95206545Y-69462952D01*
X95192717Y-69462356D01*
X95179194Y-69461364D01*
X95165977Y-69459975D01*
X95153067Y-69458189D01*
X95140462Y-69456006D01*
X95128163Y-69453427D01*
X95116170Y-69450450D01*
X95104483Y-69447077D01*
X95093102Y-69443306D01*
X95082026Y-69439139D01*
X95071257Y-69434575D01*
X95060793Y-69429614D01*
X95050636Y-69424256D01*
X95040784Y-69418502D01*
X95031238Y-69412350D01*
X95022139Y-69405765D01*
X95013628Y-69398973D01*
X95005703Y-69391974D01*
X94998365Y-69384768D01*
X94991614Y-69377356D01*
X94985450Y-69369737D01*
X94979873Y-69361911D01*
X94974883Y-69353878D01*
X94970480Y-69345639D01*
X94966664Y-69337193D01*
X94963435Y-69328540D01*
X94960793Y-69319681D01*
X94958738Y-69310614D01*
X94957271Y-69301341D01*
X94956390Y-69291862D01*
X94956096Y-69282175D01*
X94956171Y-69277991D01*
X94956394Y-69273906D01*
X94956766Y-69269921D01*
X94957287Y-69266035D01*
X94957957Y-69262248D01*
X94958775Y-69258561D01*
X94959743Y-69254972D01*
X94960859Y-69251483D01*
X94962124Y-69248093D01*
X94963538Y-69244803D01*
X94965100Y-69241611D01*
X94966812Y-69238519D01*
X94968672Y-69235526D01*
X94970682Y-69232632D01*
X94972840Y-69229837D01*
X94975146Y-69227142D01*
X94977577Y-69224450D01*
X94980107Y-69221933D01*
X94982737Y-69219589D01*
X94985465Y-69217418D01*
X94988293Y-69215421D01*
X94991220Y-69213598D01*
X94994246Y-69211949D01*
X94997371Y-69210473D01*
X95000596Y-69209171D01*
X95003920Y-69208042D01*
X95007343Y-69207087D01*
X95010865Y-69206306D01*
X95014487Y-69205698D01*
X95018207Y-69205264D01*
X95022027Y-69205003D01*
X95025946Y-69204917D01*
X95029861Y-69205016D01*
X95033669Y-69205314D01*
X95037369Y-69205810D01*
X95040962Y-69206504D01*
X95044447Y-69207397D01*
X95047825Y-69208489D01*
X95051095Y-69209778D01*
X95054258Y-69211267D01*
X95057313Y-69212953D01*
X95060261Y-69214839D01*
X95063101Y-69216922D01*
X95065834Y-69219204D01*
X95068459Y-69221685D01*
X95070976Y-69224364D01*
X95073386Y-69227241D01*
X95075688Y-69230317D01*
X95072741Y-69233165D01*
X95069984Y-69236154D01*
X95067417Y-69239283D01*
X95065040Y-69242553D01*
X95062853Y-69245964D01*
X95060856Y-69249515D01*
X95059050Y-69253207D01*
X95057433Y-69257039D01*
X95056007Y-69261012D01*
X95054770Y-69265125D01*
X95053724Y-69269379D01*
X95052868Y-69273774D01*
X95052202Y-69278309D01*
X95051727Y-69282985D01*
X95051442Y-69287801D01*
X95051346Y-69292758D01*
X95051520Y-69297753D01*
X95052041Y-69302681D01*
X95052909Y-69307543D01*
X95054125Y-69312338D01*
X95055687Y-69317068D01*
X95057597Y-69321731D01*
X95059854Y-69326328D01*
X95062459Y-69330859D01*
X95065411Y-69335324D01*
X95068710Y-69339722D01*
X95072356Y-69344055D01*
X95076349Y-69348321D01*
X95080690Y-69352521D01*
X95085378Y-69356655D01*
X95090414Y-69360723D01*
X95095796Y-69364725D01*
X95101481Y-69368570D01*
X95107422Y-69372166D01*
X95113619Y-69375515D01*
X95120072Y-69378616D01*
X95126782Y-69381468D01*
X95133748Y-69384073D01*
X95140970Y-69386429D01*
X95148449Y-69388537D01*
X95156184Y-69390398D01*
X95164175Y-69392010D01*
X95172423Y-69393374D01*
X95180927Y-69394491D01*
X95189687Y-69395359D01*
X95198703Y-69395979D01*
X95207976Y-69396351D01*
X95217505Y-69396475D01*
X95227212Y-69396318D01*
X95236754Y-69395847D01*
X95246130Y-69395061D01*
X95255341Y-69393962D01*
X95264386Y-69392548D01*
X95273266Y-69390820D01*
X95281981Y-69388778D01*
X95290530Y-69386421D01*
X95298914Y-69383751D01*
X95307133Y-69380766D01*
X95315186Y-69377467D01*
X95323074Y-69373854D01*
X95330796Y-69369926D01*
X95338353Y-69365685D01*
X95345745Y-69361129D01*
X95352971Y-69356258D01*
X95359892Y-69351161D01*
X95366366Y-69345922D01*
X95372393Y-69340544D01*
X95377974Y-69335025D01*
X95383109Y-69329365D01*
X95387797Y-69323564D01*
X95392039Y-69317624D01*
X95395834Y-69311542D01*
X95399182Y-69305321D01*
X95402085Y-69298958D01*
X95404540Y-69292455D01*
X95406549Y-69285812D01*
X95408112Y-69279028D01*
X95409228Y-69272104D01*
X95409898Y-69265039D01*
X95410121Y-69257833D01*
X95409993Y-69253228D01*
X95409609Y-69248672D01*
X95408968Y-69244165D01*
X95408071Y-69239709D01*
X95406918Y-69235302D01*
X95405509Y-69230945D01*
X95403843Y-69226637D01*
X95401921Y-69222379D01*
X95399742Y-69218171D01*
X95397307Y-69214012D01*
X95394616Y-69209903D01*
X95391668Y-69205843D01*
X95388464Y-69201833D01*
X95385003Y-69197873D01*
X95381286Y-69193962D01*
X95377313Y-69190100D01*
X95373278Y-69186305D01*
X95369111Y-69182592D01*
X95364812Y-69178963D01*
X95360380Y-69175416D01*
X95355816Y-69171951D01*
X95351120Y-69168569D01*
X95346292Y-69165270D01*
X95341331Y-69162054D01*
X95336238Y-69158920D01*
X95331012Y-69155869D01*
X95325655Y-69152901D01*
X95320165Y-69150016D01*
X95314542Y-69147213D01*
X95308787Y-69144492D01*
X95302900Y-69141855D01*
X95296880Y-69139300D01*
X95272538Y-69128915D01*
X95247139Y-69117869D01*
X95220680Y-69106161D01*
X95193163Y-69093792D01*
X95165582Y-69081092D01*
X95138926Y-69068392D01*
X95113195Y-69055692D01*
X95088388Y-69042992D01*
X95082493Y-69039750D01*
X95076713Y-69036377D01*
X95071050Y-69032871D01*
X95065502Y-69029233D01*
X95060070Y-69025463D01*
X95054754Y-69021560D01*
X95049553Y-69017525D01*
X95044469Y-69013358D01*
X95039499Y-69009059D01*
X95034646Y-69004627D01*
X95029908Y-69000063D01*
X95025286Y-68995367D01*
X95020780Y-68990538D01*
X95016389Y-68985577D01*
X95012114Y-68980484D01*
X95007955Y-68975258D01*
X95004110Y-68969797D01*
X95000513Y-68964262D01*
X94997165Y-68958652D01*
X94994064Y-68952967D01*
X94991212Y-68947208D01*
X94988607Y-68941375D01*
X94986251Y-68935467D01*
X94984142Y-68929485D01*
X94982282Y-68923429D01*
X94980670Y-68917298D01*
X94979305Y-68911093D01*
X94978189Y-68904813D01*
X94977321Y-68898459D01*
X94976701Y-68892030D01*
X94976329Y-68885527D01*
X94976205Y-68878950D01*
X94976498Y-68868354D01*
X94977379Y-68857998D01*
X94978847Y-68847882D01*
X94980902Y-68838006D01*
X94983543Y-68828369D01*
X94986772Y-68818972D01*
X94990588Y-68809815D01*
X94994991Y-68800898D01*
X94999981Y-68792220D01*
X95005558Y-68783783D01*
X95011722Y-68775585D01*
X95018473Y-68767626D01*
X95025811Y-68759908D01*
X95033736Y-68752430D01*
X95042248Y-68745191D01*
X95051346Y-68738192D01*
X95060983Y-68731399D01*
X95070843Y-68725045D01*
X95080926Y-68719129D01*
X95091232Y-68713652D01*
X95101762Y-68708612D01*
X95112515Y-68704011D01*
X95123491Y-68699848D01*
X95134690Y-68696123D01*
X95146113Y-68692836D01*
X95157758Y-68689988D01*
X95169627Y-68687578D01*
X95181720Y-68685606D01*
X95194035Y-68684072D01*
X95206574Y-68682976D01*
X95219336Y-68682319D01*
X95232321Y-68682100D01*
X95245274Y-68682269D01*
G37*
G36*
X98283849Y-68682269D02*
G01*
X98296512Y-68682778D01*
X98308885Y-68683625D01*
X98320969Y-68684812D01*
X98332764Y-68686337D01*
X98344269Y-68688202D01*
X98355485Y-68690405D01*
X98366412Y-68692948D01*
X98377049Y-68695829D01*
X98387397Y-68699050D01*
X98397455Y-68702609D01*
X98407224Y-68706508D01*
X98416704Y-68710745D01*
X98425894Y-68715322D01*
X98434794Y-68720237D01*
X98443405Y-68725492D01*
X98451736Y-68730986D01*
X98459529Y-68736621D01*
X98466784Y-68742396D01*
X98473502Y-68748312D01*
X98479683Y-68754369D01*
X98485326Y-68760566D01*
X98490431Y-68766903D01*
X98494999Y-68773381D01*
X98499030Y-68780000D01*
X98502523Y-68786759D01*
X98505479Y-68793659D01*
X98506755Y-68797162D01*
X98507897Y-68800700D01*
X98508905Y-68804272D01*
X98509778Y-68807881D01*
X98510517Y-68811524D01*
X98511122Y-68815202D01*
X98511928Y-68822664D01*
X98512196Y-68830267D01*
X98512130Y-68833925D01*
X98511932Y-68837493D01*
X98511601Y-68840970D01*
X98511138Y-68844356D01*
X98510542Y-68847650D01*
X98509815Y-68850854D01*
X98508955Y-68853967D01*
X98507963Y-68856989D01*
X98506838Y-68859921D01*
X98505581Y-68862761D01*
X98504192Y-68865510D01*
X98502671Y-68868168D01*
X98501017Y-68870735D01*
X98499232Y-68873212D01*
X98497314Y-68875597D01*
X98495263Y-68877892D01*
X98493258Y-68879942D01*
X98491212Y-68881860D01*
X98489124Y-68883646D01*
X98486995Y-68885300D01*
X98484825Y-68886821D01*
X98482613Y-68888210D01*
X98480360Y-68889467D01*
X98478066Y-68890592D01*
X98475730Y-68891584D01*
X98473353Y-68892444D01*
X98470935Y-68893171D01*
X98468475Y-68893767D01*
X98465974Y-68894230D01*
X98463431Y-68894560D01*
X98460847Y-68894759D01*
X98458222Y-68894825D01*
X98455688Y-68894792D01*
X98453112Y-68894693D01*
X98450496Y-68894527D01*
X98447837Y-68894296D01*
X98445138Y-68893998D01*
X98442397Y-68893634D01*
X98439615Y-68893204D01*
X98436791Y-68892708D01*
X98431020Y-68891518D01*
X98425083Y-68890063D01*
X98418981Y-68888343D01*
X98412713Y-68886358D01*
X98413705Y-68882142D01*
X98414565Y-68877958D01*
X98415292Y-68873807D01*
X98415888Y-68869690D01*
X98416351Y-68865605D01*
X98416682Y-68861554D01*
X98416881Y-68857535D01*
X98416947Y-68853550D01*
X98416786Y-68848680D01*
X98416302Y-68843860D01*
X98415496Y-68839089D01*
X98414367Y-68834368D01*
X98412916Y-68829696D01*
X98411143Y-68825074D01*
X98409047Y-68820502D01*
X98406628Y-68815979D01*
X98403887Y-68811506D01*
X98400824Y-68807083D01*
X98397438Y-68802709D01*
X98393730Y-68798384D01*
X98389699Y-68794110D01*
X98385346Y-68789885D01*
X98380670Y-68785709D01*
X98375672Y-68781583D01*
X98370516Y-68777482D01*
X98365105Y-68773646D01*
X98359436Y-68770074D01*
X98353512Y-68766767D01*
X98347332Y-68763724D01*
X98340895Y-68760946D01*
X98334202Y-68758432D01*
X98327252Y-68756183D01*
X98320047Y-68754199D01*
X98312585Y-68752479D01*
X98304866Y-68751024D01*
X98296892Y-68749833D01*
X98288661Y-68748907D01*
X98280174Y-68748246D01*
X98271430Y-68747849D01*
X98262430Y-68747717D01*
X98253546Y-68747837D01*
X98244885Y-68748196D01*
X98236447Y-68748796D01*
X98228232Y-68749635D01*
X98220241Y-68750714D01*
X98212473Y-68752033D01*
X98204929Y-68753591D01*
X98197607Y-68755390D01*
X98190509Y-68757428D01*
X98183634Y-68759706D01*
X98176983Y-68762223D01*
X98170554Y-68764981D01*
X98164349Y-68767978D01*
X98158367Y-68771215D01*
X98152608Y-68774692D01*
X98147072Y-68778408D01*
X98141817Y-68782327D01*
X98136902Y-68786412D01*
X98132325Y-68790662D01*
X98128087Y-68795077D01*
X98124189Y-68799658D01*
X98120629Y-68804404D01*
X98117409Y-68809315D01*
X98114527Y-68814392D01*
X98111985Y-68819634D01*
X98109782Y-68825041D01*
X98107917Y-68830614D01*
X98106392Y-68836352D01*
X98105206Y-68842256D01*
X98104358Y-68848325D01*
X98103850Y-68854559D01*
X98103680Y-68860958D01*
X98103854Y-68867259D01*
X98104375Y-68873460D01*
X98105243Y-68879562D01*
X98106458Y-68885565D01*
X98108021Y-68891468D01*
X98109931Y-68897272D01*
X98112188Y-68902977D01*
X98114793Y-68908583D01*
X98117744Y-68914090D01*
X98121043Y-68919497D01*
X98124690Y-68924806D01*
X98128683Y-68930015D01*
X98133024Y-68935124D01*
X98137712Y-68940135D01*
X98142748Y-68945046D01*
X98148130Y-68949858D01*
X98153761Y-68954451D01*
X98159540Y-68958970D01*
X98165468Y-68963414D01*
X98171546Y-68967784D01*
X98177772Y-68972079D01*
X98184146Y-68976300D01*
X98190670Y-68980447D01*
X98197342Y-68984519D01*
X98204164Y-68988516D01*
X98211134Y-68992440D01*
X98218253Y-68996289D01*
X98225521Y-69000063D01*
X98232937Y-69003763D01*
X98240503Y-69007389D01*
X98256080Y-69014417D01*
X98288292Y-69028241D01*
X98320373Y-69042198D01*
X98352322Y-69056287D01*
X98384138Y-69070508D01*
X98392129Y-69074142D01*
X98399963Y-69077900D01*
X98407640Y-69081782D01*
X98415160Y-69085788D01*
X98422523Y-69089918D01*
X98429729Y-69094172D01*
X98436777Y-69098550D01*
X98443669Y-69103052D01*
X98450404Y-69107678D01*
X98456981Y-69112428D01*
X98463401Y-69117302D01*
X98469665Y-69122301D01*
X98475771Y-69127423D01*
X98481720Y-69132669D01*
X98487512Y-69138039D01*
X98493147Y-69143533D01*
X98498530Y-69149007D01*
X98503565Y-69154580D01*
X98508253Y-69160252D01*
X98512594Y-69166023D01*
X98516587Y-69171893D01*
X98520233Y-69177863D01*
X98523532Y-69183931D01*
X98526484Y-69190099D01*
X98529089Y-69196367D01*
X98531346Y-69202733D01*
X98533256Y-69209199D01*
X98534819Y-69215764D01*
X98536034Y-69222428D01*
X98536902Y-69229192D01*
X98537423Y-69236055D01*
X98537597Y-69243017D01*
X98537274Y-69254671D01*
X98536307Y-69266086D01*
X98534694Y-69277260D01*
X98532437Y-69288195D01*
X98529535Y-69298890D01*
X98525988Y-69309345D01*
X98521796Y-69319561D01*
X98516959Y-69329536D01*
X98511477Y-69339272D01*
X98505351Y-69348768D01*
X98498579Y-69358024D01*
X98491162Y-69367040D01*
X98483101Y-69375817D01*
X98474395Y-69384354D01*
X98465043Y-69392651D01*
X98455047Y-69400708D01*
X98444732Y-69408270D01*
X98434161Y-69415344D01*
X98423333Y-69421929D01*
X98412250Y-69428027D01*
X98400910Y-69433637D01*
X98389314Y-69438759D01*
X98377461Y-69443394D01*
X98365352Y-69447540D01*
X98352987Y-69451199D01*
X98340366Y-69454370D01*
X98327488Y-69457053D01*
X98314354Y-69459248D01*
X98300964Y-69460955D01*
X98287317Y-69462174D01*
X98273414Y-69462906D01*
X98259255Y-69463150D01*
X98245120Y-69462952D01*
X98231292Y-69462356D01*
X98217769Y-69461364D01*
X98204553Y-69459975D01*
X98191642Y-69458189D01*
X98179037Y-69456006D01*
X98166738Y-69453427D01*
X98154745Y-69450450D01*
X98143058Y-69447077D01*
X98131677Y-69443306D01*
X98120602Y-69439139D01*
X98109832Y-69434575D01*
X98099369Y-69429614D01*
X98089211Y-69424256D01*
X98079360Y-69418502D01*
X98069814Y-69412350D01*
X98060714Y-69405765D01*
X98052202Y-69398973D01*
X98044277Y-69391974D01*
X98036938Y-69384768D01*
X98030187Y-69377356D01*
X98024023Y-69369737D01*
X98018446Y-69361911D01*
X98013457Y-69353878D01*
X98009054Y-69345639D01*
X98005238Y-69337193D01*
X98002010Y-69328540D01*
X97999368Y-69319681D01*
X97997313Y-69310614D01*
X97995846Y-69301341D01*
X97994965Y-69291862D01*
X97994672Y-69282175D01*
X97994746Y-69277991D01*
X97994969Y-69273906D01*
X97995341Y-69269921D01*
X97995862Y-69266035D01*
X97996532Y-69262248D01*
X97997351Y-69258561D01*
X97998318Y-69254972D01*
X97999434Y-69251483D01*
X98000699Y-69248093D01*
X98002113Y-69244803D01*
X98003676Y-69241611D01*
X98005387Y-69238519D01*
X98007248Y-69235526D01*
X98009257Y-69232632D01*
X98011415Y-69229837D01*
X98013722Y-69227142D01*
X98016152Y-69224450D01*
X98018682Y-69221933D01*
X98021312Y-69219589D01*
X98024040Y-69217418D01*
X98026868Y-69215421D01*
X98029795Y-69213598D01*
X98032821Y-69211949D01*
X98035947Y-69210473D01*
X98039171Y-69209171D01*
X98042495Y-69208042D01*
X98045918Y-69207087D01*
X98049440Y-69206306D01*
X98053062Y-69205698D01*
X98056783Y-69205264D01*
X98060602Y-69205003D01*
X98064522Y-69204917D01*
X98068437Y-69205016D01*
X98072244Y-69205314D01*
X98075944Y-69205810D01*
X98079537Y-69206504D01*
X98083022Y-69207397D01*
X98086399Y-69208489D01*
X98089669Y-69209778D01*
X98092831Y-69211267D01*
X98095887Y-69212953D01*
X98098834Y-69214839D01*
X98101674Y-69216922D01*
X98104407Y-69219204D01*
X98107032Y-69221685D01*
X98109550Y-69224364D01*
X98111960Y-69227241D01*
X98114263Y-69230317D01*
X98111315Y-69233165D01*
X98108558Y-69236154D01*
X98105990Y-69239283D01*
X98103613Y-69242553D01*
X98101426Y-69245964D01*
X98099429Y-69249515D01*
X98097623Y-69253207D01*
X98096006Y-69257039D01*
X98094580Y-69261012D01*
X98093344Y-69265125D01*
X98092298Y-69269379D01*
X98091443Y-69273774D01*
X98090777Y-69278309D01*
X98090302Y-69282985D01*
X98090017Y-69287801D01*
X98089922Y-69292758D01*
X98090095Y-69297753D01*
X98090616Y-69302681D01*
X98091484Y-69307543D01*
X98092700Y-69312338D01*
X98094263Y-69317068D01*
X98096172Y-69321731D01*
X98098430Y-69326328D01*
X98101034Y-69330859D01*
X98103986Y-69335324D01*
X98107285Y-69339722D01*
X98110931Y-69344055D01*
X98114925Y-69348321D01*
X98119266Y-69352521D01*
X98123954Y-69356655D01*
X98128989Y-69360723D01*
X98134372Y-69364725D01*
X98140056Y-69368570D01*
X98145997Y-69372166D01*
X98152194Y-69375515D01*
X98158648Y-69378616D01*
X98165357Y-69381468D01*
X98172324Y-69384073D01*
X98179546Y-69386429D01*
X98187025Y-69388537D01*
X98194760Y-69390398D01*
X98202751Y-69392010D01*
X98210999Y-69393374D01*
X98219502Y-69394491D01*
X98228262Y-69395359D01*
X98237279Y-69395979D01*
X98246551Y-69396351D01*
X98256080Y-69396475D01*
X98265787Y-69396318D01*
X98275329Y-69395847D01*
X98284705Y-69395061D01*
X98293916Y-69393962D01*
X98302962Y-69392548D01*
X98311842Y-69390820D01*
X98320556Y-69388778D01*
X98329106Y-69386421D01*
X98337490Y-69383751D01*
X98345708Y-69380766D01*
X98353761Y-69377467D01*
X98361649Y-69373854D01*
X98369371Y-69369926D01*
X98376929Y-69365685D01*
X98384320Y-69361129D01*
X98391547Y-69356258D01*
X98398467Y-69351161D01*
X98404941Y-69345922D01*
X98410969Y-69340544D01*
X98416550Y-69335025D01*
X98421684Y-69329365D01*
X98426373Y-69323564D01*
X98430614Y-69317624D01*
X98434409Y-69311542D01*
X98437758Y-69305321D01*
X98440660Y-69298958D01*
X98443116Y-69292455D01*
X98445125Y-69285812D01*
X98446687Y-69279028D01*
X98447804Y-69272104D01*
X98448473Y-69265039D01*
X98448697Y-69257833D01*
X98448568Y-69253228D01*
X98448184Y-69248672D01*
X98447543Y-69244165D01*
X98446646Y-69239709D01*
X98445492Y-69235302D01*
X98444082Y-69230945D01*
X98442416Y-69226637D01*
X98440494Y-69222379D01*
X98438315Y-69218171D01*
X98435880Y-69214012D01*
X98433189Y-69209903D01*
X98430241Y-69205843D01*
X98427037Y-69201833D01*
X98423577Y-69197873D01*
X98419861Y-69193962D01*
X98415888Y-69190100D01*
X98411853Y-69186305D01*
X98407686Y-69182592D01*
X98403387Y-69178963D01*
X98398955Y-69175416D01*
X98394391Y-69171951D01*
X98389694Y-69168569D01*
X98384865Y-69165270D01*
X98379904Y-69162054D01*
X98374811Y-69158920D01*
X98369585Y-69155869D01*
X98364228Y-69152901D01*
X98358738Y-69150016D01*
X98353115Y-69147213D01*
X98347361Y-69144492D01*
X98341474Y-69141855D01*
X98335455Y-69139300D01*
X98311114Y-69128915D01*
X98285714Y-69117869D01*
X98259256Y-69106161D01*
X98231738Y-69093792D01*
X98204155Y-69081092D01*
X98177498Y-69068392D01*
X98151767Y-69055692D01*
X98126963Y-69042992D01*
X98121068Y-69039750D01*
X98115288Y-69036377D01*
X98109625Y-69032871D01*
X98104077Y-69029233D01*
X98098644Y-69025463D01*
X98093328Y-69021560D01*
X98088127Y-69017525D01*
X98083042Y-69013358D01*
X98078073Y-69009059D01*
X98073219Y-69004627D01*
X98068482Y-69000063D01*
X98063860Y-68995367D01*
X98059354Y-68990538D01*
X98054963Y-68985577D01*
X98050689Y-68980484D01*
X98046530Y-68975258D01*
X98042685Y-68969797D01*
X98039089Y-68964262D01*
X98035740Y-68958652D01*
X98032639Y-68952967D01*
X98029787Y-68947208D01*
X98027182Y-68941375D01*
X98024826Y-68935467D01*
X98022718Y-68929485D01*
X98020857Y-68923429D01*
X98019245Y-68917298D01*
X98017881Y-68911093D01*
X98016765Y-68904813D01*
X98015896Y-68898459D01*
X98015276Y-68892030D01*
X98014904Y-68885527D01*
X98014780Y-68878950D01*
X98015074Y-68868354D01*
X98015954Y-68857998D01*
X98017422Y-68847882D01*
X98019476Y-68838006D01*
X98022118Y-68828369D01*
X98025346Y-68818972D01*
X98029162Y-68809815D01*
X98033565Y-68800898D01*
X98038555Y-68792220D01*
X98044132Y-68783783D01*
X98050295Y-68775585D01*
X98057047Y-68767626D01*
X98064385Y-68759908D01*
X98072310Y-68752430D01*
X98080822Y-68745191D01*
X98089922Y-68738192D01*
X98099558Y-68731399D01*
X98109418Y-68725045D01*
X98119501Y-68719129D01*
X98129808Y-68713652D01*
X98140337Y-68708612D01*
X98151090Y-68704011D01*
X98162066Y-68699848D01*
X98173265Y-68696123D01*
X98184688Y-68692836D01*
X98196334Y-68689988D01*
X98208203Y-68687578D01*
X98220295Y-68685606D01*
X98232611Y-68684072D01*
X98245149Y-68682976D01*
X98257911Y-68682319D01*
X98270897Y-68682100D01*
X98283849Y-68682269D01*
G37*
G36*
X99041571Y-68686478D02*
G01*
X99052601Y-68686912D01*
X99063400Y-68687636D01*
X99073966Y-68688648D01*
X99084302Y-68689951D01*
X99094406Y-68691542D01*
X99104278Y-68693423D01*
X99113919Y-68695594D01*
X99123328Y-68698054D01*
X99132506Y-68700803D01*
X99141452Y-68703841D01*
X99150166Y-68707169D01*
X99158649Y-68710787D01*
X99166901Y-68714693D01*
X99174921Y-68718889D01*
X99182709Y-68723375D01*
X99190142Y-68728067D01*
X99197095Y-68732884D01*
X99203569Y-68737824D01*
X99209564Y-68742888D01*
X99215078Y-68748076D01*
X99220114Y-68753389D01*
X99224670Y-68758825D01*
X99228746Y-68764385D01*
X99232343Y-68770070D01*
X99235460Y-68775878D01*
X99238097Y-68781811D01*
X99239236Y-68784823D01*
X99240256Y-68787867D01*
X99241155Y-68790942D01*
X99241934Y-68794048D01*
X99242594Y-68797184D01*
X99243133Y-68800352D01*
X99243852Y-68806781D01*
X99244092Y-68813333D01*
X99244026Y-68816595D01*
X99243828Y-68819766D01*
X99243497Y-68822846D01*
X99243034Y-68825835D01*
X99242438Y-68828733D01*
X99241711Y-68831540D01*
X99240851Y-68834256D01*
X99239858Y-68836881D01*
X99238734Y-68839415D01*
X99237477Y-68841859D01*
X99236088Y-68844211D01*
X99234567Y-68846472D01*
X99232913Y-68848643D01*
X99231127Y-68850722D01*
X99229209Y-68852711D01*
X99227159Y-68854608D01*
X99225009Y-68856403D01*
X99222794Y-68858081D01*
X99220512Y-68859644D01*
X99218164Y-68861091D01*
X99215750Y-68862422D01*
X99213269Y-68863637D01*
X99210723Y-68864737D01*
X99208110Y-68865721D01*
X99205431Y-68866589D01*
X99202686Y-68867341D01*
X99199874Y-68867978D01*
X99196997Y-68868499D01*
X99194053Y-68868904D01*
X99191044Y-68869193D01*
X99187968Y-68869367D01*
X99184826Y-68869425D01*
X99181824Y-68869396D01*
X99178905Y-68869309D01*
X99176069Y-68869165D01*
X99173316Y-68868962D01*
X99170645Y-68868701D01*
X99168057Y-68868383D01*
X99165551Y-68868007D01*
X99163129Y-68867573D01*
X99160789Y-68867081D01*
X99158532Y-68866531D01*
X99156357Y-68865923D01*
X99154266Y-68865258D01*
X99152257Y-68864534D01*
X99150330Y-68863753D01*
X99148487Y-68862914D01*
X99146726Y-68862017D01*
X99146973Y-68860181D01*
X99147188Y-68858379D01*
X99147370Y-68856609D01*
X99147519Y-68854873D01*
X99147635Y-68853170D01*
X99147717Y-68851499D01*
X99147767Y-68849862D01*
X99147784Y-68848258D01*
X99147656Y-68843789D01*
X99147271Y-68839378D01*
X99146630Y-68835025D01*
X99145733Y-68830730D01*
X99144580Y-68826492D01*
X99143170Y-68822313D01*
X99141504Y-68818191D01*
X99139581Y-68814127D01*
X99137403Y-68810121D01*
X99134968Y-68806173D01*
X99132276Y-68802283D01*
X99129329Y-68798451D01*
X99126125Y-68794676D01*
X99122665Y-68790960D01*
X99118948Y-68787301D01*
X99114976Y-68783700D01*
X99110730Y-68780240D01*
X99106195Y-68777003D01*
X99101371Y-68773989D01*
X99096257Y-68771198D01*
X99090854Y-68768631D01*
X99085161Y-68766287D01*
X99079179Y-68764166D01*
X99072908Y-68762269D01*
X99066347Y-68760594D01*
X99059496Y-68759143D01*
X99052357Y-68757916D01*
X99044927Y-68756911D01*
X99037209Y-68756130D01*
X99029201Y-68755571D01*
X99020904Y-68755237D01*
X99012317Y-68755125D01*
X99000241Y-68755452D01*
X98988356Y-68756431D01*
X98976660Y-68758064D01*
X98965155Y-68760351D01*
X98953840Y-68763290D01*
X98942715Y-68766882D01*
X98931780Y-68771128D01*
X98921035Y-68776027D01*
X98910481Y-68781579D01*
X98900117Y-68787785D01*
X98889943Y-68794643D01*
X98879959Y-68802155D01*
X98870166Y-68810320D01*
X98860562Y-68819138D01*
X98851149Y-68828609D01*
X98841926Y-68838733D01*
X98833211Y-68849317D01*
X98825058Y-68860429D01*
X98817468Y-68872071D01*
X98810439Y-68884242D01*
X98803974Y-68896942D01*
X98798070Y-68910171D01*
X98792729Y-68923929D01*
X98787950Y-68938217D01*
X98783733Y-68953033D01*
X98780079Y-68968379D01*
X98776987Y-68984254D01*
X98774457Y-69000658D01*
X98772489Y-69017592D01*
X98771083Y-69035054D01*
X98770240Y-69053046D01*
X98769959Y-69071567D01*
X98770215Y-69090079D01*
X98770984Y-69108046D01*
X98772266Y-69125467D01*
X98774060Y-69142343D01*
X98776367Y-69158673D01*
X98779186Y-69174457D01*
X98782518Y-69189695D01*
X98786363Y-69204388D01*
X98790720Y-69218535D01*
X98795590Y-69232136D01*
X98800972Y-69245192D01*
X98806868Y-69257702D01*
X98813276Y-69269666D01*
X98820196Y-69281084D01*
X98827630Y-69291957D01*
X98835576Y-69302283D01*
X98843981Y-69311895D01*
X98852791Y-69320887D01*
X98862006Y-69329258D01*
X98871626Y-69337010D01*
X98881651Y-69344141D01*
X98892082Y-69350652D01*
X98902917Y-69356544D01*
X98914158Y-69361815D01*
X98925804Y-69366465D01*
X98937854Y-69370496D01*
X98950310Y-69373907D01*
X98963172Y-69376697D01*
X98976438Y-69378868D01*
X98990109Y-69380418D01*
X99004186Y-69381348D01*
X99018668Y-69381658D01*
X99026440Y-69381559D01*
X99034146Y-69381261D01*
X99041786Y-69380765D01*
X99049360Y-69380071D01*
X99056868Y-69379178D01*
X99064309Y-69378086D01*
X99071684Y-69376797D01*
X99078993Y-69375308D01*
X99086236Y-69373622D01*
X99093413Y-69371736D01*
X99100523Y-69369653D01*
X99107568Y-69367371D01*
X99114546Y-69364890D01*
X99121458Y-69362211D01*
X99128304Y-69359334D01*
X99135084Y-69356258D01*
X99141756Y-69353046D01*
X99148280Y-69349759D01*
X99154655Y-69346398D01*
X99160881Y-69342963D01*
X99166958Y-69339453D01*
X99172886Y-69335869D01*
X99178666Y-69332210D01*
X99184296Y-69328477D01*
X99189778Y-69324670D01*
X99195111Y-69320788D01*
X99200295Y-69316831D01*
X99205331Y-69312800D01*
X99210217Y-69308695D01*
X99214955Y-69304516D01*
X99219544Y-69300262D01*
X99223984Y-69295933D01*
X99224906Y-69296098D01*
X99225819Y-69296330D01*
X99226724Y-69296627D01*
X99227621Y-69296991D01*
X99228510Y-69297421D01*
X99229391Y-69297917D01*
X99230263Y-69298479D01*
X99231127Y-69299108D01*
X99231983Y-69299802D01*
X99232831Y-69300563D01*
X99233670Y-69301390D01*
X99234501Y-69302283D01*
X99235324Y-69303242D01*
X99236138Y-69304268D01*
X99236944Y-69305359D01*
X99237742Y-69306517D01*
X99238639Y-69307600D01*
X99239478Y-69308733D01*
X99240259Y-69309915D01*
X99240983Y-69311147D01*
X99241648Y-69312429D01*
X99242256Y-69313760D01*
X99242806Y-69315141D01*
X99243298Y-69316571D01*
X99243732Y-69318051D01*
X99244109Y-69319580D01*
X99244427Y-69321159D01*
X99244688Y-69322788D01*
X99244890Y-69324466D01*
X99245035Y-69326195D01*
X99245122Y-69327972D01*
X99245151Y-69329800D01*
X99245077Y-69332255D01*
X99244857Y-69334728D01*
X99244490Y-69337216D01*
X99243977Y-69339721D01*
X99243316Y-69342243D01*
X99242509Y-69344781D01*
X99241555Y-69347336D01*
X99240455Y-69349908D01*
X99239207Y-69352495D01*
X99237813Y-69355100D01*
X99236272Y-69357721D01*
X99234584Y-69360359D01*
X99230769Y-69365683D01*
X99226366Y-69371074D01*
X99221376Y-69376531D01*
X99215799Y-69382055D01*
X99209635Y-69387644D01*
X99202884Y-69393300D01*
X99195546Y-69399021D01*
X99187621Y-69404809D01*
X99179109Y-69410663D01*
X99170009Y-69416583D01*
X99160642Y-69422223D01*
X99151059Y-69427498D01*
X99141261Y-69432409D01*
X99131248Y-69436957D01*
X99121021Y-69441141D01*
X99110578Y-69444961D01*
X99099920Y-69448417D01*
X99089047Y-69451509D01*
X99077960Y-69454237D01*
X99066657Y-69456602D01*
X99055139Y-69458603D01*
X99043406Y-69460240D01*
X99031459Y-69461513D01*
X99019296Y-69462422D01*
X99006918Y-69462968D01*
X98994326Y-69463150D01*
X98976926Y-69462753D01*
X98959914Y-69461563D01*
X98943291Y-69459578D01*
X98927056Y-69456800D01*
X98911211Y-69453228D01*
X98895753Y-69448862D01*
X98880684Y-69443703D01*
X98866004Y-69437750D01*
X98851712Y-69431003D01*
X98837809Y-69423462D01*
X98824295Y-69415128D01*
X98811169Y-69406000D01*
X98798432Y-69396078D01*
X98786083Y-69385362D01*
X98774122Y-69373853D01*
X98762551Y-69361550D01*
X98751658Y-69348561D01*
X98741467Y-69334992D01*
X98731980Y-69320845D01*
X98723195Y-69306120D01*
X98715113Y-69290815D01*
X98707733Y-69274932D01*
X98701057Y-69258469D01*
X98695083Y-69241428D01*
X98689812Y-69223809D01*
X98685243Y-69205610D01*
X98681378Y-69186833D01*
X98678215Y-69167477D01*
X98675755Y-69147543D01*
X98673998Y-69127029D01*
X98672944Y-69105937D01*
X98672593Y-69084267D01*
X98672994Y-69062558D01*
X98674197Y-69041355D01*
X98676202Y-69020655D01*
X98679009Y-69000460D01*
X98682618Y-68980769D01*
X98687029Y-68961583D01*
X98692243Y-68942901D01*
X98698258Y-68924723D01*
X98705075Y-68907050D01*
X98712694Y-68889881D01*
X98721115Y-68873216D01*
X98730338Y-68857056D01*
X98740364Y-68841400D01*
X98751191Y-68826248D01*
X98762820Y-68811601D01*
X98775251Y-68797458D01*
X98788277Y-68784002D01*
X98801692Y-68771413D01*
X98815496Y-68759693D01*
X98829688Y-68748841D01*
X98844269Y-68738857D01*
X98859239Y-68729742D01*
X98874597Y-68721494D01*
X98890344Y-68714115D01*
X98906479Y-68707603D01*
X98923004Y-68701960D01*
X98939916Y-68697185D01*
X98957218Y-68693279D01*
X98974908Y-68690240D01*
X98992986Y-68688070D01*
X99011454Y-68686767D01*
X99030309Y-68686333D01*
X99041571Y-68686478D01*
G37*
G36*
X95873850Y-68746319D02*
G01*
X95872358Y-68742921D01*
X95870841Y-68739639D01*
X95869299Y-68736472D01*
X95867733Y-68733421D01*
X95866141Y-68730486D01*
X95864525Y-68727666D01*
X95862884Y-68724962D01*
X95861217Y-68722374D01*
X95859526Y-68719902D01*
X95857811Y-68717546D01*
X95856070Y-68715305D01*
X95854304Y-68713180D01*
X95852514Y-68711171D01*
X95850699Y-68709278D01*
X95848859Y-68707500D01*
X95851906Y-68704937D01*
X95854961Y-68702539D01*
X95858025Y-68700307D01*
X95861096Y-68698240D01*
X95864176Y-68696338D01*
X95867265Y-68694602D01*
X95870361Y-68693031D01*
X95873466Y-68691625D01*
X95876578Y-68690385D01*
X95879700Y-68689310D01*
X95882829Y-68688400D01*
X95885967Y-68687656D01*
X95889113Y-68687077D01*
X95892267Y-68686664D01*
X95895429Y-68686416D01*
X95898600Y-68686333D01*
X95901859Y-68686395D01*
X95905018Y-68686581D01*
X95908077Y-68686891D01*
X95911038Y-68687326D01*
X95913899Y-68687884D01*
X95916660Y-68688566D01*
X95919323Y-68689372D01*
X95921886Y-68690302D01*
X95924350Y-68691356D01*
X95926714Y-68692534D01*
X95928979Y-68693837D01*
X95931145Y-68695263D01*
X95933212Y-68696813D01*
X95935180Y-68698488D01*
X95937048Y-68700286D01*
X95938817Y-68702208D01*
X95940661Y-68704267D01*
X95942489Y-68706475D01*
X95944299Y-68708831D01*
X95946094Y-68711336D01*
X95947872Y-68713991D01*
X95949633Y-68716793D01*
X95951377Y-68719745D01*
X95953105Y-68722846D01*
X95954817Y-68726095D01*
X95956511Y-68729493D01*
X95958190Y-68733041D01*
X95959852Y-68736736D01*
X95961497Y-68740581D01*
X95963126Y-68744575D01*
X95964738Y-68748717D01*
X95966334Y-68753008D01*
X96182234Y-69381658D01*
X96184127Y-69386954D01*
X96186104Y-69391994D01*
X96188163Y-69396778D01*
X96190304Y-69401305D01*
X96192528Y-69405575D01*
X96194835Y-69409590D01*
X96197225Y-69413348D01*
X96199697Y-69416849D01*
X96202252Y-69420094D01*
X96204889Y-69423083D01*
X96207609Y-69425816D01*
X96210412Y-69428292D01*
X96213298Y-69430512D01*
X96216266Y-69432475D01*
X96219317Y-69434183D01*
X96222450Y-69435633D01*
X96220272Y-69438966D01*
X96219136Y-69440551D01*
X96217970Y-69442083D01*
X96216772Y-69443561D01*
X96215543Y-69444985D01*
X96214283Y-69446356D01*
X96212993Y-69447673D01*
X96211671Y-69448936D01*
X96210318Y-69450145D01*
X96208934Y-69451300D01*
X96207520Y-69452402D01*
X96206074Y-69453450D01*
X96204597Y-69454444D01*
X96203089Y-69455385D01*
X96201550Y-69456271D01*
X96199980Y-69457104D01*
X96198379Y-69457884D01*
X96196747Y-69458609D01*
X96195085Y-69459281D01*
X96193391Y-69459899D01*
X96191665Y-69460463D01*
X96189909Y-69460974D01*
X96188122Y-69461430D01*
X96186304Y-69461833D01*
X96184455Y-69462183D01*
X96182575Y-69462478D01*
X96180664Y-69462720D01*
X96178722Y-69462908D01*
X96176748Y-69463043D01*
X96172709Y-69463150D01*
X96168802Y-69463096D01*
X96165019Y-69462935D01*
X96161360Y-69462666D01*
X96157826Y-69462290D01*
X96154415Y-69461806D01*
X96151129Y-69461215D01*
X96147966Y-69460516D01*
X96144927Y-69459710D01*
X96142013Y-69458796D01*
X96139222Y-69457775D01*
X96136556Y-69456646D01*
X96134013Y-69455410D01*
X96131595Y-69454067D01*
X96129300Y-69452616D01*
X96127130Y-69451057D01*
X96125084Y-69449392D01*
X96123116Y-69447585D01*
X96121181Y-69445605D01*
X96119280Y-69443451D01*
X96117411Y-69441124D01*
X96115576Y-69438623D01*
X96113773Y-69435948D01*
X96112004Y-69433099D01*
X96110268Y-69430077D01*
X96108565Y-69426881D01*
X96106894Y-69423512D01*
X96105257Y-69419969D01*
X96103653Y-69416252D01*
X96102082Y-69412362D01*
X96100544Y-69408298D01*
X96099039Y-69404061D01*
X96097567Y-69399650D01*
X96054175Y-69274767D01*
X95752550Y-69274767D01*
X95708100Y-69390125D01*
X95704604Y-69398968D01*
X95700991Y-69407240D01*
X95697262Y-69414942D01*
X95693418Y-69422073D01*
X95689458Y-69428634D01*
X95685382Y-69434625D01*
X95681190Y-69440044D01*
X95676882Y-69444894D01*
X95672459Y-69449173D01*
X95667919Y-69452881D01*
X95663264Y-69456019D01*
X95658493Y-69458586D01*
X95653606Y-69460583D01*
X95648603Y-69462009D01*
X95643485Y-69462865D01*
X95638250Y-69463150D01*
X95633840Y-69463009D01*
X95629602Y-69462588D01*
X95625539Y-69461885D01*
X95621649Y-69460901D01*
X95617933Y-69459636D01*
X95616140Y-69458898D01*
X95614390Y-69458089D01*
X95612684Y-69457211D01*
X95611021Y-69456262D01*
X95609401Y-69455243D01*
X95607825Y-69454154D01*
X95606293Y-69452994D01*
X95604803Y-69451764D01*
X95601955Y-69449093D01*
X95599280Y-69446141D01*
X95596779Y-69442909D01*
X95594451Y-69439395D01*
X95592297Y-69435600D01*
X95590316Y-69431524D01*
X95588509Y-69427167D01*
X95590020Y-69426541D01*
X95591510Y-69425856D01*
X95592980Y-69425111D01*
X95594429Y-69424306D01*
X95595858Y-69423441D01*
X95597266Y-69422516D01*
X95598653Y-69421531D01*
X95600019Y-69420486D01*
X95601365Y-69419381D01*
X95602690Y-69418217D01*
X95605278Y-69415707D01*
X95607783Y-69412958D01*
X95610206Y-69409969D01*
X95612546Y-69406741D01*
X95614803Y-69403272D01*
X95616977Y-69399564D01*
X95619069Y-69395616D01*
X95621078Y-69391428D01*
X95623004Y-69387000D01*
X95624848Y-69382332D01*
X95626609Y-69377425D01*
X95692875Y-69210208D01*
X95776892Y-69210208D01*
X96031950Y-69210208D01*
X95913417Y-68838733D01*
X95776892Y-69210208D01*
X95692875Y-69210208D01*
X95875317Y-68749833D01*
X95873850Y-68746319D01*
G37*
G36*
X96678926Y-68686478D02*
G01*
X96689955Y-68686912D01*
X96700753Y-68687636D01*
X96711319Y-68688648D01*
X96721654Y-68689951D01*
X96731758Y-68691542D01*
X96741630Y-68693423D01*
X96751270Y-68695594D01*
X96760680Y-68698054D01*
X96769858Y-68700803D01*
X96778804Y-68703841D01*
X96787519Y-68707169D01*
X96796003Y-68710787D01*
X96804255Y-68714693D01*
X96812276Y-68718889D01*
X96820065Y-68723375D01*
X96827498Y-68728067D01*
X96834451Y-68732884D01*
X96840925Y-68737824D01*
X96846919Y-68742888D01*
X96852434Y-68748076D01*
X96857470Y-68753389D01*
X96862025Y-68758825D01*
X96866102Y-68764385D01*
X96869698Y-68770070D01*
X96872816Y-68775878D01*
X96875453Y-68781811D01*
X96876592Y-68784823D01*
X96877611Y-68787867D01*
X96878511Y-68790942D01*
X96879290Y-68794048D01*
X96879949Y-68797184D01*
X96880489Y-68800352D01*
X96881208Y-68806781D01*
X96881448Y-68813333D01*
X96881382Y-68816595D01*
X96881183Y-68819766D01*
X96880853Y-68822846D01*
X96880389Y-68825835D01*
X96879794Y-68828733D01*
X96879066Y-68831540D01*
X96878206Y-68834256D01*
X96877214Y-68836881D01*
X96876090Y-68839415D01*
X96874833Y-68841859D01*
X96873444Y-68844211D01*
X96871922Y-68846472D01*
X96870269Y-68848643D01*
X96868483Y-68850722D01*
X96866565Y-68852711D01*
X96864515Y-68854608D01*
X96862364Y-68856403D01*
X96860148Y-68858081D01*
X96857866Y-68859644D01*
X96855517Y-68861091D01*
X96853103Y-68862422D01*
X96850623Y-68863637D01*
X96848076Y-68864737D01*
X96845463Y-68865721D01*
X96842785Y-68866589D01*
X96840040Y-68867341D01*
X96837229Y-68867978D01*
X96834352Y-68868499D01*
X96831408Y-68868904D01*
X96828399Y-68869193D01*
X96825323Y-68869367D01*
X96822181Y-68869425D01*
X96819180Y-68869396D01*
X96816261Y-68869309D01*
X96813424Y-68869165D01*
X96810671Y-68868962D01*
X96808000Y-68868701D01*
X96805412Y-68868383D01*
X96802907Y-68868007D01*
X96800484Y-68867573D01*
X96798144Y-68867081D01*
X96795887Y-68866531D01*
X96793713Y-68865923D01*
X96791621Y-68865258D01*
X96789612Y-68864534D01*
X96787686Y-68863753D01*
X96785842Y-68862914D01*
X96784081Y-68862017D01*
X96784329Y-68860181D01*
X96784544Y-68858379D01*
X96784726Y-68856609D01*
X96784875Y-68854873D01*
X96784990Y-68853170D01*
X96785073Y-68851499D01*
X96785123Y-68849862D01*
X96785140Y-68848258D01*
X96785012Y-68843789D01*
X96784627Y-68839378D01*
X96783986Y-68835025D01*
X96783089Y-68830730D01*
X96781935Y-68826492D01*
X96780526Y-68822313D01*
X96778859Y-68818191D01*
X96776937Y-68814127D01*
X96774758Y-68810121D01*
X96772323Y-68806173D01*
X96769632Y-68802283D01*
X96766684Y-68798451D01*
X96763480Y-68794676D01*
X96760020Y-68790960D01*
X96756304Y-68787301D01*
X96752331Y-68783700D01*
X96748085Y-68780240D01*
X96743549Y-68777003D01*
X96738725Y-68773989D01*
X96733611Y-68771198D01*
X96728207Y-68768631D01*
X96722515Y-68766287D01*
X96716533Y-68764166D01*
X96710261Y-68762269D01*
X96703701Y-68760594D01*
X96696851Y-68759143D01*
X96689711Y-68757916D01*
X96682282Y-68756911D01*
X96674564Y-68756130D01*
X96666557Y-68755571D01*
X96658260Y-68755237D01*
X96649673Y-68755125D01*
X96637597Y-68755452D01*
X96625711Y-68756431D01*
X96614016Y-68758064D01*
X96602510Y-68760351D01*
X96591195Y-68763290D01*
X96580070Y-68766882D01*
X96569136Y-68771128D01*
X96558391Y-68776027D01*
X96547837Y-68781579D01*
X96537473Y-68787785D01*
X96527299Y-68794643D01*
X96517315Y-68802155D01*
X96507521Y-68810320D01*
X96497918Y-68819138D01*
X96488505Y-68828609D01*
X96479281Y-68838733D01*
X96470566Y-68849317D01*
X96462414Y-68860429D01*
X96454823Y-68872071D01*
X96447795Y-68884242D01*
X96441329Y-68896942D01*
X96435426Y-68910171D01*
X96430085Y-68923929D01*
X96425306Y-68938217D01*
X96421089Y-68953033D01*
X96417434Y-68968379D01*
X96414342Y-68984254D01*
X96411812Y-69000658D01*
X96409845Y-69017592D01*
X96408439Y-69035054D01*
X96407596Y-69053046D01*
X96407315Y-69071567D01*
X96407571Y-69090079D01*
X96408340Y-69108046D01*
X96409621Y-69125467D01*
X96411415Y-69142343D01*
X96413722Y-69158673D01*
X96416541Y-69174457D01*
X96419873Y-69189695D01*
X96423718Y-69204388D01*
X96428075Y-69218535D01*
X96432945Y-69232136D01*
X96438328Y-69245192D01*
X96444223Y-69257702D01*
X96450631Y-69269666D01*
X96457552Y-69281084D01*
X96464985Y-69291957D01*
X96472931Y-69302283D01*
X96481335Y-69311895D01*
X96490145Y-69320887D01*
X96499359Y-69329258D01*
X96508979Y-69337010D01*
X96519005Y-69344141D01*
X96529435Y-69350652D01*
X96540271Y-69356544D01*
X96551511Y-69361815D01*
X96563157Y-69366465D01*
X96575208Y-69370496D01*
X96587665Y-69373907D01*
X96600526Y-69376697D01*
X96613793Y-69378868D01*
X96627464Y-69380418D01*
X96641541Y-69381348D01*
X96656023Y-69381658D01*
X96663795Y-69381559D01*
X96671500Y-69381261D01*
X96679140Y-69380765D01*
X96686713Y-69380071D01*
X96694221Y-69379178D01*
X96701662Y-69378086D01*
X96709038Y-69376797D01*
X96716347Y-69375308D01*
X96723590Y-69373622D01*
X96730767Y-69371736D01*
X96737878Y-69369653D01*
X96744923Y-69367371D01*
X96751901Y-69364890D01*
X96758814Y-69362211D01*
X96765660Y-69359334D01*
X96772440Y-69356258D01*
X96779112Y-69353046D01*
X96785636Y-69349759D01*
X96792011Y-69346398D01*
X96798237Y-69342963D01*
X96804314Y-69339453D01*
X96810242Y-69335869D01*
X96816022Y-69332210D01*
X96821652Y-69328477D01*
X96827134Y-69324670D01*
X96832467Y-69320788D01*
X96837651Y-69316831D01*
X96842687Y-69312800D01*
X96847573Y-69308695D01*
X96852311Y-69304516D01*
X96856900Y-69300262D01*
X96861340Y-69295933D01*
X96862261Y-69296098D01*
X96863175Y-69296330D01*
X96864080Y-69296627D01*
X96864977Y-69296991D01*
X96865866Y-69297421D01*
X96866746Y-69297917D01*
X96867619Y-69298479D01*
X96868483Y-69299108D01*
X96869339Y-69299802D01*
X96870186Y-69300563D01*
X96871026Y-69301390D01*
X96871857Y-69302283D01*
X96872679Y-69303242D01*
X96873494Y-69304268D01*
X96874300Y-69305359D01*
X96875098Y-69306517D01*
X96875995Y-69307600D01*
X96876834Y-69308733D01*
X96877615Y-69309915D01*
X96878338Y-69311147D01*
X96879004Y-69312429D01*
X96879612Y-69313760D01*
X96880162Y-69315141D01*
X96880654Y-69316571D01*
X96881088Y-69318051D01*
X96881464Y-69319580D01*
X96881782Y-69321159D01*
X96882043Y-69322788D01*
X96882246Y-69324466D01*
X96882390Y-69326195D01*
X96882477Y-69327972D01*
X96882506Y-69329800D01*
X96882433Y-69332255D01*
X96882213Y-69334728D01*
X96881846Y-69337216D01*
X96881332Y-69339721D01*
X96880672Y-69342243D01*
X96879864Y-69344781D01*
X96878910Y-69347336D01*
X96877809Y-69349908D01*
X96876562Y-69352495D01*
X96875168Y-69355100D01*
X96873626Y-69357721D01*
X96871939Y-69360359D01*
X96868123Y-69365683D01*
X96863720Y-69371074D01*
X96858730Y-69376531D01*
X96853153Y-69382055D01*
X96846989Y-69387644D01*
X96840238Y-69393300D01*
X96832900Y-69399021D01*
X96824975Y-69404809D01*
X96816463Y-69410663D01*
X96807365Y-69416583D01*
X96797996Y-69422223D01*
X96788413Y-69427498D01*
X96778615Y-69432409D01*
X96768602Y-69436957D01*
X96758374Y-69441141D01*
X96747931Y-69444961D01*
X96737273Y-69448417D01*
X96726401Y-69451509D01*
X96715313Y-69454237D01*
X96704011Y-69456602D01*
X96692493Y-69458603D01*
X96680761Y-69460240D01*
X96668814Y-69461513D01*
X96656651Y-69462422D01*
X96644274Y-69462968D01*
X96631681Y-69463150D01*
X96614280Y-69462753D01*
X96597268Y-69461563D01*
X96580644Y-69459578D01*
X96564409Y-69456800D01*
X96548563Y-69453228D01*
X96533105Y-69448862D01*
X96518036Y-69443703D01*
X96503356Y-69437750D01*
X96489064Y-69431003D01*
X96475161Y-69423462D01*
X96461647Y-69415128D01*
X96448522Y-69406000D01*
X96435785Y-69396078D01*
X96423437Y-69385362D01*
X96411477Y-69373853D01*
X96399906Y-69361550D01*
X96389012Y-69348561D01*
X96378821Y-69334992D01*
X96369333Y-69320845D01*
X96360548Y-69306120D01*
X96352466Y-69290815D01*
X96345086Y-69274932D01*
X96338410Y-69258469D01*
X96332436Y-69241428D01*
X96327165Y-69223809D01*
X96322597Y-69205610D01*
X96318732Y-69186833D01*
X96315570Y-69167477D01*
X96313110Y-69147543D01*
X96311353Y-69127029D01*
X96310299Y-69105937D01*
X96309948Y-69084267D01*
X96310349Y-69062558D01*
X96311552Y-69041355D01*
X96313557Y-69020655D01*
X96316364Y-69000460D01*
X96319972Y-68980769D01*
X96324383Y-68961583D01*
X96329596Y-68942901D01*
X96335611Y-68924723D01*
X96342428Y-68907050D01*
X96350047Y-68889881D01*
X96358469Y-68873216D01*
X96367692Y-68857056D01*
X96377717Y-68841400D01*
X96388545Y-68826248D01*
X96400174Y-68811601D01*
X96412606Y-68797458D01*
X96425633Y-68784002D01*
X96439048Y-68771413D01*
X96452851Y-68759693D01*
X96467044Y-68748841D01*
X96481625Y-68738857D01*
X96496594Y-68729742D01*
X96511953Y-68721494D01*
X96527699Y-68714115D01*
X96543835Y-68707603D01*
X96560359Y-68701960D01*
X96577272Y-68697185D01*
X96594573Y-68693279D01*
X96612263Y-68690240D01*
X96630342Y-68688070D01*
X96648809Y-68686767D01*
X96667665Y-68686333D01*
X96678926Y-68686478D01*
G37*
G36*
X94516828Y-68746319D02*
G01*
X94515336Y-68742921D01*
X94513818Y-68739639D01*
X94512276Y-68736472D01*
X94510710Y-68733421D01*
X94509118Y-68730486D01*
X94507501Y-68727666D01*
X94505860Y-68724962D01*
X94504194Y-68722374D01*
X94502503Y-68719902D01*
X94500788Y-68717546D01*
X94499047Y-68715305D01*
X94497282Y-68713180D01*
X94495492Y-68711171D01*
X94493677Y-68709278D01*
X94491837Y-68707500D01*
X94494884Y-68704937D01*
X94497939Y-68702539D01*
X94501003Y-68700307D01*
X94504074Y-68698240D01*
X94507154Y-68696338D01*
X94510242Y-68694602D01*
X94513339Y-68693031D01*
X94516444Y-68691625D01*
X94519557Y-68690385D01*
X94522678Y-68689310D01*
X94525807Y-68688400D01*
X94528945Y-68687656D01*
X94532091Y-68687077D01*
X94535246Y-68686664D01*
X94538408Y-68686416D01*
X94541579Y-68686333D01*
X94544837Y-68686395D01*
X94547995Y-68686581D01*
X94551054Y-68686891D01*
X94554014Y-68687326D01*
X94556875Y-68687884D01*
X94559637Y-68688566D01*
X94562299Y-68689372D01*
X94564862Y-68690302D01*
X94567326Y-68691356D01*
X94569691Y-68692534D01*
X94571956Y-68693837D01*
X94574123Y-68695263D01*
X94576190Y-68696813D01*
X94578158Y-68698488D01*
X94580026Y-68700286D01*
X94581796Y-68702208D01*
X94583639Y-68704267D01*
X94585467Y-68706475D01*
X94587278Y-68708831D01*
X94589072Y-68711336D01*
X94590849Y-68713991D01*
X94592611Y-68716793D01*
X94594355Y-68719745D01*
X94596083Y-68722846D01*
X94597795Y-68726095D01*
X94599490Y-68729493D01*
X94601168Y-68733041D01*
X94602830Y-68736736D01*
X94604475Y-68740581D01*
X94606104Y-68744575D01*
X94607717Y-68748717D01*
X94609312Y-68753008D01*
X94825212Y-69381658D01*
X94827106Y-69386954D01*
X94829082Y-69391994D01*
X94831141Y-69396778D01*
X94833283Y-69401305D01*
X94835507Y-69405575D01*
X94837814Y-69409590D01*
X94840203Y-69413348D01*
X94842675Y-69416849D01*
X94845230Y-69420094D01*
X94847868Y-69423083D01*
X94850588Y-69425816D01*
X94853391Y-69428292D01*
X94856276Y-69430512D01*
X94859244Y-69432475D01*
X94862295Y-69434183D01*
X94865429Y-69435633D01*
X94863251Y-69438966D01*
X94862115Y-69440551D01*
X94860948Y-69442083D01*
X94859750Y-69443561D01*
X94858521Y-69444985D01*
X94857262Y-69446356D01*
X94855971Y-69447673D01*
X94854649Y-69448936D01*
X94853296Y-69450145D01*
X94851912Y-69451300D01*
X94850497Y-69452402D01*
X94849051Y-69453450D01*
X94847574Y-69454444D01*
X94846066Y-69455385D01*
X94844527Y-69456271D01*
X94842957Y-69457104D01*
X94841356Y-69457884D01*
X94839724Y-69458609D01*
X94838061Y-69459281D01*
X94836367Y-69459899D01*
X94834642Y-69460463D01*
X94832886Y-69460974D01*
X94831099Y-69461430D01*
X94829281Y-69461833D01*
X94827432Y-69462183D01*
X94825552Y-69462478D01*
X94823641Y-69462720D01*
X94821699Y-69462908D01*
X94819726Y-69463043D01*
X94815687Y-69463150D01*
X94811781Y-69463096D01*
X94807998Y-69462935D01*
X94804339Y-69462666D01*
X94800804Y-69462290D01*
X94797394Y-69461806D01*
X94794107Y-69461215D01*
X94790945Y-69460516D01*
X94787906Y-69459710D01*
X94784992Y-69458796D01*
X94782201Y-69457775D01*
X94779534Y-69456646D01*
X94776992Y-69455410D01*
X94774574Y-69454067D01*
X94772279Y-69452616D01*
X94770109Y-69451057D01*
X94768062Y-69449392D01*
X94766095Y-69447585D01*
X94764160Y-69445605D01*
X94762258Y-69443451D01*
X94760390Y-69441124D01*
X94758554Y-69438623D01*
X94756752Y-69435948D01*
X94754983Y-69433099D01*
X94753246Y-69430077D01*
X94751543Y-69426881D01*
X94749873Y-69423512D01*
X94748236Y-69419969D01*
X94746632Y-69416252D01*
X94745061Y-69412362D01*
X94743523Y-69408298D01*
X94742018Y-69404061D01*
X94740546Y-69399650D01*
X94697154Y-69274767D01*
X94395529Y-69274767D01*
X94351079Y-69390125D01*
X94347581Y-69398968D01*
X94343968Y-69407240D01*
X94340239Y-69414942D01*
X94336395Y-69422073D01*
X94332434Y-69428634D01*
X94328358Y-69434625D01*
X94324166Y-69440044D01*
X94319858Y-69444894D01*
X94315435Y-69449173D01*
X94310895Y-69452881D01*
X94306240Y-69456019D01*
X94301470Y-69458586D01*
X94296583Y-69460583D01*
X94291581Y-69462009D01*
X94286463Y-69462865D01*
X94281229Y-69463150D01*
X94276818Y-69463009D01*
X94272580Y-69462588D01*
X94268517Y-69461885D01*
X94264626Y-69460901D01*
X94260910Y-69459636D01*
X94259117Y-69458898D01*
X94257367Y-69458089D01*
X94255661Y-69457211D01*
X94253998Y-69456262D01*
X94252378Y-69455243D01*
X94250802Y-69454154D01*
X94249269Y-69452994D01*
X94247780Y-69451764D01*
X94244931Y-69449093D01*
X94242257Y-69446141D01*
X94239756Y-69442909D01*
X94237428Y-69439395D01*
X94235274Y-69435600D01*
X94233294Y-69431524D01*
X94231487Y-69427167D01*
X94232998Y-69426541D01*
X94234489Y-69425856D01*
X94235958Y-69425111D01*
X94237407Y-69424306D01*
X94238836Y-69423441D01*
X94240243Y-69422516D01*
X94241630Y-69421531D01*
X94242997Y-69420486D01*
X94244342Y-69419381D01*
X94245667Y-69418217D01*
X94248255Y-69415707D01*
X94250761Y-69412958D01*
X94253183Y-69409969D01*
X94255523Y-69406741D01*
X94257780Y-69403272D01*
X94259955Y-69399564D01*
X94262047Y-69395616D01*
X94264056Y-69391428D01*
X94265982Y-69387000D01*
X94267826Y-69382332D01*
X94269587Y-69377425D01*
X94335854Y-69210208D01*
X94419871Y-69210208D01*
X94674929Y-69210208D01*
X94556396Y-68838733D01*
X94419871Y-69210208D01*
X94335854Y-69210208D01*
X94518296Y-68749833D01*
X94516828Y-68746319D01*
G37*
D13*
X98155025Y-95952859D02*
X98225735Y-95552165D01*
X97872182Y-95670016D02*
X98367157Y-95175042D01*
X98555719Y-95363603D01*
X98579289Y-95434314D01*
X98579289Y-95481455D01*
X98555719Y-95552165D01*
X98485008Y-95622876D01*
X98414297Y-95646446D01*
X98367157Y-95646446D01*
X98296446Y-95622876D01*
X98107884Y-95434314D01*
X98367157Y-96117851D02*
X98414297Y-96212132D01*
X98532148Y-96329983D01*
X98602859Y-96353553D01*
X98650000Y-96353553D01*
X98720710Y-96329983D01*
X98767851Y-96282842D01*
X98791421Y-96212132D01*
X98791421Y-96164991D01*
X98767851Y-96094280D01*
X98697140Y-95976429D01*
X98673570Y-95905719D01*
X98673570Y-95858578D01*
X98697140Y-95787867D01*
X98744280Y-95740727D01*
X98814991Y-95717157D01*
X98862132Y-95717157D01*
X98932842Y-95740727D01*
X99050693Y-95858578D01*
X99097834Y-95952859D01*
X99262825Y-96070710D02*
X99545668Y-96353553D01*
X98909272Y-96707106D02*
X99404247Y-96212132D01*
X95370363Y-92275389D02*
X95346793Y-92204678D01*
X95276082Y-92133967D01*
X95181801Y-92086827D01*
X95087521Y-92086827D01*
X95016810Y-92110397D01*
X94898959Y-92181108D01*
X94828248Y-92251818D01*
X94757537Y-92369669D01*
X94733967Y-92440380D01*
X94733967Y-92534661D01*
X94781108Y-92628942D01*
X94828248Y-92676082D01*
X94922529Y-92723223D01*
X94969669Y-92723223D01*
X95134661Y-92558231D01*
X95040380Y-92463950D01*
X95134661Y-92982495D02*
X95629636Y-92487521D01*
X95417504Y-93265338D01*
X95912478Y-92770363D01*
X95653206Y-93501040D02*
X96148181Y-93006066D01*
X96266032Y-93123917D01*
X96313172Y-93218198D01*
X96313172Y-93312478D01*
X96289602Y-93383189D01*
X96218891Y-93501040D01*
X96148181Y-93571751D01*
X96030330Y-93642462D01*
X95959619Y-93666032D01*
X95865338Y-93666032D01*
X95771057Y-93618891D01*
X95653206Y-93501040D01*
X113425389Y-94429636D02*
X113354678Y-94453206D01*
X113283967Y-94523917D01*
X113236827Y-94618198D01*
X113236827Y-94712478D01*
X113260397Y-94783189D01*
X113331108Y-94901040D01*
X113401818Y-94971751D01*
X113519669Y-95042462D01*
X113590380Y-95066032D01*
X113684661Y-95066032D01*
X113778942Y-95018891D01*
X113826082Y-94971751D01*
X113873223Y-94877470D01*
X113873223Y-94830330D01*
X113708231Y-94665338D01*
X113613950Y-94759619D01*
X114132495Y-94665338D02*
X113637521Y-94170363D01*
X114415338Y-94382495D01*
X113920363Y-93887521D01*
X114651040Y-94146793D02*
X114156066Y-93651818D01*
X114273917Y-93533967D01*
X114368198Y-93486827D01*
X114462478Y-93486827D01*
X114533189Y-93510397D01*
X114651040Y-93581108D01*
X114721751Y-93651818D01*
X114792462Y-93769669D01*
X114816032Y-93840380D01*
X114816032Y-93934661D01*
X114768891Y-94028942D01*
X114651040Y-94146793D01*
X111851818Y-95956066D02*
X112134661Y-95673223D01*
X112488214Y-96309619D02*
X111993240Y-95814644D01*
X112252512Y-95555372D02*
X113077470Y-95720363D01*
X112582495Y-95225389D02*
X112747487Y-96050346D01*
D14*
%TO.C,C18*%
X111425000Y-71988748D02*
X111425000Y-73411252D01*
X113245000Y-71988748D02*
X113245000Y-73411252D01*
%TO.C,C7*%
X98490000Y-87817164D02*
X98490000Y-88032836D01*
X99210000Y-87817164D02*
X99210000Y-88032836D01*
%TO.C,R3*%
X98777500Y-76437258D02*
X98777500Y-75962742D01*
X99822500Y-76437258D02*
X99822500Y-75962742D01*
%TO.C,U3*%
X105600000Y-93885000D02*
X103400000Y-93885000D01*
X105600000Y-87115000D02*
X107800000Y-87115000D01*
X105600000Y-87115000D02*
X102000000Y-87115000D01*
X105600000Y-93885000D02*
X107800000Y-93885000D01*
%TO.C,C16*%
X111895000Y-84607836D02*
X111895000Y-84392164D01*
X111175000Y-84607836D02*
X111175000Y-84392164D01*
%TO.C,R13*%
X115957500Y-76437258D02*
X115957500Y-75962742D01*
X114912500Y-76437258D02*
X114912500Y-75962742D01*
%TO.C,C6*%
X99790000Y-87959420D02*
X99790000Y-88240580D01*
X100810000Y-87959420D02*
X100810000Y-88240580D01*
%TO.C,C15*%
X103075000Y-78892164D02*
X103075000Y-79107836D01*
X103795000Y-78892164D02*
X103795000Y-79107836D01*
%TO.C,R1*%
X96980000Y-76546359D02*
X96980000Y-76853641D01*
X96220000Y-76546359D02*
X96220000Y-76853641D01*
%TO.C,R8*%
X111003641Y-93180000D02*
X110696359Y-93180000D01*
X111003641Y-92420000D02*
X110696359Y-92420000D01*
%TO.C,U6*%
X104575000Y-81700000D02*
X104575000Y-79750000D01*
X109695000Y-81700000D02*
X109695000Y-79750000D01*
X109695000Y-81700000D02*
X109695000Y-83650000D01*
X104575000Y-81700000D02*
X104575000Y-85150000D01*
D15*
%TO.C,U4*%
X97870000Y-70500000D02*
X97870000Y-73800000D01*
X97870000Y-73800000D02*
X98116000Y-73800000D01*
X101070000Y-73800000D02*
X101070000Y-70500000D01*
X101070000Y-70500000D02*
X100824000Y-70500000D01*
X100824000Y-73800000D02*
X101070000Y-73800000D01*
X98116000Y-70500000D02*
X97870000Y-70500000D01*
X98116000Y-70500000D02*
X97970000Y-70500000D01*
D16*
X98037000Y-74100000D02*
G75*
G03*
X98037000Y-74100000I-67000J0D01*
G01*
D14*
%TO.C,C8*%
X95290000Y-71988748D02*
X95290000Y-73411252D01*
X97110000Y-71988748D02*
X97110000Y-73411252D01*
%TO.C,D4*%
X103685000Y-81100000D02*
X103185000Y-81100000D01*
%TO.C,C12*%
X103895000Y-84607836D02*
X103895000Y-84392164D01*
X103175000Y-84607836D02*
X103175000Y-84392164D01*
%TO.C,R16*%
X111055000Y-76853641D02*
X111055000Y-76546359D01*
X111815000Y-76853641D02*
X111815000Y-76546359D01*
%TO.C,R9*%
X106777500Y-76637258D02*
X106777500Y-76162742D01*
X107822500Y-76637258D02*
X107822500Y-76162742D01*
%TO.C,R15*%
X112355000Y-76546359D02*
X112355000Y-76853641D01*
X113115000Y-76546359D02*
X113115000Y-76853641D01*
%TO.C,R10*%
X108527500Y-76637258D02*
X108527500Y-76162742D01*
X109572500Y-76637258D02*
X109572500Y-76162742D01*
%TO.C,C13*%
X105575000Y-76807836D02*
X105575000Y-76592164D01*
X106295000Y-76807836D02*
X106295000Y-76592164D01*
%TO.C,U8*%
X117695000Y-81700000D02*
X117695000Y-79750000D01*
X112575000Y-81700000D02*
X112575000Y-79750000D01*
X117695000Y-81700000D02*
X117695000Y-83650000D01*
X112575000Y-81700000D02*
X112575000Y-85150000D01*
%TO.C,R12*%
X103815000Y-76853641D02*
X103815000Y-76546359D01*
X103055000Y-76853641D02*
X103055000Y-76546359D01*
%TO.C,C19*%
X111075000Y-78892164D02*
X111075000Y-79107836D01*
X111795000Y-78892164D02*
X111795000Y-79107836D01*
%TO.C,C2*%
X95760000Y-84607836D02*
X95760000Y-84392164D01*
X95040000Y-84607836D02*
X95040000Y-84392164D01*
%TO.C,C4*%
X95660000Y-78892164D02*
X95660000Y-79107836D01*
X94940000Y-78892164D02*
X94940000Y-79107836D01*
%TO.C,C9*%
X97730810Y-94271693D02*
X97578307Y-94119190D01*
X97221693Y-94780810D02*
X97069190Y-94628307D01*
D15*
%TO.C,U9*%
X117205000Y-73800000D02*
X117205000Y-70500000D01*
X116959000Y-73800000D02*
X117205000Y-73800000D01*
X114251000Y-70500000D02*
X114105000Y-70500000D01*
X114005000Y-70500000D02*
X114005000Y-73800000D01*
X114251000Y-70500000D02*
X114005000Y-70500000D01*
X114005000Y-73800000D02*
X114251000Y-73800000D01*
X117205000Y-70500000D02*
X116959000Y-70500000D01*
D16*
X114172000Y-74100000D02*
G75*
G03*
X114172000Y-74100000I-67000J0D01*
G01*
D14*
%TO.C,C5*%
X97440000Y-76807836D02*
X97440000Y-76592164D01*
X98160000Y-76807836D02*
X98160000Y-76592164D01*
%TO.C,C14*%
X104910000Y-71988748D02*
X104910000Y-73411252D01*
X103090000Y-71988748D02*
X103090000Y-73411252D01*
%TO.C,R4*%
X101522500Y-76437258D02*
X101522500Y-75962742D01*
X100477500Y-76437258D02*
X100477500Y-75962742D01*
%TO.C,C17*%
X114295000Y-76807836D02*
X114295000Y-76592164D01*
X113575000Y-76807836D02*
X113575000Y-76592164D01*
%TO.C,R7*%
X100296359Y-92420000D02*
X100603641Y-92420000D01*
X100296359Y-93180000D02*
X100603641Y-93180000D01*
%TO.C,D3*%
X95550000Y-81100000D02*
X95050000Y-81100000D01*
%TO.C,D5*%
X111685000Y-81100000D02*
X111185000Y-81100000D01*
%TO.C,R2*%
X94920000Y-76853641D02*
X94920000Y-76546359D01*
X95680000Y-76853641D02*
X95680000Y-76546359D01*
D15*
%TO.C,U7*%
X105916000Y-70500000D02*
X105670000Y-70500000D01*
X105670000Y-73800000D02*
X105916000Y-73800000D01*
X105670000Y-70500000D02*
X105670000Y-73800000D01*
X105916000Y-70500000D02*
X105770000Y-70500000D01*
X108870000Y-73800000D02*
X108870000Y-70500000D01*
X108870000Y-70500000D02*
X108624000Y-70500000D01*
X108624000Y-73800000D02*
X108870000Y-73800000D01*
D16*
X105837000Y-74100000D02*
G75*
G03*
X105837000Y-74100000I-67000J0D01*
G01*
D14*
%TO.C,U2*%
X96440000Y-81700000D02*
X96440000Y-85150000D01*
X96440000Y-81700000D02*
X96440000Y-79750000D01*
X101560000Y-81700000D02*
X101560000Y-79750000D01*
X101560000Y-81700000D02*
X101560000Y-83650000D01*
%TO.C,R11*%
X105115000Y-76546359D02*
X105115000Y-76853641D01*
X104355000Y-76546359D02*
X104355000Y-76853641D01*
%TO.C,R14*%
X116612500Y-76437258D02*
X116612500Y-75962742D01*
X117657500Y-76437258D02*
X117657500Y-75962742D01*
%TD*%
M02*
