%TF.GenerationSoftware,KiCad,Pcbnew,6.0.11-2627ca5db0~126~ubuntu22.04.1*%
%TF.CreationDate,2023-06-16T17:25:29+02:00*%
%TF.ProjectId,asac-esc-rev-a,61736163-2d65-4736-932d-7265762d612e,rev?*%
%TF.SameCoordinates,Original*%
%TF.FileFunction,Soldermask,Top*%
%TF.FilePolarity,Negative*%
%FSLAX46Y46*%
G04 Gerber Fmt 4.6, Leading zero omitted, Abs format (unit mm)*
G04 Created by KiCad (PCBNEW 6.0.11-2627ca5db0~126~ubuntu22.04.1) date 2023-06-16 17:25:29*
%MOMM*%
%LPD*%
G01*
G04 APERTURE LIST*
G04 Aperture macros list*
%AMRoundRect*
0 Rectangle with rounded corners*
0 $1 Rounding radius*
0 $2 $3 $4 $5 $6 $7 $8 $9 X,Y pos of 4 corners*
0 Add a 4 corners polygon primitive as box body*
4,1,4,$2,$3,$4,$5,$6,$7,$8,$9,$2,$3,0*
0 Add four circle primitives for the rounded corners*
1,1,$1+$1,$2,$3*
1,1,$1+$1,$4,$5*
1,1,$1+$1,$6,$7*
1,1,$1+$1,$8,$9*
0 Add four rect primitives between the rounded corners*
20,1,$1+$1,$2,$3,$4,$5,0*
20,1,$1+$1,$4,$5,$6,$7,0*
20,1,$1+$1,$6,$7,$8,$9,0*
20,1,$1+$1,$8,$9,$2,$3,0*%
%AMRotRect*
0 Rectangle, with rotation*
0 The origin of the aperture is its center*
0 $1 length*
0 $2 width*
0 $3 Rotation angle, in degrees counterclockwise*
0 Add horizontal line*
21,1,$1,$2,0,0,$3*%
G04 Aperture macros list end*
%ADD10RotRect,1.700000X1.700000X135.000000*%
%ADD11RotRect,1.700000X1.700000X225.000000*%
%ADD12RoundRect,0.250000X-0.650000X0.325000X-0.650000X-0.325000X0.650000X-0.325000X0.650000X0.325000X0*%
%ADD13RoundRect,0.140000X-0.170000X0.140000X-0.170000X-0.140000X0.170000X-0.140000X0.170000X0.140000X0*%
%ADD14RoundRect,0.200000X0.275000X-0.200000X0.275000X0.200000X-0.275000X0.200000X-0.275000X-0.200000X0*%
%ADD15RoundRect,0.100000X-0.637500X-0.100000X0.637500X-0.100000X0.637500X0.100000X-0.637500X0.100000X0*%
%ADD16RoundRect,0.140000X0.170000X-0.140000X0.170000X0.140000X-0.170000X0.140000X-0.170000X-0.140000X0*%
%ADD17RoundRect,0.225000X-0.250000X0.225000X-0.250000X-0.225000X0.250000X-0.225000X0.250000X0.225000X0*%
%ADD18R,0.750000X0.750000*%
%ADD19RoundRect,0.135000X-0.185000X0.135000X-0.185000X-0.135000X0.185000X-0.135000X0.185000X0.135000X0*%
%ADD20RoundRect,0.135000X0.135000X0.185000X-0.135000X0.185000X-0.135000X-0.185000X0.135000X-0.185000X0*%
%ADD21RoundRect,0.150000X0.150000X-0.825000X0.150000X0.825000X-0.150000X0.825000X-0.150000X-0.825000X0*%
%ADD22R,0.400000X0.600000*%
%ADD23R,1.290000X2.350000*%
%ADD24R,0.450000X0.600000*%
%ADD25RoundRect,0.135000X0.185000X-0.135000X0.185000X0.135000X-0.185000X0.135000X-0.185000X-0.135000X0*%
%ADD26R,1.700000X1.700000*%
%ADD27O,1.700000X1.700000*%
%ADD28RoundRect,0.218750X-0.218750X-0.256250X0.218750X-0.256250X0.218750X0.256250X-0.218750X0.256250X0*%
%ADD29RoundRect,0.140000X0.219203X0.021213X0.021213X0.219203X-0.219203X-0.021213X-0.021213X-0.219203X0*%
%ADD30RoundRect,0.218750X0.218750X0.256250X-0.218750X0.256250X-0.218750X-0.256250X0.218750X-0.256250X0*%
%ADD31RoundRect,0.135000X-0.135000X-0.185000X0.135000X-0.185000X0.135000X0.185000X-0.135000X0.185000X0*%
G04 APERTURE END LIST*
D10*
%TO.C,J4*%
X113870000Y-96280000D03*
X115666051Y-94483949D03*
%TD*%
D11*
%TO.C,J1*%
X95303949Y-94483949D03*
X97100000Y-96280000D03*
%TD*%
D12*
%TO.C,C18*%
X112335000Y-71225000D03*
X112335000Y-74175000D03*
%TD*%
D13*
%TO.C,C7*%
X98850000Y-88405000D03*
X98850000Y-87445000D03*
%TD*%
D14*
%TO.C,R3*%
X99300000Y-77025000D03*
X99300000Y-75375000D03*
%TD*%
D15*
%TO.C,U3*%
X102737500Y-87575000D03*
X102737500Y-88225000D03*
X102737500Y-88875000D03*
X102737500Y-89525000D03*
X102737500Y-90175000D03*
X102737500Y-90825000D03*
X102737500Y-91475000D03*
X102737500Y-92125000D03*
X102737500Y-92775000D03*
X102737500Y-93425000D03*
X108462500Y-93425000D03*
X108462500Y-92775000D03*
X108462500Y-92125000D03*
X108462500Y-91475000D03*
X108462500Y-90825000D03*
X108462500Y-90175000D03*
X108462500Y-89525000D03*
X108462500Y-88875000D03*
X108462500Y-88225000D03*
X108462500Y-87575000D03*
%TD*%
D16*
%TO.C,C16*%
X111535000Y-84980000D03*
X111535000Y-84020000D03*
%TD*%
D14*
%TO.C,R13*%
X115435000Y-77025000D03*
X115435000Y-75375000D03*
%TD*%
D17*
%TO.C,C6*%
X100300000Y-88875000D03*
X100300000Y-87325000D03*
%TD*%
D13*
%TO.C,C15*%
X103435000Y-78520000D03*
X103435000Y-79480000D03*
%TD*%
D18*
%TO.C,J2*%
X101250000Y-96200000D03*
X101250000Y-95450000D03*
X102750000Y-96200000D03*
X102000000Y-95450000D03*
X102000000Y-96200000D03*
X101250000Y-96950000D03*
X102750000Y-97700000D03*
X100500000Y-96950000D03*
X102000000Y-97700000D03*
X100500000Y-95450000D03*
X100500000Y-97700000D03*
X102750000Y-95450000D03*
X102750000Y-96950000D03*
X102000000Y-96950000D03*
X100500000Y-96200000D03*
X101250000Y-97700000D03*
X106000000Y-97700000D03*
X106750000Y-97700000D03*
X106000000Y-96200000D03*
X106750000Y-96950000D03*
X106000000Y-96950000D03*
X105250000Y-96200000D03*
X105250000Y-96950000D03*
X106000000Y-95450000D03*
X104500000Y-96200000D03*
X104500000Y-96950000D03*
X104500000Y-95450000D03*
X106750000Y-95450000D03*
X104500000Y-97700000D03*
X105250000Y-95450000D03*
X106750000Y-96200000D03*
X105250000Y-97700000D03*
X109250000Y-95450000D03*
X110000000Y-96200000D03*
X109250000Y-96950000D03*
X108500000Y-96950000D03*
X110750000Y-97700000D03*
X108500000Y-95450000D03*
X109250000Y-96200000D03*
X110000000Y-97700000D03*
X108500000Y-97700000D03*
X108500000Y-96200000D03*
X110750000Y-96200000D03*
X110000000Y-96950000D03*
X110750000Y-95450000D03*
X110750000Y-96950000D03*
X110000000Y-95450000D03*
X109250000Y-97700000D03*
%TD*%
D19*
%TO.C,R1*%
X96600000Y-76190000D03*
X96600000Y-77210000D03*
%TD*%
D20*
%TO.C,R8*%
X110340000Y-92800000D03*
X111360000Y-92800000D03*
%TD*%
D21*
%TO.C,U6*%
X105230000Y-84175000D03*
X106500000Y-84175000D03*
X107770000Y-84175000D03*
X109040000Y-84175000D03*
X109040000Y-79225000D03*
X107770000Y-79225000D03*
X106500000Y-79225000D03*
X105230000Y-79225000D03*
%TD*%
D22*
%TO.C,U4*%
X99145000Y-73725000D03*
D23*
X98700000Y-71901000D03*
D22*
X99145000Y-70675000D03*
X98495000Y-70675000D03*
X98495000Y-73725000D03*
X100445000Y-73725000D03*
X99795000Y-70675000D03*
X100445000Y-70675000D03*
D23*
X100240000Y-71901000D03*
D22*
X99795000Y-73725000D03*
%TD*%
D12*
%TO.C,C8*%
X96200000Y-71225000D03*
X96200000Y-74175000D03*
%TD*%
D24*
%TO.C,D4*%
X103435000Y-80550000D03*
X103435000Y-82650000D03*
%TD*%
D16*
%TO.C,C12*%
X103535000Y-84980000D03*
X103535000Y-84020000D03*
%TD*%
D25*
%TO.C,R16*%
X111435000Y-77210000D03*
X111435000Y-76190000D03*
%TD*%
D14*
%TO.C,R9*%
X107300000Y-75575000D03*
X107300000Y-77225000D03*
%TD*%
D19*
%TO.C,R15*%
X112735000Y-76190000D03*
X112735000Y-77210000D03*
%TD*%
D14*
%TO.C,R10*%
X109050000Y-77225000D03*
X109050000Y-75575000D03*
%TD*%
D26*
%TO.C,J14*%
X116850000Y-86850000D03*
D27*
X116850000Y-89390000D03*
X116850000Y-91930000D03*
%TD*%
D16*
%TO.C,C13*%
X105935000Y-77180000D03*
X105935000Y-76220000D03*
%TD*%
D21*
%TO.C,U8*%
X113230000Y-84175000D03*
X114500000Y-84175000D03*
X115770000Y-84175000D03*
X117040000Y-84175000D03*
X117040000Y-79225000D03*
X115770000Y-79225000D03*
X114500000Y-79225000D03*
X113230000Y-79225000D03*
%TD*%
D28*
%TO.C,D1*%
X98487500Y-92800000D03*
X96912500Y-92800000D03*
%TD*%
D25*
%TO.C,R12*%
X103435000Y-77210000D03*
X103435000Y-76190000D03*
%TD*%
D13*
%TO.C,C19*%
X111435000Y-78520000D03*
X111435000Y-79480000D03*
%TD*%
D16*
%TO.C,C2*%
X95400000Y-84980000D03*
X95400000Y-84020000D03*
%TD*%
D13*
%TO.C,C4*%
X95300000Y-78520000D03*
X95300000Y-79480000D03*
%TD*%
D18*
%TO.C,J3*%
X102750000Y-67600000D03*
X100500000Y-68350000D03*
X102000000Y-67600000D03*
X101250000Y-66850000D03*
X102000000Y-68350000D03*
X102000000Y-66850000D03*
X100500000Y-69100000D03*
X102750000Y-69100000D03*
X102750000Y-68350000D03*
X101250000Y-68350000D03*
X101250000Y-69100000D03*
X102000000Y-69100000D03*
X102750000Y-66850000D03*
X100500000Y-66850000D03*
X100500000Y-67600000D03*
X101250000Y-67600000D03*
X106000000Y-67600000D03*
X105250000Y-69100000D03*
X106000000Y-69100000D03*
X104500000Y-68350000D03*
X106750000Y-67600000D03*
X106000000Y-68350000D03*
X104500000Y-67600000D03*
X104500000Y-66850000D03*
X105250000Y-66850000D03*
X106750000Y-66850000D03*
X106000000Y-66850000D03*
X104500000Y-69100000D03*
X105250000Y-68350000D03*
X106750000Y-68350000D03*
X105250000Y-67600000D03*
X106750000Y-69100000D03*
X108500000Y-69100000D03*
X109250000Y-67600000D03*
X110000000Y-68350000D03*
X110750000Y-67600000D03*
X108500000Y-67600000D03*
X110750000Y-68350000D03*
X109250000Y-69100000D03*
X109250000Y-66850000D03*
X110000000Y-69100000D03*
X110750000Y-66850000D03*
X110750000Y-69100000D03*
X108500000Y-66850000D03*
X108500000Y-68350000D03*
X110000000Y-67600000D03*
X110000000Y-66850000D03*
X109250000Y-68350000D03*
%TD*%
D29*
%TO.C,C9*%
X97060589Y-94110589D03*
X97739411Y-94789411D03*
%TD*%
D22*
%TO.C,U9*%
X115280000Y-73725000D03*
X114630000Y-70675000D03*
D23*
X114835000Y-71901000D03*
D22*
X115280000Y-70675000D03*
X114630000Y-73725000D03*
X116580000Y-73725000D03*
X115930000Y-70675000D03*
D23*
X116375000Y-71901000D03*
D22*
X116580000Y-70675000D03*
X115930000Y-73725000D03*
%TD*%
D16*
%TO.C,C5*%
X97800000Y-77180000D03*
X97800000Y-76220000D03*
%TD*%
D12*
%TO.C,C14*%
X104000000Y-71225000D03*
X104000000Y-74175000D03*
%TD*%
D14*
%TO.C,R4*%
X101000000Y-77025000D03*
X101000000Y-75375000D03*
%TD*%
D16*
%TO.C,C17*%
X113935000Y-77180000D03*
X113935000Y-76220000D03*
%TD*%
D30*
%TO.C,D2*%
X112537500Y-92775000D03*
X114112500Y-92775000D03*
%TD*%
D31*
%TO.C,R7*%
X99940000Y-92800000D03*
X100960000Y-92800000D03*
%TD*%
D24*
%TO.C,D3*%
X95300000Y-80550000D03*
X95300000Y-82650000D03*
%TD*%
%TO.C,D5*%
X111435000Y-80550000D03*
X111435000Y-82650000D03*
%TD*%
D25*
%TO.C,R2*%
X95300000Y-77210000D03*
X95300000Y-76190000D03*
%TD*%
D22*
%TO.C,U7*%
X106945000Y-73725000D03*
D23*
X106500000Y-71901000D03*
D22*
X106945000Y-70675000D03*
X106295000Y-70675000D03*
X106295000Y-73725000D03*
X108245000Y-73725000D03*
X107595000Y-70675000D03*
X108245000Y-70675000D03*
D23*
X108040000Y-71901000D03*
D22*
X107595000Y-73725000D03*
%TD*%
D21*
%TO.C,U2*%
X97095000Y-84175000D03*
X98365000Y-84175000D03*
X99635000Y-84175000D03*
X100905000Y-84175000D03*
X100905000Y-79225000D03*
X99635000Y-79225000D03*
X98365000Y-79225000D03*
X97095000Y-79225000D03*
%TD*%
D19*
%TO.C,R11*%
X104735000Y-76190000D03*
X104735000Y-77210000D03*
%TD*%
D14*
%TO.C,R14*%
X117135000Y-77025000D03*
X117135000Y-75375000D03*
%TD*%
M02*
