%TF.GenerationSoftware,KiCad,Pcbnew,6.0.11-2627ca5db0~126~ubuntu22.04.1*%
%TF.CreationDate,2023-06-16T17:25:28+02:00*%
%TF.ProjectId,asac-esc-rev-a,61736163-2d65-4736-932d-7265762d612e,rev?*%
%TF.SameCoordinates,Original*%
%TF.FileFunction,Copper,L1,Top*%
%TF.FilePolarity,Positive*%
%FSLAX46Y46*%
G04 Gerber Fmt 4.6, Leading zero omitted, Abs format (unit mm)*
G04 Created by KiCad (PCBNEW 6.0.11-2627ca5db0~126~ubuntu22.04.1) date 2023-06-16 17:25:28*
%MOMM*%
%LPD*%
G01*
G04 APERTURE LIST*
G04 Aperture macros list*
%AMRoundRect*
0 Rectangle with rounded corners*
0 $1 Rounding radius*
0 $2 $3 $4 $5 $6 $7 $8 $9 X,Y pos of 4 corners*
0 Add a 4 corners polygon primitive as box body*
4,1,4,$2,$3,$4,$5,$6,$7,$8,$9,$2,$3,0*
0 Add four circle primitives for the rounded corners*
1,1,$1+$1,$2,$3*
1,1,$1+$1,$4,$5*
1,1,$1+$1,$6,$7*
1,1,$1+$1,$8,$9*
0 Add four rect primitives between the rounded corners*
20,1,$1+$1,$2,$3,$4,$5,0*
20,1,$1+$1,$4,$5,$6,$7,0*
20,1,$1+$1,$6,$7,$8,$9,0*
20,1,$1+$1,$8,$9,$2,$3,0*%
%AMRotRect*
0 Rectangle, with rotation*
0 The origin of the aperture is its center*
0 $1 length*
0 $2 width*
0 $3 Rotation angle, in degrees counterclockwise*
0 Add horizontal line*
21,1,$1,$2,0,0,$3*%
G04 Aperture macros list end*
%TA.AperFunction,ComponentPad*%
%ADD10RotRect,1.700000X1.700000X135.000000*%
%TD*%
%TA.AperFunction,ComponentPad*%
%ADD11RotRect,1.700000X1.700000X225.000000*%
%TD*%
%TA.AperFunction,SMDPad,CuDef*%
%ADD12RoundRect,0.250000X-0.650000X0.325000X-0.650000X-0.325000X0.650000X-0.325000X0.650000X0.325000X0*%
%TD*%
%TA.AperFunction,SMDPad,CuDef*%
%ADD13RoundRect,0.140000X-0.170000X0.140000X-0.170000X-0.140000X0.170000X-0.140000X0.170000X0.140000X0*%
%TD*%
%TA.AperFunction,SMDPad,CuDef*%
%ADD14RoundRect,0.200000X0.275000X-0.200000X0.275000X0.200000X-0.275000X0.200000X-0.275000X-0.200000X0*%
%TD*%
%TA.AperFunction,SMDPad,CuDef*%
%ADD15RoundRect,0.100000X-0.637500X-0.100000X0.637500X-0.100000X0.637500X0.100000X-0.637500X0.100000X0*%
%TD*%
%TA.AperFunction,SMDPad,CuDef*%
%ADD16RoundRect,0.140000X0.170000X-0.140000X0.170000X0.140000X-0.170000X0.140000X-0.170000X-0.140000X0*%
%TD*%
%TA.AperFunction,SMDPad,CuDef*%
%ADD17RoundRect,0.225000X-0.250000X0.225000X-0.250000X-0.225000X0.250000X-0.225000X0.250000X0.225000X0*%
%TD*%
%TA.AperFunction,ComponentPad*%
%ADD18R,0.750000X0.750000*%
%TD*%
%TA.AperFunction,SMDPad,CuDef*%
%ADD19RoundRect,0.135000X-0.185000X0.135000X-0.185000X-0.135000X0.185000X-0.135000X0.185000X0.135000X0*%
%TD*%
%TA.AperFunction,SMDPad,CuDef*%
%ADD20RoundRect,0.135000X0.135000X0.185000X-0.135000X0.185000X-0.135000X-0.185000X0.135000X-0.185000X0*%
%TD*%
%TA.AperFunction,SMDPad,CuDef*%
%ADD21RoundRect,0.150000X0.150000X-0.825000X0.150000X0.825000X-0.150000X0.825000X-0.150000X-0.825000X0*%
%TD*%
%TA.AperFunction,SMDPad,CuDef*%
%ADD22R,0.400000X0.600000*%
%TD*%
%TA.AperFunction,SMDPad,CuDef*%
%ADD23R,1.290000X2.350000*%
%TD*%
%TA.AperFunction,SMDPad,CuDef*%
%ADD24R,0.450000X0.600000*%
%TD*%
%TA.AperFunction,SMDPad,CuDef*%
%ADD25RoundRect,0.135000X0.185000X-0.135000X0.185000X0.135000X-0.185000X0.135000X-0.185000X-0.135000X0*%
%TD*%
%TA.AperFunction,ComponentPad*%
%ADD26R,1.700000X1.700000*%
%TD*%
%TA.AperFunction,ComponentPad*%
%ADD27O,1.700000X1.700000*%
%TD*%
%TA.AperFunction,SMDPad,CuDef*%
%ADD28RoundRect,0.218750X-0.218750X-0.256250X0.218750X-0.256250X0.218750X0.256250X-0.218750X0.256250X0*%
%TD*%
%TA.AperFunction,SMDPad,CuDef*%
%ADD29RoundRect,0.140000X0.219203X0.021213X0.021213X0.219203X-0.219203X-0.021213X-0.021213X-0.219203X0*%
%TD*%
%TA.AperFunction,SMDPad,CuDef*%
%ADD30RoundRect,0.218750X0.218750X0.256250X-0.218750X0.256250X-0.218750X-0.256250X0.218750X-0.256250X0*%
%TD*%
%TA.AperFunction,SMDPad,CuDef*%
%ADD31RoundRect,0.135000X-0.135000X-0.185000X0.135000X-0.185000X0.135000X0.185000X-0.135000X0.185000X0*%
%TD*%
%TA.AperFunction,ViaPad*%
%ADD32C,0.800000*%
%TD*%
%TA.AperFunction,ViaPad*%
%ADD33C,1.000000*%
%TD*%
%TA.AperFunction,Conductor*%
%ADD34C,0.355600*%
%TD*%
%TA.AperFunction,Conductor*%
%ADD35C,0.762000*%
%TD*%
%TA.AperFunction,Conductor*%
%ADD36C,0.508000*%
%TD*%
%TA.AperFunction,Conductor*%
%ADD37C,0.431800*%
%TD*%
%TA.AperFunction,Conductor*%
%ADD38C,1.016000*%
%TD*%
G04 APERTURE END LIST*
D10*
%TO.P,J4,1,Pin_1*%
%TO.N,UART_TX*%
X113870000Y-96280000D03*
%TO.P,J4,2,Pin_2*%
%TO.N,GND*%
X115666051Y-94483949D03*
%TD*%
D11*
%TO.P,J1,2,Pin_2*%
%TO.N,GND*%
X95303949Y-94483949D03*
%TO.P,J1,1,Pin_1*%
%TO.N,~{NRST}*%
X97100000Y-96280000D03*
%TD*%
D12*
%TO.P,C18,1*%
%TO.N,VCC*%
X112335000Y-71225000D03*
%TO.P,C18,2*%
%TO.N,GND*%
X112335000Y-74175000D03*
%TD*%
D13*
%TO.P,C7,2*%
%TO.N,GND*%
X98850000Y-88405000D03*
%TO.P,C7,1*%
%TO.N,+3.3V*%
X98850000Y-87445000D03*
%TD*%
D14*
%TO.P,R3,1*%
%TO.N,Net-(R3-Pad1)*%
X99300000Y-77025000D03*
%TO.P,R3,2*%
%TO.N,/VHO_A*%
X99300000Y-75375000D03*
%TD*%
D15*
%TO.P,U3,1,PB7*%
%TO.N,unconnected-(U3-Pad1)*%
X102737500Y-87575000D03*
%TO.P,U3,2,PC14*%
%TO.N,HIN_B*%
X102737500Y-88225000D03*
%TO.P,U3,3,PC15*%
%TO.N,~{NLIN_B}*%
X102737500Y-88875000D03*
%TO.P,U3,4,VDD*%
%TO.N,+3.3V*%
X102737500Y-89525000D03*
%TO.P,U3,5,VSS*%
%TO.N,GND*%
X102737500Y-90175000D03*
%TO.P,U3,6,PF2*%
%TO.N,~{NRST}*%
X102737500Y-90825000D03*
%TO.P,U3,7,PA0*%
%TO.N,~{NLIN_A}*%
X102737500Y-91475000D03*
%TO.P,U3,8,PA1*%
%TO.N,HIN_A*%
X102737500Y-92125000D03*
%TO.P,U3,9,PA2*%
%TO.N,LED_BLUE*%
X102737500Y-92775000D03*
%TO.P,U3,10,PA3*%
%TO.N,SIGNAL_IN*%
X102737500Y-93425000D03*
%TO.P,U3,11,PA4*%
%TO.N,UART_TX*%
X108462500Y-93425000D03*
%TO.P,U3,12,PA5*%
%TO.N,LED_RED*%
X108462500Y-92775000D03*
%TO.P,U3,13,PA6*%
%TO.N,VSENSE_A*%
X108462500Y-92125000D03*
%TO.P,U3,14,PA7*%
%TO.N,VSENSE_B*%
X108462500Y-91475000D03*
%TO.P,U3,15,PA8*%
%TO.N,VSENSE_C*%
X108462500Y-90825000D03*
%TO.P,U3,16,PA9/PA11*%
%TO.N,~{NLIN_C}*%
X108462500Y-90175000D03*
%TO.P,U3,17,PA10/PA12*%
%TO.N,CURRSENSE*%
X108462500Y-89525000D03*
%TO.P,U3,18,PA13*%
%TO.N,SWDIO*%
X108462500Y-88875000D03*
%TO.P,U3,19,PA14*%
%TO.N,SWCLK*%
X108462500Y-88225000D03*
%TO.P,U3,20,PB6*%
%TO.N,HIN_C*%
X108462500Y-87575000D03*
%TD*%
D16*
%TO.P,C16,1*%
%TO.N,GND*%
X111535000Y-84980000D03*
%TO.P,C16,2*%
%TO.N,VCC*%
X111535000Y-84020000D03*
%TD*%
D14*
%TO.P,R13,1*%
%TO.N,Net-(R13-Pad1)*%
X115435000Y-77025000D03*
%TO.P,R13,2*%
%TO.N,/VHO_C*%
X115435000Y-75375000D03*
%TD*%
D17*
%TO.P,C6,2*%
%TO.N,GND*%
X100300000Y-88875000D03*
%TO.P,C6,1*%
%TO.N,+3.3V*%
X100300000Y-87325000D03*
%TD*%
D13*
%TO.P,C15,1*%
%TO.N,VSENSE_B*%
X103435000Y-78520000D03*
%TO.P,C15,2*%
%TO.N,GND*%
X103435000Y-79480000D03*
%TD*%
D18*
%TO.P,J2,1,Pin_1*%
%TO.N,VCC*%
X101250000Y-96200000D03*
X101250000Y-95450000D03*
X102750000Y-96200000D03*
X102000000Y-95450000D03*
X102000000Y-96200000D03*
X101250000Y-96950000D03*
X102750000Y-97700000D03*
X100500000Y-96950000D03*
X102000000Y-97700000D03*
X100500000Y-95450000D03*
X100500000Y-97700000D03*
X102750000Y-95450000D03*
X102750000Y-96950000D03*
X102000000Y-96950000D03*
X100500000Y-96200000D03*
X101250000Y-97700000D03*
%TO.P,J2,2,Pin_2*%
%TO.N,SIGNAL_IN*%
X106000000Y-97700000D03*
X106750000Y-97700000D03*
X106000000Y-96200000D03*
X106750000Y-96950000D03*
X106000000Y-96950000D03*
X105250000Y-96200000D03*
X105250000Y-96950000D03*
X106000000Y-95450000D03*
X104500000Y-96200000D03*
X104500000Y-96950000D03*
X104500000Y-95450000D03*
X106750000Y-95450000D03*
X104500000Y-97700000D03*
X105250000Y-95450000D03*
X106750000Y-96200000D03*
X105250000Y-97700000D03*
%TO.P,J2,3,Pin_3*%
%TO.N,GND*%
X109250000Y-95450000D03*
X110000000Y-96200000D03*
X109250000Y-96950000D03*
X108500000Y-96950000D03*
X110750000Y-97700000D03*
X108500000Y-95450000D03*
X109250000Y-96200000D03*
X110000000Y-97700000D03*
X108500000Y-97700000D03*
X108500000Y-96200000D03*
X110750000Y-96200000D03*
X110000000Y-96950000D03*
X110750000Y-95450000D03*
X110750000Y-96950000D03*
X110000000Y-95450000D03*
X109250000Y-97700000D03*
%TD*%
D19*
%TO.P,R1,1*%
%TO.N,A*%
X96600000Y-76190000D03*
%TO.P,R1,2*%
%TO.N,VSENSE_A*%
X96600000Y-77210000D03*
%TD*%
D20*
%TO.P,R8,2*%
%TO.N,LED_RED*%
X110340000Y-92800000D03*
%TO.P,R8,1*%
%TO.N,Net-(D2-Pad2)*%
X111360000Y-92800000D03*
%TD*%
D21*
%TO.P,U6,1,VCC*%
%TO.N,VCC*%
X105230000Y-84175000D03*
%TO.P,U6,2,HIN*%
%TO.N,HIN_B*%
X106500000Y-84175000D03*
%TO.P,U6,3,~{LIN}*%
%TO.N,~{NLIN_B}*%
X107770000Y-84175000D03*
%TO.P,U6,4,COM*%
%TO.N,GND*%
X109040000Y-84175000D03*
%TO.P,U6,5,LO*%
%TO.N,Net-(R10-Pad1)*%
X109040000Y-79225000D03*
%TO.P,U6,6,VS*%
%TO.N,B*%
X107770000Y-79225000D03*
%TO.P,U6,7,HO*%
%TO.N,Net-(R9-Pad1)*%
X106500000Y-79225000D03*
%TO.P,U6,8,VB*%
%TO.N,Net-(C13-Pad1)*%
X105230000Y-79225000D03*
%TD*%
D22*
%TO.P,U4,1,G*%
%TO.N,/VHO_A*%
X99145000Y-73725000D03*
D23*
%TO.P,U4,2,D*%
%TO.N,VCC*%
X98700000Y-71901000D03*
D22*
X99145000Y-70675000D03*
X98495000Y-70675000D03*
%TO.P,U4,3,S*%
%TO.N,A*%
X98495000Y-73725000D03*
%TO.P,U4,4,G*%
%TO.N,/VLO_A*%
X100445000Y-73725000D03*
%TO.P,U4,5,D*%
%TO.N,A*%
X99795000Y-70675000D03*
X100445000Y-70675000D03*
D23*
X100240000Y-71901000D03*
D22*
%TO.P,U4,6,S*%
%TO.N,Net-(R5-Pad1)*%
X99795000Y-73725000D03*
%TD*%
D12*
%TO.P,C8,1*%
%TO.N,VCC*%
X96200000Y-71225000D03*
%TO.P,C8,2*%
%TO.N,GND*%
X96200000Y-74175000D03*
%TD*%
D24*
%TO.P,D4,1,K*%
%TO.N,Net-(C13-Pad1)*%
X103435000Y-80550000D03*
%TO.P,D4,2,A*%
%TO.N,VCC*%
X103435000Y-82650000D03*
%TD*%
D16*
%TO.P,C12,1*%
%TO.N,GND*%
X103535000Y-84980000D03*
%TO.P,C12,2*%
%TO.N,VCC*%
X103535000Y-84020000D03*
%TD*%
D25*
%TO.P,R16,1*%
%TO.N,VSENSE_C*%
X111435000Y-77210000D03*
%TO.P,R16,2*%
%TO.N,GND*%
X111435000Y-76190000D03*
%TD*%
D14*
%TO.P,R9,2*%
%TO.N,/VHO_B*%
X107300000Y-75575000D03*
%TO.P,R9,1*%
%TO.N,Net-(R9-Pad1)*%
X107300000Y-77225000D03*
%TD*%
D19*
%TO.P,R15,1*%
%TO.N,C*%
X112735000Y-76190000D03*
%TO.P,R15,2*%
%TO.N,VSENSE_C*%
X112735000Y-77210000D03*
%TD*%
D14*
%TO.P,R10,1*%
%TO.N,Net-(R10-Pad1)*%
X109050000Y-77225000D03*
%TO.P,R10,2*%
%TO.N,/VLO_B*%
X109050000Y-75575000D03*
%TD*%
D26*
%TO.P,J14,1,Pin_1*%
%TO.N,SWCLK*%
X116850000Y-86850000D03*
D27*
%TO.P,J14,2,Pin_2*%
%TO.N,GND*%
X116850000Y-89390000D03*
%TO.P,J14,3,Pin_3*%
%TO.N,SWDIO*%
X116850000Y-91930000D03*
%TD*%
D16*
%TO.P,C13,1*%
%TO.N,Net-(C13-Pad1)*%
X105935000Y-77180000D03*
%TO.P,C13,2*%
%TO.N,B*%
X105935000Y-76220000D03*
%TD*%
D21*
%TO.P,U8,1,VCC*%
%TO.N,VCC*%
X113230000Y-84175000D03*
%TO.P,U8,2,HIN*%
%TO.N,HIN_C*%
X114500000Y-84175000D03*
%TO.P,U8,3,~{LIN}*%
%TO.N,~{NLIN_C}*%
X115770000Y-84175000D03*
%TO.P,U8,4,COM*%
%TO.N,GND*%
X117040000Y-84175000D03*
%TO.P,U8,5,LO*%
%TO.N,Net-(R14-Pad1)*%
X117040000Y-79225000D03*
%TO.P,U8,6,VS*%
%TO.N,C*%
X115770000Y-79225000D03*
%TO.P,U8,7,HO*%
%TO.N,Net-(R13-Pad1)*%
X114500000Y-79225000D03*
%TO.P,U8,8,VB*%
%TO.N,Net-(C17-Pad1)*%
X113230000Y-79225000D03*
%TD*%
D28*
%TO.P,D1,2,A*%
%TO.N,Net-(D1-Pad2)*%
X98487500Y-92800000D03*
%TO.P,D1,1,K*%
%TO.N,GND*%
X96912500Y-92800000D03*
%TD*%
D25*
%TO.P,R12,1*%
%TO.N,VSENSE_B*%
X103435000Y-77210000D03*
%TO.P,R12,2*%
%TO.N,GND*%
X103435000Y-76190000D03*
%TD*%
D13*
%TO.P,C19,1*%
%TO.N,VSENSE_C*%
X111435000Y-78520000D03*
%TO.P,C19,2*%
%TO.N,GND*%
X111435000Y-79480000D03*
%TD*%
D16*
%TO.P,C2,1*%
%TO.N,GND*%
X95400000Y-84980000D03*
%TO.P,C2,2*%
%TO.N,VCC*%
X95400000Y-84020000D03*
%TD*%
D13*
%TO.P,C4,1*%
%TO.N,VSENSE_A*%
X95300000Y-78520000D03*
%TO.P,C4,2*%
%TO.N,GND*%
X95300000Y-79480000D03*
%TD*%
D18*
%TO.P,J3,1,Pin_1*%
%TO.N,A*%
X102750000Y-67600000D03*
X100500000Y-68350000D03*
X102000000Y-67600000D03*
X101250000Y-66850000D03*
X102000000Y-68350000D03*
X102000000Y-66850000D03*
X100500000Y-69100000D03*
X102750000Y-69100000D03*
X102750000Y-68350000D03*
X101250000Y-68350000D03*
X101250000Y-69100000D03*
X102000000Y-69100000D03*
X102750000Y-66850000D03*
X100500000Y-66850000D03*
X100500000Y-67600000D03*
X101250000Y-67600000D03*
%TO.P,J3,2,Pin_2*%
%TO.N,B*%
X106000000Y-67600000D03*
X105250000Y-69100000D03*
X106000000Y-69100000D03*
X104500000Y-68350000D03*
X106750000Y-67600000D03*
X106000000Y-68350000D03*
X104500000Y-67600000D03*
X104500000Y-66850000D03*
X105250000Y-66850000D03*
X106750000Y-66850000D03*
X106000000Y-66850000D03*
X104500000Y-69100000D03*
X105250000Y-68350000D03*
X106750000Y-68350000D03*
X105250000Y-67600000D03*
X106750000Y-69100000D03*
%TO.P,J3,3,Pin_3*%
%TO.N,C*%
X108500000Y-69100000D03*
X109250000Y-67600000D03*
X110000000Y-68350000D03*
X110750000Y-67600000D03*
X108500000Y-67600000D03*
X110750000Y-68350000D03*
X109250000Y-69100000D03*
X109250000Y-66850000D03*
X110000000Y-69100000D03*
X110750000Y-66850000D03*
X110750000Y-69100000D03*
X108500000Y-66850000D03*
X108500000Y-68350000D03*
X110000000Y-67600000D03*
X110000000Y-66850000D03*
X109250000Y-68350000D03*
%TD*%
D29*
%TO.P,C9,2*%
%TO.N,GND*%
X97060589Y-94110589D03*
%TO.P,C9,1*%
%TO.N,~{NRST}*%
X97739411Y-94789411D03*
%TD*%
D22*
%TO.P,U9,1,G*%
%TO.N,/VHO_C*%
X115280000Y-73725000D03*
%TO.P,U9,2,D*%
%TO.N,VCC*%
X114630000Y-70675000D03*
D23*
X114835000Y-71901000D03*
D22*
X115280000Y-70675000D03*
%TO.P,U9,3,S*%
%TO.N,C*%
X114630000Y-73725000D03*
%TO.P,U9,4,G*%
%TO.N,/VLO_C*%
X116580000Y-73725000D03*
%TO.P,U9,5,D*%
%TO.N,C*%
X115930000Y-70675000D03*
D23*
X116375000Y-71901000D03*
D22*
X116580000Y-70675000D03*
%TO.P,U9,6,S*%
%TO.N,Net-(R5-Pad1)*%
X115930000Y-73725000D03*
%TD*%
D16*
%TO.P,C5,1*%
%TO.N,Net-(C5-Pad1)*%
X97800000Y-77180000D03*
%TO.P,C5,2*%
%TO.N,A*%
X97800000Y-76220000D03*
%TD*%
D12*
%TO.P,C14,1*%
%TO.N,VCC*%
X104000000Y-71225000D03*
%TO.P,C14,2*%
%TO.N,GND*%
X104000000Y-74175000D03*
%TD*%
D14*
%TO.P,R4,1*%
%TO.N,Net-(R4-Pad1)*%
X101000000Y-77025000D03*
%TO.P,R4,2*%
%TO.N,/VLO_A*%
X101000000Y-75375000D03*
%TD*%
D16*
%TO.P,C17,1*%
%TO.N,Net-(C17-Pad1)*%
X113935000Y-77180000D03*
%TO.P,C17,2*%
%TO.N,C*%
X113935000Y-76220000D03*
%TD*%
D30*
%TO.P,D2,2,A*%
%TO.N,Net-(D2-Pad2)*%
X112537500Y-92775000D03*
%TO.P,D2,1,K*%
%TO.N,GND*%
X114112500Y-92775000D03*
%TD*%
D31*
%TO.P,R7,1*%
%TO.N,Net-(D1-Pad2)*%
X99940000Y-92800000D03*
%TO.P,R7,2*%
%TO.N,LED_BLUE*%
X100960000Y-92800000D03*
%TD*%
D24*
%TO.P,D3,1,K*%
%TO.N,Net-(C5-Pad1)*%
X95300000Y-80550000D03*
%TO.P,D3,2,A*%
%TO.N,VCC*%
X95300000Y-82650000D03*
%TD*%
%TO.P,D5,1,K*%
%TO.N,Net-(C17-Pad1)*%
X111435000Y-80550000D03*
%TO.P,D5,2,A*%
%TO.N,VCC*%
X111435000Y-82650000D03*
%TD*%
D25*
%TO.P,R2,1*%
%TO.N,VSENSE_A*%
X95300000Y-77210000D03*
%TO.P,R2,2*%
%TO.N,GND*%
X95300000Y-76190000D03*
%TD*%
D22*
%TO.P,U7,1,G*%
%TO.N,/VHO_B*%
X106945000Y-73725000D03*
D23*
%TO.P,U7,2,D*%
%TO.N,VCC*%
X106500000Y-71901000D03*
D22*
X106945000Y-70675000D03*
X106295000Y-70675000D03*
%TO.P,U7,3,S*%
%TO.N,B*%
X106295000Y-73725000D03*
%TO.P,U7,4,G*%
%TO.N,/VLO_B*%
X108245000Y-73725000D03*
%TO.P,U7,5,D*%
%TO.N,B*%
X107595000Y-70675000D03*
X108245000Y-70675000D03*
D23*
X108040000Y-71901000D03*
D22*
%TO.P,U7,6,S*%
%TO.N,Net-(R5-Pad1)*%
X107595000Y-73725000D03*
%TD*%
D21*
%TO.P,U2,1,VCC*%
%TO.N,VCC*%
X97095000Y-84175000D03*
%TO.P,U2,2,HIN*%
%TO.N,HIN_A*%
X98365000Y-84175000D03*
%TO.P,U2,3,~{LIN}*%
%TO.N,~{NLIN_A}*%
X99635000Y-84175000D03*
%TO.P,U2,4,COM*%
%TO.N,GND*%
X100905000Y-84175000D03*
%TO.P,U2,5,LO*%
%TO.N,Net-(R4-Pad1)*%
X100905000Y-79225000D03*
%TO.P,U2,6,VS*%
%TO.N,A*%
X99635000Y-79225000D03*
%TO.P,U2,7,HO*%
%TO.N,Net-(R3-Pad1)*%
X98365000Y-79225000D03*
%TO.P,U2,8,VB*%
%TO.N,Net-(C5-Pad1)*%
X97095000Y-79225000D03*
%TD*%
D19*
%TO.P,R11,1*%
%TO.N,B*%
X104735000Y-76190000D03*
%TO.P,R11,2*%
%TO.N,VSENSE_B*%
X104735000Y-77210000D03*
%TD*%
D14*
%TO.P,R14,1*%
%TO.N,Net-(R14-Pad1)*%
X117135000Y-77025000D03*
%TO.P,R14,2*%
%TO.N,/VLO_C*%
X117135000Y-75375000D03*
%TD*%
D32*
%TO.N,GND*%
X96025000Y-90875000D03*
X95500000Y-87400000D03*
X95500000Y-88600000D03*
X95500000Y-89800000D03*
X100300000Y-90047700D03*
X99100000Y-89300000D03*
%TO.N,C*%
X117475000Y-73450000D03*
%TO.N,B*%
X109397700Y-73450000D03*
%TO.N,A*%
X101572700Y-73450000D03*
%TO.N,+3.3V*%
X108775000Y-86000000D03*
X112825000Y-86022700D03*
%TO.N,GND*%
X108575000Y-81325000D03*
X100900000Y-82225000D03*
%TO.N,SWDIO*%
X113500000Y-88950000D03*
%TO.N,~{NRST}*%
X98925000Y-93900000D03*
X99250000Y-90350000D03*
D33*
%TO.N,+3.3V*%
X100300000Y-86025000D03*
%TO.N,VCC*%
X94250000Y-72400000D03*
X94250000Y-71137500D03*
D32*
%TO.N,SWCLK*%
X113460000Y-87740000D03*
%TO.N,CURRSENSE*%
X110162213Y-89727206D03*
%TO.N,VSENSE_C*%
X110175000Y-91400000D03*
%TO.N,VSENSE_B*%
X106587135Y-88837135D03*
X104325000Y-78000000D03*
%TO.N,VSENSE_C*%
X112300000Y-78025000D03*
%TO.N,VSENSE_A*%
X106450365Y-91499635D03*
D33*
%TO.N,VCC*%
X101900000Y-72400000D03*
X101900000Y-71137500D03*
X110175000Y-72400000D03*
X110175000Y-71075000D03*
D32*
%TO.N,VSENSE_A*%
X96175000Y-77925000D03*
%TO.N,B*%
X105175000Y-81100000D03*
%TO.N,VCC*%
X94250000Y-82850000D03*
%TO.N,GND*%
X104275000Y-79275000D03*
X95300000Y-75400000D03*
X103435000Y-75400000D03*
X112330500Y-79175000D03*
X104000000Y-72900000D03*
X95400000Y-86100000D03*
X103100000Y-86071500D03*
X112335000Y-72900000D03*
X96195500Y-79100000D03*
X96200000Y-72900000D03*
X111435000Y-75400000D03*
%TO.N,A*%
X97800000Y-74700000D03*
X100825000Y-81000000D03*
%TO.N,Net-(R5-Pad1)*%
X116285000Y-74619504D03*
X100150000Y-74619504D03*
X107950000Y-74619504D03*
%TO.N,B*%
X105600000Y-74700000D03*
%TO.N,C*%
X115735000Y-80900000D03*
X113935000Y-74700000D03*
%TD*%
D34*
%TO.N,UART_TX*%
X108462500Y-93425000D02*
X108512500Y-93475000D01*
X113870000Y-95520000D02*
X113870000Y-96280000D01*
X108512500Y-93475000D02*
X109525000Y-93475000D01*
X109525000Y-93475000D02*
X109725000Y-93675000D01*
X109725000Y-93675000D02*
X112025000Y-93675000D01*
X112025000Y-93675000D02*
X113870000Y-95520000D01*
%TO.N,GND*%
X111435000Y-75400000D02*
X110655600Y-76179400D01*
X110655600Y-76179400D02*
X110655600Y-81280600D01*
X110655600Y-81280600D02*
X111275000Y-81900000D01*
X111275000Y-81900000D02*
X111325000Y-81900000D01*
X103435000Y-75400000D02*
X102580600Y-76254400D01*
X102580600Y-76254400D02*
X102580600Y-81355600D01*
X102580600Y-81355600D02*
X102975000Y-81750000D01*
X102975000Y-81750000D02*
X103275000Y-81750000D01*
%TO.N,VCC*%
X103435000Y-82650000D02*
X103050000Y-82650000D01*
X103050000Y-82650000D02*
X102025000Y-81625000D01*
X102025000Y-81625000D02*
X102025000Y-74097676D01*
X102025000Y-74097676D02*
X102350500Y-73772176D01*
X102350500Y-73772176D02*
X102350500Y-72650500D01*
X102350500Y-72650500D02*
X101900000Y-72200000D01*
X111435000Y-82650000D02*
X111125000Y-82650000D01*
X111125000Y-82650000D02*
X110100000Y-81625000D01*
X110100000Y-81625000D02*
X110100000Y-74200000D01*
X110100000Y-74200000D02*
X110175000Y-74125000D01*
X110175000Y-74125000D02*
X110175000Y-72400000D01*
D35*
%TO.N,C*%
X116580000Y-70675000D02*
X116400000Y-70495000D01*
X116400000Y-70495000D02*
X116400000Y-70133000D01*
X116400000Y-70133000D02*
X115867000Y-69600000D01*
X111250000Y-69600000D02*
X110000000Y-68350000D01*
X115867000Y-69600000D02*
X111250000Y-69600000D01*
D34*
%TO.N,GND*%
X99100000Y-89300000D02*
X98850000Y-89050000D01*
X98850000Y-89050000D02*
X98850000Y-88405000D01*
%TO.N,~{NRST}*%
X97739411Y-94789411D02*
X97739411Y-95656639D01*
D36*
%TO.N,GND*%
X97060589Y-94110589D02*
X97060589Y-93960589D01*
X97060589Y-93960589D02*
X96912500Y-93812500D01*
X96912500Y-93812500D02*
X96912500Y-92800000D01*
D34*
%TO.N,~{NRST}*%
X98925000Y-93900000D02*
X98628822Y-93900000D01*
X97739411Y-95656639D02*
X96748025Y-96648025D01*
X98628822Y-93900000D02*
X97739411Y-94789411D01*
%TO.N,Net-(D1-Pad2)*%
X99940000Y-92800000D02*
X98487500Y-92800000D01*
%TO.N,HIN_A*%
X102737500Y-92125000D02*
X101974289Y-92125000D01*
X101974289Y-92125000D02*
X101879889Y-92030600D01*
X101879889Y-92030600D02*
X99030600Y-92030600D01*
X99030600Y-92030600D02*
X96450000Y-89450000D01*
X96450000Y-89450000D02*
X96450000Y-87075000D01*
X96450000Y-87075000D02*
X98365000Y-85160000D01*
X98365000Y-85160000D02*
X98365000Y-84175000D01*
%TO.N,~{NLIN_A}*%
X102737500Y-91475000D02*
X99275000Y-91475000D01*
X99275000Y-91475000D02*
X97005600Y-89205600D01*
X97005600Y-89205600D02*
X97005600Y-87694400D01*
X97005600Y-87694400D02*
X99635000Y-85065000D01*
X99635000Y-85065000D02*
X99635000Y-84175000D01*
%TO.N,~{NRST}*%
X99250000Y-90350000D02*
X99725000Y-90825000D01*
X99725000Y-90825000D02*
X102737500Y-90825000D01*
%TO.N,LED_BLUE*%
X102737500Y-92775000D02*
X100985000Y-92775000D01*
X100985000Y-92775000D02*
X100960000Y-92800000D01*
D36*
%TO.N,Net-(D2-Pad2)*%
X111360000Y-92800000D02*
X112512500Y-92800000D01*
D34*
%TO.N,LED_RED*%
X108462500Y-92775000D02*
X110315000Y-92775000D01*
X110315000Y-92775000D02*
X110340000Y-92800000D01*
D36*
%TO.N,Net-(D2-Pad2)*%
X112512500Y-92800000D02*
X112537500Y-92775000D01*
%TO.N,GND*%
X114112500Y-92930398D02*
X114112500Y-92775000D01*
X115666051Y-94483949D02*
X114112500Y-92930398D01*
D34*
X100300000Y-88875000D02*
X99775000Y-88875000D01*
X99775000Y-88875000D02*
X99305000Y-88405000D01*
X99305000Y-88405000D02*
X98850000Y-88405000D01*
%TO.N,+3.3V*%
X100300000Y-87325000D02*
X100175000Y-87450000D01*
X100175000Y-87450000D02*
X98855000Y-87450000D01*
X98855000Y-87450000D02*
X98850000Y-87445000D01*
D36*
X100300000Y-86025000D02*
X100300000Y-87325000D01*
D34*
X108775000Y-86000000D02*
X108825000Y-86050000D01*
X108825000Y-86050000D02*
X112797700Y-86050000D01*
X112797700Y-86050000D02*
X112825000Y-86022700D01*
D36*
%TO.N,A*%
X100240000Y-71901000D02*
X100240000Y-72290000D01*
X100240000Y-72290000D02*
X101400000Y-73450000D01*
X101400000Y-73450000D02*
X101572700Y-73450000D01*
D34*
%TO.N,~{NLIN_C}*%
X108462500Y-90175000D02*
X109510738Y-90175000D01*
X109510738Y-90175000D02*
X109885738Y-90550000D01*
X113822176Y-89727800D02*
X114420000Y-89129976D01*
X114420000Y-89129976D02*
X114420000Y-86655000D01*
X109885738Y-90550000D02*
X110700000Y-90550000D01*
X110700000Y-90550000D02*
X111522200Y-89727800D01*
X111522200Y-89727800D02*
X113822176Y-89727800D01*
X114420000Y-86655000D02*
X115770000Y-85305000D01*
X115770000Y-85305000D02*
X115770000Y-84175000D01*
%TO.N,SIGNAL_IN*%
X102737500Y-93425000D02*
X103675000Y-93425000D01*
X103675000Y-93425000D02*
X105250000Y-95000000D01*
X105250000Y-95000000D02*
X105250000Y-95450000D01*
%TO.N,VSENSE_A*%
X106450365Y-91499635D02*
X107075730Y-92125000D01*
X107075730Y-92125000D02*
X108462500Y-92125000D01*
%TO.N,VSENSE_B*%
X106587135Y-88837135D02*
X106587135Y-90537135D01*
X106587135Y-90537135D02*
X107525000Y-91475000D01*
X107525000Y-91475000D02*
X108462500Y-91475000D01*
%TO.N,~{NLIN_B}*%
X103521422Y-88875000D02*
X103725000Y-88875000D01*
X107770000Y-84830000D02*
X107770000Y-84175000D01*
X103725000Y-88875000D02*
X107770000Y-84830000D01*
%TO.N,HIN_B*%
X102737500Y-88225000D02*
X103575000Y-88225000D01*
X103575000Y-88225000D02*
X106500000Y-85300000D01*
X106500000Y-85300000D02*
X106500000Y-84175000D01*
%TO.N,GND*%
X103100000Y-86071500D02*
X103535000Y-85636500D01*
X103535000Y-85636500D02*
X103535000Y-84980000D01*
X95400000Y-86100000D02*
X95400000Y-84980000D01*
%TO.N,HIN_C*%
X108462500Y-87575000D02*
X112415000Y-87575000D01*
X112415000Y-87575000D02*
X113260000Y-86730000D01*
X113260000Y-86730000D02*
X113270000Y-86730000D01*
X113270000Y-86730000D02*
X114500000Y-85500000D01*
X114500000Y-85500000D02*
X114500000Y-84175000D01*
%TO.N,SWCLK*%
X113610000Y-87740000D02*
X113125000Y-88225000D01*
X113125000Y-88225000D02*
X108462500Y-88225000D01*
D37*
%TO.N,B*%
X105175000Y-81100000D02*
X106400303Y-81100000D01*
X106400303Y-81100000D02*
X107770000Y-79730303D01*
X107770000Y-79730303D02*
X107770000Y-79225000D01*
D34*
%TO.N,GND*%
X100300000Y-88875000D02*
X100300000Y-90047700D01*
%TO.N,+3.3V*%
X101275000Y-88825711D02*
X101275000Y-88075000D01*
X101275000Y-88075000D02*
X100525000Y-87325000D01*
X102737500Y-89525000D02*
X101974289Y-89525000D01*
X100525000Y-87325000D02*
X100300000Y-87325000D01*
%TO.N,GND*%
X101600000Y-90175000D02*
X102737500Y-90175000D01*
%TO.N,+3.3V*%
X101974289Y-89525000D02*
X101275000Y-88825711D01*
%TO.N,GND*%
X100300000Y-88875000D02*
X101600000Y-90175000D01*
%TO.N,SWDIO*%
X113500000Y-88950000D02*
X113425000Y-88875000D01*
X113425000Y-88875000D02*
X108462500Y-88875000D01*
D38*
%TO.N,GND*%
X112335000Y-74175000D02*
X112335000Y-74500000D01*
X112335000Y-74500000D02*
X111435000Y-75400000D01*
X96200000Y-74175000D02*
X96200000Y-74500000D01*
X96200000Y-74500000D02*
X95300000Y-75400000D01*
X104000000Y-74175000D02*
X104000000Y-74835000D01*
X104000000Y-74835000D02*
X103435000Y-75400000D01*
D36*
%TO.N,Net-(C13-Pad1)*%
X103435000Y-80550000D02*
X104207739Y-80550000D01*
X104207739Y-80550000D02*
X105230000Y-79527739D01*
X105230000Y-79527739D02*
X105230000Y-79225000D01*
%TO.N,A*%
X100825000Y-81000000D02*
X99635000Y-79810000D01*
X99635000Y-79810000D02*
X99635000Y-79225000D01*
%TO.N,C*%
X116375000Y-72125000D02*
X117475000Y-73225000D01*
X116375000Y-71901000D02*
X116375000Y-72125000D01*
%TO.N,B*%
X108040000Y-71967300D02*
X109397700Y-73325000D01*
X108040000Y-71901000D02*
X108040000Y-71967300D01*
%TO.N,GND*%
X109040000Y-81790000D02*
X108575000Y-81325000D01*
X109040000Y-84175000D02*
X109040000Y-81790000D01*
X100905000Y-82230000D02*
X100900000Y-82225000D01*
X100905000Y-84175000D02*
X100905000Y-82230000D01*
D34*
%TO.N,VSENSE_C*%
X109375000Y-90825000D02*
X108462500Y-90825000D01*
X110175000Y-91400000D02*
X109950000Y-91400000D01*
X109950000Y-91400000D02*
X109375000Y-90825000D01*
%TO.N,CURRSENSE*%
X110162213Y-89727206D02*
X109960007Y-89525000D01*
X109960007Y-89525000D02*
X108462500Y-89525000D01*
D36*
%TO.N,VCC*%
X96200000Y-71225000D02*
X94375000Y-71225000D01*
X94375000Y-71225000D02*
X94250000Y-71350000D01*
X94250000Y-71350000D02*
X94250000Y-72150000D01*
%TO.N,Net-(R10-Pad1)*%
X109040000Y-77235000D02*
X109050000Y-77225000D01*
X109040000Y-79225000D02*
X109040000Y-77235000D01*
D34*
%TO.N,/VHO_B*%
X106945000Y-75220000D02*
X107300000Y-75575000D01*
X106945000Y-73725000D02*
X106945000Y-75220000D01*
D36*
%TO.N,Net-(R9-Pad1)*%
X106500000Y-79225000D02*
X106500000Y-78335000D01*
X106500000Y-78335000D02*
X107300000Y-77535000D01*
X107300000Y-77535000D02*
X107300000Y-77225000D01*
D34*
%TO.N,VSENSE_B*%
X104325000Y-78000000D02*
X104325000Y-77620000D01*
X104325000Y-77620000D02*
X104735000Y-77210000D01*
%TO.N,GND*%
X103722280Y-79275000D02*
X103517280Y-79480000D01*
X104275000Y-79275000D02*
X103722280Y-79275000D01*
X103517280Y-79480000D02*
X103435000Y-79480000D01*
%TO.N,VSENSE_C*%
X112735000Y-77210000D02*
X112735000Y-77590000D01*
X112735000Y-77590000D02*
X112300000Y-78025000D01*
%TO.N,GND*%
X112330500Y-79175000D02*
X112025500Y-79480000D01*
X112025500Y-79480000D02*
X111435000Y-79480000D01*
D38*
%TO.N,VCC*%
X101900000Y-71137500D02*
X103912500Y-71137500D01*
X103912500Y-71137500D02*
X104000000Y-71225000D01*
X110175000Y-71075000D02*
X112185000Y-71075000D01*
X112185000Y-71075000D02*
X112335000Y-71225000D01*
D34*
%TO.N,VSENSE_A*%
X96600000Y-77500000D02*
X96175000Y-77925000D01*
X96600000Y-77210000D02*
X96600000Y-77500000D01*
X95300000Y-77210000D02*
X95300000Y-78520000D01*
X96600000Y-77210000D02*
X95300000Y-77210000D01*
%TO.N,VSENSE_C*%
X111435000Y-77210000D02*
X111435000Y-78520000D01*
X112735000Y-77210000D02*
X111435000Y-77210000D01*
%TO.N,Net-(C17-Pad1)*%
X111435000Y-80550000D02*
X112250000Y-80550000D01*
X112250000Y-80550000D02*
X113230000Y-79570000D01*
X113230000Y-79570000D02*
X113230000Y-79225000D01*
X113935000Y-77180000D02*
X113935000Y-77590000D01*
X113935000Y-77590000D02*
X113230000Y-78295000D01*
X113230000Y-78295000D02*
X113230000Y-79225000D01*
D36*
%TO.N,VSENSE_B*%
X103435000Y-77210000D02*
X103435000Y-78520000D01*
D34*
%TO.N,VCC*%
X95300000Y-82650000D02*
X94450000Y-82650000D01*
X111690000Y-84175000D02*
X111535000Y-84020000D01*
X105230000Y-84175000D02*
X103690000Y-84175000D01*
X111535000Y-84020000D02*
X111535000Y-82750000D01*
D36*
X114835000Y-71901000D02*
X114159000Y-71225000D01*
D34*
X113230000Y-84175000D02*
X111690000Y-84175000D01*
D36*
X98024000Y-71225000D02*
X96200000Y-71225000D01*
X105824000Y-71225000D02*
X104000000Y-71225000D01*
D34*
X103690000Y-84175000D02*
X103535000Y-84020000D01*
X103535000Y-82750000D02*
X103435000Y-82650000D01*
X94450000Y-82650000D02*
X94250000Y-82850000D01*
X111535000Y-82750000D02*
X111435000Y-82650000D01*
X95400000Y-84020000D02*
X95400000Y-82750000D01*
D36*
X114159000Y-71225000D02*
X112335000Y-71225000D01*
D34*
X95400000Y-82750000D02*
X95300000Y-82650000D01*
D36*
X106500000Y-71901000D02*
X105824000Y-71225000D01*
D34*
X97095000Y-84175000D02*
X95555000Y-84175000D01*
D36*
X98700000Y-71901000D02*
X98024000Y-71225000D01*
D34*
X95555000Y-84175000D02*
X95400000Y-84020000D01*
X103535000Y-84020000D02*
X103535000Y-82750000D01*
%TO.N,GND*%
X111435000Y-75400000D02*
X111435000Y-76190000D01*
D38*
X96200000Y-74175000D02*
X96200000Y-72900000D01*
D34*
X103435000Y-75400000D02*
X103435000Y-76190000D01*
X95300000Y-79480000D02*
X95815500Y-79480000D01*
D38*
X112335000Y-74175000D02*
X112335000Y-72900000D01*
D34*
X95300000Y-75400000D02*
X95300000Y-76190000D01*
D38*
X104000000Y-74175000D02*
X104000000Y-72900000D01*
D34*
X95815500Y-79480000D02*
X96195500Y-79100000D01*
D36*
%TO.N,Net-(C5-Pad1)*%
X96650000Y-80550000D02*
X97095000Y-80105000D01*
X97095000Y-78105000D02*
X97800000Y-77400000D01*
X95300000Y-80550000D02*
X96650000Y-80550000D01*
X97095000Y-79225000D02*
X97095000Y-78105000D01*
X97800000Y-77400000D02*
X97800000Y-77180000D01*
X97095000Y-80105000D02*
X97095000Y-79225000D01*
D35*
%TO.N,A*%
X100445000Y-70675000D02*
X100445000Y-69905000D01*
D34*
X97770000Y-76190000D02*
X97800000Y-76220000D01*
X96600000Y-76190000D02*
X97770000Y-76190000D01*
X97800000Y-74700000D02*
X97800000Y-76220000D01*
X97800000Y-74420000D02*
X98495000Y-73725000D01*
X97800000Y-74700000D02*
X97800000Y-74420000D01*
D35*
X100445000Y-69905000D02*
X101250000Y-69100000D01*
D34*
%TO.N,/VHO_A*%
X99145000Y-75220000D02*
X99300000Y-75375000D01*
X99145000Y-73725000D02*
X99145000Y-75220000D01*
%TO.N,/VLO_A*%
X101000000Y-74300000D02*
X100445000Y-73745000D01*
X101000000Y-75375000D02*
X101000000Y-74300000D01*
X100445000Y-73745000D02*
X100445000Y-73725000D01*
%TO.N,Net-(R5-Pad1)*%
X116285000Y-74619504D02*
X115930000Y-74264504D01*
X99795000Y-74264504D02*
X99795000Y-73725000D01*
X107595000Y-74264504D02*
X107595000Y-73725000D01*
X100150000Y-74619504D02*
X99795000Y-74264504D01*
X107950000Y-74619504D02*
X107595000Y-74264504D01*
X115930000Y-74264504D02*
X115930000Y-73725000D01*
D36*
%TO.N,Net-(C13-Pad1)*%
X105230000Y-79225000D02*
X105230000Y-78105000D01*
X105935000Y-77400000D02*
X105935000Y-77180000D01*
X105230000Y-78105000D02*
X105935000Y-77400000D01*
D34*
%TO.N,B*%
X104735000Y-76190000D02*
X105905000Y-76190000D01*
X105600000Y-74700000D02*
X105600000Y-74420000D01*
X105905000Y-76190000D02*
X105935000Y-76220000D01*
D35*
X108245000Y-70595000D02*
X106750000Y-69100000D01*
D34*
X105600000Y-74420000D02*
X106295000Y-73725000D01*
D35*
X108245000Y-70675000D02*
X108245000Y-70595000D01*
D34*
X105600000Y-74800000D02*
X105600000Y-76220000D01*
D36*
%TO.N,VSENSE_B*%
X104735000Y-77210000D02*
X103435000Y-77210000D01*
%TO.N,C*%
X115770000Y-79225000D02*
X115770000Y-80865000D01*
D34*
X113905000Y-76190000D02*
X113935000Y-76220000D01*
D36*
X115770000Y-80865000D02*
X115735000Y-80900000D01*
D34*
X113935000Y-74420000D02*
X114630000Y-73725000D01*
X112735000Y-76190000D02*
X113905000Y-76190000D01*
X113935000Y-74700000D02*
X113935000Y-74420000D01*
X113935000Y-74700000D02*
X113935000Y-76220000D01*
%TO.N,/VLO_B*%
X108800000Y-74300000D02*
X108245000Y-73745000D01*
X108245000Y-73745000D02*
X108245000Y-73725000D01*
X108800000Y-75375000D02*
X108800000Y-74300000D01*
%TO.N,/VHO_C*%
X115280000Y-75220000D02*
X115435000Y-75375000D01*
D36*
%TO.N,Net-(R13-Pad1)*%
X115435000Y-77400000D02*
X115435000Y-77025000D01*
D34*
%TO.N,/VHO_C*%
X115280000Y-73725000D02*
X115280000Y-75220000D01*
D36*
%TO.N,Net-(R13-Pad1)*%
X114500000Y-79225000D02*
X114500000Y-78335000D01*
X114500000Y-78335000D02*
X115435000Y-77400000D01*
D34*
%TO.N,/VLO_C*%
X116580000Y-73745000D02*
X116580000Y-73725000D01*
D36*
%TO.N,Net-(R14-Pad1)*%
X117040000Y-77120000D02*
X117135000Y-77025000D01*
D34*
%TO.N,/VLO_C*%
X117135000Y-74300000D02*
X116580000Y-73745000D01*
D36*
%TO.N,Net-(R14-Pad1)*%
X117040000Y-79225000D02*
X117040000Y-77120000D01*
D34*
%TO.N,/VLO_C*%
X117135000Y-75375000D02*
X117135000Y-74300000D01*
D36*
%TO.N,Net-(R3-Pad1)*%
X99300000Y-77400000D02*
X99300000Y-77025000D01*
X98365000Y-78335000D02*
X99300000Y-77400000D01*
X98365000Y-79225000D02*
X98365000Y-78335000D01*
%TO.N,Net-(R4-Pad1)*%
X100905000Y-77120000D02*
X101000000Y-77025000D01*
X100905000Y-79225000D02*
X100905000Y-77120000D01*
%TD*%
%TA.AperFunction,Conductor*%
%TO.N,GND*%
G36*
X108294295Y-85318395D02*
G01*
X108340797Y-85363975D01*
X108346570Y-85373737D01*
X108364028Y-85442553D01*
X108341510Y-85509884D01*
X108320946Y-85532822D01*
X108288034Y-85561533D01*
X108259055Y-85602766D01*
X108219564Y-85658956D01*
X108197501Y-85690348D01*
X108140309Y-85837039D01*
X108139318Y-85844568D01*
X108122540Y-85972009D01*
X108119758Y-85993138D01*
X108137035Y-86149633D01*
X108191143Y-86297490D01*
X108278958Y-86428172D01*
X108395410Y-86534135D01*
X108402085Y-86537759D01*
X108527099Y-86605637D01*
X108527101Y-86605638D01*
X108533776Y-86609262D01*
X108541125Y-86611190D01*
X108678719Y-86647287D01*
X108678721Y-86647287D01*
X108686069Y-86649215D01*
X108769380Y-86650524D01*
X108835898Y-86651569D01*
X108835901Y-86651569D01*
X108843495Y-86651688D01*
X108996968Y-86616538D01*
X109137625Y-86545795D01*
X109181305Y-86508489D01*
X109246095Y-86479458D01*
X109263135Y-86478300D01*
X112310355Y-86478300D01*
X112378476Y-86498302D01*
X112395154Y-86511106D01*
X112430069Y-86542876D01*
X112445410Y-86556835D01*
X112452083Y-86560458D01*
X112544731Y-86610762D01*
X112595053Y-86660845D01*
X112610309Y-86730183D01*
X112585657Y-86796762D01*
X112573704Y-86810588D01*
X112274497Y-87109795D01*
X112212185Y-87143821D01*
X112185402Y-87146700D01*
X109255027Y-87146700D01*
X109217822Y-87141082D01*
X109210302Y-87138758D01*
X109201518Y-87134464D01*
X109191843Y-87133052D01*
X109191841Y-87133052D01*
X109137744Y-87125160D01*
X109137740Y-87125160D01*
X109133218Y-87124500D01*
X107791782Y-87124500D01*
X107787232Y-87125170D01*
X107787229Y-87125170D01*
X107732574Y-87133216D01*
X107732573Y-87133216D01*
X107722888Y-87134642D01*
X107698329Y-87146700D01*
X107627493Y-87181478D01*
X107627491Y-87181479D01*
X107618145Y-87186068D01*
X107610787Y-87193438D01*
X107610788Y-87193438D01*
X107559427Y-87244889D01*
X107535707Y-87268650D01*
X107484464Y-87373482D01*
X107474500Y-87441782D01*
X107474500Y-87708218D01*
X107475170Y-87712768D01*
X107475170Y-87712771D01*
X107481263Y-87754162D01*
X107484642Y-87777112D01*
X107494770Y-87797740D01*
X107517696Y-87844435D01*
X107529764Y-87914399D01*
X107517794Y-87955295D01*
X107484464Y-88023482D01*
X107474500Y-88091782D01*
X107474500Y-88358218D01*
X107475170Y-88362768D01*
X107475170Y-88362771D01*
X107482405Y-88411919D01*
X107484642Y-88427112D01*
X107488958Y-88435902D01*
X107517696Y-88494435D01*
X107529764Y-88564399D01*
X107517794Y-88605295D01*
X107484464Y-88673482D01*
X107481375Y-88694658D01*
X107477655Y-88720156D01*
X107448029Y-88784676D01*
X107388224Y-88822937D01*
X107317228Y-88822791D01*
X107257581Y-88784284D01*
X107227888Y-88717106D01*
X107224410Y-88688368D01*
X107223498Y-88680829D01*
X107215250Y-88659000D01*
X107170529Y-88540649D01*
X107170528Y-88540646D01*
X107167845Y-88533547D01*
X107078666Y-88403792D01*
X107001997Y-88335482D01*
X106966783Y-88304107D01*
X106966780Y-88304105D01*
X106961111Y-88299054D01*
X106821966Y-88225380D01*
X106805257Y-88221183D01*
X106676633Y-88188875D01*
X106676631Y-88188875D01*
X106669263Y-88187024D01*
X106661665Y-88186984D01*
X106661663Y-88186984D01*
X106594454Y-88186632D01*
X106511819Y-88186200D01*
X106504440Y-88187972D01*
X106504436Y-88187972D01*
X106366102Y-88221183D01*
X106366098Y-88221184D01*
X106358723Y-88222955D01*
X106218814Y-88295167D01*
X106213092Y-88300159D01*
X106213090Y-88300160D01*
X106105894Y-88393673D01*
X106105891Y-88393676D01*
X106100169Y-88398668D01*
X106061404Y-88453824D01*
X106017072Y-88516903D01*
X106009636Y-88527483D01*
X105952444Y-88674174D01*
X105951453Y-88681703D01*
X105935846Y-88800249D01*
X105931893Y-88830273D01*
X105949170Y-88986768D01*
X106003278Y-89134625D01*
X106007515Y-89140931D01*
X106007517Y-89140934D01*
X106029350Y-89173424D01*
X106091093Y-89265307D01*
X106117121Y-89288990D01*
X106117634Y-89289457D01*
X106154557Y-89350097D01*
X106158835Y-89382651D01*
X106158835Y-90504239D01*
X106157962Y-90519049D01*
X106154211Y-90550740D01*
X106164219Y-90605540D01*
X106164863Y-90609409D01*
X106169769Y-90642038D01*
X106173145Y-90664495D01*
X106176117Y-90670684D01*
X106177350Y-90677436D01*
X106203036Y-90726882D01*
X106204786Y-90730386D01*
X106214876Y-90751400D01*
X106226331Y-90821467D01*
X106198086Y-90886603D01*
X106159081Y-90917905D01*
X106088792Y-90954184D01*
X106082044Y-90957667D01*
X106076322Y-90962659D01*
X106076320Y-90962660D01*
X105969124Y-91056173D01*
X105969121Y-91056176D01*
X105963399Y-91061168D01*
X105959032Y-91067382D01*
X105887459Y-91169220D01*
X105872866Y-91189983D01*
X105815674Y-91336674D01*
X105814683Y-91344203D01*
X105804993Y-91417807D01*
X105795123Y-91492773D01*
X105812400Y-91649268D01*
X105866508Y-91797125D01*
X105870745Y-91803431D01*
X105870747Y-91803434D01*
X105892036Y-91835115D01*
X105954323Y-91927807D01*
X106070775Y-92033770D01*
X106117399Y-92059085D01*
X106202464Y-92105272D01*
X106202466Y-92105273D01*
X106209141Y-92108897D01*
X106216490Y-92110825D01*
X106354084Y-92146922D01*
X106354086Y-92146922D01*
X106361434Y-92148850D01*
X106444958Y-92150162D01*
X106512755Y-92171231D01*
X106532073Y-92187051D01*
X106749614Y-92404592D01*
X106759469Y-92415681D01*
X106779227Y-92440744D01*
X106786974Y-92446098D01*
X106786976Y-92446100D01*
X106805497Y-92458900D01*
X106818874Y-92468145D01*
X106825042Y-92472408D01*
X106828221Y-92474679D01*
X106873052Y-92507792D01*
X106879527Y-92510066D01*
X106885176Y-92513970D01*
X106894158Y-92516811D01*
X106894159Y-92516811D01*
X106938276Y-92530763D01*
X106942032Y-92532016D01*
X106994569Y-92550466D01*
X107001428Y-92550735D01*
X107007972Y-92552805D01*
X107014261Y-92553300D01*
X107064227Y-92553300D01*
X107069173Y-92553397D01*
X107123261Y-92555522D01*
X107130091Y-92553711D01*
X107137560Y-92553300D01*
X107348500Y-92553300D01*
X107416621Y-92573302D01*
X107463114Y-92626958D01*
X107474500Y-92679300D01*
X107474500Y-92908218D01*
X107484642Y-92977112D01*
X107517696Y-93044435D01*
X107529764Y-93114399D01*
X107517794Y-93155295D01*
X107484464Y-93223482D01*
X107481414Y-93244390D01*
X107476335Y-93279207D01*
X107474500Y-93291782D01*
X107474500Y-93558218D01*
X107475170Y-93562768D01*
X107475170Y-93562771D01*
X107480695Y-93600298D01*
X107484642Y-93627112D01*
X107488958Y-93635902D01*
X107531348Y-93722241D01*
X107536068Y-93731855D01*
X107618650Y-93814293D01*
X107628006Y-93818866D01*
X107628007Y-93818867D01*
X107659623Y-93834321D01*
X107723482Y-93865536D01*
X107753973Y-93869984D01*
X107787256Y-93874840D01*
X107787260Y-93874840D01*
X107791782Y-93875500D01*
X108338767Y-93875500D01*
X108380516Y-93882618D01*
X108422448Y-93897344D01*
X108422450Y-93897344D01*
X108431339Y-93900466D01*
X108438198Y-93900735D01*
X108444742Y-93902805D01*
X108451031Y-93903300D01*
X108500997Y-93903300D01*
X108505943Y-93903397D01*
X108560031Y-93905522D01*
X108566861Y-93903711D01*
X108574330Y-93903300D01*
X109295402Y-93903300D01*
X109363523Y-93923302D01*
X109384497Y-93940205D01*
X109398884Y-93954592D01*
X109408739Y-93965681D01*
X109428497Y-93990744D01*
X109436244Y-93996098D01*
X109436246Y-93996100D01*
X109474312Y-94022408D01*
X109477491Y-94024679D01*
X109522322Y-94057792D01*
X109528797Y-94060066D01*
X109534446Y-94063970D01*
X109574547Y-94076652D01*
X109587559Y-94080767D01*
X109591317Y-94082021D01*
X109643838Y-94100466D01*
X109650698Y-94100736D01*
X109657242Y-94102805D01*
X109663531Y-94103300D01*
X109713496Y-94103300D01*
X109718442Y-94103397D01*
X109772531Y-94105522D01*
X109779361Y-94103711D01*
X109786830Y-94103300D01*
X111795402Y-94103300D01*
X111863523Y-94123302D01*
X111884497Y-94140205D01*
X113079880Y-95335588D01*
X113113906Y-95397900D01*
X113108841Y-95468715D01*
X113079880Y-95513778D01*
X112473341Y-96120317D01*
X112469902Y-96125464D01*
X112440089Y-96170083D01*
X112431953Y-96182259D01*
X112412510Y-96280000D01*
X112431953Y-96377741D01*
X112438849Y-96388061D01*
X112438849Y-96388062D01*
X112460923Y-96421098D01*
X112473341Y-96439683D01*
X113658063Y-97624405D01*
X113692089Y-97686717D01*
X113687024Y-97757532D01*
X113644477Y-97814368D01*
X113577957Y-97839179D01*
X113568968Y-97839500D01*
X108466500Y-97839500D01*
X108398379Y-97819498D01*
X108351886Y-97765842D01*
X108340500Y-97713500D01*
X108340500Y-97427885D01*
X108754000Y-97427885D01*
X108758475Y-97443124D01*
X108759865Y-97444329D01*
X108767548Y-97446000D01*
X108977885Y-97446000D01*
X108993124Y-97441525D01*
X108994329Y-97440135D01*
X108996000Y-97432452D01*
X108996000Y-97427885D01*
X109504000Y-97427885D01*
X109508475Y-97443124D01*
X109509865Y-97444329D01*
X109517548Y-97446000D01*
X109727885Y-97446000D01*
X109743124Y-97441525D01*
X109744329Y-97440135D01*
X109746000Y-97432452D01*
X109746000Y-97427885D01*
X110254000Y-97427885D01*
X110258475Y-97443124D01*
X110259865Y-97444329D01*
X110267548Y-97446000D01*
X110477885Y-97446000D01*
X110493124Y-97441525D01*
X110494329Y-97440135D01*
X110496000Y-97432452D01*
X110496000Y-97427885D01*
X111004000Y-97427885D01*
X111008475Y-97443124D01*
X111009865Y-97444329D01*
X111017548Y-97446000D01*
X111614884Y-97446000D01*
X111630123Y-97441525D01*
X111631328Y-97440135D01*
X111632999Y-97432452D01*
X111632999Y-97373105D01*
X111633000Y-97373073D01*
X111633000Y-97222115D01*
X111628525Y-97206876D01*
X111627135Y-97205671D01*
X111619452Y-97204000D01*
X111022115Y-97204000D01*
X111006876Y-97208475D01*
X111005671Y-97209865D01*
X111004000Y-97217548D01*
X111004000Y-97427885D01*
X110496000Y-97427885D01*
X110496000Y-97222115D01*
X110491525Y-97206876D01*
X110490135Y-97205671D01*
X110482452Y-97204000D01*
X110272115Y-97204000D01*
X110256876Y-97208475D01*
X110255671Y-97209865D01*
X110254000Y-97217548D01*
X110254000Y-97427885D01*
X109746000Y-97427885D01*
X109746000Y-97222115D01*
X109741525Y-97206876D01*
X109740135Y-97205671D01*
X109732452Y-97204000D01*
X109522115Y-97204000D01*
X109506876Y-97208475D01*
X109505671Y-97209865D01*
X109504000Y-97217548D01*
X109504000Y-97427885D01*
X108996000Y-97427885D01*
X108996000Y-97222115D01*
X108991525Y-97206876D01*
X108990135Y-97205671D01*
X108982452Y-97204000D01*
X108772115Y-97204000D01*
X108756876Y-97208475D01*
X108755671Y-97209865D01*
X108754000Y-97217548D01*
X108754000Y-97427885D01*
X108340500Y-97427885D01*
X108340500Y-96677885D01*
X108754000Y-96677885D01*
X108758475Y-96693124D01*
X108759865Y-96694329D01*
X108767548Y-96696000D01*
X108977885Y-96696000D01*
X108993124Y-96691525D01*
X108994329Y-96690135D01*
X108996000Y-96682452D01*
X108996000Y-96677885D01*
X109504000Y-96677885D01*
X109508475Y-96693124D01*
X109509865Y-96694329D01*
X109517548Y-96696000D01*
X109727885Y-96696000D01*
X109743124Y-96691525D01*
X109744329Y-96690135D01*
X109746000Y-96682452D01*
X109746000Y-96677885D01*
X110254000Y-96677885D01*
X110258475Y-96693124D01*
X110259865Y-96694329D01*
X110267548Y-96696000D01*
X110477885Y-96696000D01*
X110493124Y-96691525D01*
X110494329Y-96690135D01*
X110496000Y-96682452D01*
X110496000Y-96677885D01*
X111004000Y-96677885D01*
X111008475Y-96693124D01*
X111009865Y-96694329D01*
X111017548Y-96696000D01*
X111614884Y-96696000D01*
X111630123Y-96691525D01*
X111631328Y-96690135D01*
X111632999Y-96682452D01*
X111632999Y-96623105D01*
X111633000Y-96623073D01*
X111633000Y-96472115D01*
X111628525Y-96456876D01*
X111627135Y-96455671D01*
X111619452Y-96454000D01*
X111022115Y-96454000D01*
X111006876Y-96458475D01*
X111005671Y-96459865D01*
X111004000Y-96467548D01*
X111004000Y-96677885D01*
X110496000Y-96677885D01*
X110496000Y-96472115D01*
X110491525Y-96456876D01*
X110490135Y-96455671D01*
X110482452Y-96454000D01*
X110272115Y-96454000D01*
X110256876Y-96458475D01*
X110255671Y-96459865D01*
X110254000Y-96467548D01*
X110254000Y-96677885D01*
X109746000Y-96677885D01*
X109746000Y-96472115D01*
X109741525Y-96456876D01*
X109740135Y-96455671D01*
X109732452Y-96454000D01*
X109522115Y-96454000D01*
X109506876Y-96458475D01*
X109505671Y-96459865D01*
X109504000Y-96467548D01*
X109504000Y-96677885D01*
X108996000Y-96677885D01*
X108996000Y-96472115D01*
X108991525Y-96456876D01*
X108990135Y-96455671D01*
X108982452Y-96454000D01*
X108772115Y-96454000D01*
X108756876Y-96458475D01*
X108755671Y-96459865D01*
X108754000Y-96467548D01*
X108754000Y-96677885D01*
X108340500Y-96677885D01*
X108340500Y-95927885D01*
X108754000Y-95927885D01*
X108758475Y-95943124D01*
X108759865Y-95944329D01*
X108767548Y-95946000D01*
X108977885Y-95946000D01*
X108993124Y-95941525D01*
X108994329Y-95940135D01*
X108996000Y-95932452D01*
X108996000Y-95927885D01*
X109504000Y-95927885D01*
X109508475Y-95943124D01*
X109509865Y-95944329D01*
X109517548Y-95946000D01*
X109727885Y-95946000D01*
X109743124Y-95941525D01*
X109744329Y-95940135D01*
X109746000Y-95932452D01*
X109746000Y-95927885D01*
X110254000Y-95927885D01*
X110258475Y-95943124D01*
X110259865Y-95944329D01*
X110267548Y-95946000D01*
X110477885Y-95946000D01*
X110493124Y-95941525D01*
X110494329Y-95940135D01*
X110496000Y-95932452D01*
X110496000Y-95927885D01*
X111004000Y-95927885D01*
X111008475Y-95943124D01*
X111009865Y-95944329D01*
X111017548Y-95946000D01*
X111614884Y-95946000D01*
X111630123Y-95941525D01*
X111631328Y-95940135D01*
X111632999Y-95932452D01*
X111632999Y-95873105D01*
X111633000Y-95873073D01*
X111633000Y-95722115D01*
X111628525Y-95706876D01*
X111627135Y-95705671D01*
X111619452Y-95704000D01*
X111022115Y-95704000D01*
X111006876Y-95708475D01*
X111005671Y-95709865D01*
X111004000Y-95717548D01*
X111004000Y-95927885D01*
X110496000Y-95927885D01*
X110496000Y-95722115D01*
X110491525Y-95706876D01*
X110490135Y-95705671D01*
X110482452Y-95704000D01*
X110272115Y-95704000D01*
X110256876Y-95708475D01*
X110255671Y-95709865D01*
X110254000Y-95717548D01*
X110254000Y-95927885D01*
X109746000Y-95927885D01*
X109746000Y-95722115D01*
X109741525Y-95706876D01*
X109740135Y-95705671D01*
X109732452Y-95704000D01*
X109522115Y-95704000D01*
X109506876Y-95708475D01*
X109505671Y-95709865D01*
X109504000Y-95717548D01*
X109504000Y-95927885D01*
X108996000Y-95927885D01*
X108996000Y-95722115D01*
X108991525Y-95706876D01*
X108990135Y-95705671D01*
X108982452Y-95704000D01*
X108772115Y-95704000D01*
X108756876Y-95708475D01*
X108755671Y-95709865D01*
X108754000Y-95717548D01*
X108754000Y-95927885D01*
X108340500Y-95927885D01*
X108340500Y-95627085D01*
X108342921Y-95602504D01*
X108342987Y-95602172D01*
X108342987Y-95602171D01*
X108345408Y-95590000D01*
X108325966Y-95492260D01*
X108270601Y-95409399D01*
X108273324Y-95407580D01*
X108248879Y-95362814D01*
X108246000Y-95336031D01*
X108246000Y-95177885D01*
X108754000Y-95177885D01*
X108758475Y-95193124D01*
X108759865Y-95194329D01*
X108767548Y-95196000D01*
X108977885Y-95196000D01*
X108993124Y-95191525D01*
X108994329Y-95190135D01*
X108996000Y-95182452D01*
X108996000Y-95177885D01*
X109504000Y-95177885D01*
X109508475Y-95193124D01*
X109509865Y-95194329D01*
X109517548Y-95196000D01*
X109727885Y-95196000D01*
X109743124Y-95191525D01*
X109744329Y-95190135D01*
X109746000Y-95182452D01*
X109746000Y-95177885D01*
X110254000Y-95177885D01*
X110258475Y-95193124D01*
X110259865Y-95194329D01*
X110267548Y-95196000D01*
X110477885Y-95196000D01*
X110493124Y-95191525D01*
X110494329Y-95190135D01*
X110496000Y-95182452D01*
X110496000Y-95177885D01*
X111004000Y-95177885D01*
X111008475Y-95193124D01*
X111009865Y-95194329D01*
X111017548Y-95196000D01*
X111614884Y-95196000D01*
X111630123Y-95191525D01*
X111631328Y-95190135D01*
X111632999Y-95182452D01*
X111632999Y-95030331D01*
X111632629Y-95023510D01*
X111627105Y-94972648D01*
X111623479Y-94957396D01*
X111578324Y-94836946D01*
X111569786Y-94821351D01*
X111493285Y-94719276D01*
X111480724Y-94706715D01*
X111378649Y-94630214D01*
X111363054Y-94621676D01*
X111242606Y-94576522D01*
X111227351Y-94572895D01*
X111176486Y-94567369D01*
X111169672Y-94567000D01*
X111022115Y-94567000D01*
X111006876Y-94571475D01*
X111005671Y-94572865D01*
X111004000Y-94580548D01*
X111004000Y-95177885D01*
X110496000Y-95177885D01*
X110496000Y-94585116D01*
X110491525Y-94569877D01*
X110490135Y-94568672D01*
X110482452Y-94567001D01*
X110423105Y-94567001D01*
X110423073Y-94567000D01*
X110272115Y-94567000D01*
X110256876Y-94571475D01*
X110255671Y-94572865D01*
X110254000Y-94580548D01*
X110254000Y-95177885D01*
X109746000Y-95177885D01*
X109746000Y-94585116D01*
X109741525Y-94569877D01*
X109740135Y-94568672D01*
X109732452Y-94567001D01*
X109673105Y-94567001D01*
X109673073Y-94567000D01*
X109522115Y-94567000D01*
X109506876Y-94571475D01*
X109505671Y-94572865D01*
X109504000Y-94580548D01*
X109504000Y-95177885D01*
X108996000Y-95177885D01*
X108996000Y-94585116D01*
X108991525Y-94569877D01*
X108990135Y-94568672D01*
X108982452Y-94567001D01*
X108923105Y-94567001D01*
X108923073Y-94567000D01*
X108772115Y-94567000D01*
X108756876Y-94571475D01*
X108755671Y-94572865D01*
X108754000Y-94580548D01*
X108754000Y-95177885D01*
X108246000Y-95177885D01*
X108246000Y-94585116D01*
X108241525Y-94569877D01*
X108240135Y-94568672D01*
X108232452Y-94567001D01*
X108080331Y-94567001D01*
X108073510Y-94567371D01*
X108022648Y-94572895D01*
X108007396Y-94576521D01*
X107886946Y-94621676D01*
X107871351Y-94630214D01*
X107769276Y-94706715D01*
X107756715Y-94719276D01*
X107680214Y-94821351D01*
X107671676Y-94836946D01*
X107626522Y-94957394D01*
X107622895Y-94972649D01*
X107618719Y-95011085D01*
X107591477Y-95076647D01*
X107533114Y-95117073D01*
X107462160Y-95119528D01*
X107401142Y-95083233D01*
X107369877Y-95022058D01*
X107363387Y-94989431D01*
X107360966Y-94977260D01*
X107305601Y-94894399D01*
X107222740Y-94839034D01*
X107149674Y-94824500D01*
X105719446Y-94824500D01*
X105651325Y-94804498D01*
X105615236Y-94769326D01*
X105612318Y-94765033D01*
X105608240Y-94756540D01*
X105603580Y-94751499D01*
X105600416Y-94745408D01*
X105596319Y-94740611D01*
X105560988Y-94705280D01*
X105557559Y-94701714D01*
X105557230Y-94701358D01*
X105520816Y-94661966D01*
X105514706Y-94658417D01*
X105509133Y-94653425D01*
X104001116Y-93145408D01*
X103991261Y-93134319D01*
X103983862Y-93124933D01*
X103971503Y-93109256D01*
X103963756Y-93103902D01*
X103963754Y-93103900D01*
X103938059Y-93086142D01*
X103925676Y-93077583D01*
X103922509Y-93075321D01*
X103877678Y-93042208D01*
X103871203Y-93039934D01*
X103865554Y-93036030D01*
X103856575Y-93033190D01*
X103856570Y-93033188D01*
X103813507Y-93019569D01*
X103754588Y-92979958D01*
X103726438Y-92914780D01*
X103725500Y-92899434D01*
X103725500Y-92641782D01*
X103715358Y-92572888D01*
X103682304Y-92505564D01*
X103670236Y-92435601D01*
X103682206Y-92394705D01*
X103715536Y-92326518D01*
X103721217Y-92287580D01*
X103724840Y-92262744D01*
X103724840Y-92262740D01*
X103725500Y-92258218D01*
X103725500Y-91991782D01*
X103718094Y-91941470D01*
X103716784Y-91932574D01*
X103716784Y-91932573D01*
X103715358Y-91922888D01*
X103682304Y-91855564D01*
X103670236Y-91785601D01*
X103682206Y-91744705D01*
X103715536Y-91676518D01*
X103725500Y-91608218D01*
X103725500Y-91341782D01*
X103723707Y-91329598D01*
X103716784Y-91282574D01*
X103716784Y-91282573D01*
X103715358Y-91272888D01*
X103682304Y-91205564D01*
X103670236Y-91135601D01*
X103682206Y-91094705D01*
X103715536Y-91026518D01*
X103725500Y-90958218D01*
X103725500Y-90834555D01*
X103745502Y-90766434D01*
X103774795Y-90734593D01*
X103802079Y-90713657D01*
X103813659Y-90702077D01*
X103901059Y-90588176D01*
X103909247Y-90573993D01*
X103964189Y-90441351D01*
X103968428Y-90425531D01*
X103972716Y-90392960D01*
X103970505Y-90378778D01*
X103957348Y-90375000D01*
X103415109Y-90375000D01*
X103410503Y-90374833D01*
X103408218Y-90374500D01*
X102066782Y-90374500D01*
X102064517Y-90374833D01*
X102059954Y-90375000D01*
X101518035Y-90375000D01*
X101469466Y-90389261D01*
X101465840Y-90391592D01*
X101430328Y-90396700D01*
X100022600Y-90396700D01*
X99954479Y-90376698D01*
X99907986Y-90323042D01*
X99897515Y-90285846D01*
X99886363Y-90193694D01*
X99872487Y-90156973D01*
X99833394Y-90053514D01*
X99833393Y-90053511D01*
X99830710Y-90046412D01*
X99825554Y-90038910D01*
X99814280Y-90022505D01*
X99792180Y-89955035D01*
X99810066Y-89886328D01*
X99862258Y-89838198D01*
X99930962Y-89825794D01*
X99998097Y-89832672D01*
X100004513Y-89833000D01*
X100027885Y-89833000D01*
X100043124Y-89828525D01*
X100044329Y-89827135D01*
X100046000Y-89819452D01*
X100046000Y-88747000D01*
X100066002Y-88678879D01*
X100119658Y-88632386D01*
X100172000Y-88621000D01*
X100428000Y-88621000D01*
X100496121Y-88641002D01*
X100542614Y-88694658D01*
X100554000Y-88747000D01*
X100554000Y-89814885D01*
X100558475Y-89830124D01*
X100559865Y-89831329D01*
X100567548Y-89833000D01*
X100595438Y-89833000D01*
X100601953Y-89832663D01*
X100694057Y-89823106D01*
X100707456Y-89820212D01*
X100856107Y-89770619D01*
X100869286Y-89764445D01*
X101002173Y-89682212D01*
X101013574Y-89673176D01*
X101123986Y-89562571D01*
X101132996Y-89551163D01*
X101149169Y-89524924D01*
X101201941Y-89477430D01*
X101272012Y-89466006D01*
X101337136Y-89494279D01*
X101345525Y-89501944D01*
X101521989Y-89678408D01*
X101556015Y-89740720D01*
X101549303Y-89815721D01*
X101510811Y-89908649D01*
X101506572Y-89924469D01*
X101502284Y-89957040D01*
X101504495Y-89971222D01*
X101517652Y-89975000D01*
X102059891Y-89975000D01*
X102064497Y-89975167D01*
X102066782Y-89975500D01*
X103408218Y-89975500D01*
X103410483Y-89975167D01*
X103415046Y-89975000D01*
X103956965Y-89975000D01*
X103970736Y-89970956D01*
X103972765Y-89957417D01*
X103968428Y-89924467D01*
X103964190Y-89908652D01*
X103909247Y-89776007D01*
X103901059Y-89761824D01*
X103813659Y-89647923D01*
X103802079Y-89636343D01*
X103774795Y-89615407D01*
X103732928Y-89558068D01*
X103725500Y-89515445D01*
X103725500Y-89416536D01*
X103745502Y-89348415D01*
X103799158Y-89301922D01*
X103832766Y-89291936D01*
X103843051Y-89290390D01*
X103843053Y-89290389D01*
X103852360Y-89288990D01*
X103858549Y-89286018D01*
X103865301Y-89284785D01*
X103914747Y-89259100D01*
X103918250Y-89257350D01*
X103959966Y-89237319D01*
X103959968Y-89237318D01*
X103968460Y-89233240D01*
X103973501Y-89228580D01*
X103979592Y-89225416D01*
X103984389Y-89221319D01*
X104019720Y-89185988D01*
X104023286Y-89182559D01*
X104033168Y-89173424D01*
X104063034Y-89145816D01*
X104066583Y-89139706D01*
X104071575Y-89134133D01*
X107768304Y-85437404D01*
X107830616Y-85403378D01*
X107857399Y-85400499D01*
X107951518Y-85400499D01*
X107956702Y-85399678D01*
X108035506Y-85387198D01*
X108035508Y-85387197D01*
X108045304Y-85385646D01*
X108117098Y-85349065D01*
X108149507Y-85332552D01*
X108149510Y-85332550D01*
X108158342Y-85328050D01*
X108161286Y-85325106D01*
X108225143Y-85302318D01*
X108294295Y-85318395D01*
G37*
%TD.AperFunction*%
%TA.AperFunction,Conductor*%
G36*
X93724012Y-83241502D02*
G01*
X93746079Y-83266446D01*
X93753958Y-83278172D01*
X93870410Y-83384135D01*
X93877085Y-83387759D01*
X94002099Y-83455637D01*
X94002101Y-83455638D01*
X94008776Y-83459262D01*
X94016125Y-83461190D01*
X94153719Y-83497287D01*
X94153721Y-83497287D01*
X94161069Y-83499215D01*
X94244380Y-83500524D01*
X94310898Y-83501569D01*
X94310901Y-83501569D01*
X94318495Y-83501688D01*
X94471968Y-83466538D01*
X94612625Y-83395795D01*
X94697349Y-83323434D01*
X94726574Y-83298474D01*
X94726576Y-83298471D01*
X94732348Y-83293542D01*
X94736777Y-83287378D01*
X94736781Y-83287374D01*
X94743379Y-83278192D01*
X94799374Y-83234545D01*
X94870077Y-83228101D01*
X94933041Y-83260904D01*
X94968275Y-83322541D01*
X94971700Y-83351720D01*
X94971700Y-83533860D01*
X94951698Y-83601981D01*
X94934795Y-83622955D01*
X94910141Y-83647609D01*
X94853983Y-83757825D01*
X94839500Y-83849265D01*
X94839501Y-84190734D01*
X94840276Y-84195627D01*
X94846324Y-84233815D01*
X94837224Y-84304226D01*
X94810970Y-84342620D01*
X94719516Y-84434074D01*
X94709876Y-84446501D01*
X94634604Y-84573780D01*
X94628357Y-84588216D01*
X94593381Y-84708605D01*
X94593421Y-84722705D01*
X94600691Y-84726000D01*
X96193558Y-84726000D01*
X96207088Y-84722027D01*
X96208620Y-84711369D01*
X96238113Y-84646788D01*
X96297839Y-84608404D01*
X96333338Y-84603300D01*
X96418501Y-84603300D01*
X96486622Y-84623302D01*
X96533115Y-84676958D01*
X96544501Y-84729300D01*
X96544501Y-85031518D01*
X96545276Y-85036411D01*
X96545276Y-85036412D01*
X96552491Y-85081966D01*
X96559354Y-85125304D01*
X96616950Y-85238342D01*
X96706658Y-85328050D01*
X96819696Y-85385646D01*
X96829485Y-85387196D01*
X96829487Y-85387197D01*
X96852212Y-85390796D01*
X96913481Y-85400500D01*
X96940372Y-85400500D01*
X97214604Y-85400499D01*
X97282723Y-85420501D01*
X97329216Y-85474156D01*
X97339321Y-85544430D01*
X97309828Y-85609011D01*
X97303698Y-85615594D01*
X96170408Y-86748884D01*
X96159319Y-86758739D01*
X96134256Y-86778497D01*
X96128902Y-86786244D01*
X96128900Y-86786246D01*
X96102592Y-86824312D01*
X96100321Y-86827491D01*
X96067208Y-86872322D01*
X96064934Y-86878797D01*
X96061030Y-86884446D01*
X96051525Y-86914501D01*
X96044233Y-86937559D01*
X96042979Y-86941316D01*
X96024534Y-86993838D01*
X96024264Y-87000698D01*
X96022195Y-87007242D01*
X96021700Y-87013531D01*
X96021700Y-87063496D01*
X96021603Y-87068442D01*
X96019478Y-87122530D01*
X96021289Y-87129360D01*
X96021700Y-87136832D01*
X96021700Y-89417104D01*
X96020827Y-89431914D01*
X96017076Y-89463605D01*
X96027082Y-89518395D01*
X96027728Y-89522274D01*
X96033971Y-89563796D01*
X96036010Y-89577360D01*
X96038982Y-89583549D01*
X96040215Y-89590301D01*
X96065900Y-89639747D01*
X96067650Y-89643250D01*
X96074838Y-89658218D01*
X96091760Y-89693460D01*
X96096420Y-89698501D01*
X96099584Y-89704592D01*
X96103681Y-89709389D01*
X96139012Y-89744720D01*
X96142441Y-89748286D01*
X96179184Y-89788034D01*
X96185294Y-89791583D01*
X96190867Y-89796575D01*
X98258882Y-91864590D01*
X98292908Y-91926902D01*
X98287843Y-91997717D01*
X98245296Y-92054553D01*
X98183393Y-92078948D01*
X98166949Y-92080734D01*
X98159550Y-92083508D01*
X98159549Y-92083508D01*
X98107837Y-92102894D01*
X98041088Y-92127917D01*
X98033907Y-92133299D01*
X98033905Y-92133300D01*
X97937831Y-92205303D01*
X97871324Y-92230150D01*
X97801942Y-92215097D01*
X97755121Y-92170778D01*
X97708528Y-92095483D01*
X97699494Y-92084085D01*
X97589920Y-91974702D01*
X97578509Y-91965690D01*
X97446709Y-91884447D01*
X97433532Y-91878303D01*
X97286157Y-91829421D01*
X97272790Y-91826555D01*
X97183300Y-91817386D01*
X97169376Y-91821475D01*
X97168171Y-91822865D01*
X97166500Y-91830548D01*
X97166500Y-93697000D01*
X97146498Y-93765121D01*
X97092842Y-93811614D01*
X97040500Y-93823000D01*
X96784500Y-93823000D01*
X96716379Y-93802998D01*
X96669886Y-93749342D01*
X96658500Y-93697000D01*
X96658500Y-93072115D01*
X96654025Y-93056876D01*
X96652635Y-93055671D01*
X96644952Y-93054000D01*
X95985115Y-93054000D01*
X95956269Y-93062470D01*
X95919435Y-93086142D01*
X95848439Y-93086142D01*
X95794842Y-93054341D01*
X95631574Y-92891073D01*
X95626498Y-92886519D01*
X95586618Y-92854453D01*
X95573268Y-92846231D01*
X95456163Y-92792987D01*
X95439108Y-92788000D01*
X95312838Y-92769917D01*
X95295060Y-92769917D01*
X95168790Y-92788000D01*
X95151735Y-92792987D01*
X95034626Y-92846233D01*
X95021282Y-92854450D01*
X94981405Y-92886513D01*
X94976327Y-92891069D01*
X94536115Y-93331281D01*
X94528501Y-93345225D01*
X94528632Y-93347058D01*
X94532883Y-93353673D01*
X95574064Y-94394854D01*
X95608090Y-94457166D01*
X95603025Y-94527981D01*
X95574064Y-94573044D01*
X94536116Y-95610992D01*
X94528502Y-95624936D01*
X94528633Y-95626769D01*
X94532884Y-95633384D01*
X94976323Y-96076823D01*
X94981407Y-96081385D01*
X95021280Y-96113445D01*
X95034630Y-96121667D01*
X95151735Y-96174911D01*
X95168790Y-96179898D01*
X95295060Y-96197981D01*
X95312838Y-96197981D01*
X95439108Y-96179898D01*
X95456164Y-96174910D01*
X95466782Y-96170083D01*
X95537073Y-96160098D01*
X95601604Y-96189700D01*
X95639887Y-96249491D01*
X95643521Y-96274918D01*
X95642510Y-96280000D01*
X95661953Y-96377741D01*
X95668849Y-96388061D01*
X95668849Y-96388062D01*
X95690923Y-96421098D01*
X95703341Y-96439683D01*
X96888063Y-97624405D01*
X96922089Y-97686717D01*
X96917024Y-97757532D01*
X96874477Y-97814368D01*
X96807957Y-97839179D01*
X96798968Y-97839500D01*
X96302085Y-97839500D01*
X96277504Y-97837079D01*
X96277171Y-97837013D01*
X96265000Y-97834592D01*
X96252831Y-97837012D01*
X96240419Y-97837012D01*
X96240419Y-97836776D01*
X96229798Y-97837523D01*
X95964215Y-97822608D01*
X95950183Y-97821028D01*
X95805167Y-97796388D01*
X95660155Y-97771749D01*
X95646380Y-97768605D01*
X95363696Y-97687165D01*
X95350359Y-97682498D01*
X95183656Y-97613448D01*
X95078570Y-97569920D01*
X95065847Y-97563793D01*
X94849694Y-97444329D01*
X94808370Y-97421490D01*
X94796407Y-97413973D01*
X94556489Y-97243743D01*
X94545441Y-97234933D01*
X94326086Y-97038905D01*
X94316095Y-97028914D01*
X94120067Y-96809559D01*
X94111257Y-96798511D01*
X93941027Y-96558593D01*
X93933510Y-96546630D01*
X93833441Y-96365569D01*
X93791207Y-96289153D01*
X93785078Y-96276426D01*
X93781518Y-96267830D01*
X93717570Y-96113445D01*
X93672502Y-96004641D01*
X93667835Y-95991304D01*
X93586395Y-95708620D01*
X93583251Y-95694845D01*
X93533973Y-95404822D01*
X93532391Y-95390781D01*
X93517477Y-95125202D01*
X93518224Y-95114581D01*
X93517988Y-95114581D01*
X93517988Y-95102169D01*
X93520408Y-95090000D01*
X93517921Y-95077496D01*
X93515500Y-95052915D01*
X93515500Y-94920192D01*
X93535502Y-94852071D01*
X93589158Y-94805578D01*
X93659432Y-94795474D01*
X93724012Y-94824968D01*
X93730595Y-94831097D01*
X94151281Y-95251783D01*
X94165225Y-95259397D01*
X94167058Y-95259266D01*
X94173673Y-95255015D01*
X94931927Y-94496761D01*
X94939541Y-94482817D01*
X94939410Y-94480984D01*
X94935159Y-94474369D01*
X94176906Y-93716116D01*
X94162962Y-93708502D01*
X94161129Y-93708633D01*
X94154514Y-93712884D01*
X93730595Y-94136803D01*
X93668283Y-94170829D01*
X93597468Y-94165764D01*
X93540632Y-94123217D01*
X93515821Y-94056697D01*
X93515500Y-94047708D01*
X93515500Y-92527885D01*
X95967000Y-92527885D01*
X95971475Y-92543124D01*
X95972865Y-92544329D01*
X95980548Y-92546000D01*
X96640385Y-92546000D01*
X96655624Y-92541525D01*
X96656829Y-92540135D01*
X96658500Y-92532452D01*
X96658500Y-91835115D01*
X96654025Y-91819876D01*
X96652635Y-91818671D01*
X96645679Y-91817158D01*
X96642218Y-91817337D01*
X96550979Y-91826804D01*
X96537583Y-91829697D01*
X96390313Y-91878830D01*
X96377134Y-91885004D01*
X96245486Y-91966470D01*
X96234085Y-91975506D01*
X96124702Y-92085080D01*
X96115690Y-92096491D01*
X96034447Y-92228291D01*
X96028303Y-92241468D01*
X95979421Y-92388843D01*
X95976555Y-92402210D01*
X95967328Y-92492270D01*
X95967000Y-92498685D01*
X95967000Y-92527885D01*
X93515500Y-92527885D01*
X93515500Y-85245871D01*
X94591776Y-85245871D01*
X94628357Y-85371784D01*
X94634604Y-85386220D01*
X94709876Y-85513499D01*
X94719516Y-85525926D01*
X94824074Y-85630484D01*
X94836501Y-85640124D01*
X94963780Y-85715396D01*
X94978216Y-85721643D01*
X95121641Y-85763312D01*
X95129609Y-85764768D01*
X95143031Y-85761948D01*
X95146000Y-85750487D01*
X95146000Y-85748424D01*
X95654000Y-85748424D01*
X95658344Y-85763219D01*
X95668775Y-85765063D01*
X95678359Y-85763312D01*
X95821784Y-85721643D01*
X95836220Y-85715396D01*
X95963499Y-85640124D01*
X95975926Y-85630484D01*
X96080484Y-85525926D01*
X96090124Y-85513499D01*
X96165396Y-85386220D01*
X96171643Y-85371784D01*
X96206619Y-85251395D01*
X96206579Y-85237295D01*
X96199309Y-85234000D01*
X95672115Y-85234000D01*
X95656876Y-85238475D01*
X95655671Y-85239865D01*
X95654000Y-85247548D01*
X95654000Y-85748424D01*
X95146000Y-85748424D01*
X95146000Y-85252115D01*
X95141525Y-85236876D01*
X95140135Y-85235671D01*
X95132452Y-85234000D01*
X94606442Y-85234000D01*
X94592911Y-85237973D01*
X94591776Y-85245871D01*
X93515500Y-85245871D01*
X93515500Y-83336726D01*
X93535502Y-83268605D01*
X93589158Y-83222112D01*
X93659432Y-83212008D01*
X93724012Y-83241502D01*
G37*
%TD.AperFunction*%
%TA.AperFunction,Conductor*%
G36*
X117643150Y-92797625D02*
G01*
X117695854Y-92845194D01*
X117714500Y-92911156D01*
X117714500Y-95052915D01*
X117712079Y-95077496D01*
X117709592Y-95090000D01*
X117712012Y-95102169D01*
X117712012Y-95114581D01*
X117711776Y-95114581D01*
X117712523Y-95125202D01*
X117697609Y-95390781D01*
X117696027Y-95404822D01*
X117646749Y-95694845D01*
X117643605Y-95708620D01*
X117562165Y-95991304D01*
X117557498Y-96004641D01*
X117512430Y-96113445D01*
X117448483Y-96267830D01*
X117444922Y-96276426D01*
X117438793Y-96289153D01*
X117396559Y-96365569D01*
X117296490Y-96546630D01*
X117288973Y-96558593D01*
X117118743Y-96798511D01*
X117109933Y-96809559D01*
X116913905Y-97028914D01*
X116903914Y-97038905D01*
X116684559Y-97234933D01*
X116673511Y-97243743D01*
X116433593Y-97413973D01*
X116421630Y-97421490D01*
X116380306Y-97444329D01*
X116164153Y-97563793D01*
X116151430Y-97569920D01*
X116046344Y-97613448D01*
X115879641Y-97682498D01*
X115866304Y-97687165D01*
X115583620Y-97768605D01*
X115569845Y-97771749D01*
X115424833Y-97796388D01*
X115279817Y-97821028D01*
X115265785Y-97822608D01*
X115000202Y-97837523D01*
X114989581Y-97836776D01*
X114989581Y-97837012D01*
X114977169Y-97837012D01*
X114965000Y-97834592D01*
X114952829Y-97837013D01*
X114952496Y-97837079D01*
X114927915Y-97839500D01*
X114171032Y-97839500D01*
X114102911Y-97819498D01*
X114056418Y-97765842D01*
X114046314Y-97695568D01*
X114075808Y-97630988D01*
X114081937Y-97624405D01*
X115266659Y-96439683D01*
X115279077Y-96421098D01*
X115301151Y-96388062D01*
X115301151Y-96388061D01*
X115308047Y-96377741D01*
X115327490Y-96280000D01*
X115327080Y-96277937D01*
X115345071Y-96216664D01*
X115398727Y-96170171D01*
X115469001Y-96160067D01*
X115503218Y-96170083D01*
X115513836Y-96174910D01*
X115530892Y-96179898D01*
X115657162Y-96197981D01*
X115674940Y-96197981D01*
X115801210Y-96179898D01*
X115818265Y-96174911D01*
X115935374Y-96121665D01*
X115948718Y-96113448D01*
X115988595Y-96081385D01*
X115993673Y-96076829D01*
X116433885Y-95636617D01*
X116441499Y-95622673D01*
X116441368Y-95620840D01*
X116437117Y-95614225D01*
X115395936Y-94573044D01*
X115361910Y-94510732D01*
X115363745Y-94485081D01*
X116030459Y-94485081D01*
X116030590Y-94486914D01*
X116034841Y-94493529D01*
X116793094Y-95251782D01*
X116807038Y-95259396D01*
X116808871Y-95259265D01*
X116815486Y-95255014D01*
X117258925Y-94811575D01*
X117263487Y-94806491D01*
X117295547Y-94766618D01*
X117303769Y-94753268D01*
X117357013Y-94636163D01*
X117362000Y-94619108D01*
X117380083Y-94492838D01*
X117380083Y-94475060D01*
X117362000Y-94348790D01*
X117357013Y-94331735D01*
X117303767Y-94214626D01*
X117295550Y-94201282D01*
X117263487Y-94161405D01*
X117258931Y-94156327D01*
X116818719Y-93716115D01*
X116804775Y-93708501D01*
X116802942Y-93708632D01*
X116796327Y-93712883D01*
X116038073Y-94471137D01*
X116030459Y-94485081D01*
X115363745Y-94485081D01*
X115366975Y-94439917D01*
X115395936Y-94394854D01*
X116433884Y-93356906D01*
X116441498Y-93342962D01*
X116441367Y-93341129D01*
X116437116Y-93334514D01*
X116227535Y-93124933D01*
X116193509Y-93062621D01*
X116198574Y-92991806D01*
X116241121Y-92934970D01*
X116307641Y-92910159D01*
X116366367Y-92920070D01*
X116508470Y-92981122D01*
X116705740Y-93025760D01*
X116711509Y-93025987D01*
X116711512Y-93025987D01*
X116787683Y-93028979D01*
X116907842Y-93033700D01*
X117005304Y-93019569D01*
X117102286Y-93005508D01*
X117102291Y-93005507D01*
X117108007Y-93004678D01*
X117113479Y-93002820D01*
X117113481Y-93002820D01*
X117294067Y-92941519D01*
X117294069Y-92941518D01*
X117299531Y-92939664D01*
X117466366Y-92846233D01*
X117470964Y-92843658D01*
X117470965Y-92843657D01*
X117476001Y-92840837D01*
X117480445Y-92837141D01*
X117507931Y-92814282D01*
X117573095Y-92786101D01*
X117643150Y-92797625D01*
G37*
%TD.AperFunction*%
%TA.AperFunction,Conductor*%
G36*
X115667532Y-86117342D02*
G01*
X115724368Y-86159889D01*
X115749179Y-86226409D01*
X115749500Y-86235398D01*
X115749500Y-87724674D01*
X115764034Y-87797740D01*
X115819399Y-87880601D01*
X115902260Y-87935966D01*
X115975326Y-87950500D01*
X116159184Y-87950500D01*
X116227305Y-87970502D01*
X116273798Y-88024158D01*
X116283902Y-88094432D01*
X116254408Y-88159012D01*
X116217365Y-88188263D01*
X116128458Y-88234545D01*
X116119738Y-88240036D01*
X115949433Y-88367905D01*
X115941726Y-88374748D01*
X115794590Y-88528717D01*
X115788104Y-88536727D01*
X115668098Y-88712649D01*
X115663000Y-88721623D01*
X115573338Y-88914783D01*
X115569775Y-88924470D01*
X115514389Y-89124183D01*
X115515912Y-89132607D01*
X115528292Y-89136000D01*
X116978000Y-89136000D01*
X117046121Y-89156002D01*
X117092614Y-89209658D01*
X117104000Y-89262000D01*
X117104000Y-89518000D01*
X117083998Y-89586121D01*
X117030342Y-89632614D01*
X116978000Y-89644000D01*
X115533225Y-89644000D01*
X115519694Y-89647973D01*
X115518257Y-89657966D01*
X115548565Y-89792446D01*
X115551645Y-89802275D01*
X115631770Y-89999603D01*
X115636413Y-90008794D01*
X115747694Y-90190388D01*
X115753777Y-90198699D01*
X115893213Y-90359667D01*
X115900580Y-90366883D01*
X116064434Y-90502916D01*
X116072881Y-90508831D01*
X116256756Y-90616279D01*
X116266042Y-90620729D01*
X116420802Y-90679825D01*
X116477305Y-90722812D01*
X116501598Y-90789523D01*
X116485968Y-90858778D01*
X116435377Y-90908588D01*
X116419465Y-90915747D01*
X116413616Y-90917905D01*
X116374193Y-90932449D01*
X116369232Y-90935401D01*
X116369231Y-90935401D01*
X116232348Y-91016838D01*
X116200371Y-91035862D01*
X116048305Y-91169220D01*
X115923089Y-91328057D01*
X115828914Y-91507053D01*
X115768937Y-91700213D01*
X115745164Y-91901069D01*
X115758392Y-92102894D01*
X115778054Y-92180312D01*
X115806578Y-92292626D01*
X115808178Y-92298928D01*
X115892856Y-92482607D01*
X115896186Y-92487319D01*
X115896189Y-92487324D01*
X115982804Y-92609882D01*
X116005785Y-92677057D01*
X115988800Y-92745992D01*
X115937243Y-92794801D01*
X115867482Y-92807988D01*
X115827753Y-92797302D01*
X115818262Y-92792986D01*
X115801210Y-92788000D01*
X115674940Y-92769917D01*
X115657162Y-92769917D01*
X115530892Y-92788000D01*
X115513837Y-92792987D01*
X115396728Y-92846233D01*
X115383384Y-92854450D01*
X115343507Y-92886513D01*
X115338429Y-92891069D01*
X115213678Y-93015820D01*
X115151366Y-93049846D01*
X115080551Y-93044781D01*
X115059453Y-93032263D01*
X115044452Y-93029000D01*
X114384615Y-93029000D01*
X114369376Y-93033475D01*
X114368171Y-93034865D01*
X114366500Y-93042548D01*
X114366500Y-93739886D01*
X114373382Y-93763325D01*
X114373382Y-93834321D01*
X114341582Y-93887917D01*
X114073166Y-94156334D01*
X114068621Y-94161400D01*
X114036555Y-94201280D01*
X114028333Y-94214630D01*
X113975089Y-94331735D01*
X113970102Y-94348790D01*
X113952019Y-94475060D01*
X113952019Y-94492838D01*
X113970102Y-94619108D01*
X113975090Y-94636164D01*
X113979917Y-94646782D01*
X113989902Y-94717073D01*
X113960300Y-94781604D01*
X113900509Y-94819887D01*
X113875082Y-94823521D01*
X113870000Y-94822510D01*
X113857829Y-94824931D01*
X113845418Y-94824931D01*
X113845418Y-94823338D01*
X113788790Y-94818273D01*
X113745823Y-94790115D01*
X112671302Y-93715594D01*
X112637276Y-93653282D01*
X112642341Y-93582467D01*
X112684888Y-93525631D01*
X112751408Y-93500820D01*
X112760394Y-93500499D01*
X112800664Y-93500499D01*
X112858051Y-93494266D01*
X112908817Y-93475235D01*
X112975504Y-93450235D01*
X112983912Y-93447083D01*
X113007738Y-93429227D01*
X113087169Y-93369697D01*
X113153676Y-93344850D01*
X113223058Y-93359903D01*
X113269879Y-93404222D01*
X113316472Y-93479517D01*
X113325506Y-93490915D01*
X113435080Y-93600298D01*
X113446491Y-93609310D01*
X113578291Y-93690553D01*
X113591468Y-93696697D01*
X113738843Y-93745579D01*
X113752210Y-93748445D01*
X113841700Y-93757614D01*
X113855624Y-93753525D01*
X113856829Y-93752135D01*
X113858500Y-93744452D01*
X113858500Y-92502885D01*
X114366500Y-92502885D01*
X114370975Y-92518124D01*
X114372365Y-92519329D01*
X114380048Y-92521000D01*
X115039885Y-92521000D01*
X115055124Y-92516525D01*
X115056329Y-92515135D01*
X115058000Y-92507452D01*
X115058000Y-92473734D01*
X115057663Y-92467218D01*
X115048196Y-92375979D01*
X115045303Y-92362583D01*
X114996170Y-92215313D01*
X114989996Y-92202134D01*
X114908530Y-92070486D01*
X114899494Y-92059085D01*
X114789920Y-91949702D01*
X114778509Y-91940690D01*
X114646709Y-91859447D01*
X114633532Y-91853303D01*
X114486157Y-91804421D01*
X114472790Y-91801555D01*
X114383300Y-91792386D01*
X114369376Y-91796475D01*
X114368171Y-91797865D01*
X114366500Y-91805548D01*
X114366500Y-92502885D01*
X113858500Y-92502885D01*
X113858500Y-91810115D01*
X113854025Y-91794876D01*
X113852635Y-91793671D01*
X113845679Y-91792158D01*
X113842218Y-91792337D01*
X113750979Y-91801804D01*
X113737583Y-91804697D01*
X113590313Y-91853830D01*
X113577134Y-91860004D01*
X113445486Y-91941470D01*
X113434085Y-91950506D01*
X113324702Y-92060080D01*
X113315690Y-92071491D01*
X113270007Y-92145602D01*
X113217234Y-92193096D01*
X113147163Y-92204519D01*
X113087182Y-92180312D01*
X112991100Y-92108303D01*
X112991095Y-92108300D01*
X112983912Y-92102917D01*
X112964082Y-92095483D01*
X112865446Y-92058506D01*
X112865444Y-92058506D01*
X112858051Y-92055734D01*
X112850203Y-92054881D01*
X112850201Y-92054881D01*
X112804062Y-92049869D01*
X112800665Y-92049500D01*
X112537616Y-92049500D01*
X112274336Y-92049501D01*
X112216949Y-92055734D01*
X112209550Y-92058508D01*
X112209549Y-92058508D01*
X112110918Y-92095483D01*
X112091088Y-92102917D01*
X112083907Y-92108299D01*
X112083905Y-92108300D01*
X112026978Y-92150964D01*
X111983528Y-92183528D01*
X111978150Y-92190704D01*
X111937409Y-92245065D01*
X111880549Y-92287580D01*
X111836582Y-92295500D01*
X111748405Y-92295500D01*
X111693072Y-92282700D01*
X111673314Y-92273042D01*
X111606656Y-92240459D01*
X111574221Y-92235727D01*
X111536061Y-92230160D01*
X111536057Y-92230160D01*
X111531535Y-92229500D01*
X111360654Y-92229500D01*
X111188466Y-92229501D01*
X111112691Y-92240654D01*
X111060791Y-92266136D01*
X111006837Y-92292626D01*
X111006836Y-92292627D01*
X110997489Y-92297216D01*
X110990131Y-92304586D01*
X110990132Y-92304586D01*
X110939196Y-92355610D01*
X110876913Y-92389689D01*
X110806093Y-92384686D01*
X110761005Y-92355765D01*
X110709327Y-92304177D01*
X110709326Y-92304177D01*
X110701956Y-92296819D01*
X110586656Y-92240459D01*
X110554221Y-92235727D01*
X110516061Y-92230160D01*
X110516057Y-92230160D01*
X110511535Y-92229500D01*
X110504488Y-92229500D01*
X110503676Y-92229261D01*
X110502415Y-92229170D01*
X110502435Y-92228897D01*
X110436367Y-92209498D01*
X110389874Y-92155842D01*
X110379770Y-92085568D01*
X110409264Y-92020988D01*
X110447874Y-91990935D01*
X110450151Y-91989790D01*
X110537625Y-91945795D01*
X110566070Y-91921501D01*
X110651574Y-91848474D01*
X110651576Y-91848471D01*
X110657348Y-91843542D01*
X110749224Y-91715683D01*
X110807950Y-91569598D01*
X110818884Y-91492773D01*
X110829553Y-91417807D01*
X110829553Y-91417804D01*
X110830134Y-91413723D01*
X110830278Y-91400000D01*
X110811363Y-91243694D01*
X110765208Y-91121548D01*
X110759840Y-91050756D01*
X110793598Y-90988298D01*
X110828499Y-90963444D01*
X110829733Y-90962851D01*
X110834733Y-90960802D01*
X110840301Y-90959785D01*
X110889747Y-90934100D01*
X110893250Y-90932350D01*
X110934966Y-90912319D01*
X110934968Y-90912318D01*
X110943460Y-90908240D01*
X110948501Y-90903580D01*
X110954592Y-90900416D01*
X110959389Y-90896319D01*
X110994720Y-90860988D01*
X110998286Y-90857559D01*
X111023171Y-90834555D01*
X111038034Y-90820816D01*
X111041583Y-90814706D01*
X111046575Y-90809133D01*
X111662703Y-90193005D01*
X111725015Y-90158979D01*
X111751798Y-90156100D01*
X113789280Y-90156100D01*
X113804090Y-90156973D01*
X113835781Y-90160724D01*
X113890581Y-90150716D01*
X113894434Y-90150075D01*
X113919125Y-90146362D01*
X113940226Y-90143190D01*
X113940227Y-90143190D01*
X113949536Y-90141790D01*
X113955725Y-90138818D01*
X113962477Y-90137585D01*
X114011923Y-90111900D01*
X114015426Y-90110150D01*
X114057142Y-90090119D01*
X114057144Y-90090118D01*
X114065636Y-90086040D01*
X114070677Y-90081380D01*
X114076768Y-90078216D01*
X114081565Y-90074119D01*
X114116896Y-90038788D01*
X114120462Y-90035359D01*
X114134367Y-90022505D01*
X114160210Y-89998616D01*
X114163759Y-89992506D01*
X114168751Y-89986933D01*
X114699592Y-89456092D01*
X114710681Y-89446237D01*
X114728347Y-89432310D01*
X114735744Y-89426479D01*
X114742224Y-89417104D01*
X114766035Y-89382651D01*
X114767417Y-89380652D01*
X114769679Y-89377485D01*
X114802792Y-89332654D01*
X114805066Y-89326179D01*
X114808970Y-89320530D01*
X114825767Y-89267417D01*
X114827021Y-89263660D01*
X114842346Y-89220022D01*
X114845466Y-89211138D01*
X114845736Y-89204278D01*
X114847805Y-89197734D01*
X114848300Y-89191445D01*
X114848300Y-89141480D01*
X114848397Y-89136534D01*
X114850152Y-89091856D01*
X114850522Y-89082446D01*
X114848711Y-89075616D01*
X114848300Y-89068144D01*
X114848300Y-86884598D01*
X114868302Y-86816477D01*
X114885205Y-86795503D01*
X115534405Y-86146303D01*
X115596717Y-86112277D01*
X115667532Y-86117342D01*
G37*
%TD.AperFunction*%
%TA.AperFunction,Conductor*%
G36*
X98207532Y-87202342D02*
G01*
X98264368Y-87244889D01*
X98289179Y-87311409D01*
X98289500Y-87320398D01*
X98289501Y-87468792D01*
X98289501Y-87615734D01*
X98290276Y-87620627D01*
X98296324Y-87658815D01*
X98287224Y-87729226D01*
X98260970Y-87767620D01*
X98169516Y-87859074D01*
X98159876Y-87871501D01*
X98084604Y-87998780D01*
X98078357Y-88013216D01*
X98043381Y-88133605D01*
X98043421Y-88147705D01*
X98050691Y-88151000D01*
X98978000Y-88151000D01*
X99046121Y-88171002D01*
X99092614Y-88224658D01*
X99104000Y-88277000D01*
X99104000Y-89173424D01*
X99108344Y-89188219D01*
X99118775Y-89190063D01*
X99128356Y-89188313D01*
X99174622Y-89174871D01*
X99245618Y-89175073D01*
X99305235Y-89213627D01*
X99329300Y-89255993D01*
X99379380Y-89406105D01*
X99385555Y-89419285D01*
X99440221Y-89507625D01*
X99459059Y-89576077D01*
X99437898Y-89643846D01*
X99383457Y-89689418D01*
X99332144Y-89696765D01*
X99332128Y-89699889D01*
X99174684Y-89699065D01*
X99167305Y-89700837D01*
X99167301Y-89700837D01*
X99028967Y-89734048D01*
X99028963Y-89734049D01*
X99021588Y-89735820D01*
X98881679Y-89808032D01*
X98875957Y-89813024D01*
X98875955Y-89813025D01*
X98768759Y-89906538D01*
X98768756Y-89906541D01*
X98763034Y-89911533D01*
X98672501Y-90040348D01*
X98672246Y-90041003D01*
X98624487Y-90089492D01*
X98555229Y-90105110D01*
X98488523Y-90080804D01*
X98474169Y-90068461D01*
X97470805Y-89065097D01*
X97436779Y-89002785D01*
X97433900Y-88976002D01*
X97433900Y-88670871D01*
X98041776Y-88670871D01*
X98078357Y-88796784D01*
X98084604Y-88811220D01*
X98159876Y-88938499D01*
X98169516Y-88950926D01*
X98274074Y-89055484D01*
X98286501Y-89065124D01*
X98413780Y-89140396D01*
X98428216Y-89146643D01*
X98571641Y-89188312D01*
X98579609Y-89189768D01*
X98593031Y-89186948D01*
X98596000Y-89175487D01*
X98596000Y-88677115D01*
X98591525Y-88661876D01*
X98590135Y-88660671D01*
X98582452Y-88659000D01*
X98056442Y-88659000D01*
X98042911Y-88662973D01*
X98041776Y-88670871D01*
X97433900Y-88670871D01*
X97433900Y-87923998D01*
X97453902Y-87855877D01*
X97470805Y-87834903D01*
X98074405Y-87231303D01*
X98136717Y-87197277D01*
X98207532Y-87202342D01*
G37*
%TD.AperFunction*%
%TA.AperFunction,Conductor*%
G36*
X95066712Y-71749502D02*
G01*
X95106058Y-71791715D01*
X95106474Y-71792824D01*
X95192454Y-71907546D01*
X95199635Y-71912928D01*
X95299994Y-71988144D01*
X95299997Y-71988146D01*
X95307176Y-71993526D01*
X95394519Y-72026269D01*
X95434025Y-72041079D01*
X95434027Y-72041079D01*
X95441420Y-72043851D01*
X95449270Y-72044704D01*
X95449271Y-72044704D01*
X95499217Y-72050130D01*
X95502623Y-72050500D01*
X96199897Y-72050500D01*
X96897376Y-72050499D01*
X96900770Y-72050130D01*
X96900776Y-72050130D01*
X96950722Y-72044705D01*
X96950726Y-72044704D01*
X96958580Y-72043851D01*
X97092824Y-71993526D01*
X97100003Y-71988146D01*
X97100006Y-71988144D01*
X97200365Y-71912928D01*
X97207546Y-71907546D01*
X97293526Y-71792824D01*
X97293804Y-71792081D01*
X97341150Y-71744844D01*
X97401409Y-71729500D01*
X97678500Y-71729500D01*
X97746621Y-71749502D01*
X97793114Y-71803158D01*
X97804500Y-71855500D01*
X97804500Y-73100674D01*
X97819034Y-73173740D01*
X97874399Y-73256601D01*
X97884714Y-73263493D01*
X97946943Y-73305073D01*
X97946945Y-73305074D01*
X97957260Y-73311966D01*
X97967679Y-73314039D01*
X98021998Y-73357810D01*
X98044500Y-73429672D01*
X98044500Y-73517602D01*
X98024498Y-73585723D01*
X98007595Y-73606697D01*
X97814538Y-73799754D01*
X97752226Y-73833780D01*
X97681411Y-73828715D01*
X97624575Y-73786168D01*
X97600116Y-73723662D01*
X97597743Y-73700794D01*
X97594851Y-73687400D01*
X97543412Y-73533216D01*
X97537239Y-73520038D01*
X97451937Y-73382193D01*
X97442901Y-73370792D01*
X97328171Y-73256261D01*
X97316760Y-73247249D01*
X97178757Y-73162184D01*
X97165576Y-73156037D01*
X97011290Y-73104862D01*
X96997914Y-73101995D01*
X96903562Y-73092328D01*
X96897145Y-73092000D01*
X96472115Y-73092000D01*
X96456876Y-73096475D01*
X96455671Y-73097865D01*
X96454000Y-73105548D01*
X96454000Y-75239884D01*
X96458475Y-75255123D01*
X96459865Y-75256328D01*
X96467548Y-75257999D01*
X96897095Y-75257999D01*
X96903614Y-75257662D01*
X96999206Y-75247743D01*
X97012600Y-75244851D01*
X97166792Y-75193409D01*
X97186586Y-75184137D01*
X97187197Y-75185442D01*
X97247849Y-75168751D01*
X97315619Y-75189912D01*
X97361190Y-75244353D01*
X97371700Y-75294733D01*
X97371700Y-75635700D01*
X97351698Y-75703821D01*
X97298042Y-75750314D01*
X97245700Y-75761700D01*
X97084225Y-75761700D01*
X97014532Y-75739390D01*
X97011956Y-75736819D01*
X96896656Y-75680459D01*
X96864221Y-75675727D01*
X96826061Y-75670160D01*
X96826057Y-75670160D01*
X96821535Y-75669500D01*
X96600845Y-75669500D01*
X96378466Y-75669501D01*
X96302691Y-75680654D01*
X96187489Y-75737216D01*
X96186534Y-75735271D01*
X96132395Y-75754164D01*
X96063357Y-75737601D01*
X96017626Y-75692463D01*
X96001141Y-75664589D01*
X95991499Y-75652159D01*
X95887841Y-75548501D01*
X95875408Y-75538857D01*
X95796944Y-75492453D01*
X95748492Y-75440560D01*
X95735787Y-75370710D01*
X95762863Y-75305079D01*
X95821123Y-75264505D01*
X95861084Y-75258000D01*
X95927885Y-75258000D01*
X95943124Y-75253525D01*
X95944329Y-75252135D01*
X95946000Y-75244452D01*
X95946000Y-74447115D01*
X95941525Y-74431876D01*
X95940135Y-74430671D01*
X95932452Y-74429000D01*
X94810116Y-74429000D01*
X94794877Y-74433475D01*
X94793672Y-74434865D01*
X94792001Y-74442548D01*
X94792001Y-74547095D01*
X94792338Y-74553614D01*
X94802257Y-74649206D01*
X94805149Y-74662600D01*
X94856588Y-74816784D01*
X94862761Y-74829962D01*
X94948063Y-74967807D01*
X94957099Y-74979208D01*
X95071829Y-75093739D01*
X95083240Y-75102751D01*
X95206518Y-75178740D01*
X95254011Y-75231512D01*
X95265435Y-75301583D01*
X95237161Y-75366707D01*
X95178167Y-75406207D01*
X95140402Y-75412000D01*
X95052527Y-75412000D01*
X95047597Y-75412193D01*
X95020032Y-75414363D01*
X95007428Y-75416665D01*
X94865217Y-75457981D01*
X94850778Y-75464230D01*
X94724595Y-75538854D01*
X94712159Y-75548501D01*
X94608501Y-75652159D01*
X94598854Y-75664595D01*
X94524230Y-75790778D01*
X94517981Y-75805217D01*
X94485039Y-75918605D01*
X94485079Y-75932705D01*
X94492349Y-75936000D01*
X95428000Y-75936000D01*
X95496121Y-75956002D01*
X95542614Y-76009658D01*
X95554000Y-76062000D01*
X95554000Y-76318000D01*
X95533998Y-76386121D01*
X95480342Y-76432614D01*
X95428000Y-76444000D01*
X94498100Y-76444000D01*
X94484569Y-76447973D01*
X94483434Y-76455871D01*
X94517981Y-76574783D01*
X94524230Y-76589222D01*
X94598854Y-76715405D01*
X94608501Y-76727841D01*
X94712393Y-76831733D01*
X94746419Y-76894045D01*
X94743739Y-76956634D01*
X94740459Y-76963344D01*
X94739048Y-76973017D01*
X94739047Y-76973020D01*
X94730160Y-77033939D01*
X94729500Y-77038465D01*
X94729501Y-77381534D01*
X94740654Y-77457309D01*
X94797216Y-77572511D01*
X94804586Y-77579868D01*
X94834718Y-77609948D01*
X94868797Y-77672231D01*
X94871700Y-77699121D01*
X94871700Y-78033860D01*
X94851698Y-78101981D01*
X94834795Y-78122955D01*
X94810141Y-78147609D01*
X94753983Y-78257825D01*
X94739500Y-78349265D01*
X94739501Y-78690734D01*
X94740276Y-78695627D01*
X94746324Y-78733815D01*
X94737224Y-78804226D01*
X94710970Y-78842620D01*
X94619516Y-78934074D01*
X94609876Y-78946501D01*
X94534604Y-79073780D01*
X94528357Y-79088216D01*
X94493381Y-79208605D01*
X94493421Y-79222705D01*
X94500691Y-79226000D01*
X96093558Y-79226000D01*
X96107089Y-79222027D01*
X96108224Y-79214129D01*
X96071643Y-79088216D01*
X96065396Y-79073780D01*
X95990124Y-78946501D01*
X95980484Y-78934074D01*
X95889031Y-78842621D01*
X95855005Y-78780309D01*
X95853677Y-78733816D01*
X95859725Y-78695628D01*
X95859725Y-78695627D01*
X95860500Y-78690735D01*
X95860500Y-78678358D01*
X95880502Y-78610237D01*
X95934158Y-78563744D01*
X96004432Y-78553640D01*
X96018473Y-78556482D01*
X96078719Y-78572287D01*
X96078721Y-78572287D01*
X96086069Y-78574215D01*
X96169380Y-78575524D01*
X96235898Y-78576569D01*
X96235901Y-78576569D01*
X96243495Y-78576688D01*
X96390370Y-78543049D01*
X96461237Y-78547338D01*
X96518535Y-78589260D01*
X96544073Y-78655505D01*
X96544500Y-78665869D01*
X96544501Y-79889838D01*
X96524499Y-79957959D01*
X96507596Y-79978933D01*
X96477934Y-80008595D01*
X96415622Y-80042621D01*
X96388839Y-80045500D01*
X96188286Y-80045500D01*
X96120165Y-80025498D01*
X96073672Y-79971842D01*
X96063568Y-79901568D01*
X96069807Y-79879506D01*
X96069431Y-79879397D01*
X96106619Y-79751395D01*
X96106579Y-79737295D01*
X96099309Y-79734000D01*
X94506442Y-79734000D01*
X94492911Y-79737973D01*
X94491776Y-79745871D01*
X94528357Y-79871784D01*
X94534604Y-79886220D01*
X94609876Y-80013499D01*
X94619516Y-80025926D01*
X94724074Y-80130484D01*
X94736506Y-80140128D01*
X94762639Y-80155583D01*
X94811092Y-80207476D01*
X94824500Y-80264036D01*
X94824500Y-80360628D01*
X94819217Y-80396731D01*
X94799837Y-80461533D01*
X94795910Y-80474663D01*
X94795855Y-80483637D01*
X94795855Y-80483639D01*
X94795745Y-80501721D01*
X94795028Y-80619173D01*
X94797495Y-80627804D01*
X94797495Y-80627806D01*
X94819649Y-80705321D01*
X94824500Y-80739945D01*
X94824500Y-80874674D01*
X94839034Y-80947740D01*
X94845928Y-80958057D01*
X94845928Y-80958058D01*
X94847906Y-80961018D01*
X94894399Y-81030601D01*
X94977260Y-81085966D01*
X95050326Y-81100500D01*
X95549674Y-81100500D01*
X95622740Y-81085966D01*
X95638055Y-81075733D01*
X95708055Y-81054500D01*
X96579376Y-81054500D01*
X96591381Y-81055841D01*
X96591421Y-81055345D01*
X96600368Y-81056065D01*
X96609124Y-81058046D01*
X96662382Y-81054742D01*
X96670184Y-81054500D01*
X96686226Y-81054500D01*
X96690657Y-81053865D01*
X96690662Y-81053865D01*
X96694687Y-81053288D01*
X96696457Y-81053035D01*
X96706514Y-81052004D01*
X96728976Y-81050611D01*
X96744400Y-81049654D01*
X96744402Y-81049654D01*
X96753359Y-81049098D01*
X96761799Y-81046051D01*
X96765089Y-81045370D01*
X96780938Y-81041418D01*
X96784168Y-81040473D01*
X96793052Y-81039201D01*
X96835763Y-81019782D01*
X96845128Y-81015970D01*
X96880837Y-81003078D01*
X96880840Y-81003076D01*
X96889284Y-81000028D01*
X96896533Y-80994732D01*
X96899490Y-80993160D01*
X96913614Y-80984907D01*
X96916437Y-80983102D01*
X96924605Y-80979388D01*
X96931402Y-80973531D01*
X96931404Y-80973530D01*
X96960153Y-80948757D01*
X96968064Y-80942475D01*
X96978944Y-80934527D01*
X96989806Y-80923665D01*
X96996653Y-80917307D01*
X97016256Y-80900416D01*
X97034082Y-80885056D01*
X97038966Y-80877521D01*
X97044699Y-80870949D01*
X97053926Y-80859545D01*
X97401794Y-80511677D01*
X97411234Y-80504135D01*
X97410911Y-80503755D01*
X97417747Y-80497937D01*
X97425339Y-80493147D01*
X97441664Y-80474663D01*
X97460671Y-80453141D01*
X97466017Y-80447454D01*
X97477351Y-80436120D01*
X97483553Y-80427845D01*
X97489940Y-80420000D01*
X97515060Y-80391557D01*
X97521001Y-80384830D01*
X97524814Y-80376708D01*
X97526654Y-80373907D01*
X97535063Y-80359912D01*
X97536685Y-80356949D01*
X97542070Y-80349764D01*
X97545223Y-80341354D01*
X97552664Y-80321507D01*
X97567538Y-80293854D01*
X97573050Y-80288342D01*
X97578307Y-80278026D01*
X97614253Y-80207476D01*
X97617733Y-80200647D01*
X97666481Y-80149032D01*
X97735396Y-80131966D01*
X97802598Y-80154867D01*
X97842267Y-80200647D01*
X97886950Y-80288342D01*
X97976658Y-80378050D01*
X98089696Y-80435646D01*
X98099485Y-80437196D01*
X98099487Y-80437197D01*
X98126849Y-80441530D01*
X98183481Y-80450500D01*
X98364963Y-80450500D01*
X98546518Y-80450499D01*
X98551412Y-80449724D01*
X98630506Y-80437198D01*
X98630508Y-80437197D01*
X98640304Y-80435646D01*
X98655615Y-80427845D01*
X98671895Y-80419549D01*
X98753342Y-80378050D01*
X98843050Y-80288342D01*
X98887733Y-80200647D01*
X98936481Y-80149032D01*
X99005396Y-80131966D01*
X99072598Y-80154867D01*
X99112267Y-80200647D01*
X99156950Y-80288342D01*
X99246658Y-80378050D01*
X99359696Y-80435646D01*
X99369485Y-80437196D01*
X99369487Y-80437197D01*
X99396849Y-80441530D01*
X99453481Y-80450500D01*
X99509839Y-80450500D01*
X99577960Y-80470502D01*
X99598934Y-80487405D01*
X100146547Y-81035018D01*
X100180573Y-81097330D01*
X100182691Y-81110286D01*
X100187035Y-81149633D01*
X100241143Y-81297490D01*
X100245380Y-81303796D01*
X100245382Y-81303799D01*
X100272089Y-81343542D01*
X100328958Y-81428172D01*
X100350300Y-81447592D01*
X100431927Y-81521866D01*
X100445410Y-81534135D01*
X100493331Y-81560154D01*
X100577099Y-81605637D01*
X100577101Y-81605638D01*
X100583776Y-81609262D01*
X100591125Y-81611190D01*
X100728719Y-81647287D01*
X100728721Y-81647287D01*
X100736069Y-81649215D01*
X100819380Y-81650524D01*
X100885898Y-81651569D01*
X100885901Y-81651569D01*
X100893495Y-81651688D01*
X101046968Y-81616538D01*
X101187625Y-81545795D01*
X101252545Y-81490348D01*
X101301574Y-81448474D01*
X101301576Y-81448471D01*
X101307348Y-81443542D01*
X101368377Y-81358611D01*
X101424372Y-81314963D01*
X101495075Y-81308517D01*
X101558040Y-81341320D01*
X101593274Y-81402956D01*
X101596700Y-81432137D01*
X101596700Y-81592104D01*
X101595827Y-81606914D01*
X101592076Y-81638605D01*
X101602084Y-81693405D01*
X101602725Y-81697258D01*
X101611010Y-81752360D01*
X101613982Y-81758549D01*
X101615215Y-81765301D01*
X101640900Y-81814747D01*
X101642650Y-81818250D01*
X101666760Y-81868460D01*
X101671420Y-81873501D01*
X101674584Y-81879592D01*
X101678681Y-81884389D01*
X101714012Y-81919720D01*
X101717441Y-81923286D01*
X101754184Y-81963034D01*
X101760294Y-81966583D01*
X101765867Y-81971575D01*
X102723884Y-82929592D01*
X102733739Y-82940681D01*
X102753497Y-82965744D01*
X102761244Y-82971098D01*
X102761246Y-82971100D01*
X102799312Y-82997408D01*
X102802491Y-82999679D01*
X102847322Y-83032792D01*
X102853797Y-83035066D01*
X102859446Y-83038970D01*
X102892316Y-83049365D01*
X102912559Y-83055767D01*
X102916316Y-83057021D01*
X102960170Y-83072422D01*
X103017815Y-83113866D01*
X103022308Y-83120087D01*
X103022505Y-83120284D01*
X103029399Y-83130601D01*
X103039714Y-83137493D01*
X103039716Y-83137495D01*
X103050700Y-83144834D01*
X103096229Y-83199310D01*
X103106700Y-83249600D01*
X103106700Y-83533860D01*
X103086698Y-83601981D01*
X103069795Y-83622955D01*
X103045141Y-83647609D01*
X102988983Y-83757825D01*
X102974500Y-83849265D01*
X102974501Y-84190734D01*
X102975276Y-84195627D01*
X102981324Y-84233815D01*
X102972224Y-84304226D01*
X102945970Y-84342620D01*
X102854516Y-84434074D01*
X102844876Y-84446501D01*
X102769604Y-84573780D01*
X102763357Y-84588216D01*
X102728381Y-84708605D01*
X102728421Y-84722705D01*
X102735691Y-84726000D01*
X104328558Y-84726000D01*
X104342088Y-84722027D01*
X104343620Y-84711369D01*
X104373113Y-84646788D01*
X104432839Y-84608404D01*
X104468338Y-84603300D01*
X104553501Y-84603300D01*
X104621622Y-84623302D01*
X104668115Y-84676958D01*
X104679501Y-84729300D01*
X104679501Y-85031518D01*
X104680276Y-85036411D01*
X104680276Y-85036412D01*
X104687491Y-85081966D01*
X104694354Y-85125304D01*
X104751950Y-85238342D01*
X104841658Y-85328050D01*
X104954696Y-85385646D01*
X104964485Y-85387196D01*
X104964487Y-85387197D01*
X104987212Y-85390796D01*
X105048481Y-85400500D01*
X105229963Y-85400500D01*
X105411518Y-85400499D01*
X105482724Y-85389222D01*
X105553134Y-85398322D01*
X105607447Y-85444045D01*
X105628419Y-85511873D01*
X105609391Y-85580272D01*
X105591528Y-85602765D01*
X104715992Y-86478300D01*
X103874841Y-87319451D01*
X103812529Y-87353477D01*
X103741713Y-87348412D01*
X103684878Y-87305865D01*
X103672643Y-87285887D01*
X103668522Y-87277494D01*
X103663932Y-87268145D01*
X103597590Y-87201919D01*
X103588721Y-87193065D01*
X103588720Y-87193065D01*
X103581350Y-87185707D01*
X103476518Y-87134464D01*
X103433889Y-87128245D01*
X103412744Y-87125160D01*
X103412740Y-87125160D01*
X103408218Y-87124500D01*
X102066782Y-87124500D01*
X102062232Y-87125170D01*
X102062229Y-87125170D01*
X102007574Y-87133216D01*
X102007573Y-87133216D01*
X101997888Y-87134642D01*
X101973329Y-87146700D01*
X101902493Y-87181478D01*
X101902491Y-87181479D01*
X101893145Y-87186068D01*
X101885787Y-87193438D01*
X101885788Y-87193438D01*
X101834427Y-87244889D01*
X101810707Y-87268650D01*
X101759464Y-87373482D01*
X101749500Y-87441782D01*
X101749500Y-87639548D01*
X101729498Y-87707669D01*
X101675842Y-87754162D01*
X101605568Y-87764266D01*
X101547953Y-87739278D01*
X101545816Y-87736966D01*
X101539702Y-87733415D01*
X101534133Y-87728425D01*
X101062404Y-87256696D01*
X101028378Y-87194384D01*
X101025499Y-87167601D01*
X101025499Y-87054986D01*
X101019184Y-86996843D01*
X100971372Y-86869305D01*
X100889687Y-86760313D01*
X100881455Y-86754143D01*
X100855844Y-86734949D01*
X100813329Y-86678090D01*
X100808303Y-86607271D01*
X100844517Y-86542878D01*
X100878554Y-86510465D01*
X100894934Y-86485812D01*
X100925659Y-86439567D01*
X100971731Y-86370223D01*
X101031521Y-86212823D01*
X101054955Y-86046088D01*
X101055249Y-86025000D01*
X101051675Y-85993138D01*
X101037266Y-85864672D01*
X101037265Y-85864669D01*
X101036481Y-85857676D01*
X101024778Y-85824070D01*
X101021264Y-85753162D01*
X101056644Y-85691609D01*
X101119686Y-85658956D01*
X101133888Y-85657021D01*
X101152336Y-85655570D01*
X101164931Y-85653270D01*
X101310790Y-85610893D01*
X101325221Y-85604648D01*
X101454678Y-85528089D01*
X101467104Y-85518449D01*
X101573449Y-85412104D01*
X101583089Y-85399678D01*
X101659648Y-85270221D01*
X101665893Y-85255790D01*
X101668775Y-85245871D01*
X102726776Y-85245871D01*
X102763357Y-85371784D01*
X102769604Y-85386220D01*
X102844876Y-85513499D01*
X102854516Y-85525926D01*
X102959074Y-85630484D01*
X102971501Y-85640124D01*
X103098780Y-85715396D01*
X103113216Y-85721643D01*
X103256641Y-85763312D01*
X103264609Y-85764768D01*
X103278031Y-85761948D01*
X103281000Y-85750487D01*
X103281000Y-85748424D01*
X103789000Y-85748424D01*
X103793344Y-85763219D01*
X103803775Y-85765063D01*
X103813359Y-85763312D01*
X103956784Y-85721643D01*
X103971220Y-85715396D01*
X104098499Y-85640124D01*
X104110926Y-85630484D01*
X104215484Y-85525926D01*
X104225124Y-85513499D01*
X104300396Y-85386220D01*
X104306643Y-85371784D01*
X104341619Y-85251395D01*
X104341579Y-85237295D01*
X104334309Y-85234000D01*
X103807115Y-85234000D01*
X103791876Y-85238475D01*
X103790671Y-85239865D01*
X103789000Y-85247548D01*
X103789000Y-85748424D01*
X103281000Y-85748424D01*
X103281000Y-85252115D01*
X103276525Y-85236876D01*
X103275135Y-85235671D01*
X103267452Y-85234000D01*
X102741442Y-85234000D01*
X102727911Y-85237973D01*
X102726776Y-85245871D01*
X101668775Y-85245871D01*
X101708269Y-85109935D01*
X101710570Y-85097333D01*
X101712807Y-85068916D01*
X101713000Y-85063986D01*
X101713000Y-84447115D01*
X101708525Y-84431876D01*
X101707135Y-84430671D01*
X101699452Y-84429000D01*
X100777000Y-84429000D01*
X100708879Y-84408998D01*
X100662386Y-84355342D01*
X100651000Y-84303000D01*
X100651000Y-83902885D01*
X101159000Y-83902885D01*
X101163475Y-83918124D01*
X101164865Y-83919329D01*
X101172548Y-83921000D01*
X101694884Y-83921000D01*
X101710123Y-83916525D01*
X101711328Y-83915135D01*
X101712999Y-83907452D01*
X101712999Y-83286017D01*
X101712805Y-83281080D01*
X101710570Y-83252664D01*
X101708270Y-83240069D01*
X101665893Y-83094210D01*
X101659648Y-83079779D01*
X101583089Y-82950322D01*
X101573449Y-82937896D01*
X101467104Y-82831551D01*
X101454678Y-82821911D01*
X101325221Y-82745352D01*
X101310790Y-82739107D01*
X101176395Y-82700061D01*
X101162294Y-82700101D01*
X101159000Y-82707370D01*
X101159000Y-83902885D01*
X100651000Y-83902885D01*
X100651000Y-82713122D01*
X100647027Y-82699591D01*
X100639129Y-82698456D01*
X100499210Y-82739107D01*
X100484779Y-82745352D01*
X100355322Y-82821911D01*
X100342896Y-82831551D01*
X100236551Y-82937896D01*
X100226911Y-82950323D01*
X100205796Y-82986027D01*
X100153903Y-83034480D01*
X100084053Y-83047185D01*
X100026421Y-83025029D01*
X100023342Y-83021950D01*
X100014508Y-83017449D01*
X100014507Y-83017448D01*
X99952839Y-82986027D01*
X99910304Y-82964354D01*
X99900515Y-82962804D01*
X99900513Y-82962803D01*
X99872377Y-82958347D01*
X99816519Y-82949500D01*
X99635037Y-82949500D01*
X99453482Y-82949501D01*
X99448589Y-82950276D01*
X99448588Y-82950276D01*
X99369494Y-82962802D01*
X99369492Y-82962803D01*
X99359696Y-82964354D01*
X99246658Y-83021950D01*
X99156950Y-83111658D01*
X99152450Y-83120490D01*
X99112267Y-83199353D01*
X99063519Y-83250968D01*
X98994604Y-83268034D01*
X98927402Y-83245133D01*
X98887733Y-83199353D01*
X98847550Y-83120490D01*
X98843050Y-83111658D01*
X98753342Y-83021950D01*
X98640304Y-82964354D01*
X98630515Y-82962804D01*
X98630513Y-82962803D01*
X98602377Y-82958347D01*
X98546519Y-82949500D01*
X98365037Y-82949500D01*
X98183482Y-82949501D01*
X98178589Y-82950276D01*
X98178588Y-82950276D01*
X98099494Y-82962802D01*
X98099492Y-82962803D01*
X98089696Y-82964354D01*
X97976658Y-83021950D01*
X97886950Y-83111658D01*
X97882450Y-83120490D01*
X97842267Y-83199353D01*
X97793519Y-83250968D01*
X97724604Y-83268034D01*
X97657402Y-83245133D01*
X97617733Y-83199353D01*
X97577550Y-83120490D01*
X97573050Y-83111658D01*
X97483342Y-83021950D01*
X97370304Y-82964354D01*
X97360515Y-82962804D01*
X97360513Y-82962803D01*
X97332377Y-82958347D01*
X97276519Y-82949500D01*
X97095037Y-82949500D01*
X96913482Y-82949501D01*
X96908589Y-82950276D01*
X96908588Y-82950276D01*
X96829494Y-82962802D01*
X96829492Y-82962803D01*
X96819696Y-82964354D01*
X96706658Y-83021950D01*
X96616950Y-83111658D01*
X96559354Y-83224696D01*
X96557804Y-83234485D01*
X96557803Y-83234487D01*
X96555193Y-83250968D01*
X96544500Y-83318481D01*
X96544500Y-83620700D01*
X96524498Y-83688821D01*
X96470842Y-83735314D01*
X96418500Y-83746700D01*
X96017562Y-83746700D01*
X95949441Y-83726698D01*
X95905296Y-83677904D01*
X95894361Y-83656444D01*
X95894359Y-83656441D01*
X95889859Y-83647609D01*
X95865205Y-83622955D01*
X95831179Y-83560643D01*
X95828300Y-83533860D01*
X95828300Y-82782896D01*
X95829173Y-82768086D01*
X95831817Y-82745746D01*
X95832924Y-82736394D01*
X95822915Y-82681589D01*
X95822271Y-82677720D01*
X95815391Y-82631955D01*
X95815390Y-82631952D01*
X95813990Y-82622640D01*
X95811018Y-82616452D01*
X95809785Y-82609698D01*
X95789684Y-82571002D01*
X95775500Y-82512923D01*
X95775500Y-82325326D01*
X95760966Y-82252260D01*
X95705601Y-82169399D01*
X95622740Y-82114034D01*
X95549674Y-82099500D01*
X95050326Y-82099500D01*
X94977260Y-82114034D01*
X94894399Y-82169399D01*
X94887507Y-82179714D01*
X94882426Y-82184795D01*
X94820114Y-82218821D01*
X94793331Y-82221700D01*
X94482896Y-82221700D01*
X94468086Y-82220827D01*
X94445749Y-82218183D01*
X94445748Y-82218183D01*
X94436395Y-82217076D01*
X94427126Y-82218769D01*
X94427085Y-82218770D01*
X94392433Y-82215036D01*
X94332128Y-82199889D01*
X94324530Y-82199849D01*
X94324528Y-82199849D01*
X94257319Y-82199497D01*
X94174684Y-82199065D01*
X94167305Y-82200837D01*
X94167301Y-82200837D01*
X94028967Y-82234048D01*
X94028963Y-82234049D01*
X94021588Y-82235820D01*
X93881679Y-82308032D01*
X93875957Y-82313024D01*
X93875955Y-82313025D01*
X93768759Y-82406538D01*
X93768756Y-82406541D01*
X93763034Y-82411533D01*
X93758664Y-82417750D01*
X93758662Y-82417753D01*
X93744586Y-82437780D01*
X93689052Y-82482012D01*
X93618419Y-82489197D01*
X93555115Y-82457055D01*
X93519238Y-82395791D01*
X93515500Y-82365329D01*
X93515500Y-73902885D01*
X94792000Y-73902885D01*
X94796475Y-73918124D01*
X94797865Y-73919329D01*
X94805548Y-73921000D01*
X95927885Y-73921000D01*
X95943124Y-73916525D01*
X95944329Y-73915135D01*
X95946000Y-73907452D01*
X95946000Y-73110116D01*
X95941525Y-73094877D01*
X95940135Y-73093672D01*
X95932452Y-73092001D01*
X95502905Y-73092001D01*
X95496386Y-73092338D01*
X95400794Y-73102257D01*
X95387400Y-73105149D01*
X95233216Y-73156588D01*
X95220038Y-73162761D01*
X95082193Y-73248063D01*
X95070792Y-73257099D01*
X94956261Y-73371829D01*
X94947249Y-73383240D01*
X94862184Y-73521243D01*
X94856037Y-73534424D01*
X94804862Y-73688710D01*
X94801995Y-73702086D01*
X94792328Y-73796438D01*
X94792000Y-73802855D01*
X94792000Y-73902885D01*
X93515500Y-73902885D01*
X93515500Y-73031712D01*
X93535502Y-72963591D01*
X93589158Y-72917098D01*
X93659432Y-72906994D01*
X93724012Y-72936488D01*
X93732135Y-72944183D01*
X93768586Y-72981929D01*
X93774483Y-72985788D01*
X93903577Y-73070266D01*
X93903581Y-73070268D01*
X93909475Y-73074125D01*
X94067289Y-73132815D01*
X94074270Y-73133746D01*
X94074272Y-73133747D01*
X94119812Y-73139823D01*
X94234183Y-73155083D01*
X94241194Y-73154445D01*
X94241198Y-73154445D01*
X94394843Y-73140462D01*
X94401864Y-73139823D01*
X94408566Y-73137645D01*
X94408568Y-73137645D01*
X94555298Y-73089970D01*
X94555301Y-73089969D01*
X94561997Y-73087793D01*
X94706623Y-73001578D01*
X94711717Y-72996727D01*
X94711721Y-72996724D01*
X94823454Y-72890322D01*
X94823455Y-72890320D01*
X94828554Y-72885465D01*
X94844934Y-72860812D01*
X94917836Y-72751085D01*
X94921731Y-72745223D01*
X94981521Y-72587823D01*
X94997795Y-72472029D01*
X95004404Y-72425010D01*
X95004404Y-72425006D01*
X95004955Y-72421088D01*
X95005249Y-72400000D01*
X95000092Y-72354026D01*
X94987266Y-72239672D01*
X94987265Y-72239669D01*
X94986481Y-72232676D01*
X94931108Y-72073668D01*
X94858769Y-71957900D01*
X94845618Y-71936854D01*
X94845616Y-71936851D01*
X94841884Y-71930879D01*
X94841977Y-71930821D01*
X94816532Y-71867951D01*
X94829704Y-71798187D01*
X94878503Y-71746620D01*
X94941915Y-71729500D01*
X94998591Y-71729500D01*
X95066712Y-71749502D01*
G37*
%TD.AperFunction*%
%TA.AperFunction,Conductor*%
G36*
X102661812Y-79885825D02*
G01*
X102687754Y-79916910D01*
X102744876Y-80013499D01*
X102754516Y-80025926D01*
X102859074Y-80130484D01*
X102871506Y-80140128D01*
X102897639Y-80155583D01*
X102946092Y-80207476D01*
X102959500Y-80264036D01*
X102959500Y-80360628D01*
X102954217Y-80396731D01*
X102934837Y-80461533D01*
X102930910Y-80474663D01*
X102930855Y-80483637D01*
X102930855Y-80483639D01*
X102930745Y-80501721D01*
X102930028Y-80619173D01*
X102932495Y-80627804D01*
X102932495Y-80627806D01*
X102954649Y-80705321D01*
X102959500Y-80739945D01*
X102959500Y-80874674D01*
X102974034Y-80947740D01*
X102980928Y-80958057D01*
X102980928Y-80958058D01*
X102982906Y-80961018D01*
X103029399Y-81030601D01*
X103112260Y-81085966D01*
X103185326Y-81100500D01*
X103684674Y-81100500D01*
X103757740Y-81085966D01*
X103773055Y-81075733D01*
X103843055Y-81054500D01*
X104137115Y-81054500D01*
X104149120Y-81055841D01*
X104149160Y-81055345D01*
X104158107Y-81056065D01*
X104166863Y-81058046D01*
X104220121Y-81054742D01*
X104227923Y-81054500D01*
X104243965Y-81054500D01*
X104248396Y-81053865D01*
X104248401Y-81053865D01*
X104252426Y-81053288D01*
X104254196Y-81053035D01*
X104264253Y-81052004D01*
X104286715Y-81050611D01*
X104302139Y-81049654D01*
X104302141Y-81049654D01*
X104311098Y-81049098D01*
X104319538Y-81046051D01*
X104322828Y-81045370D01*
X104338678Y-81041418D01*
X104341909Y-81040473D01*
X104350791Y-81039201D01*
X104358961Y-81035486D01*
X104364437Y-81033885D01*
X104435434Y-81033963D01*
X104495117Y-81072413D01*
X104525041Y-81140993D01*
X104525995Y-81149633D01*
X104537035Y-81249633D01*
X104591143Y-81397490D01*
X104595380Y-81403796D01*
X104595382Y-81403799D01*
X104622089Y-81443542D01*
X104678958Y-81528172D01*
X104795410Y-81634135D01*
X104855369Y-81666690D01*
X104927099Y-81705637D01*
X104927101Y-81705638D01*
X104933776Y-81709262D01*
X104941125Y-81711190D01*
X105078719Y-81747287D01*
X105078721Y-81747287D01*
X105086069Y-81749215D01*
X105169380Y-81750524D01*
X105235898Y-81751569D01*
X105235901Y-81751569D01*
X105243495Y-81751688D01*
X105396968Y-81716538D01*
X105537625Y-81645795D01*
X105595238Y-81596589D01*
X105660027Y-81567558D01*
X105677068Y-81566400D01*
X106365143Y-81566400D01*
X106379952Y-81567273D01*
X106415118Y-81571435D01*
X106424382Y-81569743D01*
X106424383Y-81569743D01*
X106474942Y-81560509D01*
X106478848Y-81559859D01*
X106529681Y-81552217D01*
X106529682Y-81552217D01*
X106538992Y-81550817D01*
X106545731Y-81547581D01*
X106553085Y-81546238D01*
X106561443Y-81541897D01*
X106561447Y-81541895D01*
X106607067Y-81518196D01*
X106610612Y-81516425D01*
X106656929Y-81494185D01*
X106656933Y-81494182D01*
X106665420Y-81490107D01*
X106670744Y-81485186D01*
X106671177Y-81484894D01*
X106677543Y-81481587D01*
X106682767Y-81477126D01*
X106721396Y-81438497D01*
X106724962Y-81435067D01*
X106758788Y-81403799D01*
X106768407Y-81394907D01*
X106772201Y-81388376D01*
X106778076Y-81381817D01*
X107672488Y-80487405D01*
X107734800Y-80453379D01*
X107761582Y-80450500D01*
X107930523Y-80450499D01*
X107951518Y-80450499D01*
X107956412Y-80449724D01*
X108035506Y-80437198D01*
X108035508Y-80437197D01*
X108045304Y-80435646D01*
X108060615Y-80427845D01*
X108076895Y-80419549D01*
X108158342Y-80378050D01*
X108248050Y-80288342D01*
X108292733Y-80200647D01*
X108341481Y-80149032D01*
X108410396Y-80131966D01*
X108477598Y-80154867D01*
X108517267Y-80200647D01*
X108561950Y-80288342D01*
X108651658Y-80378050D01*
X108764696Y-80435646D01*
X108774485Y-80437196D01*
X108774487Y-80437197D01*
X108801849Y-80441530D01*
X108858481Y-80450500D01*
X109039963Y-80450500D01*
X109221518Y-80450499D01*
X109226412Y-80449724D01*
X109305506Y-80437198D01*
X109305508Y-80437197D01*
X109315304Y-80435646D01*
X109330615Y-80427845D01*
X109346895Y-80419549D01*
X109428342Y-80378050D01*
X109456605Y-80349787D01*
X109518917Y-80315761D01*
X109589732Y-80320826D01*
X109646568Y-80363373D01*
X109671379Y-80429893D01*
X109671700Y-80438882D01*
X109671700Y-81592104D01*
X109670827Y-81606914D01*
X109667076Y-81638605D01*
X109677084Y-81693405D01*
X109677725Y-81697258D01*
X109686010Y-81752360D01*
X109688982Y-81758549D01*
X109690215Y-81765301D01*
X109715900Y-81814747D01*
X109717650Y-81818250D01*
X109741760Y-81868460D01*
X109746420Y-81873501D01*
X109749584Y-81879592D01*
X109753681Y-81884389D01*
X109789012Y-81919720D01*
X109792441Y-81923286D01*
X109829184Y-81963034D01*
X109835294Y-81966583D01*
X109840867Y-81971575D01*
X110798884Y-82929592D01*
X110808739Y-82940681D01*
X110828497Y-82965744D01*
X110836244Y-82971098D01*
X110836246Y-82971100D01*
X110874312Y-82997408D01*
X110877491Y-82999679D01*
X110922322Y-83032792D01*
X110928797Y-83035066D01*
X110934446Y-83038970D01*
X110943426Y-83041810D01*
X110951878Y-83045950D01*
X110950205Y-83049365D01*
X110993919Y-83078739D01*
X111001794Y-83089287D01*
X111022505Y-83120284D01*
X111022507Y-83120286D01*
X111029399Y-83130601D01*
X111039714Y-83137493D01*
X111039716Y-83137495D01*
X111050700Y-83144834D01*
X111096229Y-83199310D01*
X111106700Y-83249600D01*
X111106700Y-83533860D01*
X111086698Y-83601981D01*
X111069795Y-83622955D01*
X111045141Y-83647609D01*
X110988983Y-83757825D01*
X110974500Y-83849265D01*
X110974501Y-84190734D01*
X110975276Y-84195627D01*
X110981324Y-84233815D01*
X110972224Y-84304226D01*
X110945970Y-84342620D01*
X110854516Y-84434074D01*
X110844876Y-84446501D01*
X110769604Y-84573780D01*
X110763357Y-84588216D01*
X110728381Y-84708605D01*
X110728421Y-84722705D01*
X110735691Y-84726000D01*
X112328558Y-84726000D01*
X112342088Y-84722027D01*
X112343620Y-84711369D01*
X112373113Y-84646788D01*
X112432839Y-84608404D01*
X112468338Y-84603300D01*
X112553501Y-84603300D01*
X112621622Y-84623302D01*
X112668115Y-84676958D01*
X112679501Y-84729300D01*
X112679501Y-85031518D01*
X112680276Y-85036411D01*
X112680276Y-85036412D01*
X112687491Y-85081966D01*
X112694354Y-85125304D01*
X112698857Y-85134141D01*
X112698857Y-85134142D01*
X112739714Y-85214328D01*
X112752818Y-85284105D01*
X112726118Y-85349890D01*
X112668090Y-85390796D01*
X112656866Y-85394049D01*
X112639392Y-85398244D01*
X112603967Y-85406748D01*
X112603963Y-85406749D01*
X112596588Y-85408520D01*
X112589846Y-85412000D01*
X112589840Y-85412002D01*
X112503547Y-85456541D01*
X112433840Y-85470010D01*
X112367917Y-85443654D01*
X112326707Y-85385842D01*
X112324761Y-85309422D01*
X112341619Y-85251395D01*
X112341579Y-85237295D01*
X112334309Y-85234000D01*
X110741442Y-85234000D01*
X110727911Y-85237973D01*
X110726776Y-85245871D01*
X110763357Y-85371784D01*
X110769606Y-85386224D01*
X110796418Y-85431562D01*
X110813877Y-85500378D01*
X110791360Y-85567709D01*
X110736015Y-85612178D01*
X110687964Y-85621700D01*
X109803043Y-85621700D01*
X109734922Y-85601698D01*
X109688429Y-85548042D01*
X109678325Y-85477768D01*
X109704968Y-85419431D01*
X109703593Y-85418364D01*
X109718089Y-85399678D01*
X109794648Y-85270221D01*
X109800893Y-85255790D01*
X109843269Y-85109935D01*
X109845570Y-85097333D01*
X109847807Y-85068916D01*
X109848000Y-85063986D01*
X109848000Y-84447115D01*
X109843525Y-84431876D01*
X109842135Y-84430671D01*
X109834452Y-84429000D01*
X108912000Y-84429000D01*
X108843879Y-84408998D01*
X108797386Y-84355342D01*
X108786000Y-84303000D01*
X108786000Y-83902885D01*
X109294000Y-83902885D01*
X109298475Y-83918124D01*
X109299865Y-83919329D01*
X109307548Y-83921000D01*
X109829884Y-83921000D01*
X109845123Y-83916525D01*
X109846328Y-83915135D01*
X109847999Y-83907452D01*
X109847999Y-83286017D01*
X109847805Y-83281080D01*
X109845570Y-83252664D01*
X109843270Y-83240069D01*
X109800893Y-83094210D01*
X109794648Y-83079779D01*
X109718089Y-82950322D01*
X109708449Y-82937896D01*
X109602104Y-82831551D01*
X109589678Y-82821911D01*
X109460221Y-82745352D01*
X109445790Y-82739107D01*
X109311395Y-82700061D01*
X109297294Y-82700101D01*
X109294000Y-82707370D01*
X109294000Y-83902885D01*
X108786000Y-83902885D01*
X108786000Y-82713122D01*
X108782027Y-82699591D01*
X108774129Y-82698456D01*
X108634210Y-82739107D01*
X108619779Y-82745352D01*
X108490322Y-82821911D01*
X108477896Y-82831551D01*
X108371551Y-82937896D01*
X108361911Y-82950323D01*
X108340796Y-82986027D01*
X108288903Y-83034480D01*
X108219053Y-83047185D01*
X108161421Y-83025029D01*
X108158342Y-83021950D01*
X108149508Y-83017449D01*
X108149507Y-83017448D01*
X108087839Y-82986027D01*
X108045304Y-82964354D01*
X108035515Y-82962804D01*
X108035513Y-82962803D01*
X108007377Y-82958347D01*
X107951519Y-82949500D01*
X107770037Y-82949500D01*
X107588482Y-82949501D01*
X107583589Y-82950276D01*
X107583588Y-82950276D01*
X107504494Y-82962802D01*
X107504492Y-82962803D01*
X107494696Y-82964354D01*
X107381658Y-83021950D01*
X107291950Y-83111658D01*
X107287450Y-83120490D01*
X107247267Y-83199353D01*
X107198519Y-83250968D01*
X107129604Y-83268034D01*
X107062402Y-83245133D01*
X107022733Y-83199353D01*
X106982550Y-83120490D01*
X106978050Y-83111658D01*
X106888342Y-83021950D01*
X106775304Y-82964354D01*
X106765515Y-82962804D01*
X106765513Y-82962803D01*
X106737377Y-82958347D01*
X106681519Y-82949500D01*
X106500037Y-82949500D01*
X106318482Y-82949501D01*
X106313589Y-82950276D01*
X106313588Y-82950276D01*
X106234494Y-82962802D01*
X106234492Y-82962803D01*
X106224696Y-82964354D01*
X106111658Y-83021950D01*
X106021950Y-83111658D01*
X106017450Y-83120490D01*
X105977267Y-83199353D01*
X105928519Y-83250968D01*
X105859604Y-83268034D01*
X105792402Y-83245133D01*
X105752733Y-83199353D01*
X105712550Y-83120490D01*
X105708050Y-83111658D01*
X105618342Y-83021950D01*
X105505304Y-82964354D01*
X105495515Y-82962804D01*
X105495513Y-82962803D01*
X105467377Y-82958347D01*
X105411519Y-82949500D01*
X105230037Y-82949500D01*
X105048482Y-82949501D01*
X105043589Y-82950276D01*
X105043588Y-82950276D01*
X104964494Y-82962802D01*
X104964492Y-82962803D01*
X104954696Y-82964354D01*
X104841658Y-83021950D01*
X104751950Y-83111658D01*
X104694354Y-83224696D01*
X104692804Y-83234485D01*
X104692803Y-83234487D01*
X104690193Y-83250968D01*
X104679500Y-83318481D01*
X104679500Y-83620700D01*
X104659498Y-83688821D01*
X104605842Y-83735314D01*
X104553500Y-83746700D01*
X104152562Y-83746700D01*
X104084441Y-83726698D01*
X104040296Y-83677904D01*
X104029361Y-83656444D01*
X104029359Y-83656441D01*
X104024859Y-83647609D01*
X104000205Y-83622955D01*
X103966179Y-83560643D01*
X103963300Y-83533860D01*
X103963300Y-82782896D01*
X103964173Y-82768086D01*
X103966817Y-82745746D01*
X103967924Y-82736394D01*
X103957915Y-82681589D01*
X103957271Y-82677720D01*
X103950391Y-82631955D01*
X103950390Y-82631952D01*
X103948990Y-82622640D01*
X103946018Y-82616452D01*
X103944785Y-82609698D01*
X103924684Y-82571002D01*
X103910500Y-82512923D01*
X103910500Y-82325326D01*
X103895966Y-82252260D01*
X103840601Y-82169399D01*
X103757740Y-82114034D01*
X103684674Y-82099500D01*
X103185326Y-82099500D01*
X103179261Y-82100706D01*
X103173092Y-82101314D01*
X103172826Y-82098614D01*
X103113786Y-82093304D01*
X103070877Y-82065169D01*
X102490205Y-81484497D01*
X102456179Y-81422185D01*
X102453300Y-81395402D01*
X102453300Y-79981049D01*
X102473302Y-79912928D01*
X102526958Y-79866435D01*
X102597232Y-79856331D01*
X102661812Y-79885825D01*
G37*
%TD.AperFunction*%
%TA.AperFunction,Conductor*%
G36*
X110736812Y-80007082D02*
G01*
X110753855Y-80025074D01*
X110754516Y-80025926D01*
X110859074Y-80130484D01*
X110871506Y-80140128D01*
X110897639Y-80155583D01*
X110946092Y-80207476D01*
X110959500Y-80264036D01*
X110959500Y-80874674D01*
X110974034Y-80947740D01*
X110980928Y-80958057D01*
X110980928Y-80958058D01*
X110982906Y-80961018D01*
X111029399Y-81030601D01*
X111112260Y-81085966D01*
X111185326Y-81100500D01*
X111684674Y-81100500D01*
X111757740Y-81085966D01*
X111840601Y-81030601D01*
X111847494Y-81020285D01*
X111852574Y-81015205D01*
X111914886Y-80981179D01*
X111941669Y-80978300D01*
X112217104Y-80978300D01*
X112231914Y-80979173D01*
X112263605Y-80982924D01*
X112318405Y-80972916D01*
X112322258Y-80972275D01*
X112346949Y-80968562D01*
X112368050Y-80965390D01*
X112368051Y-80965390D01*
X112377360Y-80963990D01*
X112383549Y-80961018D01*
X112390301Y-80959785D01*
X112439747Y-80934100D01*
X112443250Y-80932350D01*
X112484966Y-80912319D01*
X112484968Y-80912318D01*
X112493460Y-80908240D01*
X112498501Y-80903580D01*
X112504592Y-80900416D01*
X112509389Y-80896319D01*
X112544720Y-80860988D01*
X112548286Y-80857559D01*
X112548642Y-80857230D01*
X112588034Y-80820816D01*
X112591583Y-80814706D01*
X112596575Y-80809133D01*
X112922564Y-80483144D01*
X112984876Y-80449118D01*
X113031369Y-80447790D01*
X113039755Y-80449118D01*
X113048481Y-80450500D01*
X113229963Y-80450500D01*
X113411518Y-80450499D01*
X113416412Y-80449724D01*
X113495506Y-80437198D01*
X113495508Y-80437197D01*
X113505304Y-80435646D01*
X113520615Y-80427845D01*
X113536895Y-80419549D01*
X113618342Y-80378050D01*
X113708050Y-80288342D01*
X113752733Y-80200647D01*
X113801481Y-80149032D01*
X113870396Y-80131966D01*
X113937598Y-80154867D01*
X113977267Y-80200647D01*
X114021950Y-80288342D01*
X114111658Y-80378050D01*
X114224696Y-80435646D01*
X114234485Y-80437196D01*
X114234487Y-80437197D01*
X114261849Y-80441530D01*
X114318481Y-80450500D01*
X114499963Y-80450500D01*
X114681518Y-80450499D01*
X114686412Y-80449724D01*
X114765506Y-80437198D01*
X114765508Y-80437197D01*
X114775304Y-80435646D01*
X114790615Y-80427845D01*
X114806895Y-80419549D01*
X114888342Y-80378050D01*
X114978050Y-80288342D01*
X115022733Y-80200647D01*
X115071481Y-80149032D01*
X115140396Y-80131966D01*
X115207598Y-80154867D01*
X115247267Y-80200648D01*
X115251767Y-80209480D01*
X115265500Y-80266682D01*
X115265500Y-80396832D01*
X115242587Y-80469283D01*
X115164635Y-80580198D01*
X115157501Y-80590348D01*
X115100309Y-80737039D01*
X115099318Y-80744568D01*
X115082189Y-80874674D01*
X115079758Y-80893138D01*
X115097035Y-81049633D01*
X115151143Y-81197490D01*
X115155380Y-81203796D01*
X115155382Y-81203799D01*
X115181109Y-81242084D01*
X115238958Y-81328172D01*
X115261270Y-81348474D01*
X115341927Y-81421866D01*
X115355410Y-81434135D01*
X115376885Y-81445795D01*
X115487099Y-81505637D01*
X115487101Y-81505638D01*
X115493776Y-81509262D01*
X115501125Y-81511190D01*
X115638719Y-81547287D01*
X115638721Y-81547287D01*
X115646069Y-81549215D01*
X115729380Y-81550524D01*
X115795898Y-81551569D01*
X115795901Y-81551569D01*
X115803495Y-81551688D01*
X115956968Y-81516538D01*
X116097625Y-81445795D01*
X116172534Y-81381817D01*
X116211574Y-81348474D01*
X116211576Y-81348471D01*
X116217348Y-81343542D01*
X116309224Y-81215683D01*
X116367950Y-81069598D01*
X116378829Y-80993160D01*
X116389553Y-80917807D01*
X116389553Y-80917804D01*
X116390134Y-80913723D01*
X116390202Y-80907254D01*
X116390235Y-80904134D01*
X116390235Y-80904128D01*
X116390278Y-80900000D01*
X116371363Y-80743694D01*
X116348478Y-80683131D01*
X116318396Y-80603519D01*
X116318394Y-80603516D01*
X116315710Y-80596412D01*
X116296661Y-80568696D01*
X116274500Y-80497328D01*
X116274500Y-80266682D01*
X116288233Y-80209480D01*
X116292733Y-80200648D01*
X116341480Y-80149033D01*
X116410395Y-80131966D01*
X116477597Y-80154866D01*
X116517267Y-80200647D01*
X116561950Y-80288342D01*
X116651658Y-80378050D01*
X116764696Y-80435646D01*
X116774485Y-80437196D01*
X116774487Y-80437197D01*
X116801849Y-80441530D01*
X116858481Y-80450500D01*
X117039963Y-80450500D01*
X117221518Y-80450499D01*
X117226412Y-80449724D01*
X117305506Y-80437198D01*
X117305508Y-80437197D01*
X117315304Y-80435646D01*
X117330615Y-80427845D01*
X117346895Y-80419549D01*
X117428342Y-80378050D01*
X117499405Y-80306987D01*
X117561717Y-80272961D01*
X117632532Y-80278026D01*
X117689368Y-80320573D01*
X117714179Y-80387093D01*
X117714500Y-80396082D01*
X117714500Y-82674830D01*
X117694498Y-82742951D01*
X117640842Y-82789444D01*
X117570568Y-82799548D01*
X117524361Y-82783284D01*
X117460221Y-82745352D01*
X117445790Y-82739107D01*
X117311395Y-82700061D01*
X117297294Y-82700101D01*
X117294000Y-82707370D01*
X117294000Y-84303000D01*
X117273998Y-84371121D01*
X117220342Y-84417614D01*
X117168000Y-84429000D01*
X116912000Y-84429000D01*
X116843879Y-84408998D01*
X116797386Y-84355342D01*
X116786000Y-84303000D01*
X116786000Y-82713122D01*
X116782027Y-82699591D01*
X116774129Y-82698456D01*
X116634210Y-82739107D01*
X116619779Y-82745352D01*
X116490322Y-82821911D01*
X116477896Y-82831551D01*
X116371551Y-82937896D01*
X116361911Y-82950323D01*
X116340796Y-82986027D01*
X116288903Y-83034480D01*
X116219053Y-83047185D01*
X116161421Y-83025029D01*
X116158342Y-83021950D01*
X116149508Y-83017449D01*
X116149507Y-83017448D01*
X116087839Y-82986027D01*
X116045304Y-82964354D01*
X116035515Y-82962804D01*
X116035513Y-82962803D01*
X116007377Y-82958347D01*
X115951519Y-82949500D01*
X115770037Y-82949500D01*
X115588482Y-82949501D01*
X115583589Y-82950276D01*
X115583588Y-82950276D01*
X115504494Y-82962802D01*
X115504492Y-82962803D01*
X115494696Y-82964354D01*
X115381658Y-83021950D01*
X115291950Y-83111658D01*
X115287450Y-83120490D01*
X115247267Y-83199353D01*
X115198519Y-83250968D01*
X115129604Y-83268034D01*
X115062402Y-83245133D01*
X115022733Y-83199353D01*
X114982550Y-83120490D01*
X114978050Y-83111658D01*
X114888342Y-83021950D01*
X114775304Y-82964354D01*
X114765515Y-82962804D01*
X114765513Y-82962803D01*
X114737377Y-82958347D01*
X114681519Y-82949500D01*
X114500037Y-82949500D01*
X114318482Y-82949501D01*
X114313589Y-82950276D01*
X114313588Y-82950276D01*
X114234494Y-82962802D01*
X114234492Y-82962803D01*
X114224696Y-82964354D01*
X114111658Y-83021950D01*
X114021950Y-83111658D01*
X114017450Y-83120490D01*
X113977267Y-83199353D01*
X113928519Y-83250968D01*
X113859604Y-83268034D01*
X113792402Y-83245133D01*
X113752733Y-83199353D01*
X113712550Y-83120490D01*
X113708050Y-83111658D01*
X113618342Y-83021950D01*
X113505304Y-82964354D01*
X113495515Y-82962804D01*
X113495513Y-82962803D01*
X113467377Y-82958347D01*
X113411519Y-82949500D01*
X113230037Y-82949500D01*
X113048482Y-82949501D01*
X113043589Y-82950276D01*
X113043588Y-82950276D01*
X112964494Y-82962802D01*
X112964492Y-82962803D01*
X112954696Y-82964354D01*
X112841658Y-83021950D01*
X112751950Y-83111658D01*
X112694354Y-83224696D01*
X112692804Y-83234485D01*
X112692803Y-83234487D01*
X112690193Y-83250968D01*
X112679500Y-83318481D01*
X112679500Y-83620700D01*
X112659498Y-83688821D01*
X112605842Y-83735314D01*
X112553500Y-83746700D01*
X112152562Y-83746700D01*
X112084441Y-83726698D01*
X112040296Y-83677904D01*
X112029361Y-83656444D01*
X112029359Y-83656441D01*
X112024859Y-83647609D01*
X112000205Y-83622955D01*
X111966179Y-83560643D01*
X111963300Y-83533860D01*
X111963300Y-82782896D01*
X111964173Y-82768086D01*
X111966817Y-82745746D01*
X111967924Y-82736394D01*
X111957915Y-82681589D01*
X111957271Y-82677720D01*
X111950391Y-82631955D01*
X111950390Y-82631952D01*
X111948990Y-82622640D01*
X111946018Y-82616452D01*
X111944785Y-82609698D01*
X111924684Y-82571002D01*
X111910500Y-82512923D01*
X111910500Y-82325326D01*
X111895966Y-82252260D01*
X111840601Y-82169399D01*
X111757740Y-82114034D01*
X111684674Y-82099500D01*
X111232398Y-82099500D01*
X111164277Y-82079498D01*
X111143303Y-82062595D01*
X110565205Y-81484497D01*
X110531179Y-81422185D01*
X110528300Y-81395402D01*
X110528300Y-80102306D01*
X110548302Y-80034185D01*
X110601958Y-79987692D01*
X110672232Y-79977588D01*
X110736812Y-80007082D01*
G37*
%TD.AperFunction*%
%TA.AperFunction,Conductor*%
G36*
X112643603Y-78675056D02*
G01*
X112676917Y-78737751D01*
X112679500Y-78763133D01*
X112679501Y-79462601D01*
X112659499Y-79530722D01*
X112642596Y-79551696D01*
X112437114Y-79757178D01*
X112374802Y-79791204D01*
X112303987Y-79786139D01*
X112247151Y-79743592D01*
X112243313Y-79738081D01*
X112234309Y-79734000D01*
X111307000Y-79734000D01*
X111238879Y-79713998D01*
X111192386Y-79660342D01*
X111181000Y-79608000D01*
X111181000Y-79352000D01*
X111201002Y-79283879D01*
X111254658Y-79237386D01*
X111307000Y-79226000D01*
X112228558Y-79226000D01*
X112242089Y-79222027D01*
X112243224Y-79214129D01*
X112206643Y-79088216D01*
X112200396Y-79073780D01*
X112125124Y-78946501D01*
X112115484Y-78934074D01*
X112058272Y-78876862D01*
X112024246Y-78814550D01*
X112029311Y-78743735D01*
X112071858Y-78686899D01*
X112138378Y-78662088D01*
X112179339Y-78665891D01*
X112211069Y-78674215D01*
X112294380Y-78675524D01*
X112360898Y-78676569D01*
X112360901Y-78676569D01*
X112368495Y-78676688D01*
X112521968Y-78641538D01*
X112522505Y-78643881D01*
X112581681Y-78640325D01*
X112643603Y-78675056D01*
G37*
%TD.AperFunction*%
%TA.AperFunction,Conductor*%
G36*
X104596238Y-78625774D02*
G01*
X104653536Y-78667697D01*
X104679073Y-78733941D01*
X104679500Y-78744305D01*
X104679501Y-79312577D01*
X104659499Y-79380698D01*
X104642596Y-79401672D01*
X104346426Y-79697842D01*
X104284114Y-79731868D01*
X104248521Y-79734439D01*
X104242257Y-79734000D01*
X103307000Y-79734000D01*
X103238879Y-79713998D01*
X103192386Y-79660342D01*
X103181000Y-79608000D01*
X103181000Y-79352000D01*
X103201002Y-79283879D01*
X103254658Y-79237386D01*
X103307000Y-79226000D01*
X104228558Y-79226000D01*
X104242089Y-79222027D01*
X104243224Y-79214129D01*
X104206643Y-79088216D01*
X104200396Y-79073780D01*
X104125124Y-78946501D01*
X104115484Y-78934074D01*
X104024031Y-78842621D01*
X103990005Y-78780309D01*
X103988677Y-78733817D01*
X103989635Y-78727768D01*
X104020047Y-78663614D01*
X104080314Y-78626087D01*
X104146057Y-78625601D01*
X104228719Y-78647287D01*
X104228721Y-78647287D01*
X104236069Y-78649215D01*
X104319380Y-78650524D01*
X104385898Y-78651569D01*
X104385901Y-78651569D01*
X104393495Y-78651688D01*
X104400899Y-78649992D01*
X104400901Y-78649992D01*
X104525371Y-78621485D01*
X104596238Y-78625774D01*
G37*
%TD.AperFunction*%
%TA.AperFunction,Conductor*%
G36*
X102661812Y-74839312D02*
G01*
X102686444Y-74868233D01*
X102748063Y-74967807D01*
X102757099Y-74979208D01*
X102871829Y-75093739D01*
X102883240Y-75102751D01*
X103021243Y-75187816D01*
X103034428Y-75193965D01*
X103058211Y-75201853D01*
X103116571Y-75242283D01*
X103143809Y-75307847D01*
X103131276Y-75377728D01*
X103082952Y-75429741D01*
X103053699Y-75442443D01*
X103000215Y-75457982D01*
X102985778Y-75464230D01*
X102859595Y-75538854D01*
X102847159Y-75548501D01*
X102743501Y-75652159D01*
X102733854Y-75664595D01*
X102687753Y-75742548D01*
X102635860Y-75791001D01*
X102566010Y-75803706D01*
X102500379Y-75776630D01*
X102459805Y-75718370D01*
X102453300Y-75678409D01*
X102453300Y-74934536D01*
X102473302Y-74866415D01*
X102526958Y-74819922D01*
X102597232Y-74809818D01*
X102661812Y-74839312D01*
G37*
%TD.AperFunction*%
%TA.AperFunction,Conductor*%
G36*
X113881621Y-71749502D02*
G01*
X113928114Y-71803158D01*
X113939500Y-71855500D01*
X113939500Y-73100674D01*
X113954034Y-73173740D01*
X114009399Y-73256601D01*
X114019714Y-73263493D01*
X114081943Y-73305073D01*
X114081945Y-73305074D01*
X114092260Y-73311966D01*
X114102679Y-73314039D01*
X114156998Y-73357810D01*
X114179500Y-73429672D01*
X114179500Y-73517602D01*
X114159498Y-73585723D01*
X114142595Y-73606697D01*
X113949538Y-73799754D01*
X113887226Y-73833780D01*
X113816411Y-73828715D01*
X113759575Y-73786168D01*
X113735116Y-73723662D01*
X113732743Y-73700794D01*
X113729851Y-73687400D01*
X113678412Y-73533216D01*
X113672239Y-73520038D01*
X113586937Y-73382193D01*
X113577901Y-73370792D01*
X113463171Y-73256261D01*
X113451760Y-73247249D01*
X113313757Y-73162184D01*
X113300576Y-73156037D01*
X113146290Y-73104862D01*
X113132914Y-73101995D01*
X113038562Y-73092328D01*
X113032145Y-73092000D01*
X112607115Y-73092000D01*
X112591876Y-73096475D01*
X112590671Y-73097865D01*
X112589000Y-73105548D01*
X112589000Y-75239884D01*
X112593475Y-75255123D01*
X112594865Y-75256328D01*
X112602548Y-75257999D01*
X113032095Y-75257999D01*
X113038614Y-75257662D01*
X113134206Y-75247743D01*
X113147600Y-75244851D01*
X113301792Y-75193409D01*
X113321586Y-75184137D01*
X113322197Y-75185442D01*
X113382849Y-75168751D01*
X113450619Y-75189912D01*
X113496190Y-75244353D01*
X113506700Y-75294733D01*
X113506700Y-75635700D01*
X113486698Y-75703821D01*
X113433042Y-75750314D01*
X113380700Y-75761700D01*
X113219225Y-75761700D01*
X113149532Y-75739390D01*
X113146956Y-75736819D01*
X113031656Y-75680459D01*
X112999221Y-75675727D01*
X112961061Y-75670160D01*
X112961057Y-75670160D01*
X112956535Y-75669500D01*
X112735845Y-75669500D01*
X112513466Y-75669501D01*
X112437691Y-75680654D01*
X112322489Y-75737216D01*
X112321534Y-75735271D01*
X112267395Y-75754164D01*
X112198357Y-75737601D01*
X112152626Y-75692463D01*
X112136141Y-75664589D01*
X112126499Y-75652159D01*
X112022841Y-75548501D01*
X112010408Y-75538857D01*
X111931944Y-75492453D01*
X111883492Y-75440560D01*
X111870787Y-75370710D01*
X111897863Y-75305079D01*
X111956123Y-75264505D01*
X111996084Y-75258000D01*
X112062885Y-75258000D01*
X112078124Y-75253525D01*
X112079329Y-75252135D01*
X112081000Y-75244452D01*
X112081000Y-74447115D01*
X112076525Y-74431876D01*
X112075135Y-74430671D01*
X112067452Y-74429000D01*
X110945116Y-74429000D01*
X110929877Y-74433475D01*
X110928672Y-74434865D01*
X110927001Y-74442548D01*
X110927001Y-74547095D01*
X110927338Y-74553614D01*
X110937257Y-74649206D01*
X110940149Y-74662600D01*
X110991588Y-74816784D01*
X110997761Y-74829962D01*
X111083063Y-74967807D01*
X111092099Y-74979208D01*
X111206829Y-75093739D01*
X111218240Y-75102751D01*
X111341518Y-75178740D01*
X111389011Y-75231512D01*
X111400435Y-75301583D01*
X111372161Y-75366707D01*
X111313167Y-75406207D01*
X111275402Y-75412000D01*
X111187527Y-75412000D01*
X111182597Y-75412193D01*
X111155032Y-75414363D01*
X111142428Y-75416665D01*
X111000217Y-75457981D01*
X110985778Y-75464230D01*
X110859595Y-75538854D01*
X110847159Y-75548501D01*
X110743395Y-75652265D01*
X110681083Y-75686291D01*
X110610268Y-75681226D01*
X110553432Y-75638679D01*
X110528621Y-75572159D01*
X110528300Y-75563170D01*
X110528300Y-74409094D01*
X110548302Y-74340973D01*
X110552035Y-74335561D01*
X110552200Y-74335249D01*
X110557792Y-74327678D01*
X110560066Y-74321203D01*
X110563970Y-74315554D01*
X110580767Y-74262441D01*
X110582021Y-74258684D01*
X110597346Y-74215046D01*
X110600466Y-74206162D01*
X110600736Y-74199302D01*
X110602805Y-74192758D01*
X110603300Y-74186469D01*
X110603300Y-74136504D01*
X110603397Y-74131558D01*
X110604302Y-74108523D01*
X110605522Y-74077470D01*
X110603711Y-74070640D01*
X110603300Y-74063168D01*
X110603300Y-73902885D01*
X110927000Y-73902885D01*
X110931475Y-73918124D01*
X110932865Y-73919329D01*
X110940548Y-73921000D01*
X112062885Y-73921000D01*
X112078124Y-73916525D01*
X112079329Y-73915135D01*
X112081000Y-73907452D01*
X112081000Y-73110116D01*
X112076525Y-73094877D01*
X112075135Y-73093672D01*
X112067452Y-73092001D01*
X111637905Y-73092001D01*
X111631386Y-73092338D01*
X111535794Y-73102257D01*
X111522400Y-73105149D01*
X111368216Y-73156588D01*
X111355038Y-73162761D01*
X111217193Y-73248063D01*
X111205792Y-73257099D01*
X111091261Y-73371829D01*
X111082249Y-73383240D01*
X110997184Y-73521243D01*
X110991037Y-73534424D01*
X110939862Y-73688710D01*
X110936995Y-73702086D01*
X110927328Y-73796438D01*
X110927000Y-73802855D01*
X110927000Y-73902885D01*
X110603300Y-73902885D01*
X110603300Y-73082554D01*
X110623302Y-73014433D01*
X110642408Y-72991308D01*
X110748454Y-72890322D01*
X110748455Y-72890320D01*
X110753554Y-72885465D01*
X110769934Y-72860812D01*
X110842836Y-72751085D01*
X110846731Y-72745223D01*
X110906521Y-72587823D01*
X110922795Y-72472029D01*
X110929404Y-72425010D01*
X110929404Y-72425006D01*
X110929955Y-72421088D01*
X110930249Y-72400000D01*
X110925092Y-72354026D01*
X110912266Y-72239672D01*
X110912265Y-72239669D01*
X110911481Y-72232676D01*
X110856108Y-72073668D01*
X110826490Y-72026269D01*
X110807355Y-71957900D01*
X110828221Y-71890038D01*
X110882463Y-71844231D01*
X110933345Y-71833500D01*
X111208932Y-71833500D01*
X111277053Y-71853502D01*
X111309759Y-71883936D01*
X111322070Y-71900363D01*
X111322072Y-71900365D01*
X111327454Y-71907546D01*
X111345638Y-71921174D01*
X111434994Y-71988144D01*
X111434997Y-71988146D01*
X111442176Y-71993526D01*
X111529519Y-72026269D01*
X111569025Y-72041079D01*
X111569027Y-72041079D01*
X111576420Y-72043851D01*
X111584270Y-72044704D01*
X111584271Y-72044704D01*
X111634217Y-72050130D01*
X111637623Y-72050500D01*
X112334897Y-72050500D01*
X113032376Y-72050499D01*
X113035770Y-72050130D01*
X113035776Y-72050130D01*
X113085722Y-72044705D01*
X113085726Y-72044704D01*
X113093580Y-72043851D01*
X113227824Y-71993526D01*
X113235003Y-71988146D01*
X113235006Y-71988144D01*
X113335365Y-71912928D01*
X113342546Y-71907546D01*
X113428526Y-71792824D01*
X113428804Y-71792081D01*
X113476150Y-71744844D01*
X113536409Y-71729500D01*
X113813500Y-71729500D01*
X113881621Y-71749502D01*
G37*
%TD.AperFunction*%
%TA.AperFunction,Conductor*%
G36*
X105546621Y-71749502D02*
G01*
X105593114Y-71803158D01*
X105604500Y-71855500D01*
X105604500Y-73100674D01*
X105619034Y-73173740D01*
X105674399Y-73256601D01*
X105684714Y-73263493D01*
X105746943Y-73305073D01*
X105746945Y-73305074D01*
X105757260Y-73311966D01*
X105767679Y-73314039D01*
X105821998Y-73357810D01*
X105844500Y-73429672D01*
X105844500Y-73517602D01*
X105824498Y-73585723D01*
X105807595Y-73606697D01*
X105614538Y-73799754D01*
X105552226Y-73833780D01*
X105481411Y-73828715D01*
X105424575Y-73786168D01*
X105400116Y-73723662D01*
X105397743Y-73700794D01*
X105394851Y-73687400D01*
X105343412Y-73533216D01*
X105337239Y-73520038D01*
X105251937Y-73382193D01*
X105242901Y-73370792D01*
X105128171Y-73256261D01*
X105116760Y-73247249D01*
X104978757Y-73162184D01*
X104965576Y-73156037D01*
X104811290Y-73104862D01*
X104797914Y-73101995D01*
X104703562Y-73092328D01*
X104697145Y-73092000D01*
X104272115Y-73092000D01*
X104256876Y-73096475D01*
X104255671Y-73097865D01*
X104254000Y-73105548D01*
X104254000Y-75239884D01*
X104258475Y-75255123D01*
X104259865Y-75256328D01*
X104267548Y-75257999D01*
X104697095Y-75257999D01*
X104703614Y-75257662D01*
X104799206Y-75247743D01*
X104812600Y-75244851D01*
X104966792Y-75193409D01*
X104986586Y-75184137D01*
X104987197Y-75185442D01*
X105047849Y-75168751D01*
X105115619Y-75189912D01*
X105161190Y-75244353D01*
X105171700Y-75294733D01*
X105171700Y-75555174D01*
X105151698Y-75623295D01*
X105098042Y-75669788D01*
X105027512Y-75679854D01*
X104986879Y-75673927D01*
X104956535Y-75669500D01*
X104735845Y-75669500D01*
X104513466Y-75669501D01*
X104437691Y-75680654D01*
X104322489Y-75737216D01*
X104321534Y-75735271D01*
X104267395Y-75754164D01*
X104198357Y-75737601D01*
X104152626Y-75692463D01*
X104136141Y-75664589D01*
X104126499Y-75652159D01*
X104022841Y-75548501D01*
X104010405Y-75538854D01*
X103884222Y-75464230D01*
X103869783Y-75457981D01*
X103815932Y-75442336D01*
X103756097Y-75404123D01*
X103726419Y-75339627D01*
X103736322Y-75269324D01*
X103742783Y-75259238D01*
X103746000Y-75244452D01*
X103746000Y-73110116D01*
X103741525Y-73094877D01*
X103740135Y-73093672D01*
X103732452Y-73092001D01*
X103302905Y-73092001D01*
X103296386Y-73092338D01*
X103200794Y-73102257D01*
X103187400Y-73105149D01*
X103033216Y-73156588D01*
X103020044Y-73162759D01*
X102971103Y-73193044D01*
X102902651Y-73211881D01*
X102834881Y-73190720D01*
X102789310Y-73136279D01*
X102778800Y-73085899D01*
X102778800Y-72683396D01*
X102779673Y-72668586D01*
X102782317Y-72646246D01*
X102783424Y-72636894D01*
X102773420Y-72582118D01*
X102772770Y-72578213D01*
X102765890Y-72532451D01*
X102765890Y-72532450D01*
X102764490Y-72523140D01*
X102761518Y-72516951D01*
X102760285Y-72510199D01*
X102734600Y-72460753D01*
X102732850Y-72457250D01*
X102712819Y-72415534D01*
X102712818Y-72415532D01*
X102708740Y-72407040D01*
X102704080Y-72401999D01*
X102700916Y-72395908D01*
X102696819Y-72391111D01*
X102680076Y-72374368D01*
X102646050Y-72312056D01*
X102643956Y-72299318D01*
X102637266Y-72239672D01*
X102637265Y-72239670D01*
X102636481Y-72232676D01*
X102605632Y-72144092D01*
X102583425Y-72080321D01*
X102583424Y-72080320D01*
X102581108Y-72073668D01*
X102581114Y-72073666D01*
X102570172Y-72006363D01*
X102598474Y-71941251D01*
X102657484Y-71901776D01*
X102695198Y-71896000D01*
X102935073Y-71896000D01*
X103003194Y-71916002D01*
X103010621Y-71921161D01*
X103107176Y-71993526D01*
X103194519Y-72026269D01*
X103234025Y-72041079D01*
X103234027Y-72041079D01*
X103241420Y-72043851D01*
X103249270Y-72044704D01*
X103249271Y-72044704D01*
X103299217Y-72050130D01*
X103302623Y-72050500D01*
X103999897Y-72050500D01*
X104697376Y-72050499D01*
X104700770Y-72050130D01*
X104700776Y-72050130D01*
X104750722Y-72044705D01*
X104750726Y-72044704D01*
X104758580Y-72043851D01*
X104892824Y-71993526D01*
X104900003Y-71988146D01*
X104900006Y-71988144D01*
X105000365Y-71912928D01*
X105007546Y-71907546D01*
X105093526Y-71792824D01*
X105093804Y-71792081D01*
X105141150Y-71744844D01*
X105201409Y-71729500D01*
X105478500Y-71729500D01*
X105546621Y-71749502D01*
G37*
%TD.AperFunction*%
%TD*%
M02*
