M48
; DRILL file {KiCad 6.0.11-2627ca5db0~126~ubuntu22.04.1} date Fri Jun 16 17:25:26 2023
; FORMAT={-:-/ absolute / inch / decimal}
; #@! TF.CreationDate,2023-06-16T17:25:26+02:00
; #@! TF.GenerationSoftware,Kicad,Pcbnew,6.0.11-2627ca5db0~126~ubuntu22.04.1
; #@! TF.FileFunction,Plated,1,2,PTH
FMAT,2
INCH
; #@! TA.AperFunction,Plated,PTH,ComponentDrill
T1C0.0118
; #@! TA.AperFunction,Plated,PTH,ViaDrill
T2C0.0157
; #@! TA.AperFunction,Plated,PTH,ViaDrill
T3C0.0197
; #@! TA.AperFunction,Plated,PTH,ComponentDrill
T4C0.0394
%
G90
G05
T1
X3.9567Y-2.6319
X3.9567Y-2.6614
X3.9567Y-2.6909
X3.9567Y-2.7205
X3.9567Y-3.7579
X3.9567Y-3.7874
X3.9567Y-3.8169
X3.9567Y-3.8465
X3.9862Y-2.6319
X3.9862Y-2.6614
X3.9862Y-2.6909
X3.9862Y-2.7205
X3.9862Y-3.7579
X3.9862Y-3.7874
X3.9862Y-3.8169
X3.9862Y-3.8465
X4.0157Y-2.6319
X4.0157Y-2.6614
X4.0157Y-2.6909
X4.0157Y-2.7205
X4.0157Y-3.7579
X4.0157Y-3.7874
X4.0157Y-3.8169
X4.0157Y-3.8465
X4.0453Y-2.6319
X4.0453Y-2.6614
X4.0453Y-2.6909
X4.0453Y-2.7205
X4.0453Y-3.7579
X4.0453Y-3.7874
X4.0453Y-3.8169
X4.0453Y-3.8465
X4.1142Y-2.6319
X4.1142Y-2.6614
X4.1142Y-2.6909
X4.1142Y-2.7205
X4.1142Y-3.7579
X4.1142Y-3.7874
X4.1142Y-3.8169
X4.1142Y-3.8465
X4.1437Y-2.6319
X4.1437Y-2.6614
X4.1437Y-2.6909
X4.1437Y-2.7205
X4.1437Y-3.7579
X4.1437Y-3.7874
X4.1437Y-3.8169
X4.1437Y-3.8465
X4.1732Y-2.6319
X4.1732Y-2.6614
X4.1732Y-2.6909
X4.1732Y-2.7205
X4.1732Y-3.7579
X4.1732Y-3.7874
X4.1732Y-3.8169
X4.1732Y-3.8465
X4.2028Y-2.6319
X4.2028Y-2.6614
X4.2028Y-2.6909
X4.2028Y-2.7205
X4.2028Y-3.7579
X4.2028Y-3.7874
X4.2028Y-3.8169
X4.2028Y-3.8465
X4.2717Y-2.6319
X4.2717Y-2.6614
X4.2717Y-2.6909
X4.2717Y-2.7205
X4.2717Y-3.7579
X4.2717Y-3.7874
X4.2717Y-3.8169
X4.2717Y-3.8465
X4.3012Y-2.6319
X4.3012Y-2.6614
X4.3012Y-2.6909
X4.3012Y-2.7205
X4.3012Y-3.7579
X4.3012Y-3.7874
X4.3012Y-3.8169
X4.3012Y-3.8465
X4.3307Y-2.6319
X4.3307Y-2.6614
X4.3307Y-2.6909
X4.3307Y-2.7205
X4.3307Y-3.7579
X4.3307Y-3.7874
X4.3307Y-3.8169
X4.3307Y-3.8465
X4.3602Y-2.6319
X4.3602Y-2.6614
X4.3602Y-2.6909
X4.3602Y-2.7205
X4.3602Y-3.7579
X4.3602Y-3.7874
X4.3602Y-3.8169
X4.3602Y-3.8465
T2
X3.7106Y-3.2618
X3.752Y-2.9685
X3.7559Y-3.3898
X3.7598Y-3.4409
X3.7598Y-3.4882
X3.7598Y-3.5354
X3.7805Y-3.5778
X3.7864Y-3.0679
X3.7872Y-3.1142
X3.7874Y-2.8701
X3.8504Y-2.9409
X3.8947Y-3.6969
X3.9016Y-3.5157
X3.9075Y-3.5571
X3.9429Y-2.9378
X3.9488Y-3.5452
X3.9695Y-3.189
X3.9724Y-3.2372
X3.9989Y-2.8917
X4.0591Y-3.3886
X4.0722Y-2.9685
X4.0945Y-2.8701
X4.1053Y-3.1211
X4.1073Y-3.0709
X4.1407Y-3.1929
X4.1575Y-2.9409
X4.191Y-3.6023
X4.1963Y-3.4975
X4.25Y-2.9378
X4.2746Y-3.2018
X4.2825Y-3.3858
X4.307Y-2.8917
X4.3371Y-3.5326
X4.3376Y-3.5984
X4.3872Y-2.9685
X4.4213Y-3.0719
X4.4225Y-3.1171
X4.4226Y-2.8701
X4.4419Y-3.3867
X4.4669Y-3.4543
X4.4685Y-3.502
X4.4856Y-2.9409
X4.5565Y-3.185
X4.5781Y-2.9378
X4.625Y-2.8917
T3
X3.7106Y-2.8007
X3.7106Y-2.8504
X3.9488Y-3.3868
X4.0118Y-2.8007
X4.0118Y-2.8504
X4.3376Y-2.7982
X4.3376Y-2.8504
T4
X3.7521Y-3.7198
X3.8228Y-3.7906
X4.4831Y-3.7906
X4.5538Y-3.7198
X4.6004Y-3.4193
X4.6004Y-3.5193
X4.6004Y-3.6193
T0
M30
