%TF.GenerationSoftware,KiCad,Pcbnew,6.0.11-2627ca5db0~126~ubuntu22.04.1*%
%TF.CreationDate,2023-06-16T17:25:29+02:00*%
%TF.ProjectId,asac-esc-rev-a,61736163-2d65-4736-932d-7265762d612e,rev?*%
%TF.SameCoordinates,Original*%
%TF.FileFunction,Soldermask,Bot*%
%TF.FilePolarity,Negative*%
%FSLAX46Y46*%
G04 Gerber Fmt 4.6, Leading zero omitted, Abs format (unit mm)*
G04 Created by KiCad (PCBNEW 6.0.11-2627ca5db0~126~ubuntu22.04.1) date 2023-06-16 17:25:29*
%MOMM*%
%LPD*%
G01*
G04 APERTURE LIST*
G04 Aperture macros list*
%AMRoundRect*
0 Rectangle with rounded corners*
0 $1 Rounding radius*
0 $2 $3 $4 $5 $6 $7 $8 $9 X,Y pos of 4 corners*
0 Add a 4 corners polygon primitive as box body*
4,1,4,$2,$3,$4,$5,$6,$7,$8,$9,$2,$3,0*
0 Add four circle primitives for the rounded corners*
1,1,$1+$1,$2,$3*
1,1,$1+$1,$4,$5*
1,1,$1+$1,$6,$7*
1,1,$1+$1,$8,$9*
0 Add four rect primitives between the rounded corners*
20,1,$1+$1,$2,$3,$4,$5,0*
20,1,$1+$1,$4,$5,$6,$7,0*
20,1,$1+$1,$6,$7,$8,$9,0*
20,1,$1+$1,$8,$9,$2,$3,0*%
%AMRotRect*
0 Rectangle, with rotation*
0 The origin of the aperture is its center*
0 $1 length*
0 $2 width*
0 $3 Rotation angle, in degrees counterclockwise*
0 Add horizontal line*
21,1,$1,$2,0,0,$3*%
G04 Aperture macros list end*
%ADD10R,1.500000X2.000000*%
%ADD11R,3.800000X2.000000*%
%ADD12RotRect,1.700000X1.700000X135.000000*%
%ADD13RotRect,1.700000X1.700000X225.000000*%
%ADD14R,0.750000X0.750000*%
%ADD15R,1.700000X1.700000*%
%ADD16O,1.700000X1.700000*%
%ADD17RoundRect,0.250000X0.250000X0.475000X-0.250000X0.475000X-0.250000X-0.475000X0.250000X-0.475000X0*%
%ADD18RoundRect,0.140000X0.170000X-0.140000X0.170000X0.140000X-0.170000X0.140000X-0.170000X-0.140000X0*%
%ADD19RoundRect,0.135000X-0.135000X-0.185000X0.135000X-0.185000X0.135000X0.185000X-0.135000X0.185000X0*%
%ADD20RoundRect,0.150000X-0.512500X-0.150000X0.512500X-0.150000X0.512500X0.150000X-0.512500X0.150000X0*%
%ADD21RoundRect,0.250000X-1.425000X0.362500X-1.425000X-0.362500X1.425000X-0.362500X1.425000X0.362500X0*%
%ADD22RoundRect,0.250000X0.475000X-0.250000X0.475000X0.250000X-0.475000X0.250000X-0.475000X-0.250000X0*%
%ADD23RoundRect,0.140000X0.140000X0.170000X-0.140000X0.170000X-0.140000X-0.170000X0.140000X-0.170000X0*%
G04 APERTURE END LIST*
D10*
%TO.C,U1*%
X103375000Y-93350000D03*
D11*
X105675000Y-87050000D03*
D10*
X105675000Y-93350000D03*
X107975000Y-93350000D03*
%TD*%
D12*
%TO.C,J4*%
X113870000Y-96280000D03*
X115666051Y-94483949D03*
%TD*%
D13*
%TO.C,J1*%
X95303949Y-94483949D03*
X97100000Y-96280000D03*
%TD*%
D14*
%TO.C,J2*%
X101250000Y-96200000D03*
X101250000Y-95450000D03*
X102750000Y-96200000D03*
X102000000Y-95450000D03*
X102000000Y-96200000D03*
X101250000Y-96950000D03*
X102750000Y-97700000D03*
X100500000Y-96950000D03*
X102000000Y-97700000D03*
X100500000Y-95450000D03*
X100500000Y-97700000D03*
X102750000Y-95450000D03*
X102750000Y-96950000D03*
X102000000Y-96950000D03*
X100500000Y-96200000D03*
X101250000Y-97700000D03*
X106000000Y-97700000D03*
X106750000Y-97700000D03*
X106000000Y-96200000D03*
X106750000Y-96950000D03*
X106000000Y-96950000D03*
X105250000Y-96200000D03*
X105250000Y-96950000D03*
X106000000Y-95450000D03*
X104500000Y-96200000D03*
X104500000Y-96950000D03*
X104500000Y-95450000D03*
X106750000Y-95450000D03*
X104500000Y-97700000D03*
X105250000Y-95450000D03*
X106750000Y-96200000D03*
X105250000Y-97700000D03*
X109250000Y-95450000D03*
X110000000Y-96200000D03*
X109250000Y-96950000D03*
X108500000Y-96950000D03*
X110750000Y-97700000D03*
X108500000Y-95450000D03*
X109250000Y-96200000D03*
X110000000Y-97700000D03*
X108500000Y-97700000D03*
X108500000Y-96200000D03*
X110750000Y-96200000D03*
X110000000Y-96950000D03*
X110750000Y-95450000D03*
X110750000Y-96950000D03*
X110000000Y-95450000D03*
X109250000Y-97700000D03*
%TD*%
D15*
%TO.C,J14*%
X116850000Y-86850000D03*
D16*
X116850000Y-89390000D03*
X116850000Y-91930000D03*
%TD*%
D14*
%TO.C,J3*%
X102750000Y-67600000D03*
X100500000Y-68350000D03*
X102000000Y-67600000D03*
X101250000Y-66850000D03*
X102000000Y-68350000D03*
X102000000Y-66850000D03*
X100500000Y-69100000D03*
X102750000Y-69100000D03*
X102750000Y-68350000D03*
X101250000Y-68350000D03*
X101250000Y-69100000D03*
X102000000Y-69100000D03*
X102750000Y-66850000D03*
X100500000Y-66850000D03*
X100500000Y-67600000D03*
X101250000Y-67600000D03*
X106000000Y-67600000D03*
X105250000Y-69100000D03*
X106000000Y-69100000D03*
X104500000Y-68350000D03*
X106750000Y-67600000D03*
X106000000Y-68350000D03*
X104500000Y-67600000D03*
X104500000Y-66850000D03*
X105250000Y-66850000D03*
X106750000Y-66850000D03*
X106000000Y-66850000D03*
X104500000Y-69100000D03*
X105250000Y-68350000D03*
X106750000Y-68350000D03*
X105250000Y-67600000D03*
X106750000Y-69100000D03*
X108500000Y-69100000D03*
X109250000Y-67600000D03*
X110000000Y-68350000D03*
X110750000Y-67600000D03*
X108500000Y-67600000D03*
X110750000Y-68350000D03*
X109250000Y-69100000D03*
X109250000Y-66850000D03*
X110000000Y-69100000D03*
X110750000Y-66850000D03*
X110750000Y-69100000D03*
X108500000Y-66850000D03*
X108500000Y-68350000D03*
X110000000Y-67600000D03*
X110000000Y-66850000D03*
X109250000Y-68350000D03*
%TD*%
D17*
%TO.C,C3*%
X104375000Y-84600000D03*
X106275000Y-84600000D03*
%TD*%
D18*
%TO.C,C10*%
X112625000Y-77005000D03*
X112625000Y-76045000D03*
%TD*%
D19*
%TO.C,R6*%
X107890000Y-79000000D03*
X108910000Y-79000000D03*
%TD*%
D20*
%TO.C,U5*%
X107987500Y-77725000D03*
X107987500Y-76775000D03*
X107987500Y-75825000D03*
X110262500Y-75825000D03*
X110262500Y-77725000D03*
%TD*%
D21*
%TO.C,R5*%
X105125000Y-76762500D03*
X105125000Y-82687500D03*
%TD*%
D22*
%TO.C,C1*%
X100550000Y-91500000D03*
X100550000Y-93400000D03*
%TD*%
D23*
%TO.C,C11*%
X108880000Y-80100000D03*
X107920000Y-80100000D03*
%TD*%
M02*
