<svg width="96" height="16" viewBox="0 0 96 16" fill="none" xmlns="http://www.w3.org/2000/svg">
<path d="M4 10.4H8.82L6.58 3.38L4 10.4ZM12.42 14.66C12.2067 15.0067 11.8933 15.18 11.48 15.18C11.08 15.18 10.78 15.0933 10.58 14.92C10.38 14.7467 10.2067 14.4333 10.06 13.98L9.24 11.62H3.54L2.7 13.8C2.35333 14.72 1.91333 15.18 1.38 15.18C0.926667 15.18 0.613333 14.9533 0.44 14.5C0.746667 14.38 0.986667 14.0667 1.16 13.56L5.86 1.7C5.71333 1.34 5.54667 1.07333 5.36 0.899999C5.66667 0.633333 5.98 0.5 6.3 0.5C6.63333 0.5 6.88667 0.599999 7.06 0.799999C7.24667 0.999999 7.42 1.32 7.58 1.76L11.66 13.64C11.8467 14.1867 12.1 14.5267 12.42 14.66ZM23.9134 3.22C23.9134 3.59333 23.8068 3.89333 23.5934 4.12C23.3934 4.33333 23.1601 4.44 22.8934 4.44C22.6401 4.44 22.3534 4.38667 22.0334 4.28C22.0868 4.06667 22.1134 3.86 22.1134 3.66C22.1134 3.16667 21.8534 2.71333 21.3334 2.3C20.8268 1.87333 20.1134 1.66 19.1934 1.66C18.2868 1.66 17.5601 1.85333 17.0134 2.24C16.4668 2.62667 16.1934 3.14667 16.1934 3.8C16.1934 4.44 16.4734 5 17.0334 5.48C17.5934 5.94667 18.2734 6.35333 19.0734 6.7C19.8868 7.04667 20.6934 7.4 21.4934 7.76C22.3068 8.12 22.9934 8.58 23.5534 9.14C24.1134 9.68667 24.3934 10.3133 24.3934 11.02C24.3934 12.2067 23.8734 13.2 22.8334 14C21.8068 14.7867 20.5734 15.18 19.1334 15.18C17.6934 15.18 16.5001 14.86 15.5534 14.22C14.6068 13.5667 14.1334 12.7467 14.1334 11.76C14.1334 11.3333 14.2534 10.9867 14.4934 10.72C14.7334 10.44 15.0534 10.3 15.4534 10.3C15.8534 10.3 16.1668 10.46 16.3934 10.78C16.0868 11.06 15.9334 11.4533 15.9334 11.96C15.9334 12.4667 16.2134 12.92 16.7734 13.32C17.3334 13.72 18.1001 13.92 19.0734 13.92C20.0601 13.92 20.9134 13.6667 21.6334 13.16C22.3534 12.6533 22.7134 12.0333 22.7134 11.3C22.7134 10.8333 22.5068 10.4067 22.0934 10.02C21.6934 9.63333 21.1868 9.31333 20.5734 9.06C19.9734 8.80667 19.3201 8.52 18.6134 8.2C17.9068 7.88 17.2468 7.56 16.6334 7.24C16.0334 6.92 15.5268 6.49333 15.1134 5.96C14.7134 5.41333 14.5134 4.80667 14.5134 4.14C14.5134 3.06 14.9868 2.17333 15.9334 1.48C16.8934 0.773333 18.0334 0.419999 19.3534 0.419999C20.6734 0.419999 21.7601 0.693333 22.6134 1.24C23.4801 1.78667 23.9134 2.44667 23.9134 3.22ZM29.6445 10.4H34.4645L32.2245 3.38L29.6445 10.4ZM38.0645 14.66C37.8512 15.0067 37.5379 15.18 37.1245 15.18C36.7245 15.18 36.4245 15.0933 36.2245 14.92C36.0245 14.7467 35.8512 14.4333 35.7045 13.98L34.8845 11.62H29.1845L28.3445 13.8C27.9979 14.72 27.5579 15.18 27.0245 15.18C26.5712 15.18 26.2579 14.9533 26.0845 14.5C26.3912 14.38 26.6312 14.0667 26.8045 13.56L31.5045 1.7C31.3579 1.34 31.1912 1.07333 31.0045 0.899999C31.3112 0.633333 31.6245 0.5 31.9445 0.5C32.2779 0.5 32.5312 0.599999 32.7045 0.799999C32.8912 0.999999 33.0645 1.32 33.2245 1.76L37.3045 13.64C37.4912 14.1867 37.7445 14.5267 38.0645 14.66ZM50.518 2.9C50.518 3.23333 50.4113 3.49333 50.198 3.68C49.9846 3.86667 49.718 3.96 49.398 3.96C49.0913 3.96 48.8513 3.91333 48.678 3.82C48.6913 3.72667 48.698 3.64 48.698 3.56C48.698 3.10667 48.4913 2.7 48.078 2.34C47.6646 1.98 47.018 1.8 46.138 1.8C44.9113 1.8 43.838 2.32667 42.918 3.38C42.0113 4.42 41.558 5.88667 41.558 7.78C41.558 9.67333 41.9713 11.1267 42.798 12.14C43.6246 13.14 44.778 13.64 46.258 13.64C47.0446 13.64 47.778 13.48 48.458 13.16C49.138 12.84 49.698 12.46 50.138 12.02C50.2313 12.0333 50.318 12.1 50.398 12.22C50.4913 12.3267 50.538 12.4733 50.538 12.66C50.538 13.1533 50.0646 13.7 49.118 14.3C48.1846 14.8867 47.078 15.18 45.798 15.18C44.0246 15.18 42.5646 14.54 41.418 13.26C40.2846 11.98 39.718 10.2333 39.718 8.02C39.718 5.80667 40.3646 4 41.658 2.6C42.9513 1.2 44.558 0.5 46.478 0.5C47.6246 0.5 48.5846 0.733333 49.358 1.2C50.1313 1.66667 50.518 2.23333 50.518 2.9ZM62.6823 13.66H66.7223C67.4823 13.66 68.049 13.38 68.4223 12.82C68.5957 12.8867 68.7357 13.0067 68.8423 13.18C68.949 13.34 69.0023 13.5067 69.0023 13.68C69.0023 14.56 68.269 15 66.8023 15H62.6023C61.5757 15 60.8157 14.7933 60.3223 14.38C59.829 13.9667 59.5823 13.2933 59.5823 12.36V2.18C59.5823 1.78 59.4157 1.51333 59.0823 1.38C59.4023 0.9 59.9357 0.66 60.6823 0.66H67.0023C68.3357 0.66 69.0023 1.00667 69.0023 1.7C69.0023 2.11333 68.809 2.38667 68.4223 2.52C68.049 2.18667 67.4823 2.02 66.7223 2.02H61.2623V6.9H65.4823C66.2157 6.9 66.7357 6.96 67.0423 7.08C67.349 7.2 67.5023 7.43333 67.5023 7.78C67.5023 8.12667 67.3423 8.38 67.0223 8.54C66.6623 8.35333 66.0957 8.26 65.3223 8.26H61.2623V12.3C61.2623 12.78 61.369 13.1267 61.5823 13.34C61.809 13.5533 62.1757 13.66 62.6823 13.66ZM81.3353 3.22C81.3353 3.59333 81.2286 3.89333 81.0153 4.12C80.8153 4.33333 80.582 4.44 80.3153 4.44C80.062 4.44 79.7753 4.38667 79.4553 4.28C79.5086 4.06667 79.5353 3.86 79.5353 3.66C79.5353 3.16667 79.2753 2.71333 78.7553 2.3C78.2486 1.87333 77.5353 1.66 76.6153 1.66C75.7086 1.66 74.982 1.85333 74.4353 2.24C73.8886 2.62667 73.6153 3.14667 73.6153 3.8C73.6153 4.44 73.8953 5 74.4553 5.48C75.0153 5.94667 75.6953 6.35333 76.4953 6.7C77.3086 7.04667 78.1153 7.4 78.9153 7.76C79.7286 8.12 80.4153 8.58 80.9753 9.14C81.5353 9.68667 81.8153 10.3133 81.8153 11.02C81.8153 12.2067 81.2953 13.2 80.2553 14C79.2286 14.7867 77.9953 15.18 76.5553 15.18C75.1153 15.18 73.922 14.86 72.9753 14.22C72.0286 13.5667 71.5553 12.7467 71.5553 11.76C71.5553 11.3333 71.6753 10.9867 71.9153 10.72C72.1553 10.44 72.4753 10.3 72.8753 10.3C73.2753 10.3 73.5886 10.46 73.8153 10.78C73.5086 11.06 73.3553 11.4533 73.3553 11.96C73.3553 12.4667 73.6353 12.92 74.1953 13.32C74.7553 13.72 75.522 13.92 76.4953 13.92C77.482 13.92 78.3353 13.6667 79.0553 13.16C79.7753 12.6533 80.1353 12.0333 80.1353 11.3C80.1353 10.8333 79.9286 10.4067 79.5153 10.02C79.1153 9.63333 78.6086 9.31333 77.9953 9.06C77.3953 8.80667 76.742 8.52 76.0353 8.2C75.3286 7.88 74.6686 7.56 74.0553 7.24C73.4553 6.92 72.9486 6.49333 72.5353 5.96C72.1353 5.41333 71.9353 4.80667 71.9353 4.14C71.9353 3.06 72.4086 2.17333 73.3553 1.48C74.3153 0.773333 75.4553 0.419999 76.7753 0.419999C78.0953 0.419999 79.182 0.693333 80.0353 1.24C80.902 1.78667 81.3353 2.44667 81.3353 3.22ZM95.1664 2.9C95.1664 3.23333 95.0597 3.49333 94.8464 3.68C94.6331 3.86667 94.3664 3.96 94.0464 3.96C93.7397 3.96 93.4997 3.91333 93.3264 3.82C93.3397 3.72667 93.3464 3.64 93.3464 3.56C93.3464 3.10667 93.1397 2.7 92.7264 2.34C92.3131 1.98 91.6664 1.8 90.7864 1.8C89.5597 1.8 88.4864 2.32667 87.5664 3.38C86.6597 4.42 86.2064 5.88667 86.2064 7.78C86.2064 9.67333 86.6197 11.1267 87.4464 12.14C88.2731 13.14 89.4264 13.64 90.9064 13.64C91.6931 13.64 92.4264 13.48 93.1064 13.16C93.7864 12.84 94.3464 12.46 94.7864 12.02C94.8797 12.0333 94.9664 12.1 95.0464 12.22C95.1397 12.3267 95.1864 12.4733 95.1864 12.66C95.1864 13.1533 94.7131 13.7 93.7664 14.3C92.8331 14.8867 91.7264 15.18 90.4464 15.18C88.6731 15.18 87.2131 14.54 86.0664 13.26C84.9331 11.98 84.3664 10.2333 84.3664 8.02C84.3664 5.80667 85.0131 4 86.3064 2.6C87.5997 1.2 89.2064 0.5 91.1264 0.5C92.2731 0.5 93.2331 0.733333 94.0064 1.2C94.7797 1.66667 95.1664 2.23333 95.1664 2.9Z" fill="black"/>
</svg>
