<svg width="65" height="64" viewBox="0 0 65 64" fill="none" xmlns="http://www.w3.org/2000/svg">
<path d="M19.0463 43.125C16.5463 43.625 1.04631 50.625 2.04631 52.625C3.04631 54.625 12.0463 62.625 14.5463 61.625C17.0463 60.625 27.5463 53.625 27.5463 50.625C27.5463 47.625 26.5463 48.625 24.0463 46.125C21.5463 43.625 21.5463 42.625 19.0463 43.125Z" stroke="black" stroke-width="3"/>
<path d="M24 46L31.5 41M31.5 41C31.1 41 26.5 39 22 44M31.5 41C31.5 41 35.5 41 33 43.5C30.5 46 26.5 48 26.5 48" stroke="black"/>
<line x1="13.8778" y1="19.0688" x2="59.0688" y2="2.12219" stroke="black" stroke-width="3" stroke-linecap="round"/>
<line x1="14.9293" y1="2.11804" x2="63.118" y2="20.0707" stroke="black" stroke-width="3" stroke-linecap="round"/>
<path d="M10.5345 29C10.5345 29 7.67329 36.1628 8.03094 36.4884C8.38858 36.814 11.6074 34.8605 11.965 35.5116C12.3227 36.1628 9.81916 43 9.81916 43" stroke="black"/>
<path d="M17.5 40C17.5 40 19 37 19 36.5C19 36 16.5 34.5 16.5 33.5C16.5 32.5 18.5 31 18.5 29.5C18.5 28 18 25.5 18 25.5" stroke="black"/>
<path d="M4 46C3.5 45.1667 0.580423 44.5706 1.00007 42.5C1.41971 40.4294 4.00007 38 2.50007 35" stroke="black"/>
<path d="M15 55L12 52L13.1667 51L14.6254 49.7496L15.5 49L18.5 52.2L17.5885 52.9292L16 54.2L15 55Z" fill="black"/>
<path d="M14.6254 49.7496L15.5 49L18.5 52.2L17.5885 52.9292M14.6254 49.7496L13.5 48.5M14.6254 49.7496L13.1667 51M13.1667 51L12 52L15 55L16 54.2M13.1667 51L12 50M17.5885 52.9292L18.5 54M17.5885 52.9292L16 54.2M16 54.2L17 55.5" stroke="black"/>
<path d="M49.5 24C49.5 24.3212 49.3545 24.7526 48.8322 25.2818C48.3035 25.8175 47.4642 26.3687 46.3086 26.8639C44.0028 27.8521 40.7127 28.5 37 28.5C33.2873 28.5 29.9972 27.8521 27.6914 26.8639C26.5358 26.3687 25.6965 25.8175 25.1678 25.2818C24.6455 24.7526 24.5 24.3212 24.5 24C24.5 23.6788 24.6455 23.2474 25.1678 22.7182C25.6965 22.1825 26.5358 21.6313 27.6914 21.1361C29.9972 20.1479 33.2873 19.5 37 19.5C40.7127 19.5 44.0028 20.1479 46.3086 21.1361C47.4642 21.6313 48.3035 22.1825 48.8322 22.7182C49.3545 23.2474 49.5 23.6788 49.5 24Z" stroke="black" stroke-width="3"/>
<path d="M49.5 37C49.5 37.3212 49.3545 37.7526 48.8322 38.2818C48.3035 38.8175 47.4642 39.3687 46.3086 39.8639C44.0028 40.8521 40.7127 41.5 37 41.5C33.2873 41.5 29.9972 40.8521 27.6914 39.8639C26.5358 39.3687 25.6965 38.8175 25.1678 38.2818C24.6455 37.7526 24.5 37.3212 24.5 37C24.5 36.6788 24.6455 36.2474 25.1678 35.7182C25.6965 35.1825 26.5358 34.6313 27.6914 34.1361C29.9972 33.1479 33.2873 32.5 37 32.5C40.7127 32.5 44.0028 33.1479 46.3086 34.1361C47.4642 34.6313 48.3035 35.1825 48.8322 35.7182C49.3545 36.2474 49.5 36.6788 49.5 37Z" stroke="black" stroke-width="3"/>
<line x1="24.5" y1="24" x2="24.5" y2="38" stroke="black" stroke-width="3"/>
<line x1="49.5" y1="24" x2="49.5" y2="38" stroke="black" stroke-width="3"/>
<path d="M36 24C36 24.5523 36.4477 25 37 25C37.5523 25 38 24.5523 38 24H36ZM38 24V11H36V24H38Z" fill="black"/>
</svg>
